<?xml version="1.0" encoding="UTF-8"?>
<svg width="282px" height="165px" viewBox="0 0 282 165" version="1.1" xmlns="http://www.w3.org/2000/svg" xmlns:xlink="http://www.w3.org/1999/xlink">
    <title>546F3E9F-E1F5-442B-8851-5052C991699A</title>
    <g id="Login-&amp;-Password" stroke="none" stroke-width="1" fill="none" fill-rule="evenodd">
        <g id="HD8---Login---Account-Locked" transform="translate(-579.000000, -218.000000)">
            <g id="Group" transform="translate(536.000000, 142.000000)">
                <g id="Group-2" transform="translate(4.000000, 64.259480)">
                    <g id="Non-Individual-/-Generic-/-1-Small-/-Account-locked" transform="translate(40.000000, 13.229149)">
                        <line x1="173.5" y1="154.273664" x2="280" y2="154.273664" id="Border" stroke="#001F4E" stroke-linecap="round" stroke-linejoin="round"></line>
                        <line x1="0" y1="154.273664" x2="99" y2="154.273664" id="Border" stroke="#001F4E" stroke-linecap="round" stroke-linejoin="round"></line>
                        <g id="strongbox" transform="translate(106.607499, 74.272831)">
                            <path d="M95.2397649,0.000833055607 L30.7643829,0.000833055607 C30.6699309,0.000833055607 30.5774106,0.0275862498 30.4975348,0.0779949482 L0.233961323,19.1769797 C-0.189895746,19.4444709 -8.40139842e-05,20.0998178 0.500809472,20.0998178 L66.2368501,20.0998178 C66.3345985,20.0998178 66.4302031,20.0711663 66.5118404,20.0174065 L95.5147552,0.918421766 C95.9291441,0.645538599 95.7359336,0.000833055607 95.2397649,0.000833055607 Z" id="Fill" fill="#CCD9F5" fill-rule="nonzero"></path>
                            <path d="M94.9647746,0.0832443448 L65.9618598,19.1822291 C65.8213997,19.2747248 65.7368501,19.4316379 65.7368501,19.5998178 L65.7368501,88.0008331 C65.7368501,88.3988996 66.1793842,88.6373507 66.5118404,88.4184218 L95.5147552,69.319437 C95.6552152,69.2269413 95.7397649,69.0700282 95.7397649,68.9018483 L95.7397649,0.500833056 C95.7397649,0.102766462 95.2972308,-0.135684564 94.9647746,0.0832443448 Z" id="Fill" fill="#3369D7" fill-rule="nonzero"></path>
                            <rect id="Border" stroke="#001F4E" stroke-linecap="round" stroke-linejoin="round" x="0.500809472" y="19.5998178" width="65.7360406" height="68.4010152"></rect>
                            <rect id="Border" stroke="#001F4E" stroke-linecap="round" stroke-linejoin="round" x="5.5948038" y="24.9003254" width="55.5480519" height="57.8"></rect>
                            <rect id="Fill" fill="#FFFFFF" x="3.80580185" y="32.9133638" width="3.71140362" height="13.4759484"></rect>
                            <rect id="Fill" fill="#FFFFFF" x="3.80580185" y="61.2173325" width="3.71140362" height="13.4759484"></rect>
                            <rect id="Border" stroke="#001F4E" stroke-linejoin="round" x="3.80580185" y="32.9133638" width="3.71140362" height="13.4759484"></rect>
                            <rect id="Border" stroke="#001F4E" stroke-linejoin="round" x="3.80580185" y="61.2173325" width="3.71140362" height="13.4759484"></rect>
                            <path d="M35.5436389,64.3086214 C39.0592357,63.3962524 41.655068,60.2015265 41.655068,56.4005116 C41.655068,51.8885918 37.9974343,48.2309581 33.4855145,48.2309581 C28.9735947,48.2309581 25.315961,51.8885918 25.315961,56.4005116 C25.315961,57.292658 25.4589655,58.1514039 25.7233024,58.9550772 C26.0141169,59.8392513 26.4517879,60.6567675 27.0074569,61.3787671 C27.623534,62.1792569 28.3846591,62.8623336 29.2515016,63.3886663 C29.833566,63.7420864 30.4632964,64.0248336 31.128785,64.2250004" id="Border" stroke="#001F4E" stroke-linecap="round" stroke-linejoin="round" transform="translate(33.485514, 56.269790) rotate(-195.000000) translate(-33.485514, -56.269790) "></path>
                            <circle id="Border" stroke="#001F4E" stroke-linecap="round" stroke-linejoin="round" cx="33.4516812" cy="56.1435221" r="3.79376814"></circle>
                            <line x1="40.8245706" y1="59.9372903" x2="52.3550081" y2="64.863572" id="Border" stroke="#001F4E" stroke-linecap="round" stroke-linejoin="round"></line>
                            <line x1="14.3826514" y1="59.9372903" x2="25.913089" y2="64.863572" id="Border" stroke="#001F4E" stroke-linecap="round" stroke-linejoin="round" transform="translate(20.147870, 62.400431) scale(1, -1) translate(-20.147870, -62.400431) "></line>
                            <line x1="33.4810465" y1="47.9739687" x2="33.4516812" y2="35.4352933" id="Border" stroke="#001F4E" stroke-linecap="round" stroke-linejoin="round"></line>
                        </g>
                        <g id="saw" transform="translate(120.911284, 55.099697) rotate(24.000000) translate(-120.911284, -55.099697) translate(61.300975, 21.325790)">
                            <polygon id="Fill" fill="#FFFFFF" transform="translate(110.681878, 14.764527) rotate(-81.000000) translate(-110.681878, -14.764527) " points="96.9172709 18.1393955 97.0042896 18.1393955 99.6382736 21.1924949 102.272258 18.1393955 102.359276 18.1393955 104.99326 21.1924949 107.627244 18.1393955 107.714263 18.1393955 110.348247 21.1924949 112.982231 18.1393955 113.069249 18.1393955 115.703233 21.1924949 118.337217 18.1393955 118.424236 18.1393955 121.05822 21.1924949 123.692204 18.1393955 124.612356 14.7053561 100.84358 8.33655815 96.7513998 11.3905004 99.750081 14.2320498"></polygon>
                            <polyline id="Border" stroke="#001F4E" stroke-linecap="round" stroke-linejoin="round" transform="translate(110.522789, 14.766466) rotate(-80.000000) translate(-110.522789, -14.766466) " points="99.6338957 10.8754522 96.6752467 18.1036789 99.3962493 21.1567784 102.030233 18.1036789 102.117252 18.1036789 104.751236 21.1567784 107.38522 18.1036789 107.472239 18.1036789 110.106223 21.1567784 112.740207 18.1036789 112.827225 18.1036789 115.461209 21.1567784 118.095193 18.1036789 118.182212 18.1036789 120.816196 21.1567784 123.45018 18.1036789 124.370332 14.6696395 100.882623 8.37615295"></polyline>
                            <polygon id="Fill" fill="#FFFFFF" transform="translate(56.655404, 46.212061) rotate(-15.000000) translate(-56.655404, -46.212061) " points="23.3070701 53.3669485 22.5708794 56.1144382 25.2048634 59.1675376 27.8388474 56.1144382 30.4728314 59.1675376 33.1068153 56.1144382 33.193834 56.1144382 35.827818 59.1675376 38.461802 56.1144382 38.5488206 56.1144382 41.1828046 59.1675376 43.8167886 56.1144382 43.9038072 56.1144382 46.5377912 59.1675376 49.1717752 56.1144382 49.2587939 56.1144382 51.8927778 59.1675376 54.5267618 56.1144382 54.6137805 56.1144382 57.2477645 59.1675376 59.8817484 56.1144382 59.9687671 56.1144382 62.6027511 59.1675376 65.2367351 56.1144382 65.3237537 56.1144382 67.9577377 59.1675376 70.5917217 56.1144382 70.6787403 56.1144382 73.3127243 59.1675376 75.9467083 56.1144382 76.033727 56.1144382 78.6677109 59.1675376 81.3016949 56.1144382 81.3887136 56.1144382 84.0226975 59.1675376 86.6566815 56.1144382 86.7437002 56.1144382 88.1790919 52.2346032 89.6540208 48.7518017 90.7399279 46.3536518 41.8608038 33.2565841 40.0641624 46.378112 26.8686761 54.2979575"></polygon>
                            <path d="M14.6021429,36.1239142 L38.8329811,36.1239142 L39.0137336,37.5526707 L40.443705,51.675157 L29.9767677,61.7317161 L6.39801652,61.7317161 C5.75670483,61.566003 5.51397471,61.0903635 5.66982615,60.3047976 C5.76546226,59.8227457 6.16714599,59.5175428 6.65888777,59.228738 L7.34894914,58.8392962 C7.87807789,58.5333736 8.4012693,58.1725376 8.70253378,57.5963377 C8.96554245,57.093306 9.18081074,56.3039448 9.38223773,55.3476789 L9.50170417,54.7548462 L9.67823465,53.8030296 L10.0418226,51.7450918 L10.2398634,50.6776642 L10.3816369,49.9649386 L10.5331057,49.2580149 C10.613169,48.8996453 10.6993186,48.5315145 10.7887898,48.158387 L11.5114702,45.2052509 L11.6464054,44.6340399 L11.831319,43.8096276 L11.9394205,43.2876794 C11.9562584,43.2028205 11.9724734,43.1190854 11.9880152,43.0365608 L12.0727864,42.5566308 C12.0854347,42.4792941 12.0973094,42.4033408 12.1083603,42.3288577 L12.1643785,41.9002911 C12.2248175,41.3542356 12.2261066,40.913338 12.1425388,40.6219023 L12.0036068,40.1287136 L11.9140937,39.7850571 C11.6422819,38.6845203 11.5104057,37.4920537 12.3533728,36.9155427 L12.4943876,36.8237394 C12.5523694,36.7875116 12.6207128,36.7464122 12.6975723,36.7027068 L12.9518536,36.5660379 C13.4120844,36.3327781 14.0390789,36.0910059 14.6021429,36.1239142 Z M27.7283047,40.4124212 L25.1877066,40.5260126 L25.7387891,42.4478658 L25.0285913,44.1553233 L24.5384182,45.361519 L24.2318625,46.1302221 L23.8023684,47.2301357 L23.4092818,48.2662802 L23.0526025,49.2386553 L22.7323306,50.1472613 L22.4484662,50.9920981 L22.2794496,51.5198952 L22.126614,52.0193505 L21.9899596,52.4904639 L21.8694861,52.9332354 L21.7651938,53.347665 L21.6770825,53.7337528 L21.6051523,54.0914987 L21.5494032,54.4209027 C21.533517,54.5259804 21.5203276,54.6263344 21.5098351,54.7219648 L21.4864481,54.994685 C21.4635034,55.382509 21.4999854,55.668794 21.5814474,55.8711954 C22.1251314,57.2220384 23.830447,57.7799747 24.8250275,57.5229382 C25.4880811,57.3515805 26.1514508,56.9684753 26.8151366,56.3736225 L31.6143183,50.523474 L31.7334583,41.3763871 L29.8166944,40.3122061 L27.7283047,40.4124212 Z" id="Fill" fill="#001F4E"></path>
                            <path d="M22.8292667,62.4028259 L3.4952376,57.187224 C2.91866778,56.8611738 2.80731304,56.3389182 3.1611734,55.6204571 C3.69196393,54.5427654 5.71567007,54.9591033 6.79154502,53.7892082 C7.86741998,52.6193132 9.16276677,49.1842134 10.7178584,46.2087938 C12.2729501,43.2333742 14.5306472,39.6014763 14.5076419,38.2835015 C14.4846366,36.9655267 14.4535717,35.185821 15.6705683,34.7580009 C15.9943654,34.644174 17.1910247,34.2913412 18.047602,34.575371 L41.4527944,40.8467734 L41.2575985,42.2736284" id="Border" stroke="#001F4E" stroke-linecap="round" stroke-linejoin="round" transform="translate(22.206049, 48.435073) rotate(-15.000000) translate(-22.206049, -48.435073) "></path>
                            <polyline id="Border" stroke="#001F4E" stroke-linecap="round" stroke-linejoin="round" transform="translate(56.488296, 46.256837) rotate(-15.000000) translate(-56.488296, -46.256837) " points="90.3998178 46.2049343 41.8666987 33.3013605 39.5880469 47.3378864 26.8749327 54.3427339 23.312965 53.4117249 22.5767744 56.1592145 25.2107583 59.212314 27.8447423 56.1592145 30.4787263 59.212314 33.1127103 56.1592145 33.1997289 56.1592145 35.8337129 59.212314 38.4676969 56.1592145 38.5547155 56.1592145 41.1886995 59.212314 43.8226835 56.1592145 43.9097022 56.1592145 46.5436861 59.212314 49.1776701 56.1592145 49.2646888 56.1592145 51.8986728 59.212314 54.5326567 56.1592145 54.6196754 56.1592145 57.2536594 59.212314 59.8876434 56.1592145 59.974662 56.1592145 62.608646 59.212314 65.24263 56.1592145 65.3296486 56.1592145 67.9636326 59.212314 70.5976166 56.1592145 70.6846353 56.1592145 73.3186192 59.212314 75.9526032 56.1592145 76.0396219 56.1592145 78.6736058 59.212314 81.3075898 56.1592145 81.3946085 56.1592145 84.0285925 59.212314 86.6771662 56.086495 89.6599158 48.796578"></polyline>
                            <path d="M21.681793,55.7882052 C21.864913,56.6775219 22.5405979,57.2217669 23.7088477,57.4209402 C24.8770975,57.6201136 26.0122814,57.1146971 27.1143994,55.9046909 L31.6361743,50.5926835 L31.6361743,42.2554423 C31.7006639,40.9797638 31.0941706,40.3320184 29.8166944,40.3122061 C29.4245746,40.3061248 27.7539105,40.2886107 24.8047022,40.2596637" id="Border" stroke="#001F4E" stroke-linecap="round" stroke-linejoin="round"></path>
                        </g>
                        <g id="hand" transform="translate(56.735883, 43.931032) rotate(8.000000) translate(-56.735883, -43.931032) translate(24.969578, 31.043449)">
                            <path d="M2.70086658,4.93827201e-13 C16.9972609,1.83852195 32.2743337,5.22358765 44.981971,11.3591023 C45.1226331,11.427017 45.4331408,11.4237518 45.8545702,11.3854355 L46.2415855,11.3448516 L46.2415855,11.3448516 L46.6746839,11.2921558 L46.6746839,11.2921558 L47.6461462,11.1706519 L47.6461462,11.1706519 L48.1680183,11.1119556 L48.1680183,11.1119556 L48.7029898,11.061371 C49.9601257,10.9567363 51.2568984,10.9596368 52.1219164,11.3591023 C52.3109585,11.446402 52.5180766,11.5356193 52.7371501,11.6280284 L53.4241159,11.9161059 C54.0162745,12.1662739 54.6448991,12.4443555 55.2143524,12.7702612 C54.3607966,11.9092629 53.6853752,10.9539811 53.883031,10.1219366 C54.219532,8.7054149 55.4654954,8.69570769 56.779063,9.12732718 L57.0951862,9.238895 L57.0951862,9.238895 L57.4113192,9.36444379 C57.4638652,9.38636889 57.5163038,9.40875295 57.5685812,9.43153418 L57.8798798,9.5724932 C57.9312968,9.59661593 57.9824448,9.62101224 58.0332699,9.64562035 L58.3339152,9.79531616 L58.3339152,9.79531616 L58.764697,10.0229025 L58.764697,10.0229025 L59.4072852,10.3856102 L59.4072852,10.3856102 L59.7333853,10.5769602 L59.7333853,10.5769602 L60.1353784,10.8203594 L60.1353784,10.8203594 L60.5371145,11.0759828 L60.5371145,11.0759828 L60.931932,11.3401608 C62.0344888,12.0973183 62.973519,12.9132997 63.0671918,13.4125126 C63.1438181,13.820879 63.0386256,14.0865944 62.8850928,14.3534668 L62.6715641,14.7085461 C62.5254634,14.9607843 62.3858756,15.2591532 62.3368572,15.6942142 C62.2950956,16.0648679 62.4574954,16.4816714 62.6638569,16.9120943 L62.9407924,17.470439 C63.2473905,18.09347 63.5035903,18.7158432 63.2423376,19.2427175 C63.1024482,19.5248356 62.7345375,19.5947575 62.340362,19.6384874 L62.0007707,19.6738941 C61.6080566,19.7178411 61.2467223,19.78874 61.1185241,20.0725948 C61.0194911,20.2918726 61.0297071,20.5283967 61.06869,20.7661336 L61.1386792,21.1216442 C61.1982156,21.4153207 61.2398237,21.6983656 61.1063116,21.9394631 C60.8508685,22.400745 60.4065214,22.6856772 59.9710221,22.9143924 L59.4315362,23.1869346 C59.2637103,23.2737607 59.1130759,23.3597179 58.9951996,23.4542625 C58.8211585,23.5938549 58.7691321,23.7830214 58.739994,23.9612116 L58.7096706,24.1658962 C58.6883205,24.2936732 58.6562427,24.3989245 58.5626843,24.4506485 C56.7379958,25.4594325 55.3048451,25.6991508 53.935606,25.5904246 C53.7454339,25.5753237 53.5134354,25.5336335 53.2562548,25.4692305 L52.9366158,25.3812927 C51.3435684,24.9059648 49.1273543,23.7187387 49.5354382,22.5759647 C49.8731629,21.6302207 51.5347566,21.3579263 54.5202194,21.7590814 C51.625656,20.8854169 50.1783743,19.6587979 50.1783743,18.0792246 C50.1783743,16.9256181 51.2181107,16.7019827 53.2975836,17.4083183 L53.5946538,17.5101816 L53.5946538,17.5101816 L52.9772718,17.2144431 L52.9772718,17.2144431 L52.5947631,17.0156014 L52.5947631,17.0156014 L52.3164326,16.8606195 C52.2691026,16.8334237 52.2214244,16.8055711 52.1735822,16.7771004 L51.8860319,16.5991694 C51.360644,16.2605024 50.8599332,15.8564333 50.6288284,15.4385834 C50.4604998,15.3870691 50.2964,15.3493164 50.1381153,15.3271016 C48.6703842,15.1211102 47.1001788,15.4696879 45.4274991,16.3728348 L2.70086658,4.93827201e-13 Z" id="Fill" fill="#FFFFFF"></path>
                            <path d="M0,10.6512258 C13.0346163,12.2775503 28.3957412,15.8699161 42.4770273,21.7440418" id="Border" stroke="#001F4E" stroke-linecap="round" stroke-linejoin="round"></path>
                            <path d="M52.0677558,25.2427826 C52.5314942,25.4616885 52.9662802,25.6025599 53.270245,25.6342481 C54.3886623,25.7508427 56.5155317,26.0842499 58.0059677,25.0024611 C58.9995916,24.2812685 58.7187478,23.4777504 57.1634361,22.5919066" id="Border" stroke="#001F4E" stroke-linecap="round" stroke-linejoin="round"></path>
                            <path d="M54.6897627,17.2460767 C51.8551323,16.4469087 50.0027343,16.9482554 50.0027343,18.0835969 C50.0027343,19.8687333 53.1192076,21.5479758 59.3521543,23.1213244 C60.3919693,22.9045268 60.9118768,22.334255 60.9118768,21.4105089 C60.9118768,20.0248897 56.3121193,17.703468 54.6897627,17.2460767 Z" id="Border" stroke="#001F4E" stroke-linecap="round" stroke-linejoin="round"></path>
                            <path d="M59.9433573,19.9885126 C61.8184806,20.1037928 62.9541833,19.6953072 63.3504655,18.7630559 C63.9448888,17.3646788 62.9503626,16.7842591 62.2877847,16.2255122 C62.1459264,16.1058841 61.0812394,15.580834 59.5813407,15.197655 C58.3990042,14.8956035 57.593036,14.6757551 57.1634361,14.5381097" id="Border" stroke="#001F4E" stroke-linecap="round" stroke-linejoin="round"></path>
                            <path d="M58.9907908,15.0270864 C59.9902179,15.317289 61.1402711,15.5964089 61.3372718,15.6165316 C61.988745,15.6830766 62.8717632,15.4372767 63.1737911,14.4808126 C63.4906463,13.4773935 62.6354047,12.6657018 62.1124916,12.1449915 C61.5708022,11.6055839 59.616136,10.2458824 58.1431937,9.68139975 C56.6702514,9.1169171 54.8361431,8.55202355 54.194486,9.36222822 C53.7667146,9.90236466 53.915634,10.8790209 54.641244,12.2921969" id="Border" stroke="#001F4E" stroke-linecap="round" stroke-linejoin="round"></path>
                            <path d="M2.70086658,0 C16.9972609,1.83852195 32.2743337,5.22358765 44.981971,11.3591023 C45.6450923,11.6792713 50.0829454,10.417505 52.1219164,11.3591023 C54.1608875,12.3006997 58.3027215,13.4653805 56.8673456,16.4520437 C55.6663159,18.9510903 52.3397119,15.6360887 50.1381153,15.3271016 C48.6703842,15.1211102 47.1001788,15.4696879 45.4274991,16.3728348" id="Border" stroke="#001F4E" stroke-linecap="round" stroke-linejoin="round"></path>
                            <path d="M53.5528289,21.3900207 C51.2706671,21.2914747 50.0223546,21.5553888 49.8078913,22.181763 C49.4861963,23.1213244 50.0027343,23.6536346 50.2554955,23.975839 C50.4240029,24.190642 51.0280897,24.6129565 52.0677558,25.2427826" id="Border" stroke="#001F4E" stroke-linecap="round" stroke-linejoin="round"></path>
                        </g>
                        <g id="Sparks" transform="translate(151.392390, 50.538892) rotate(-93.000000) translate(-151.392390, -50.538892) translate(141.990182, 38.368111)" stroke="#DC143D" stroke-linecap="round" stroke-linejoin="round">
                            <line x1="0" y1="6.60938455" x2="4.16125413" y2="0" id="Border"></line>
                            <line x1="4.30441654" y1="12.074421" x2="18.3044165" y2="10.074421" id="Border"></line>
                            <line x1="2.78179118" y1="18.7411283" x2="11.3044165" y2="24.3415619" id="Border"></line>
                        </g>
                    </g>
                </g>
            </g>
        </g>
    </g>
</svg>