<?xml version="1.0" encoding="UTF-8"?>
<svg width="360px" height="280px" viewBox="0 0 360 280" version="1.1" xmlns="http://www.w3.org/2000/svg" xmlns:xlink="http://www.w3.org/1999/xlink">
    <title>BCCF47B4-C06B-4C0A-A546-959018D5ACCF@2x</title>
    <g id="Downloadable-assets" stroke="none" stroke-width="1" fill="none" fill-rule="evenodd">
        <g transform="translate(-64.000000, -764.000000)" id="Approve_Illustration">
            <g transform="translate(64.000000, 764.000000)">
                <g id="3---Illustrations/Checking-stats/mauritius-checking-stats">
                    <rect id="Rectangle" fill-opacity="0" fill="#FFFFFF" x="0" y="0" width="360" height="280"></rect>
                    <g id="Baseline" transform="translate(54.539738, 233.085933)" stroke="#2E3031" stroke-linecap="round" stroke-linejoin="round">
                        <line x1="239.47604" y1="1.71698113" x2="258.770537" y2="1.71698113" id="Border"></line>
                        <line x1="0.960261538" y1="1.41406729" x2="234.380166" y2="1.71698113" id="Border"></line>
                    </g>
                    <g id="Mobile-phone" transform="translate(133.000000, 43.000000)">
                        <g id="Mobile-phone">
                            <path d="M0,157.112694 L0,8 C-5.41083001e-16,3.581722 3.581722,8.11624501e-16 8,0 L94,0 C98.418278,-1.69980292e-15 102,3.581722 102,8 L102,186 C102,190.418278 98.418278,194 94,194 L8,194 C3.581722,194 5.41083001e-16,190.418278 0,186" id="Rectangle" stroke="#2E3031" fill="#FFFFFF" stroke-linecap="round"></path>
                            <path d="M5.02816901,153.264249 L5.02816901,22.4929577 C5.02816901,21.3883882 5.92359951,20.4929577 7.02816901,20.4929577 L94.971831,20.4929577 C96.0764005,20.4929577 96.971831,21.3883882 96.971831,22.4929577 L96.971831,182.43662 C96.971831,183.541189 96.0764005,184.43662 94.971831,184.43662 L7.02816901,184.43662 C5.92359951,184.43662 5.02816901,183.541189 5.02816901,182.43662 L5.02816901,153.264249 Z" id="Rectangle" stroke="#2E3031" stroke-linecap="round"></path>
                            <path d="M4.73893337,177.671871 L4.70375576,183.733917 C4.70375576,186.915138 9.55074281,189.494855 15.5334349,189.497804 L86.4163228,189.519199 C89.2902733,189.5206 92.0474273,188.914524 94.0805604,187.834434 C96.1136935,186.754344 97.2560539,185.288826 97.2560526,183.760639 L97.2913786,177.695921 C97.0371265,177.811889 5.45697454,177.811889 4.73893337,177.671871 Z" id="Path-Copy" fill="#DC143D" fill-rule="nonzero"></path>
                            <g id="Group-Copy" transform="translate(10.339699, 93.297725)">
                                <rect id="Rectangle" stroke="#2E3031" fill="#FFFFFF" x="0" y="0" width="81.2404574" height="53.3129754" rx="4"></rect>
                                <g id="1---Icons/Status/Check_circle/24px/2-Filled" transform="translate(3.979870, 5.938466)">
                                    <rect id="Rectangle" fill-opacity="0" fill="#FFFFFF" x="0" y="0" width="16" height="16"></rect>
                                    <g id="🎨-colour" transform="translate(1.333333, 1.333333)" fill="#E7E7E7">
                                        <path d="M6.66666667,13.3333333 C10.3485333,13.3333333 13.3333333,10.3485333 13.3333333,6.66666667 C13.3333333,2.98476667 10.3485333,0 6.66666667,0 C2.9848,0 0,2.98476667 0,6.66666667 C0,10.3485333 2.9848,13.3333333 6.66666667,13.3333333 Z M10.4024,4.56903333 C10.5325333,4.43886 10.5325333,4.22780667 10.4024,4.09763333 C10.2722,3.96745333 10.0611333,3.96745333 9.93093333,4.09763333 L5.5,8.5286 L3.4024,6.43096667 C3.2722,6.30078667 3.06113333,6.30078667 2.93093333,6.43096667 C2.8008,6.56114 2.8008,6.7722 2.93093333,6.9024 L5.26426667,9.23573333 C5.39446667,9.36586667 5.60553333,9.36586667 5.73573333,9.23573333 L10.4024,4.56903333 Z"></path>
                                    </g>
                                </g>
                                <rect id="Rectangle" fill="#E7E7E7" x="26.587786" y="7.40457992" width="45.790076" height="8.88549591"></rect>
                                <rect id="Rectangle-Copy-3" fill="#E7E7E7" x="26.587786" y="19.2519078" width="45.790076" height="4.44274795"></rect>
                                <rect id="Rectangle-Copy-4" fill="#E7E7E7" x="10.3396946" y="29.6183197" width="62.0381674" height="7.40457992"></rect>
                                <rect id="Rectangle-Copy-5" fill="#E7E7E7" x="10.3396946" y="39.9847316" width="62.0381674" height="7.40457992"></rect>
                            </g>
                            <g id="Group-Copy" transform="translate(11.424806, 29.319002)">
                                <rect id="Rectangle" fill="#E7E7E7" x="0" y="0" width="81.2404574" height="53.3129754" rx="4"></rect>
                                <g id="1---Icons/Currency/Money_Rupee/24px/1-Outlined" transform="translate(18.446809, 4.359551)" fill="#FFFFFF">
                                    <rect id="Rectangle" fill-opacity="0" x="0" y="0" width="43.4042553" height="43.5955056"></rect>
                                    <g id="🎨-colour" transform="translate(3.617021, 3.632959)">
                                        <path d="M18.0851064,0 C28.0731489,0 36.1702128,8.13265075 36.1702128,18.164794 C36.1702128,28.1968464 28.0731489,36.329588 18.0851064,36.329588 C8.0969734,36.329588 0,28.1968464 0,18.164794 C0,8.13265075 8.0969734,0 18.0851064,0 Z M18.0851064,1.8164794 C9.09579574,1.8164794 1.80851064,9.13587416 1.80851064,18.164794 C1.80851064,27.1937865 9.09579574,34.5131086 18.0851064,34.5131086 C27.0744894,34.5131086 34.3617021,27.1937865 34.3617021,18.164794 C34.3617021,9.13587416 27.0744894,1.8164794 18.0851064,1.8164794 Z M24.381617,14.9350936 C25.0447979,14.9350936 25.6381702,15.0416665 26.1620957,15.254794 C26.5864447,15.4199774 26.9641485,15.6363012 27.2952072,15.903784 L27.5347553,16.1139888 L27.136883,16.7633801 C27.0573085,16.9099155 26.9346915,16.9831742 26.7688511,16.9831742 C26.702539,16.9831742 26.6303593,16.9668904 26.5522585,16.9343284 L26.1388999,16.7178713 L26.1388999,16.7178713 L25.9631596,16.6335019 C25.784117,16.540262 25.5685426,16.4569946 25.316617,16.383736 C25.0646915,16.3038109 24.7662872,16.2638483 24.4214043,16.2638483 C24.123,16.2638483 23.8544362,16.3038109 23.6157128,16.383736 C23.3769894,16.4569946 23.1713617,16.5602433 22.9990106,16.6934457 C22.8331702,16.8266481 22.7038617,16.9831742 22.6110851,17.1630056 C22.5248191,17.3361706 22.4817766,17.5259927 22.4817766,17.7324719 C22.4817766,17.9922285 22.5546596,18.2087528 22.7006064,18.3818633 C22.8530638,18.5549738 23.052,18.7048333 23.2974149,18.8314419 C23.5428298,18.9580506 23.8213404,19.0712172 24.1329468,19.1711236 C24.4445532,19.264309 24.7628511,19.3676667 25.0878404,19.4808333 C25.4193404,19.5874607 25.7410745,19.7073483 26.0526809,19.8404963 C26.3642872,19.9736442 26.6427979,20.1402154 26.8882128,20.3400281 C27.1336277,20.5398408 27.3291277,20.7863371 27.4750745,21.0793352 C27.6275319,21.365794 27.7038511,21.712015 27.7038511,22.1183614 C27.7038511,22.5846517 27.6210213,23.0175187 27.4551809,23.4171442 C27.2893404,23.8100487 27.0441064,24.1531816 26.719117,24.4461798 C26.3941277,24.7326386 25.9962553,24.9589719 25.5255,25.1255431 C25.0547447,25.2921142 24.5109255,25.375309 23.8942234,25.375309 C23.1912553,25.375309 22.5546596,25.2621423 21.9844362,25.0356273 C21.5282574,24.8491839 21.1271732,24.6221676 20.781276,24.3546714 L20.5322021,24.1464607 L20.9499681,23.4670974 C21.0029574,23.3804513 21.0660745,23.3139682 21.1389574,23.2672846 C21.2118404,23.2206011 21.3080532,23.1973502 21.4274149,23.1973502 C21.5467766,23.1973502 21.6728298,23.2440337 21.8053936,23.3372191 L22.1059681,23.5370453 C22.1619716,23.5725743 22.2209291,23.6092066 22.2828404,23.6469288 C22.4750851,23.7600955 22.7038617,23.8634532 22.9691702,23.9566386 C23.2409894,24.049824 23.5791809,24.0965075 23.9837447,24.0965075 C24.3286277,24.0965075 24.6302872,24.0532753 24.8889043,23.9666292 C25.1475213,23.8734438 25.3630957,23.7501049 25.5354468,23.5969757 C25.7077979,23.4438464 25.8338511,23.2672846 25.9134255,23.0674719 C25.9996915,22.8676592 26.042734,22.6545861 26.042734,22.4280712 C26.042734,22.1483333 25.9664149,21.9185487 25.8139574,21.7387172 C25.6680106,21.5521648 25.4725106,21.3957659 25.2270957,21.2691573 C25.0634858,21.180392 24.8837199,21.1004266 24.6877443,21.0293686 L23.4167766,20.6197659 C23.0917872,20.5131386 22.770234,20.3932509 22.4519362,20.260103 C22.1403298,20.1202341 21.8618191,19.9471236 21.6164043,19.7405899 C21.3709894,19.5340562 21.1720532,19.2810206 21.0195957,18.9813015 C20.8736489,18.6748614 20.800766,18.3052079 20.800766,17.8723408 C20.800766,17.4860301 20.8803404,17.1163766 21.0394894,16.7633801 C21.1986383,16.4037172 21.4306702,16.0906833 21.735766,15.8242603 C22.0408617,15.551189 22.4154043,15.3347191 22.8597553,15.1748689 C23.3041064,15.0150187 23.8113936,14.9350936 24.381617,14.9350936 Z M13.0710106,10.8988764 C13.9728606,10.8988764 14.7520213,10.9921163 15.4085106,11.1786142 C16.065,11.3584457 16.6054372,11.6215264 17.0298404,11.9678745 C17.4608628,12.3142227 17.7791606,12.7338294 17.984734,13.2266948 C18.1903617,13.7129118 18.2930851,14.2590545 18.2930851,14.8651592 C18.2930851,15.3713575 18.2135106,15.8442416 18.0543617,16.2838296 C17.8952128,16.7234176 17.6631266,17.1197189 17.3580851,17.4727154 C17.0596809,17.8190635 16.6916489,18.1154403 16.2539894,18.361882 C15.822967,18.6083783 15.3322457,18.7947491 14.7818617,18.9213577 C14.9609043,19.0262594 15.1250232,19.1667186 15.2742262,19.3428121 L15.4184574,19.5307865 L19.5762234,25.2154588 L17.8653723,25.2154588 C17.5724991,25.2154588 17.3440918,25.1205982 17.1801503,24.9309821 L13.3893085,19.6906367 C13.276584,19.5307865 13.1538947,19.4176199 13.0212766,19.3509551 C12.921813,19.296052 12.7850455,19.2616864 12.6109741,19.2479351 L12.4244681,19.2410581 L10.9622872,19.2410581 L10.9622872,25.2154588 L9.04255319,25.2154588 L9.04255319,10.8988764 L13.0710106,10.8988764 Z M13.0710106,12.4274438 L10.9622872,12.4274438 L10.9622872,17.8323783 L12.9814894,17.8323783 C13.5451479,17.8323783 14.0391606,17.765768 14.4635638,17.6325655 C14.8945862,17.4926966 15.2526713,17.2995504 15.5378191,17.0531086 C15.8295862,16.8000185 16.048416,16.5002994 16.1943085,16.1539513 C16.3402011,15.8076032 16.4131383,15.4246348 16.4131383,15.0050281 C16.4131383,14.1524998 16.1313181,13.5097567 15.5676596,13.0768352 C15.080266,12.6980289 14.3821715,12.4849433 13.4733884,12.4375908 L13.0710106,12.4274438 Z"></path>
                                    </g>
                                </g>
                            </g>
                            <g id="Group-Copy-2" transform="translate(10.339699, 151.053448)">
                                <rect id="Rectangle" stroke="#2E3031" fill="#FFFFFF" x="0" y="0" width="81.2404574" height="32.5801517" rx="4"></rect>
                                <g id="1---Icons/Status/Check_circle/24px/3-Two-Tone" transform="translate(3.979870, 5.938466)">
                                    <rect id="Rectangle" fill-opacity="0" fill="#FFFFFF" x="0" y="0" width="16" height="16"></rect>
                                    <g id="🎨-colour" transform="translate(1.333333, 1.333333)" fill="#E7E7E7">
                                        <path d="M6.66666667,13.3333333 C10.3485333,13.3333333 13.3333333,10.3485333 13.3333333,6.66666667 C13.3333333,2.98476667 10.3485333,0 6.66666667,0 C2.9848,0 0,2.98476667 0,6.66666667 C0,10.3485333 2.9848,13.3333333 6.66666667,13.3333333 Z M10.4024,4.56903333 C10.5325333,4.43886 10.5325333,4.22780667 10.4024,4.09763333 C10.2722,3.96745333 10.0611333,3.96745333 9.93093333,4.09763333 L5.5,8.5286 L3.4024,6.43096667 C3.2722,6.30078667 3.06113333,6.30078667 2.93093333,6.43096667 C2.8008,6.56114 2.8008,6.7722 2.93093333,6.9024 L5.26426667,9.23573333 C5.39446667,9.36586667 5.60553333,9.36586667 5.73573333,9.23573333 L10.4024,4.56903333 Z"></path>
                                    </g>
                                </g>
                                <rect id="Rectangle" fill="#E7E7E7" x="26.587786" y="7.40457992" width="45.790076" height="8.88549591"></rect>
                                <rect id="Rectangle-Copy-3" fill="#E7E7E7" x="26.587786" y="19.2519078" width="45.790076" height="4.44274795"></rect>
                            </g>
                        </g>
                        <circle id="Oval" fill="#2E3031" cx="49.5" cy="10.5" r="2.5"></circle>
                        <circle id="Oval" fill="#E7E7E7" cx="70.5" cy="44.5" r="13.5"></circle>
                        <g id="1---Icons/Status/Check_circle/24px/2-Filled" transform="translate(56.000000, 32.000000)" fill="#FFFFFF">
                            <rect id="Rectangle" fill-opacity="0" x="0" y="0" width="26" height="26"></rect>
                            <g id="🎨-colour" transform="translate(2.166667, 2.166667)">
                                <path d="M10.8333333,21.6666667 C16.8163667,21.6666667 21.6666667,16.8163667 21.6666667,10.8333333 C21.6666667,4.85024583 16.8163667,0 10.8333333,0 C4.8503,0 0,4.85024583 0,10.8333333 C0,16.8163667 4.8503,21.6666667 10.8333333,21.6666667 Z M16.9039,7.42467917 C17.1153667,7.2131475 17.1153667,6.87018583 16.9039,6.65865417 C16.692325,6.44711167 16.3493417,6.44711167 16.1377667,6.65865417 L8.9375,13.858975 L5.5289,10.4503208 C5.317325,10.2387783 4.97434167,10.2387783 4.76276667,10.4503208 C4.5513,10.6618525 4.5513,11.004825 4.76276667,11.2164 L8.55443333,15.0080667 C8.76600833,15.2195333 9.10899167,15.2195333 9.32056667,15.0080667 L16.9039,7.42467917 Z"></path>
                            </g>
                        </g>
                    </g>
                    <g id="Shield" transform="translate(104.339699, 90.297725)">
                        <g id="Group-Copy">
                            <rect id="Rectangle" stroke="#2E3031" fill="#FFFFFF" x="0" y="0" width="81.2404574" height="29" rx="4"></rect>
                            <g id="1---Icons/Status/Check_circle/24px/4-Positive" transform="translate(4.000000, 6.000000)">
                                <rect id="Rectangle" fill-opacity="0" fill="#FFFFFF" x="0" y="0" width="16" height="16"></rect>
                                <g id="🎨-colour" transform="translate(1.333333, 1.333333)" fill="#000000">
                                    <path d="M6.66666667,13.3333333 C10.3485333,13.3333333 13.3333333,10.3485333 13.3333333,6.66666667 C13.3333333,2.98476667 10.3485333,0 6.66666667,0 C2.9848,0 0,2.98476667 0,6.66666667 C0,10.3485333 2.9848,13.3333333 6.66666667,13.3333333 Z M10.4024,4.56903333 C10.5325333,4.43886 10.5325333,4.22780667 10.4024,4.09763333 C10.2722,3.96745333 10.0611333,3.96745333 9.93093333,4.09763333 L5.5,8.5286 L3.4024,6.43096667 C3.2722,6.30078667 3.06113333,6.30078667 2.93093333,6.43096667 C2.8008,6.56114 2.8008,6.7722 2.93093333,6.9024 L5.26426667,9.23573333 C5.39446667,9.36586667 5.60553333,9.36586667 5.73573333,9.23573333 L10.4024,4.56903333 Z"></path>
                                </g>
                            </g>
                            <rect id="Rectangle-Copy-3" fill="#2E3031" x="27" y="6" width="45.790076" height="4"></rect>
                            <rect id="Rectangle-Copy-6" fill="#2E3031" x="27" y="11.702275" width="45.790076" height="4"></rect>
                            <rect id="Rectangle-Copy-7" fill="#2E3031" x="27" y="17.702275" width="45.790076" height="4"></rect>
                        </g>
                        <g id="Group-3" transform="translate(112.660301, 64.702275)" fill-rule="nonzero">
                            <g id="freepik--Shield--inject-385" fill="#FF930F" stroke="#FFFFFF">
                                <path d="M17.9837177,-0.523906263 L32.7849127,4.11289137 C33.9582471,4.41378062 34.9014722,4.88889846 35.5408442,5.60030741 C36.1404084,6.26742336 36.4885826,7.14387408 36.4885826,8.31080442 L36.488577,15.0576474 C36.5141167,20.4293669 34.8263439,25.7019337 31.6096005,30.2837065 C28.8463683,34.1964293 24.3167303,38.7648156 18.2628802,40.4810431 C12.2949709,38.2654069 7.55413406,34.6061712 4.35630589,29.9871022 C1.14808689,25.4044393 -0.532013123,20.1319756 -0.499547252,14.7651007 L-0.499547252,7.26344645 C-0.499547252,6.52038756 -0.197104906,5.97248713 0.319204026,5.52722995 C0.884388929,5.03982286 1.74169397,4.68594944 2.71290839,4.30045918 C2.90371202,4.22472623 3.09893104,4.14724889 3.29687286,4.06637277 L17.9837177,-0.523906263 Z" id="Path"></path>
                            </g>
                            <path d="M27.9555251,7.16193002 L33.0671943,9.85097777 L16.1800334,31.7173542 L4.75400734,22.1465388 L9.08741594,18.6070214 L15.1816046,23.701786 L27.9555251,7.16193002 Z" id="Path" stroke="#FF930F" fill="#2E3031"></path>
                        </g>
                    </g>
                    <g id="Plant" transform="translate(96.000000, 140.000000)" fill-rule="nonzero">
                        <path d="M27.6670679,75 C27.6670679,75 24.7770178,56.5479707 25.013793,45.8149435 C25.2505682,35.0819163 25.013793,23 25.013793,23 L26.3508764,23 C26.3508764,23 25.4455595,44.29825 26.4274802,57.1611021 C27.4094008,70.0239543 30,75 30,75 L27.6809959,75" id="Path" fill="#2E3031"></path>
                        <path d="M35.5267307,1.94804879 C35.3309504,1.29498584 34.9333641,0.718879785 34.3897192,0.300509373 C33.5925042,-0.196982923 32.5535109,0.00976712249 31.6648122,0.300509373 C27.8813082,1.62500185 24.5290845,8.59635493 23,12.2661682 L28.0185338,29 C37.088488,20.7041544 38.6567798,9.79162863 35.5267307,1.94804879 Z" id="Path" fill="#2E3031" opacity="0.746338617"></path>
                        <path d="M34,1 C33.983246,1.07537236 33.9572583,1.14829257 33.92265,1.21704036 C33.8646375,1.38146487 33.7808417,1.59192825 33.6841542,1.84185351 C33.464996,2.37458894 33.1620419,3.15724963 32.7946295,4.12406577 C32.0662505,6.05769806 31.1380507,8.72795217 30.3065384,11.8059791 C29.4750261,14.884006 28.9077929,17.6660688 28.559718,19.6983558 C28.3792347,20.7177877 28.250318,21.5464873 28.1665222,22.1186846 C28.1214014,22.3883408 28.0891722,22.6053812 28.0569431,22.7763827 C28.0484057,22.8527268 28.031098,22.9277815 28.0053764,23 C27.9982079,22.9234429 27.9982079,22.8463628 28.0053764,22.7698057 C28.0053764,22.5922272 28.0440514,22.3751868 28.0698347,22.1121076 C28.1342931,21.5333333 28.2438722,20.6980568 28.405018,19.6720478 C28.8304475,17.0131235 29.4007128,14.3804451 30.1131634,11.7862481 C30.829679,9.17796392 31.6905036,6.61321322 32.6914961,4.10433483 C33.0718002,3.13751868 33.3940918,2.36801196 33.6390334,1.84185351 C33.7486126,1.59850523 33.8388542,1.39461883 33.9162042,1.2367713 C33.9312089,1.15368923 33.9595195,1.0736953 34,1 L34,1 Z" id="Path" fill="#263238"></path>
                        <path d="M26.0190091,34 C21.2136002,31.3249442 18.1813989,26.3892228 18.0197724,20.9790952 C17.8307609,17.1851869 19.0255836,13.4573746 20.3756658,9.88819259 C20.4573763,9.56744979 20.6507329,9.28463368 20.922449,9.08843143 C21.3770702,8.92012994 21.8883492,8.99522198 22.2725312,9.28671932 C25.802996,11.2695982 27.9496266,15.0172393 29.0836956,18.837586 C29.9047974,21.3720996 30.1783605,24.0461634 29.8869945,26.6897865 C29.4413814,29.4684966 28.0919478,32.0322517 26.0392604,34" id="Path" fill="#2E3031"></path>
                        <path d="M24.9305019,33 C24.9230895,32.9240669 24.9230895,32.8474464 24.9305019,32.7715134 L24.9305019,32.1186944 C24.9305019,31.5507418 24.9305019,30.7347181 24.8667954,29.7293769 C24.7494811,27.1027593 24.4903138,24.4866374 24.0907336,21.895549 C23.6332046,18.8664688 23.0714286,16.15727 22.6544402,14.1988131 L22.1621622,11.8747774 L22.034749,11.2219585 C22.0153652,11.1497963 22.0036995,11.0752821 22,11 C22.0306476,11.0661735 22.0539875,11.1363301 22.0694981,11.2089021 C22.1100386,11.378635 22.1621622,11.5810089 22.2316602,11.8617211 C22.3648649,12.4035608 22.5559846,13.1673591 22.7818533,14.1661721 C23.2277992,16.1246291 23.8127413,18.8338279 24.2760618,21.8694362 C24.6727262,24.4594933 24.9145834,27.0766613 25,29.7032641 C25,30.7086053 25,31.5246291 25,32.0925816 C25,32.3537092 25,32.5691395 25,32.7454006 C24.9865687,32.8332626 24.9632128,32.9188247 24.9305019,33 L24.9305019,33 Z" id="Path" fill="#263238"></path>
                        <path d="M31,61.4316957 C35.7238038,62.4725991 39.6081163,65.8088279 44.172017,67.4369076 C47.1835251,68.5111733 50.594791,68.8915034 53,71 C52.4270139,69.5387318 51.0545124,68.5645529 49.7219867,67.7371682 C45.9677469,65.3734306 41.9578537,63.4438726 37.7692308,61.9855096 C35.630527,61.2448668 33.2986069,60.6510181 31.1066021,61.2381944" id="Path" fill="#2E3031" opacity="0.730414254"></path>
                        <path d="M25,66 C19.0931264,65.9040731 12.8736142,61.0693564 7,60.7815756 C13.1463415,58.8630373 21.9600887,60.4298436 25,66" id="Path" fill="#2E3031" opacity="0.730414254"></path>
                        <path d="M27,52.1735925 C29.9355292,51.1738073 33.0666656,50.9463408 36.109052,51.5118506 C39.1348904,52.0835005 42.1089521,52.9157975 45,54 C44.704918,51.9618351 43.1076265,50.4332114 41.6001426,49.0766406 C40.5024217,48.0163093 39.307996,47.0678212 38.0334996,46.2443854 C36.7510116,45.418309 35.2667174,44.9867345 33.7548111,45.0003107 C31.9199726,45.11811 30.2117402,46.0051785 29.0270848,47.455373 C27.87623,48.7512597 27.1648045,50.3978756 27,52.1471228" id="Path" fill="#2E3031" opacity="0.730414254"></path>
                        <path d="M14.1819079,45.6494124 C10.4791117,42.6661916 4.86861386,42.9538817 0,43.0602019 C7.82278806,46.5785522 15.2000003,50.9192915 21.9915619,56 C22.1902809,52.7478516 18.8584268,49.4206537 14.1819079,45.6494124 Z" id="Path" fill="#2E3031" opacity="0.75"></path>
                        <path d="M28.0197256,42 C29.783732,40.7642719 31.6415799,39.6713288 33.5759286,38.7313722 C35.4840541,37.8619172 37.256347,36.4694818 39.0933221,35.4627444 C41.4800962,34.1552933 43.5434591,32.3444735 45.7297182,30.7297714 C47.9159773,29.1150692 50.322156,27.650724 53,27.2258024 C50.7950444,26.8261882 48.5278881,26.9583386 46.3830086,27.6115004 C44.2487146,28.2605301 42.1681704,29.078023 40.1605788,30.056434 C37.3404339,31.3638852 34.4685432,32.6713363 32.1658561,34.7436463 C29.863169,36.8159563 27.7739332,38.8817291 28.0197256,42" id="Path" fill="#2E3031" opacity="0.730414254"></path>
                        <path d="M43.9994941,66 L43.8125558,65.9229435 L43.2984753,65.6858465 C42.8511585,65.4783867 42.2102269,65.1642332 41.4023861,64.8026604 C41.0018039,64.6189103 40.5611635,64.4233053 40.0671121,64.209918 C39.5730607,63.9965308 39.0723329,63.7949983 38.5248706,63.5816111 C37.3466263,63.1129129 36.1246967,62.7360894 34.872896,62.4554006 C33.6339974,62.1495512 32.3293698,62.1190167 31.0740414,62.3664892 C30.524217,62.4726737 29.9841407,62.6153322 29.4583598,62.7932637 C29.0073906,62.9558006 28.5738889,63.1541882 28.163144,63.3860061 C27.5625437,63.7168111 27.0127332,64.1152874 26.5274332,64.5714909 C26.180262,64.8974992 26.0133527,65.0931042 26,65.0871767 C26.0265132,65.0312546 26.0625402,64.979278 26.1068219,64.9330637 C26.2167012,64.7879409 26.3371318,64.6493397 26.4673459,64.518144 C26.9361415,64.0339648 27.4775216,63.6091591 28.0763511,63.2556028 C28.4993736,63.0127902 28.9462892,62.80448 29.4116252,62.6332233 C29.9430905,62.4461616 30.4899305,62.2955587 31.0473359,62.1827391 C32.3332977,61.9169801 33.6737562,61.941434 34.9463361,62.2538682 C36.2094872,62.5367979 37.4408431,62.921708 38.6250161,63.4037884 C39.1724785,63.6231031 39.686559,63.8364903 40.1605813,64.0498776 C40.6346036,64.2632648 41.0819204,64.4588698 41.4958553,64.6426199 C42.2970197,65.0219751 42.9312749,65.3539108 43.365239,65.5850803 L43.8592904,65.8518144 C43.9460832,65.958508 44.0061705,65.9940726 43.9994941,66 Z" id="Path" fill="#2E3031"></path>
                        <path d="M20.0019303,63 C20.1150091,63.0175515 20.2249948,63.0523367 20.3283559,63.1032389 C20.6160192,63.2111415 20.8964376,63.3389568 21.1677359,63.48583 C22.0762513,63.9607467 22.9113074,64.5748567 23.6450727,65.3076923 C24.3783804,66.0377562 25.0013734,66.8792751 25.4928746,67.8036437 C25.6433366,68.0824753 25.7776444,68.3704396 25.8950775,68.6659919 C25.9454094,68.7714397 25.9807535,68.8839533 26,69 C25.9708549,69 25.7784969,68.5566802 25.382123,67.8765182 C24.3407125,66.0933747 22.8671145,64.6272489 21.1094456,63.6255061 C20.4099623,63.2186235 19.9669561,63.0364372 20.0019303,63 Z" id="Path" fill="#2E3031"></path>
                        <path d="M7,45 C7.08480498,45.0149001 7.16774313,45.0390569 7.24734498,45.0720426 L7.94381638,45.3209169 L9.03734156,45.726975 C9.46043165,45.8907081 9.92257622,46.1264838 10.4498116,46.3819075 C13.1613105,47.6448774 15.6920686,49.2683213 17.9743063,51.2087597 C19.2225997,52.2846241 20.3949009,53.4466666 21.4826996,54.6864511 C22.3683545,55.6983638 23.2004964,56.7564499 23.9756766,57.8563242 C24.6265844,58.7994269 25.1342926,59.5853459 25.4792737,60.1223905 L25.8698184,60.777323 C25.9230908,60.8452354 25.9668898,60.9201542 26,61 C25.9386926,60.9383783 25.8841377,60.8703119 25.837273,60.7969709 C25.7396369,60.6659844 25.5899281,60.4629554 25.4076739,60.1944331 C25.0431655,59.6639378 24.5289483,58.8845682 23.8520041,57.9676627 C23.17506,57.0507573 22.3353888,56.0028653 21.3394998,54.8370856 C20.2482465,53.6130361 19.0784454,52.4622555 17.8376156,51.3921408 C15.5685448,49.4513221 13.0643229,47.8074617 10.3847208,46.4997953 C9.8705036,46.2640196 9.41486811,46.0216946 8.99177801,45.8448629 L7.91127098,45.4060581 L7.26036314,45.1178878 C7.16940502,45.088675 7.08205331,45.0491237 7,45 L7,45 Z" id="Path" fill="#2E3031"></path>
                        <path d="M35,49.3971046 C34.8348896,49.396141 34.6705018,49.3774981 34.5103448,49.3415737 L33.9448276,49.2490222 C33.7310345,49.2120016 33.4758621,49.2120016 33.1931034,49.1873212 C31.7406222,49.0709241 30.2811764,49.327786 28.9862069,49.9277333 C28.277925,50.260762 27.6312519,50.6894758 27.0689655,51.1987741 C26.6055856,51.6120323 26.1939573,52.0692656 25.8413793,52.5623665 C25.5210321,53.0220289 25.2397792,53.5025954 25,54 C25.016051,53.8531228 25.0579471,53.709438 25.1241379,53.574263 C25.2763169,53.1948496 25.4728064,52.8308564 25.7103448,52.4883252 C26.047543,51.9722821 26.4578342,51.4973684 26.9310345,51.0753721 C27.4939824,50.5401732 28.1538158,50.0937755 28.8827586,49.7549705 C30.2123498,49.1367844 31.7186333,48.8896135 33.2068966,49.0454088 C33.4896552,49.0824295 33.7517241,49.0947697 33.9655172,49.1441305 L34.5310345,49.2675325 C34.6915125,49.2976075 34.848512,49.3409854 35,49.3971046 Z" id="Path" fill="#2E3031"></path>
                        <path d="M41,31 C40.9338494,31.055228 40.8591725,31.1004526 40.7785847,31.1340901 L40.1076291,31.4788932 C39.5238977,31.7726144 38.6919128,32.2131962 37.6854795,32.7559418 C36.6790461,33.2986875 35.4914547,34.0329904 34.2300582,34.888613 C32.8547154,35.8060009 31.5660708,36.8357987 30.3787732,37.9663001 C29.7655017,38.5348139 29.2351855,39.1790899 28.8020276,39.881873 C28.4128734,40.590635 28.0371383,41.2802412 27.6949509,41.9443065 C27.079583,43.1123524 26.528651,44.3101484 26.0444002,45.5328131 C25.7212666,46.3574076 25.4501653,47.1996303 25.232544,48.054984 C25.1733168,48.3734527 25.0971776,48.6888621 25.0044191,49 C24.998527,48.9170865 24.998527,48.833889 25.0044191,48.7509755 C25.0044191,48.5849592 25.0446764,48.3487052 25.1251911,48.0422136 C25.3134153,47.1760175 25.5622226,46.3227527 25.8699518,45.4881164 C26.3376024,44.2526024 26.87974,43.0437844 27.4936643,41.8676836 C27.8358516,41.2291593 28.2048772,40.5076268 28.5940314,39.7924796 C29.0326784,39.0651739 29.5720324,38.3972605 30.1976152,37.806669 C31.3932366,36.667839 32.6958478,35.6355113 34.0891576,34.7225967 C35.3639732,33.8669741 36.5649836,33.1709826 37.5848361,32.6090812 C38.6046886,32.0471799 39.4500926,31.6385243 40.0405335,31.3639589 L40.7114891,31.0510819 L41,31 Z" id="Path" fill="#2E3031"></path>
                        <path d="M24.9907423,48 C24.9344427,47.8420531 24.8960824,47.6786692 24.8763365,47.5127233 C24.8023093,47.1618841 24.7148225,46.7135896 24.6138762,46.1808338 C24.056087,43.2467132 23.1012584,40.3960962 21.7739214,37.7022198 L21.1951628,36.4677856 C21.1105666,36.3201358 21.0450242,36.1630373 21,36 C21.1043425,36.1338939 21.1945232,36.2775462 21.26919,36.4288035 C21.4239743,36.7146724 21.6460561,37.1239848 21.9421651,37.6372496 C22.6352851,38.9780045 23.2268103,40.3655069 23.7120896,41.7888468 C24.1838508,43.2160683 24.5437855,44.6755153 24.7888498,46.1548457 C24.8830663,46.7265836 24.9503638,47.1813752 24.9840125,47.5062263 C25.0027754,47.670221 25.0050292,47.8355854 24.9907423,48 L24.9907423,48 Z" id="Path" fill="#2E3031"></path>
                        <path d="M23.9364203,34.8741399 C23.7531413,32.6559018 23.108439,30.5013292 22.0442159,28.5504587 C19.1439878,23.1135934 14.0011321,19.2501177 8,18 L21.0031761,37.5117546 L22.685863,41 C23.7373331,39.1433261 24.1752898,36.9979932 23.9364203,34.8741399 L23.9364203,34.8741399 Z" id="Path" fill="#2E3031" opacity="0.730414254"></path>
                        <rect id="Rectangle" fill="#FF930F" x="10" y="69" width="36" height="6"></rect>
                        <polygon id="Path" fill="#FF930F" points="12 74 16.8875342 94 39.2985075 94 43 74"></polygon>
                        <path d="M46,75.5 C46,75.61 37.7135759,75.7 27.5032831,75.7 C17.2929902,75.7 9,75.61 9,75.5 C9,75.39 17.279858,75.3 27.5032831,75.3 C37.7267081,75.3 46,75.39 46,75.5 Z" id="Path" fill="#2E3031"></path>
                    </g>
                </g>
                <rect id="Rectangle" x="0" y="0" width="360" height="280"></rect>
            </g>
        </g>
    </g>
</svg>