<?xml version="1.0" encoding="UTF-8"?>
<svg width="360px" height="280px" viewBox="0 0 360 280" version="1.1" xmlns="http://www.w3.org/2000/svg" xmlns:xlink="http://www.w3.org/1999/xlink">
    <title>560308CC-C433-4FA6-91F3-7A17F0D3EAEA@3x</title>
    <g id="Downloadable-assets" stroke="none" stroke-width="1" fill="none" fill-rule="evenodd">
        <g transform="translate(-1792.000000, -765.000000)" id="Cards_Error-illustration">
            <g transform="translate(1792.000000, 765.000000)">
                <g id="Group">
                    <g id="illustration" transform="translate(0.000000, 32.000000)">
                        <rect id="Rectangle" fill-opacity="0" fill="#FFFFFF" x="0" y="0" width="360" height="216"></rect>
                        <g id="Baseline-" transform="translate(43.500000, 175.000000)" stroke="#2E3031" stroke-linecap="round">
                            <line x1="213" y1="0.5" x2="239" y2="0.5" id="Line"></line>
                            <line x1="241" y1="0.5" x2="244" y2="0.5" id="Line-Copy-2"></line>
                            <line x1="-2.19824159e-14" y1="0.5" x2="82" y2="0.5" id="Line-Copy"></line>
                        </g>
                        <g id="Group-2" transform="translate(185.609257, 108.000000) rotate(-1.000000) translate(-185.609257, -108.000000) translate(81.878010, 25.910995)">
                            <g id="Card--Copy" transform="translate(108.991271, 82.089005) rotate(25.000000) translate(-108.991271, -82.089005) translate(24.121990, 31.089005)">
                                <rect id="Rectangle" stroke="#2E3031" fill="#2E3031" x="0" y="0" width="169.738562" height="102" rx="4"></rect>
                                <rect id="Rectangle" fill="#E7E7E7" x="13" y="81" width="35" height="4"></rect>
                                <rect id="Rectangle-Copy-5" fill="#E7E7E7" x="13" y="70" width="94" height="6"></rect>
                                <rect id="Rectangle-Copy-6" fill="#E7E7E7" x="102" y="10" width="39" height="4"></rect>
                                <g id="Content/Logos/MCB-icon/2---logo-mcb-icon-black" transform="translate(13.000000, 10.000000)" fill="#FFFFFF">
                                    <rect id="Rectangle" fill-opacity="0" x="0" y="0" width="20" height="17.1428571"></rect>
                                    <path d="M10.4069831,3.04683364 C9.71825872,4.12067552 9.13541507,5.33815125 9.03369629,6.42847025 C9.02970079,6.47157705 9.02570529,6.51318592 9.0232081,6.55396262 C8.83175703,8.96960756 9.74456243,10.5883593 10.9234016,11.706473 C11.9044634,12.6326866 13.0808054,13.1817574 13.9235231,13.4638655 C13.188018,12.7546838 12.7508436,11.8669169 12.6474601,10.8596492 L12.6474601,10.856154 C12.6189921,10.5770417 12.6159955,10.2894411 12.6399685,9.99534959 C12.6464612,9.91362975 12.6547852,9.83190992 12.6654398,9.74935791 C12.9694308,6.92777677 15.1231721,4.81937178 15.1396535,4.80256179 C16.6659348,3.09360201 18.4507582,2.05471158 19.1751091,1.67523863 C16.363775,1.51962143 13.343676,1.99129966 10.4069831,3.04683364 M4.72271766,11.5369585 C5.93501912,14.6809252 9.10444994,16.7763482 12.6514556,16.7803427 C13.2925669,16.7810084 13.9228571,16.7137684 14.5383307,16.58062 C13.3476715,16.9452802 12.1025737,17.1298572 10.8260112,17.1298572 C6.52735208,17.1291915 2.40615973,14.9382345 0.285714286,11.5374578 Z M19.8503487,12.4368752 C18.3630236,14.8282206 15.732153,16.246584 12.7808099,16.246584 C10.3294038,16.246584 8.10457593,15.2825895 6.55532058,13.5751277 C7.8263892,14.6140181 9.40927334,15.1772359 11.0910461,15.1772359 C13.324198,15.1772359 15.3805489,14.1789557 16.740018,12.4367088 Z M9.25444769,3.48638981 C8.71538808,4.37964917 8.28287514,5.34980174 8.1471946,6.319455 C8.14086839,6.36405971 8.13554106,6.41016235 8.12971429,6.45676429 C7.80924184,9.06647303 8.76466592,10.9719931 10.0150911,12.2393995 C10.6372238,12.8723537 11.3262812,13.3550167 11.9740517,13.715516 C12.0396445,13.751799 12.0990776,13.7842539 12.1636715,13.8180403 L12.1607143,13.817 L11.9712216,13.8130472 C10.2752981,13.7371526 9.07664792,13.2864453 8.53392576,13.0369585 C5.36466142,11.6117712 3.97339483,8.43268662 4.2048009,5.9984009 C5.47487064,5.02392101 7.89814173,4.01332462 9.25444769,3.48638981 Z M11.9970592,0.366722679 C12.3739681,-0.296689249 15.1445147,-0.0828196231 17.154751,1.19523863 C13.8910929,1.30858121 10.7845912,2.43152157 10.7845912,2.43152157 C11.2237633,1.67374071 11.5177656,1.01066165 11.9970592,0.366722679 Z" id="Ship"></path>
                                </g>
                                <g id="Group" transform="translate(13.000000, 41.000000)" stroke="#2E3031" stroke-width="0.5">
                                    <rect id="Rectangle" fill="#FF930F" x="0" y="0" width="16.6666667" height="11" rx="2"></rect>
                                    <line x1="11.25" y1="4.125" x2="16.25" y2="4.125" id="Line-2" stroke-linecap="square"></line>
                                    <line x1="0.416666667" y1="4.125" x2="5.41666667" y2="4.125" id="Line-2-Copy-2" stroke-linecap="square"></line>
                                    <line x1="11.25" y1="7.79166667" x2="16.25" y2="7.79166667" id="Line-2-Copy" stroke-linecap="square"></line>
                                    <line x1="0.416666667" y1="7.79166667" x2="5.41666667" y2="7.79166667" id="Line-2-Copy-3" stroke-linecap="square"></line>
                                    <rect id="Rectangle-Copy" x="5.83333333" y="0" width="5" height="11" rx="2"></rect>
                                </g>
                            </g>
                            <g id="Card--Copy" transform="translate(97.991271, 90.089005) rotate(15.000000) translate(-97.991271, -90.089005) translate(13.121990, 39.089005)">
                                <rect id="Rectangle" stroke="#2E3031" fill="#E7E7E7" x="0" y="0" width="169.738562" height="102" rx="4"></rect>
                                <rect id="Rectangle" fill="#E7E7E7" x="13" y="81" width="35" height="4"></rect>
                                <rect id="Rectangle-Copy-5" fill="#E7E7E7" x="13" y="70" width="94" height="6"></rect>
                                <rect id="Rectangle-Copy-6" fill="#E7E7E7" x="102" y="10" width="39" height="4"></rect>
                                <g id="Content/Logos/MCB-icon/2---logo-mcb-icon-black" transform="translate(13.000000, 10.000000)">
                                    <rect id="Rectangle" fill-opacity="0" fill="#FFFFFF" x="0" y="0" width="20" height="17.1428571"></rect>
                                    <path d="M10.4069831,3.04683364 C9.71825872,4.12067552 9.13541507,5.33815125 9.03369629,6.42847025 C9.02970079,6.47157705 9.02570529,6.51318592 9.0232081,6.55396262 C8.83175703,8.96960756 9.74456243,10.5883593 10.9234016,11.706473 C11.9044634,12.6326866 13.0808054,13.1817574 13.9235231,13.4638655 C13.188018,12.7546838 12.7508436,11.8669169 12.6474601,10.8596492 L12.6474601,10.856154 C12.6189921,10.5770417 12.6159955,10.2894411 12.6399685,9.99534959 C12.6464612,9.91362975 12.6547852,9.83190992 12.6654398,9.74935791 C12.9694308,6.92777677 15.1231721,4.81937178 15.1396535,4.80256179 C16.6659348,3.09360201 18.4507582,2.05471158 19.1751091,1.67523863 C16.363775,1.51962143 13.343676,1.99129966 10.4069831,3.04683364 M4.72271766,11.5369585 C5.93501912,14.6809252 9.10444994,16.7763482 12.6514556,16.7803427 C13.2925669,16.7810084 13.9228571,16.7137684 14.5383307,16.58062 C13.3476715,16.9452802 12.1025737,17.1298572 10.8260112,17.1298572 C6.52735208,17.1291915 2.40615973,14.9382345 0.285714286,11.5374578 Z M19.8503487,12.4368752 C18.3630236,14.8282206 15.732153,16.246584 12.7808099,16.246584 C10.3294038,16.246584 8.10457593,15.2825895 6.55532058,13.5751277 C7.8263892,14.6140181 9.40927334,15.1772359 11.0910461,15.1772359 C13.324198,15.1772359 15.3805489,14.1789557 16.740018,12.4367088 Z M9.25444769,3.48638981 C8.71538808,4.37964917 8.28287514,5.34980174 8.1471946,6.319455 C8.14086839,6.36405971 8.13554106,6.41016235 8.12971429,6.45676429 C7.80924184,9.06647303 8.76466592,10.9719931 10.0150911,12.2393995 C10.6372238,12.8723537 11.3262812,13.3550167 11.9740517,13.715516 C12.0396445,13.751799 12.0990776,13.7842539 12.1636715,13.8180403 L12.1607143,13.817 L11.9712216,13.8130472 C10.2752981,13.7371526 9.07664792,13.2864453 8.53392576,13.0369585 C5.36466142,11.6117712 3.97339483,8.43268662 4.2048009,5.9984009 C5.47487064,5.02392101 7.89814173,4.01332462 9.25444769,3.48638981 Z M11.9970592,0.366722679 C12.3739681,-0.296689249 15.1445147,-0.0828196231 17.154751,1.19523863 C13.8910929,1.30858121 10.7845912,2.43152157 10.7845912,2.43152157 C11.2237633,1.67374071 11.5177656,1.01066165 11.9970592,0.366722679 Z" id="Ship" fill="#000000"></path>
                                </g>
                                <g id="Group" transform="translate(13.000000, 41.000000)" stroke="#2E3031" stroke-width="0.5">
                                    <rect id="Rectangle" fill="#FF930F" x="0" y="0" width="16.6666667" height="11" rx="2"></rect>
                                    <line x1="11.25" y1="4.125" x2="16.25" y2="4.125" id="Line-2" stroke-linecap="square"></line>
                                    <line x1="0.416666667" y1="4.125" x2="5.41666667" y2="4.125" id="Line-2-Copy-2" stroke-linecap="square"></line>
                                    <line x1="11.25" y1="7.79166667" x2="16.25" y2="7.79166667" id="Line-2-Copy" stroke-linecap="square"></line>
                                    <line x1="0.416666667" y1="7.79166667" x2="5.41666667" y2="7.79166667" id="Line-2-Copy-3" stroke-linecap="square"></line>
                                    <rect id="Rectangle-Copy" x="5.83333333" y="0" width="5" height="11" rx="2"></rect>
                                </g>
                            </g>
                            <g id="Card-" transform="translate(88.991271, 99.089005) rotate(5.000000) translate(-88.991271, -99.089005) translate(4.121990, 48.089005)">
                                <rect id="Rectangle" stroke="#2E3031" fill="#FFFFFF" x="0" y="0" width="169.738562" height="102" rx="4"></rect>
                                <g id="0000-0000-0000-0000" transform="translate(13.758333, 58.845000)" fill="#000000" fill-rule="nonzero">
                                    <path d="M5.07,3.615 C5.07,4.235 5.00333333,4.77166667 4.87,5.225 C4.73666667,5.67833333 4.555,6.05333333 4.325,6.35 C4.095,6.64666667 3.82583333,6.8675 3.5175,7.0125 C3.20916667,7.1575 2.88,7.23 2.53,7.23 C2.18,7.23 1.85166667,7.1575 1.545,7.0125 C1.23833333,6.8675 0.97,6.64666667 0.74,6.35 C0.51,6.05333333 0.329166667,5.67833333 0.1975,5.225 C0.0658333333,4.77166667 0,4.235 0,3.615 C0,2.995 0.0658333333,2.45833333 0.1975,2.005 C0.329166667,1.55166667 0.51,1.17666667 0.74,0.88 C0.97,0.583333333 1.23833333,0.3625 1.545,0.2175 C1.85166667,0.0725 2.18,-1.8189894e-12 2.53,-1.8189894e-12 C2.88,-1.8189894e-12 3.20916667,0.0725 3.5175,0.2175 C3.82583333,0.3625 4.095,0.583333333 4.325,0.88 C4.555,1.17666667 4.73666667,1.55166667 4.87,2.005 C5.00333333,2.45833333 5.07,2.995 5.07,3.615 Z M4.57,3.615 C4.57,3.04166667 4.515,2.55166667 4.405,2.145 C4.295,1.73833333 4.1475,1.40583333 3.9625,1.1475 C3.7775,0.889166667 3.56083333,0.7 3.3125,0.58 C3.06416667,0.46 2.80333333,0.4 2.53,0.4 C2.25666667,0.4 1.99666667,0.46 1.75,0.58 C1.50333333,0.7 1.28666667,0.889166667 1.1,1.1475 C0.913333333,1.40583333 0.765,1.73833333 0.655,2.145 C0.545,2.55166667 0.49,3.04166667 0.49,3.615 C0.49,4.19166667 0.545,4.6825 0.655,5.0875 C0.765,5.4925 0.913333333,5.82416667 1.1,6.0825 C1.28666667,6.34083333 1.50333333,6.52916667 1.75,6.6475 C1.99666667,6.76583333 2.25666667,6.825 2.53,6.825 C2.80333333,6.825 3.06416667,6.76583333 3.3125,6.6475 C3.56083333,6.52916667 3.7775,6.34083333 3.9625,6.0825 C4.1475,5.82416667 4.295,5.4925 4.405,5.0875 C4.515,4.6825 4.57,4.19166667 4.57,3.615 Z" id="Shape"></path>
                                    <path d="M11.4533333,3.615 C11.4533333,4.235 11.3866667,4.77166667 11.2533333,5.225 C11.12,5.67833333 10.9383333,6.05333333 10.7083333,6.35 C10.4783333,6.64666667 10.2091667,6.8675 9.90083333,7.0125 C9.5925,7.1575 9.26333333,7.23 8.91333333,7.23 C8.56333333,7.23 8.235,7.1575 7.92833333,7.0125 C7.62166667,6.8675 7.35333333,6.64666667 7.12333333,6.35 C6.89333333,6.05333333 6.7125,5.67833333 6.58083333,5.225 C6.44916667,4.77166667 6.38333333,4.235 6.38333333,3.615 C6.38333333,2.995 6.44916667,2.45833333 6.58083333,2.005 C6.7125,1.55166667 6.89333333,1.17666667 7.12333333,0.88 C7.35333333,0.583333333 7.62166667,0.3625 7.92833333,0.2175 C8.235,0.0725 8.56333333,-9.09494702e-13 8.91333333,-9.09494702e-13 C9.26333333,-9.09494702e-13 9.5925,0.0725 9.90083333,0.2175 C10.2091667,0.3625 10.4783333,0.583333333 10.7083333,0.88 C10.9383333,1.17666667 11.12,1.55166667 11.2533333,2.005 C11.3866667,2.45833333 11.4533333,2.995 11.4533333,3.615 Z M10.9533333,3.615 C10.9533333,3.04166667 10.8983333,2.55166667 10.7883333,2.145 C10.6783333,1.73833333 10.5308333,1.40583333 10.3458333,1.1475 C10.1608333,0.889166667 9.94416667,0.7 9.69583333,0.58 C9.4475,0.46 9.18666667,0.4 8.91333333,0.4 C8.64,0.4 8.38,0.46 8.13333333,0.58 C7.88666667,0.7 7.67,0.889166667 7.48333333,1.1475 C7.29666667,1.40583333 7.14833333,1.73833333 7.03833333,2.145 C6.92833333,2.55166667 6.87333333,3.04166667 6.87333333,3.615 C6.87333333,4.19166667 6.92833333,4.6825 7.03833333,5.0875 C7.14833333,5.4925 7.29666667,5.82416667 7.48333333,6.0825 C7.67,6.34083333 7.88666667,6.52916667 8.13333333,6.6475 C8.38,6.76583333 8.64,6.825 8.91333333,6.825 C9.18666667,6.825 9.4475,6.76583333 9.69583333,6.6475 C9.94416667,6.52916667 10.1608333,6.34083333 10.3458333,6.0825 C10.5308333,5.82416667 10.6783333,5.4925 10.7883333,5.0875 C10.8983333,4.6825 10.9533333,4.19166667 10.9533333,3.615 Z" id="Shape"></path>
                                    <path d="M17.8366667,3.615 C17.8366667,4.235 17.77,4.77166667 17.6366667,5.225 C17.5033333,5.67833333 17.3216667,6.05333333 17.0916667,6.35 C16.8616667,6.64666667 16.5925,6.8675 16.2841667,7.0125 C15.9758333,7.1575 15.6466667,7.23 15.2966667,7.23 C14.9466667,7.23 14.6183333,7.1575 14.3116667,7.0125 C14.005,6.8675 13.7366667,6.64666667 13.5066667,6.35 C13.2766667,6.05333333 13.0958333,5.67833333 12.9641667,5.225 C12.8325,4.77166667 12.7666667,4.235 12.7666667,3.615 C12.7666667,2.995 12.8325,2.45833333 12.9641667,2.005 C13.0958333,1.55166667 13.2766667,1.17666667 13.5066667,0.88 C13.7366667,0.583333333 14.005,0.3625 14.3116667,0.2175 C14.6183333,0.0725 14.9466667,0 15.2966667,0 C15.6466667,0 15.9758333,0.0725 16.2841667,0.2175 C16.5925,0.3625 16.8616667,0.583333333 17.0916667,0.88 C17.3216667,1.17666667 17.5033333,1.55166667 17.6366667,2.005 C17.77,2.45833333 17.8366667,2.995 17.8366667,3.615 Z M17.3366667,3.615 C17.3366667,3.04166667 17.2816667,2.55166667 17.1716667,2.145 C17.0616667,1.73833333 16.9141667,1.40583333 16.7291667,1.1475 C16.5441667,0.889166667 16.3275,0.7 16.0791667,0.58 C15.8308333,0.46 15.57,0.4 15.2966667,0.4 C15.0233333,0.4 14.7633333,0.46 14.5166667,0.58 C14.27,0.7 14.0533333,0.889166667 13.8666667,1.1475 C13.68,1.40583333 13.5316667,1.73833333 13.4216667,2.145 C13.3116667,2.55166667 13.2566667,3.04166667 13.2566667,3.615 C13.2566667,4.19166667 13.3116667,4.6825 13.4216667,5.0875 C13.5316667,5.4925 13.68,5.82416667 13.8666667,6.0825 C14.0533333,6.34083333 14.27,6.52916667 14.5166667,6.6475 C14.7633333,6.76583333 15.0233333,6.825 15.2966667,6.825 C15.57,6.825 15.8308333,6.76583333 16.0791667,6.6475 C16.3275,6.52916667 16.5441667,6.34083333 16.7291667,6.0825 C16.9141667,5.82416667 17.0616667,5.4925 17.1716667,5.0875 C17.2816667,4.6825 17.3366667,4.19166667 17.3366667,3.615 Z" id="Shape"></path>
                                    <path d="M24.22,3.615 C24.22,4.235 24.1533333,4.77166667 24.02,5.225 C23.8866667,5.67833333 23.705,6.05333333 23.475,6.35 C23.245,6.64666667 22.9758333,6.8675 22.6675,7.0125 C22.3591667,7.1575 22.03,7.23 21.68,7.23 C21.33,7.23 21.0016667,7.1575 20.695,7.0125 C20.3883333,6.8675 20.12,6.64666667 19.89,6.35 C19.66,6.05333333 19.4791667,5.67833333 19.3475,5.225 C19.2158333,4.77166667 19.15,4.235 19.15,3.615 C19.15,2.995 19.2158333,2.45833333 19.3475,2.005 C19.4791667,1.55166667 19.66,1.17666667 19.89,0.88 C20.12,0.583333333 20.3883333,0.3625 20.695,0.2175 C21.0016667,0.0725 21.33,-9.09494702e-13 21.68,-9.09494702e-13 C22.03,-9.09494702e-13 22.3591667,0.0725 22.6675,0.2175 C22.9758333,0.3625 23.245,0.583333333 23.475,0.88 C23.705,1.17666667 23.8866667,1.55166667 24.02,2.005 C24.1533333,2.45833333 24.22,2.995 24.22,3.615 Z M23.72,3.615 C23.72,3.04166667 23.665,2.55166667 23.555,2.145 C23.445,1.73833333 23.2975,1.40583333 23.1125,1.1475 C22.9275,0.889166667 22.7108333,0.7 22.4625,0.58 C22.2141667,0.46 21.9533333,0.4 21.68,0.4 C21.4066667,0.4 21.1466667,0.46 20.9,0.58 C20.6533333,0.7 20.4366667,0.889166667 20.25,1.1475 C20.0633333,1.40583333 19.915,1.73833333 19.805,2.145 C19.695,2.55166667 19.64,3.04166667 19.64,3.615 C19.64,4.19166667 19.695,4.6825 19.805,5.0875 C19.915,5.4925 20.0633333,5.82416667 20.25,6.0825 C20.4366667,6.34083333 20.6533333,6.52916667 20.9,6.6475 C21.1466667,6.76583333 21.4066667,6.825 21.68,6.825 C21.9533333,6.825 22.2141667,6.76583333 22.4625,6.6475 C22.7108333,6.52916667 22.9275,6.34083333 23.1125,6.0825 C23.2975,5.82416667 23.445,5.4925 23.555,5.0875 C23.665,4.6825 23.72,4.19166667 23.72,3.615 Z" id="Shape"></path>
                                    <path d="M35.63,3.615 C35.63,4.235 35.5633333,4.77166667 35.43,5.225 C35.2966667,5.67833333 35.115,6.05333333 34.885,6.35 C34.655,6.64666667 34.3858333,6.8675 34.0775,7.0125 C33.7691667,7.1575 33.44,7.23 33.09,7.23 C32.74,7.23 32.4116667,7.1575 32.105,7.0125 C31.7983333,6.8675 31.53,6.64666667 31.3,6.35 C31.07,6.05333333 30.8891667,5.67833333 30.7575,5.225 C30.6258333,4.77166667 30.56,4.235 30.56,3.615 C30.56,2.995 30.6258333,2.45833333 30.7575,2.005 C30.8891667,1.55166667 31.07,1.17666667 31.3,0.88 C31.53,0.583333333 31.7983333,0.3625 32.105,0.2175 C32.4116667,0.0725 32.74,0 33.09,0 C33.44,0 33.7691667,0.0725 34.0775,0.2175 C34.3858333,0.3625 34.655,0.583333333 34.885,0.88 C35.115,1.17666667 35.2966667,1.55166667 35.43,2.005 C35.5633333,2.45833333 35.63,2.995 35.63,3.615 Z M35.13,3.615 C35.13,3.04166667 35.075,2.55166667 34.965,2.145 C34.855,1.73833333 34.7075,1.40583333 34.5225,1.1475 C34.3375,0.889166667 34.1208333,0.7 33.8725,0.58 C33.6241667,0.46 33.3633333,0.4 33.09,0.4 C32.8166667,0.4 32.5566667,0.46 32.31,0.58 C32.0633333,0.7 31.8466667,0.889166667 31.66,1.1475 C31.4733333,1.40583333 31.325,1.73833333 31.215,2.145 C31.105,2.55166667 31.05,3.04166667 31.05,3.615 C31.05,4.19166667 31.105,4.6825 31.215,5.0875 C31.325,5.4925 31.4733333,5.82416667 31.66,6.0825 C31.8466667,6.34083333 32.0633333,6.52916667 32.31,6.6475 C32.5566667,6.76583333 32.8166667,6.825 33.09,6.825 C33.3633333,6.825 33.6241667,6.76583333 33.8725,6.6475 C34.1208333,6.52916667 34.3375,6.34083333 34.5225,6.0825 C34.7075,5.82416667 34.855,5.4925 34.965,5.0875 C35.075,4.6825 35.13,4.19166667 35.13,3.615 Z" id="Shape"></path>
                                    <path d="M42.0133333,3.615 C42.0133333,4.235 41.9466667,4.77166667 41.8133333,5.225 C41.68,5.67833333 41.4983333,6.05333333 41.2683333,6.35 C41.0383333,6.64666667 40.7691667,6.8675 40.4608333,7.0125 C40.1525,7.1575 39.8233333,7.23 39.4733333,7.23 C39.1233333,7.23 38.795,7.1575 38.4883333,7.0125 C38.1816667,6.8675 37.9133333,6.64666667 37.6833333,6.35 C37.4533333,6.05333333 37.2725,5.67833333 37.1408333,5.225 C37.0091667,4.77166667 36.9433333,4.235 36.9433333,3.615 C36.9433333,2.995 37.0091667,2.45833333 37.1408333,2.005 C37.2725,1.55166667 37.4533333,1.17666667 37.6833333,0.88 C37.9133333,0.583333333 38.1816667,0.3625 38.4883333,0.2175 C38.795,0.0725 39.1233333,-1.8189894e-12 39.4733333,-1.8189894e-12 C39.8233333,-1.8189894e-12 40.1525,0.0725 40.4608333,0.2175 C40.7691667,0.3625 41.0383333,0.583333333 41.2683333,0.88 C41.4983333,1.17666667 41.68,1.55166667 41.8133333,2.005 C41.9466667,2.45833333 42.0133333,2.995 42.0133333,3.615 Z M41.5133333,3.615 C41.5133333,3.04166667 41.4583333,2.55166667 41.3483333,2.145 C41.2383333,1.73833333 41.0908333,1.40583333 40.9058333,1.1475 C40.7208333,0.889166667 40.5041667,0.7 40.2558333,0.58 C40.0075,0.46 39.7466667,0.4 39.4733333,0.4 C39.2,0.4 38.94,0.46 38.6933333,0.58 C38.4466667,0.7 38.23,0.889166667 38.0433333,1.1475 C37.8566667,1.40583333 37.7083333,1.73833333 37.5983333,2.145 C37.4883333,2.55166667 37.4333333,3.04166667 37.4333333,3.615 C37.4333333,4.19166667 37.4883333,4.6825 37.5983333,5.0875 C37.7083333,5.4925 37.8566667,5.82416667 38.0433333,6.0825 C38.23,6.34083333 38.4466667,6.52916667 38.6933333,6.6475 C38.94,6.76583333 39.2,6.825 39.4733333,6.825 C39.7466667,6.825 40.0075,6.76583333 40.2558333,6.6475 C40.5041667,6.52916667 40.7208333,6.34083333 40.9058333,6.0825 C41.0908333,5.82416667 41.2383333,5.4925 41.3483333,5.0875 C41.4583333,4.6825 41.5133333,4.19166667 41.5133333,3.615 Z" id="Shape"></path>
                                    <path d="M48.3966667,3.615 C48.3966667,4.235 48.33,4.77166667 48.1966667,5.225 C48.0633333,5.67833333 47.8816667,6.05333333 47.6516667,6.35 C47.4216667,6.64666667 47.1525,6.8675 46.8441667,7.0125 C46.5358333,7.1575 46.2066667,7.23 45.8566667,7.23 C45.5066667,7.23 45.1783333,7.1575 44.8716667,7.0125 C44.565,6.8675 44.2966667,6.64666667 44.0666667,6.35 C43.8366667,6.05333333 43.6558333,5.67833333 43.5241667,5.225 C43.3925,4.77166667 43.3266667,4.235 43.3266667,3.615 C43.3266667,2.995 43.3925,2.45833333 43.5241667,2.005 C43.6558333,1.55166667 43.8366667,1.17666667 44.0666667,0.88 C44.2966667,0.583333333 44.565,0.3625 44.8716667,0.2175 C45.1783333,0.0725 45.5066667,-9.09494702e-13 45.8566667,-9.09494702e-13 C46.2066667,-9.09494702e-13 46.5358333,0.0725 46.8441667,0.2175 C47.1525,0.3625 47.4216667,0.583333333 47.6516667,0.88 C47.8816667,1.17666667 48.0633333,1.55166667 48.1966667,2.005 C48.33,2.45833333 48.3966667,2.995 48.3966667,3.615 Z M47.8966667,3.615 C47.8966667,3.04166667 47.8416667,2.55166667 47.7316667,2.145 C47.6216667,1.73833333 47.4741667,1.40583333 47.2891667,1.1475 C47.1041667,0.889166667 46.8875,0.7 46.6391667,0.58 C46.3908333,0.46 46.13,0.4 45.8566667,0.4 C45.5833333,0.4 45.3233333,0.46 45.0766667,0.58 C44.83,0.7 44.6133333,0.889166667 44.4266667,1.1475 C44.24,1.40583333 44.0916667,1.73833333 43.9816667,2.145 C43.8716667,2.55166667 43.8166667,3.04166667 43.8166667,3.615 C43.8166667,4.19166667 43.8716667,4.6825 43.9816667,5.0875 C44.0916667,5.4925 44.24,5.82416667 44.4266667,6.0825 C44.6133333,6.34083333 44.83,6.52916667 45.0766667,6.6475 C45.3233333,6.76583333 45.5833333,6.825 45.8566667,6.825 C46.13,6.825 46.3908333,6.76583333 46.6391667,6.6475 C46.8875,6.52916667 47.1041667,6.34083333 47.2891667,6.0825 C47.4741667,5.82416667 47.6216667,5.4925 47.7316667,5.0875 C47.8416667,4.6825 47.8966667,4.19166667 47.8966667,3.615 Z" id="Shape"></path>
                                    <path d="M54.78,3.615 C54.78,4.235 54.7133333,4.77166667 54.58,5.225 C54.4466667,5.67833333 54.265,6.05333333 54.035,6.35 C53.805,6.64666667 53.5358333,6.8675 53.2275,7.0125 C52.9191667,7.1575 52.59,7.23 52.24,7.23 C51.89,7.23 51.5616667,7.1575 51.255,7.0125 C50.9483333,6.8675 50.68,6.64666667 50.45,6.35 C50.22,6.05333333 50.0391667,5.67833333 49.9075,5.225 C49.7758333,4.77166667 49.71,4.235 49.71,3.615 C49.71,2.995 49.7758333,2.45833333 49.9075,2.005 C50.0391667,1.55166667 50.22,1.17666667 50.45,0.88 C50.68,0.583333333 50.9483333,0.3625 51.255,0.2175 C51.5616667,0.0725 51.89,0 52.24,0 C52.59,0 52.9191667,0.0725 53.2275,0.2175 C53.5358333,0.3625 53.805,0.583333333 54.035,0.88 C54.265,1.17666667 54.4466667,1.55166667 54.58,2.005 C54.7133333,2.45833333 54.78,2.995 54.78,3.615 Z M54.28,3.615 C54.28,3.04166667 54.225,2.55166667 54.115,2.145 C54.005,1.73833333 53.8575,1.40583333 53.6725,1.1475 C53.4875,0.889166667 53.2708333,0.7 53.0225,0.58 C52.7741667,0.46 52.5133333,0.4 52.24,0.4 C51.9666667,0.4 51.7066667,0.46 51.46,0.58 C51.2133333,0.7 50.9966667,0.889166667 50.81,1.1475 C50.6233333,1.40583333 50.475,1.73833333 50.365,2.145 C50.255,2.55166667 50.2,3.04166667 50.2,3.615 C50.2,4.19166667 50.255,4.6825 50.365,5.0875 C50.475,5.4925 50.6233333,5.82416667 50.81,6.0825 C50.9966667,6.34083333 51.2133333,6.52916667 51.46,6.6475 C51.7066667,6.76583333 51.9666667,6.825 52.24,6.825 C52.5133333,6.825 52.7741667,6.76583333 53.0225,6.6475 C53.2708333,6.52916667 53.4875,6.34083333 53.6725,6.0825 C53.8575,5.82416667 54.005,5.4925 54.115,5.0875 C54.225,4.6825 54.28,4.19166667 54.28,3.615 Z" id="Shape"></path>
                                    <path d="M66.19,3.615 C66.19,4.235 66.1233333,4.77166667 65.99,5.225 C65.8566667,5.67833333 65.675,6.05333333 65.445,6.35 C65.215,6.64666667 64.9458333,6.8675 64.6375,7.0125 C64.3291667,7.1575 64,7.23 63.65,7.23 C63.3,7.23 62.9716667,7.1575 62.665,7.0125 C62.3583333,6.8675 62.09,6.64666667 61.86,6.35 C61.63,6.05333333 61.4491667,5.67833333 61.3175,5.225 C61.1858333,4.77166667 61.12,4.235 61.12,3.615 C61.12,2.995 61.1858333,2.45833333 61.3175,2.005 C61.4491667,1.55166667 61.63,1.17666667 61.86,0.88 C62.09,0.583333333 62.3583333,0.3625 62.665,0.2175 C62.9716667,0.0725 63.3,-9.09494702e-13 63.65,-9.09494702e-13 C64,-9.09494702e-13 64.3291667,0.0725 64.6375,0.2175 C64.9458333,0.3625 65.215,0.583333333 65.445,0.88 C65.675,1.17666667 65.8566667,1.55166667 65.99,2.005 C66.1233333,2.45833333 66.19,2.995 66.19,3.615 Z M65.69,3.615 C65.69,3.04166667 65.635,2.55166667 65.525,2.145 C65.415,1.73833333 65.2675,1.40583333 65.0825,1.1475 C64.8975,0.889166667 64.6808333,0.7 64.4325,0.58 C64.1841667,0.46 63.9233333,0.4 63.65,0.4 C63.3766667,0.4 63.1166667,0.46 62.87,0.58 C62.6233333,0.7 62.4066667,0.889166667 62.22,1.1475 C62.0333333,1.40583333 61.885,1.73833333 61.775,2.145 C61.665,2.55166667 61.61,3.04166667 61.61,3.615 C61.61,4.19166667 61.665,4.6825 61.775,5.0875 C61.885,5.4925 62.0333333,5.82416667 62.22,6.0825 C62.4066667,6.34083333 62.6233333,6.52916667 62.87,6.6475 C63.1166667,6.76583333 63.3766667,6.825 63.65,6.825 C63.9233333,6.825 64.1841667,6.76583333 64.4325,6.6475 C64.6808333,6.52916667 64.8975,6.34083333 65.0825,6.0825 C65.2675,5.82416667 65.415,5.4925 65.525,5.0875 C65.635,4.6825 65.69,4.19166667 65.69,3.615 Z" id="Shape"></path>
                                    <path d="M72.5733333,3.615 C72.5733333,4.235 72.5066667,4.77166667 72.3733333,5.225 C72.24,5.67833333 72.0583333,6.05333333 71.8283333,6.35 C71.5983333,6.64666667 71.3291667,6.8675 71.0208333,7.0125 C70.7125,7.1575 70.3833333,7.23 70.0333333,7.23 C69.6833333,7.23 69.355,7.1575 69.0483333,7.0125 C68.7416667,6.8675 68.4733333,6.64666667 68.2433333,6.35 C68.0133333,6.05333333 67.8325,5.67833333 67.7008333,5.225 C67.5691667,4.77166667 67.5033333,4.235 67.5033333,3.615 C67.5033333,2.995 67.5691667,2.45833333 67.7008333,2.005 C67.8325,1.55166667 68.0133333,1.17666667 68.2433333,0.88 C68.4733333,0.583333333 68.7416667,0.3625 69.0483333,0.2175 C69.355,0.0725 69.6833333,0 70.0333333,0 C70.3833333,0 70.7125,0.0725 71.0208333,0.2175 C71.3291667,0.3625 71.5983333,0.583333333 71.8283333,0.88 C72.0583333,1.17666667 72.24,1.55166667 72.3733333,2.005 C72.5066667,2.45833333 72.5733333,2.995 72.5733333,3.615 Z M72.0733333,3.615 C72.0733333,3.04166667 72.0183333,2.55166667 71.9083333,2.145 C71.7983333,1.73833333 71.6508333,1.40583333 71.4658333,1.1475 C71.2808333,0.889166667 71.0641667,0.7 70.8158333,0.58 C70.5675,0.46 70.3066667,0.4 70.0333333,0.4 C69.76,0.4 69.5,0.46 69.2533333,0.58 C69.0066667,0.7 68.79,0.889166667 68.6033333,1.1475 C68.4166667,1.40583333 68.2683333,1.73833333 68.1583333,2.145 C68.0483333,2.55166667 67.9933333,3.04166667 67.9933333,3.615 C67.9933333,4.19166667 68.0483333,4.6825 68.1583333,5.0875 C68.2683333,5.4925 68.4166667,5.82416667 68.6033333,6.0825 C68.79,6.34083333 69.0066667,6.52916667 69.2533333,6.6475 C69.5,6.76583333 69.76,6.825 70.0333333,6.825 C70.3066667,6.825 70.5675,6.76583333 70.8158333,6.6475 C71.0641667,6.52916667 71.2808333,6.34083333 71.4658333,6.0825 C71.6508333,5.82416667 71.7983333,5.4925 71.9083333,5.0875 C72.0183333,4.6825 72.0733333,4.19166667 72.0733333,3.615 Z" id="Shape"></path>
                                    <path d="M78.9566667,3.615 C78.9566667,4.235 78.89,4.77166667 78.7566667,5.225 C78.6233333,5.67833333 78.4416667,6.05333333 78.2116667,6.35 C77.9816667,6.64666667 77.7125,6.8675 77.4041667,7.0125 C77.0958333,7.1575 76.7666667,7.23 76.4166667,7.23 C76.0666667,7.23 75.7383333,7.1575 75.4316667,7.0125 C75.125,6.8675 74.8566667,6.64666667 74.6266667,6.35 C74.3966667,6.05333333 74.2158333,5.67833333 74.0841667,5.225 C73.9525,4.77166667 73.8866667,4.235 73.8866667,3.615 C73.8866667,2.995 73.9525,2.45833333 74.0841667,2.005 C74.2158333,1.55166667 74.3966667,1.17666667 74.6266667,0.88 C74.8566667,0.583333333 75.125,0.3625 75.4316667,0.2175 C75.7383333,0.0725 76.0666667,-1.8189894e-12 76.4166667,-1.8189894e-12 C76.7666667,-1.8189894e-12 77.0958333,0.0725 77.4041667,0.2175 C77.7125,0.3625 77.9816667,0.583333333 78.2116667,0.88 C78.4416667,1.17666667 78.6233333,1.55166667 78.7566667,2.005 C78.89,2.45833333 78.9566667,2.995 78.9566667,3.615 Z M78.4566667,3.615 C78.4566667,3.04166667 78.4016667,2.55166667 78.2916667,2.145 C78.1816667,1.73833333 78.0341667,1.40583333 77.8491667,1.1475 C77.6641667,0.889166667 77.4475,0.7 77.1991667,0.58 C76.9508333,0.46 76.69,0.4 76.4166667,0.4 C76.1433333,0.4 75.8833333,0.46 75.6366667,0.58 C75.39,0.7 75.1733333,0.889166667 74.9866667,1.1475 C74.8,1.40583333 74.6516667,1.73833333 74.5416667,2.145 C74.4316667,2.55166667 74.3766667,3.04166667 74.3766667,3.615 C74.3766667,4.19166667 74.4316667,4.6825 74.5416667,5.0875 C74.6516667,5.4925 74.8,5.82416667 74.9866667,6.0825 C75.1733333,6.34083333 75.39,6.52916667 75.6366667,6.6475 C75.8833333,6.76583333 76.1433333,6.825 76.4166667,6.825 C76.69,6.825 76.9508333,6.76583333 77.1991667,6.6475 C77.4475,6.52916667 77.6641667,6.34083333 77.8491667,6.0825 C78.0341667,5.82416667 78.1816667,5.4925 78.2916667,5.0875 C78.4016667,4.6825 78.4566667,4.19166667 78.4566667,3.615 Z" id="Shape"></path>
                                    <path d="M85.34,3.615 C85.34,4.235 85.2733333,4.77166667 85.14,5.225 C85.0066667,5.67833333 84.825,6.05333333 84.595,6.35 C84.365,6.64666667 84.0958333,6.8675 83.7875,7.0125 C83.4791667,7.1575 83.15,7.23 82.8,7.23 C82.45,7.23 82.1216667,7.1575 81.815,7.0125 C81.5083333,6.8675 81.24,6.64666667 81.01,6.35 C80.78,6.05333333 80.5991667,5.67833333 80.4675,5.225 C80.3358333,4.77166667 80.27,4.235 80.27,3.615 C80.27,2.995 80.3358333,2.45833333 80.4675,2.005 C80.5991667,1.55166667 80.78,1.17666667 81.01,0.88 C81.24,0.583333333 81.5083333,0.3625 81.815,0.2175 C82.1216667,0.0725 82.45,-9.09494702e-13 82.8,-9.09494702e-13 C83.15,-9.09494702e-13 83.4791667,0.0725 83.7875,0.2175 C84.0958333,0.3625 84.365,0.583333333 84.595,0.88 C84.825,1.17666667 85.0066667,1.55166667 85.14,2.005 C85.2733333,2.45833333 85.34,2.995 85.34,3.615 Z M84.84,3.615 C84.84,3.04166667 84.785,2.55166667 84.675,2.145 C84.565,1.73833333 84.4175,1.40583333 84.2325,1.1475 C84.0475,0.889166667 83.8308333,0.7 83.5825,0.58 C83.3341667,0.46 83.0733333,0.4 82.8,0.4 C82.5266667,0.4 82.2666667,0.46 82.02,0.58 C81.7733333,0.7 81.5566667,0.889166667 81.37,1.1475 C81.1833333,1.40583333 81.035,1.73833333 80.925,2.145 C80.815,2.55166667 80.76,3.04166667 80.76,3.615 C80.76,4.19166667 80.815,4.6825 80.925,5.0875 C81.035,5.4925 81.1833333,5.82416667 81.37,6.0825 C81.5566667,6.34083333 81.7733333,6.52916667 82.02,6.6475 C82.2666667,6.76583333 82.5266667,6.825 82.8,6.825 C83.0733333,6.825 83.3341667,6.76583333 83.5825,6.6475 C83.8308333,6.52916667 84.0475,6.34083333 84.2325,6.0825 C84.4175,5.82416667 84.565,5.4925 84.675,5.0875 C84.785,4.6825 84.84,4.19166667 84.84,3.615 Z" id="Shape"></path>
                                    <path d="M96.75,3.615 C96.75,4.235 96.6833333,4.77166667 96.55,5.225 C96.4166667,5.67833333 96.235,6.05333333 96.005,6.35 C95.775,6.64666667 95.5058333,6.8675 95.1975,7.0125 C94.8891667,7.1575 94.56,7.23 94.21,7.23 C93.86,7.23 93.5316667,7.1575 93.225,7.0125 C92.9183333,6.8675 92.65,6.64666667 92.42,6.35 C92.19,6.05333333 92.0091667,5.67833333 91.8775,5.225 C91.7458333,4.77166667 91.68,4.235 91.68,3.615 C91.68,2.995 91.7458333,2.45833333 91.8775,2.005 C92.0091667,1.55166667 92.19,1.17666667 92.42,0.88 C92.65,0.583333333 92.9183333,0.3625 93.225,0.2175 C93.5316667,0.0725 93.86,-1.8189894e-12 94.21,-1.8189894e-12 C94.56,-1.8189894e-12 94.8891667,0.0725 95.1975,0.2175 C95.5058333,0.3625 95.775,0.583333333 96.005,0.88 C96.235,1.17666667 96.4166667,1.55166667 96.55,2.005 C96.6833333,2.45833333 96.75,2.995 96.75,3.615 Z M96.25,3.615 C96.25,3.04166667 96.195,2.55166667 96.085,2.145 C95.975,1.73833333 95.8275,1.40583333 95.6425,1.1475 C95.4575,0.889166667 95.2408333,0.7 94.9925,0.58 C94.7441667,0.46 94.4833333,0.4 94.21,0.4 C93.9366667,0.4 93.6766667,0.46 93.43,0.58 C93.1833333,0.7 92.9666667,0.889166667 92.78,1.1475 C92.5933333,1.40583333 92.445,1.73833333 92.335,2.145 C92.225,2.55166667 92.17,3.04166667 92.17,3.615 C92.17,4.19166667 92.225,4.6825 92.335,5.0875 C92.445,5.4925 92.5933333,5.82416667 92.78,6.0825 C92.9666667,6.34083333 93.1833333,6.52916667 93.43,6.6475 C93.6766667,6.76583333 93.9366667,6.825 94.21,6.825 C94.4833333,6.825 94.7441667,6.76583333 94.9925,6.6475 C95.2408333,6.52916667 95.4575,6.34083333 95.6425,6.0825 C95.8275,5.82416667 95.975,5.4925 96.085,5.0875 C96.195,4.6825 96.25,4.19166667 96.25,3.615 Z" id="Shape"></path>
                                    <path d="M103.133333,3.615 C103.133333,4.235 103.066667,4.77166667 102.933333,5.225 C102.8,5.67833333 102.618333,6.05333333 102.388333,6.35 C102.158333,6.64666667 101.889167,6.8675 101.580833,7.0125 C101.2725,7.1575 100.943333,7.23 100.593333,7.23 C100.243333,7.23 99.915,7.1575 99.6083333,7.0125 C99.3016667,6.8675 99.0333333,6.64666667 98.8033333,6.35 C98.5733333,6.05333333 98.3925,5.67833333 98.2608333,5.225 C98.1291667,4.77166667 98.0633333,4.235 98.0633333,3.615 C98.0633333,2.995 98.1291667,2.45833333 98.2608333,2.005 C98.3925,1.55166667 98.5733333,1.17666667 98.8033333,0.88 C99.0333333,0.583333333 99.3016667,0.3625 99.6083333,0.2175 C99.915,0.0725 100.243333,-9.09494702e-13 100.593333,-9.09494702e-13 C100.943333,-9.09494702e-13 101.2725,0.0725 101.580833,0.2175 C101.889167,0.3625 102.158333,0.583333333 102.388333,0.88 C102.618333,1.17666667 102.8,1.55166667 102.933333,2.005 C103.066667,2.45833333 103.133333,2.995 103.133333,3.615 Z M102.633333,3.615 C102.633333,3.04166667 102.578333,2.55166667 102.468333,2.145 C102.358333,1.73833333 102.210833,1.40583333 102.025833,1.1475 C101.840833,0.889166667 101.624167,0.7 101.375833,0.58 C101.1275,0.46 100.866667,0.4 100.593333,0.4 C100.32,0.4 100.06,0.46 99.8133333,0.58 C99.5666667,0.7 99.35,0.889166667 99.1633333,1.1475 C98.9766667,1.40583333 98.8283333,1.73833333 98.7183333,2.145 C98.6083333,2.55166667 98.5533333,3.04166667 98.5533333,3.615 C98.5533333,4.19166667 98.6083333,4.6825 98.7183333,5.0875 C98.8283333,5.4925 98.9766667,5.82416667 99.1633333,6.0825 C99.35,6.34083333 99.5666667,6.52916667 99.8133333,6.6475 C100.06,6.76583333 100.32,6.825 100.593333,6.825 C100.866667,6.825 101.1275,6.76583333 101.375833,6.6475 C101.624167,6.52916667 101.840833,6.34083333 102.025833,6.0825 C102.210833,5.82416667 102.358333,5.4925 102.468333,5.0875 C102.578333,4.6825 102.633333,4.19166667 102.633333,3.615 Z" id="Shape"></path>
                                    <path d="M109.516667,3.615 C109.516667,4.235 109.45,4.77166667 109.316667,5.225 C109.183333,5.67833333 109.001667,6.05333333 108.771667,6.35 C108.541667,6.64666667 108.2725,6.8675 107.964167,7.0125 C107.655833,7.1575 107.326667,7.23 106.976667,7.23 C106.626667,7.23 106.298333,7.1575 105.991667,7.0125 C105.685,6.8675 105.416667,6.64666667 105.186667,6.35 C104.956667,6.05333333 104.775833,5.67833333 104.644167,5.225 C104.5125,4.77166667 104.446667,4.235 104.446667,3.615 C104.446667,2.995 104.5125,2.45833333 104.644167,2.005 C104.775833,1.55166667 104.956667,1.17666667 105.186667,0.88 C105.416667,0.583333333 105.685,0.3625 105.991667,0.2175 C106.298333,0.0725 106.626667,0 106.976667,0 C107.326667,0 107.655833,0.0725 107.964167,0.2175 C108.2725,0.3625 108.541667,0.583333333 108.771667,0.88 C109.001667,1.17666667 109.183333,1.55166667 109.316667,2.005 C109.45,2.45833333 109.516667,2.995 109.516667,3.615 Z M109.016667,3.615 C109.016667,3.04166667 108.961667,2.55166667 108.851667,2.145 C108.741667,1.73833333 108.594167,1.40583333 108.409167,1.1475 C108.224167,0.889166667 108.0075,0.7 107.759167,0.58 C107.510833,0.46 107.25,0.4 106.976667,0.4 C106.703333,0.4 106.443333,0.46 106.196667,0.58 C105.95,0.7 105.733333,0.889166667 105.546667,1.1475 C105.36,1.40583333 105.211667,1.73833333 105.101667,2.145 C104.991667,2.55166667 104.936667,3.04166667 104.936667,3.615 C104.936667,4.19166667 104.991667,4.6825 105.101667,5.0875 C105.211667,5.4925 105.36,5.82416667 105.546667,6.0825 C105.733333,6.34083333 105.95,6.52916667 106.196667,6.6475 C106.443333,6.76583333 106.703333,6.825 106.976667,6.825 C107.25,6.825 107.510833,6.76583333 107.759167,6.6475 C108.0075,6.52916667 108.224167,6.34083333 108.409167,6.0825 C108.594167,5.82416667 108.741667,5.4925 108.851667,5.0875 C108.961667,4.6825 109.016667,4.19166667 109.016667,3.615 Z" id="Shape"></path>
                                    <path d="M115.9,3.615 C115.9,4.235 115.833333,4.77166667 115.7,5.225 C115.566667,5.67833333 115.385,6.05333333 115.155,6.35 C114.925,6.64666667 114.655833,6.8675 114.3475,7.0125 C114.039167,7.1575 113.71,7.23 113.36,7.23 C113.01,7.23 112.681667,7.1575 112.375,7.0125 C112.068333,6.8675 111.8,6.64666667 111.57,6.35 C111.34,6.05333333 111.159167,5.67833333 111.0275,5.225 C110.895833,4.77166667 110.83,4.235 110.83,3.615 C110.83,2.995 110.895833,2.45833333 111.0275,2.005 C111.159167,1.55166667 111.34,1.17666667 111.57,0.88 C111.8,0.583333333 112.068333,0.3625 112.375,0.2175 C112.681667,0.0725 113.01,-1.8189894e-12 113.36,-1.8189894e-12 C113.71,-1.8189894e-12 114.039167,0.0725 114.3475,0.2175 C114.655833,0.3625 114.925,0.583333333 115.155,0.88 C115.385,1.17666667 115.566667,1.55166667 115.7,2.005 C115.833333,2.45833333 115.9,2.995 115.9,3.615 Z M115.4,3.615 C115.4,3.04166667 115.345,2.55166667 115.235,2.145 C115.125,1.73833333 114.9775,1.40583333 114.7925,1.1475 C114.6075,0.889166667 114.390833,0.7 114.1425,0.58 C113.894167,0.46 113.633333,0.4 113.36,0.4 C113.086667,0.4 112.826667,0.46 112.58,0.58 C112.333333,0.7 112.116667,0.889166667 111.93,1.1475 C111.743333,1.40583333 111.595,1.73833333 111.485,2.145 C111.375,2.55166667 111.32,3.04166667 111.32,3.615 C111.32,4.19166667 111.375,4.6825 111.485,5.0875 C111.595,5.4925 111.743333,5.82416667 111.93,6.0825 C112.116667,6.34083333 112.333333,6.52916667 112.58,6.6475 C112.826667,6.76583333 113.086667,6.825 113.36,6.825 C113.633333,6.825 113.894167,6.76583333 114.1425,6.6475 C114.390833,6.52916667 114.6075,6.34083333 114.7925,6.0825 C114.9775,5.82416667 115.125,5.4925 115.235,5.0875 C115.345,4.6825 115.4,4.19166667 115.4,3.615 Z" id="Shape"></path>
                                </g>
                                <rect id="Rectangle" fill="#2E3031" x="13" y="81" width="35" height="4"></rect>
                                <rect id="Rectangle-Copy-5" fill="#2E3031" x="13" y="70" width="94" height="6"></rect>
                                <rect id="Rectangle-Copy-6" fill="#2E3031" x="102" y="10" width="39" height="4"></rect>
                                <g id="Content/Logos/MCB-icon/2---logo-mcb-icon-black" transform="translate(13.000000, 10.000000)">
                                    <rect id="Rectangle" fill-opacity="0" fill="#FFFFFF" x="0" y="0" width="20" height="17.1428571"></rect>
                                    <path d="M10.4069831,3.04683364 C9.71825872,4.12067552 9.13541507,5.33815125 9.03369629,6.42847025 C9.02970079,6.47157705 9.02570529,6.51318592 9.0232081,6.55396262 C8.83175703,8.96960756 9.74456243,10.5883593 10.9234016,11.706473 C11.9044634,12.6326866 13.0808054,13.1817574 13.9235231,13.4638655 C13.188018,12.7546838 12.7508436,11.8669169 12.6474601,10.8596492 L12.6474601,10.856154 C12.6189921,10.5770417 12.6159955,10.2894411 12.6399685,9.99534959 C12.6464612,9.91362975 12.6547852,9.83190992 12.6654398,9.74935791 C12.9694308,6.92777677 15.1231721,4.81937178 15.1396535,4.80256179 C16.6659348,3.09360201 18.4507582,2.05471158 19.1751091,1.67523863 C16.363775,1.51962143 13.343676,1.99129966 10.4069831,3.04683364 M4.72271766,11.5369585 C5.93501912,14.6809252 9.10444994,16.7763482 12.6514556,16.7803427 C13.2925669,16.7810084 13.9228571,16.7137684 14.5383307,16.58062 C13.3476715,16.9452802 12.1025737,17.1298572 10.8260112,17.1298572 C6.52735208,17.1291915 2.40615973,14.9382345 0.285714286,11.5374578 Z M19.8503487,12.4368752 C18.3630236,14.8282206 15.732153,16.246584 12.7808099,16.246584 C10.3294038,16.246584 8.10457593,15.2825895 6.55532058,13.5751277 C7.8263892,14.6140181 9.40927334,15.1772359 11.0910461,15.1772359 C13.324198,15.1772359 15.3805489,14.1789557 16.740018,12.4367088 Z M9.25444769,3.48638981 C8.71538808,4.37964917 8.28287514,5.34980174 8.1471946,6.319455 C8.14086839,6.36405971 8.13554106,6.41016235 8.12971429,6.45676429 C7.80924184,9.06647303 8.76466592,10.9719931 10.0150911,12.2393995 C10.6372238,12.8723537 11.3262812,13.3550167 11.9740517,13.715516 C12.0396445,13.751799 12.0990776,13.7842539 12.1636715,13.8180403 L12.1607143,13.817 L11.9712216,13.8130472 C10.2752981,13.7371526 9.07664792,13.2864453 8.53392576,13.0369585 C5.36466142,11.6117712 3.97339483,8.43268662 4.2048009,5.9984009 C5.47487064,5.02392101 7.89814173,4.01332462 9.25444769,3.48638981 Z M11.9970592,0.366722679 C12.3739681,-0.296689249 15.1445147,-0.0828196231 17.154751,1.19523863 C13.8910929,1.30858121 10.7845912,2.43152157 10.7845912,2.43152157 C11.2237633,1.67374071 11.5177656,1.01066165 11.9970592,0.366722679 Z" id="Ship" fill="#AD000C"></path>
                                </g>
                                <g id="Group" transform="translate(13.000000, 41.000000)" stroke="#2E3031" stroke-width="0.5">
                                    <rect id="Rectangle" fill="#FF930F" x="0" y="0" width="16.6666667" height="11" rx="2"></rect>
                                    <line x1="11.25" y1="4.125" x2="16.25" y2="4.125" id="Line-2" stroke-linecap="square"></line>
                                    <line x1="0.416666667" y1="4.125" x2="5.41666667" y2="4.125" id="Line-2-Copy-2" stroke-linecap="square"></line>
                                    <line x1="11.25" y1="7.79166667" x2="16.25" y2="7.79166667" id="Line-2-Copy" stroke-linecap="square"></line>
                                    <line x1="0.416666667" y1="7.79166667" x2="5.41666667" y2="7.79166667" id="Line-2-Copy-3" stroke-linecap="square"></line>
                                    <rect id="Rectangle-Copy" x="5.83333333" y="0" width="5" height="11" rx="2"></rect>
                                </g>
                            </g>
                        </g>
                    </g>
                    <rect id="Rectangle" x="0" y="0" width="360" height="280"></rect>
                </g>
                <g id="2---Micro-illustrations/Status/Status-error/status-error-96px" transform="translate(226.000000, 52.000000)">
                    <rect id="Rectangle" fill-opacity="0" fill="#FFFFFF" x="0" y="0" width="96" height="96"></rect>
                    <g id="1---Icons/Status/Check_circle/40px/2-Filled" transform="translate(8.000000, 8.000000)">
                        <rect id="Rectangle" fill-opacity="0" fill="#FFFFFF" x="0" y="0" width="80" height="80"></rect>
                        <g id="🎨-colour" transform="translate(6.666667, 6.666667)" fill="#DC143D">
                            <path d="M33.3333333,66.6666667 C51.7426667,66.6666667 66.6666667,51.7433333 66.6666667,33.3333333 C66.6666667,14.9233333 51.7426667,0 33.3333333,0 C14.924,0 0,14.9233333 0,33.3333333 C0,51.7433333 14.924,66.6666667 33.3333333,66.6666667 Z M33.3333333,13.3333333 C34.2536667,13.3333333 35,14.08 35,15 L35,38.3333333 C35,39.2533333 34.2536667,40 33.3333333,40 C32.413,40 31.6666667,39.2533333 31.6666667,38.3333333 L31.6666667,15 C31.6666667,14.08 32.413,13.3333333 33.3333333,13.3333333 Z M35.8333333,49.1666667 C35.8333333,50.5466667 34.714,51.6666667 33.3333333,51.6666667 C31.9526667,51.6666667 30.8333333,50.5466667 30.8333333,49.1666667 C30.8333333,47.7866667 31.9526667,46.6666667 33.3333333,46.6666667 C34.714,46.6666667 35.8333333,47.7866667 35.8333333,49.1666667 Z"></path>
                        </g>
                    </g>
                </g>
            </g>
        </g>
    </g>
</svg>