<?xml version="1.0" encoding="UTF-8"?>
<svg width="40px" height="40px" viewBox="0 0 40 40" version="1.1" xmlns="http://www.w3.org/2000/svg" xmlns:xlink="http://www.w3.org/1999/xlink">
    <title>2225A841-E860-4EA1-8644-277509103C21</title>
    <g id="Icons-40px" stroke="none" stroke-width="1" fill="none" fill-rule="evenodd">
        <g id="🎨-colour" fill="#000000" transform="translate(3.333333, 3.333333)">
            <path d="M16.6666667,33.3333333 C25.8713333,33.3333333 33.3333333,25.8713333 33.3333333,16.6666667 C33.3333333,7.46191667 25.8713333,0 16.6666667,0 C7.46191667,0 0,7.46191667 0,16.6666667 C0,25.8713333 7.46191667,33.3333333 16.6666667,33.3333333 Z M30.8131667,21.6666667 C31.3658333,20.1028333 31.6666667,18.4198333 31.6666667,16.6666667 C31.6666667,14.9134833 31.3658333,13.2305667 30.8131667,11.6666667 L23.1926667,11.6666667 C23.5528333,13.24335 23.7515,14.7921333 23.7768333,16.3575833 C23.8048333,18.1008333 23.6176667,19.8498333 23.21,21.6666667 L30.8131667,21.6666667 Z M21.499,21.6666667 L11.4472333,21.6666667 C11.0054,19.8288333 10.8083,18.0948333 10.8358667,16.38445 C10.8609667,14.8267333 11.0725333,13.2744667 11.4660167,11.6666667 L21.4801667,11.6666667 C21.8736667,13.2744667 22.0851667,14.8267333 22.1103333,16.38445 C22.1378333,18.0948333 21.9408333,19.8288333 21.499,21.6666667 Z M22.756,10 L30.1075,10 C28.0413333,5.8426 24.1033333,2.77971667 19.396,1.91438333 C20.8758333,4.83493333 22.0116667,7.47166667 22.756,10 Z M17.4048333,1.68451667 L17.5928333,2.04883333 C19.1111667,4.99113333 20.2565,7.57753333 21.0143333,10 L11.93185,10 C12.68965,7.57753333 13.8349333,4.99113333 15.3533833,2.04883333 L15.5286667,1.70918333 C15.9043167,1.68101667 16.2838167,1.66666667 16.6666667,1.66666667 C16.9141667,1.66666667 17.1601667,1.67266667 17.4048333,1.68451667 Z M21.0401667,23.3333333 C20.3008333,25.7266667 19.1665,28.3213333 17.5973333,31.2758333 L17.3991667,31.6491667 C17.1563333,31.6608333 16.9121667,31.6666667 16.6666667,31.6666667 C16.2856333,31.6666667 15.9079333,31.6525 15.53405,31.6245 L15.3488333,31.2758333 C13.7797333,28.3213333 12.6453667,25.7266667 11.9060667,23.3333333 L21.0401667,23.3333333 Z M19.4055,31.4171667 C20.9356667,28.4693333 22.0563333,25.824 22.78,23.3333333 L30.1075,23.3333333 C28.0428333,27.488 24.1085,30.5495 19.4055,31.4171667 Z M9.16941667,16.3575833 C9.19465,14.7921333 9.3934,13.24335 9.75351667,11.6666667 L2.5202,11.6666667 C1.96743333,13.2305667 1.66666667,14.9134833 1.66666667,16.6666667 C1.66666667,18.4198333 1.96743333,20.1028333 2.5202,21.6666667 L9.7362,21.6666667 C9.32848333,19.8498333 9.14131667,18.1008333 9.16941667,16.3575833 Z M10.1901333,10 C10.9272,7.49643333 12.0482,4.88655 13.5068,2.00008333 C8.99048333,2.96845 5.22861667,5.96998333 3.22586667,10 L10.1901333,10 Z M3.22586667,23.3333333 L10.1661833,23.3333333 C10.8828333,25.7996667 11.98865,28.4176667 13.4958833,31.3308333 C8.98443333,30.36 5.227,27.3601667 3.22586667,23.3333333 Z"></path>
        </g>
    </g>
</svg>