<?xml version="1.0" encoding="UTF-8"?>
<svg width="72px" height="72px" viewBox="0 0 72 72" version="1.1" xmlns="http://www.w3.org/2000/svg" xmlns:xlink="http://www.w3.org/1999/xlink">
    <title>D1F66586-F230-4B62-875E-8A5CB8ED0A93@2x</title>
    <g id="Downloadable-assets" stroke="none" stroke-width="1" fill="none" fill-rule="evenodd">
        <g transform="translate(-711.000000, -1189.000000)" id="Content/Loader/loader-large">
            <g transform="translate(711.000000, 1189.000000)">
                <rect id="Rectangle" fill-opacity="0" fill="#FFFFFF" x="0" y="0" width="72" height="72"></rect>
                <path d="M36,0 C55.882251,0 72,16.117749 72,36 C72,55.882251 55.882251,72 36,72 C34.3431458,72 33,70.6568542 33,69 C33,67.3431458 34.3431458,66 36,66 C52.5685425,66 66,52.5685425 66,36 C66,19.4314575 52.5685425,6 36,6 C19.4314575,6 6,19.4314575 6,36 C6,37.6568542 4.65685425,39 3,39 C1.34314575,39 0,37.6568542 0,36 C0,16.117749 16.117749,0 36,0 Z" id="Oval-Copy-12" fill="#6CAFFF" fill-rule="nonzero" transform="translate(36.000000, 36.000000) rotate(-180.000000) translate(-36.000000, -36.000000) "></path>
            </g>
        </g>
    </g>
</svg>