<?xml version="1.0" encoding="UTF-8"?>
<svg width="40px" height="40px" viewBox="0 0 40 40" version="1.1" xmlns="http://www.w3.org/2000/svg" xmlns:xlink="http://www.w3.org/1999/xlink">
    <title>AB1301B6-8628-491D-9393-520F9B9CC5BA</title>
    <g id="Icons-40px" stroke="none" stroke-width="1" fill="none" fill-rule="evenodd">
        <g id="shape" transform="translate(4.999930, 4.166667)">
            <polygon id="Path-2" fill="#FF688D" points="0.543602011 29.7965476 7.03218709e-05 24.8494464 3.26321074 24.8494464 5.82148795 23.2749306 4.52026868 17.4975997 5.82148795 13.2927369 8.91517515 12.2868999 11.4370743 10.8333333 19.696784 10.8333333 25.7892731 21.5859567 22.5747886 24.8494464 24.2733047 26.1746474 18.2755222 30.5042664 8.91517515 31.0878122 5.17943126 28.3218382"></polygon>
            <path d="M19.5912875,0.0110938828 C18.6701837,0.0923598759 17.7065421,0.6191179 16.6718827,1.55900747 L16.4150703,1.79833333 L14.9947251,1.54827199 C14.6353513,1.48501027 14.276618,1.66291272 14.1094778,1.98728239 L13.343262,3.49402846 L12.8894831,4.41734898 L12.5364694,5.17136766 L12.2816572,5.76319726 L12.1650727,6.07115775 C12.1491419,6.11685801 12.1349505,6.1597743 12.1224827,6.19995052 L12.0682324,6.40847831 L12.0558692,6.58160719 C12.0555288,6.66495692 12.0648387,6.75003009 12.0877972,6.86628147 L12.1530966,7.14908249 L12.3800703,8.00833333 L11.7484037,9.61 L10.731737,10.7883333 L10.6562287,10.7493894 C10.3232563,10.5749813 10.1031755,10.4858521 9.82594762,10.4587576 C9.55658501,10.4326184 9.18142458,10.5043536 8.66655599,10.679331 L8.1902349,10.8547204 C8.10488204,10.8882077 8.01648027,10.9238333 7.92493072,10.9616128 L7.33706914,11.2142619 L6.66891541,11.5193565 L5.91572404,11.8776475 C5.71221807,11.975953 5.55736844,12.1527003 5.48667765,12.3673662 L4.05083675,16.7275683 L4.01944025,16.8568678 C3.99853414,16.987847 4.00909849,17.1226015 4.051127,17.2497531 L5.81340366,22.5816667 L4.14840366,23.6583333 L0.939247869,23.2478666 C0.414786122,23.1807092 -0.0388166187,23.6126646 0.00263511309,24.1397813 L0.425333946,29.5149874 L0.447862704,29.6535548 C0.559382177,30.0998384 1.02326403,30.3817795 1.48329532,30.2514224 L6.10007032,28.9416667 L9.05972009,31.2264514 C9.19634044,31.3319131 9.36233525,31.3923541 9.53478027,31.3994271 L16.0331911,31.6659666 L16.3496373,31.6173959 L22.2789136,29.482612 C22.3982052,29.4396621 22.5061237,29.3700585 22.5944519,29.2791009 L25.1126681,26.6859232 L25.2156578,26.5565223 C25.4216575,26.2371836 25.3874854,25.8081969 25.1130562,25.5252202 L23.9784037,24.355 L24.4034037,23.4433333 L27.370464,22.385403 C27.6064914,22.3010562 27.792018,22.1149522 27.875631,21.8786638 L28.4456566,20.2383435 L29.0484453,18.449329 L29.4852318,17.0966114 L29.6543969,16.5421817 L29.7903364,16.0671068 L29.8927455,15.6699381 L29.961319,15.3492269 C29.987096,15.2077442 30.0000703,15.09439 30.0000703,15.0083492 C30.0000703,14.8434934 29.9511736,14.6823414 29.8595662,14.545281 L29.7969819,14.4549664 L29.6191212,14.2178598 L29.2360285,13.7443282 L28.7120162,13.1276086 L27.5213606,11.7762254 L26.0500703,10.1466667 L26.7173024,9.18949006 L26.795267,9.05122898 C26.9435474,8.71750633 26.8578041,8.31672547 26.568185,8.07434261 L23.7250703,5.69666667 L23.1414916,3.26448503 C22.2009992,1.10033122 21.1578052,0 19.8414643,0 L19.5912875,0.0110938828 Z M19.8414643,1.66666667 C20.299552,1.66666667 20.9162555,2.3171479 21.5689218,3.79601579 L22.1711038,6.35418821 L22.2125034,6.48071275 C22.2637162,6.60313804 22.3437014,6.71218951 22.446453,6.79818254 L24.9134037,8.86166667 L24.3026738,9.74105894 C24.0802401,10.0606089 24.1087206,10.4915915 24.3712698,10.7790925 L26.2540542,12.8597374 L27.5941618,14.3832025 L28.0488422,14.9222697 L28.2917308,15.2273447 L28.1597711,15.7124463 L27.948968,16.4155354 L27.5655513,17.6215076 L27.1069934,18.9994283 L26.4350703,20.9483333 L23.5159872,21.9929476 C23.306373,22.0678554 23.1354401,22.2235116 23.0412923,22.425218 L22.2261583,24.1715963 L22.1761701,24.3088852 C22.1013912,24.5884294 22.1767348,24.8914531 22.3830636,25.1042083 L23.351737,26.105 L21.5334037,27.9783333 L15.936737,29.9933333 L9.86673699,29.745 L6.78740972,27.3669098 L6.65493336,27.2832426 C6.46981252,27.1894164 6.25429973,27.1671952 6.05100533,27.2248018 L2.00673699,28.37 L1.74340366,25.03 L4.23873137,25.350641 C4.43400806,25.3756462 4.63183179,25.3307082 4.79714094,25.2237918 L7.25941886,23.6312722 L7.37030042,23.545595 C7.60869287,23.3270399 7.70224857,22.9851414 7.59808377,22.6700049 L5.72007032,16.9866667 L6.95840366,13.225 L7.81991299,12.8273848 L8.53780494,12.514334 L8.92821023,12.3547589 L9.36968718,12.1909637 L9.56100705,12.1332417 C9.6103891,12.1209687 9.64511664,12.1157052 9.66439987,12.1175764 L9.95509907,12.2639654 C10.538443,12.574344 10.6891714,12.637888 11.0739776,12.5982095 C11.2855959,12.5763888 11.4808561,12.4744602 11.6197434,12.3133119 L13.1031786,10.59211 L13.2470132,10.3541795 L14.0335009,8.36278261 C14.0836138,8.23589614 14.1015571,8.09932576 14.0867109,7.96507315 L14.0517646,7.79922892 L13.7850905,6.80382689 C13.7517169,6.68592963 13.7213326,6.60018804 13.7147586,6.65861345 L13.7526527,6.53981319 L13.8928633,6.20306858 L14.2310269,5.47194674 L14.7358534,4.43769605 L15.3100703,3.295 L16.5526114,3.51480447 C16.824026,3.56258245 17.1015091,3.47308544 17.2938601,3.27572855 C18.3610328,2.18078242 19.2298058,1.66666667 19.8414643,1.66666667 Z" id="Shape" fill="#000000" fill-rule="nonzero"></path>
        </g>
    </g>
</svg>