<?xml version="1.0" encoding="UTF-8"?>
<svg width="24px" height="24px" viewBox="0 0 24 24" version="1.1" xmlns="http://www.w3.org/2000/svg" xmlns:xlink="http://www.w3.org/1999/xlink">
    <title>C0E94A01-043E-4A1A-9F9F-65F9B5897367</title>
    <g id="1---Icons/Navigation/Close/24px/1-Outlined" stroke="none" stroke-width="1" fill="none" fill-rule="evenodd">
        <g id="🎨-colour" transform="translate(6, 6)" fill="#000000">
            <path d="M10.715725,11.4699613 C10.923925,11.6781613 11.261625,11.6781613 11.469925,11.4699613 C11.678225,11.2616613 11.678225,10.9239613 11.469925,10.7156613 L6.567325,5.81306125 L11.469925,0.91045125 C11.678225,0.70217125 11.678225,0.36449125 11.469925,0.15621125 C11.261625,-0.05206875 10.923925,-0.05206875 10.715725,0.15621125 L5.813125,5.05881125 L0.910425,0.15620125 C0.702225,-0.05206875 0.364525,-0.05206875 0.156225,0.15621125 C-0.052075,0.36448125 -0.052075,0.70217125 0.156225,0.91045125 L5.058825,5.81306125 L0.156225,10.7156613 C-0.052075,10.9239613 -0.052075,11.2616613 0.156225,11.4699613 C0.364525,11.6781613 0.702225,11.6781613 0.910425,11.4699613 L5.813125,6.56731125 L10.715725,11.4699613 Z"></path>
        </g>
    </g>
</svg>