<?xml version="1.0" encoding="UTF-8"?>
<svg width="360px" height="280px" viewBox="0 0 360 280" version="1.1" xmlns="http://www.w3.org/2000/svg" xmlns:xlink="http://www.w3.org/1999/xlink">
    <title>083CFD8A-4E43-4B32-B1ED-2DBAA2E4854A@2x</title>
    <g id="Downloadable-assets" stroke="none" stroke-width="1" fill="none" fill-rule="evenodd">
        <g transform="translate(-472.000000, -764.000000)" id="eKYC-Illustration">
            <g transform="translate(472.000000, 764.000000)">
                <rect id="Rectangle" x="0" y="0" width="360" height="280"></rect>
                <g id="illustration">
                    <rect id="Rectangle" fill-opacity="0" fill="#FFFFFF" x="0" y="0" width="360" height="280"></rect>
                    <g id="Group-2" transform="translate(55.500000, 23.000000)">
                        <g id="Leafs" transform="translate(169.704106, 151.383995)" opacity="0.804414971" stroke="#E7E7E7" stroke-linecap="round" stroke-linejoin="round">
                            <line x1="5.20441111" y1="-2.84217094e-14" x2="0" y2="5.2142112" id="Border"></line>
                        </g>
                        <g id="Cellphone-" transform="translate(88.500000, 7.000000)">
                            <rect id="Rectangle" fill="#2E3031" x="0" y="0" width="109" height="198" rx="6"></rect>
                            <rect id="Rectangle-Copy" fill="#F9F9F9" x="8" y="12" width="92" height="157" rx="2"></rect>
                        </g>
                        <g id="Baseline" transform="translate(0.000000, 202.085933)" stroke="#2E3031" stroke-linecap="round" stroke-linejoin="round">
                            <line x1="238.515779" y1="1.71698113" x2="257.810275" y2="1.71698113" id="Border"></line>
                            <path d="M213.515779,1.71698113 C217.860219,1.79472464 221.864381,1.84454254 225.528263,1.86643484 C230.842754,1.89818981 233.5,1.91406729 233.5,1.91406729" id="Border-Copy"></path>
                            <line x1="0" y1="1.41406729" x2="27.5" y2="1.91406729" id="Border"></line>
                        </g>
                        <g id="Group" transform="translate(18.500000, 70.000000)">
                            <g id="guy" transform="translate(1.000000, 0.000000)">
                                <path d="M87.7482239,0.680199252 L88.1383324,1.04303986 L88.3902238,1.26694299 L88.653388,1.4894923 L88.9274987,1.707094 L89.201882,1.90887544 C90.4118506,2.76139904 91.8917455,3.29945429 93.5345151,2.34312636 L93.6972112,2.24382321 C96.1039788,0.706701353 99.4484536,1.92709618 99.205344,5.17609023 L99.1895468,5.34594701 C98.9979358,7.07317649 99.7954907,7.73901247 100.620199,8.1525297 L100.845069,8.25965916 L101.384677,8.49667911 L101.58011,8.58873956 C101.954251,8.77554554 102.219381,8.98575638 102.219381,9.35067198 C102.219381,9.79899686 101.863221,10.0264542 101.380031,10.2063195 L101.128911,10.2930884 L100.496382,10.4917396 C99.7428494,10.7373731 98.9898068,11.0731778 98.8150344,11.9360899 C98.5926677,13.0339914 99.2399871,13.4800139 99.9452196,13.7045136 L100.168903,13.7685466 L100.390756,13.820864 L101.070805,13.9551956 L101.214119,13.9920624 C102.253175,14.3076215 102.827001,15.5780922 101.950412,16.5820771 C101.208924,17.4313259 100.179871,17.7449025 98.9005753,17.8213878 L99.0398544,17.8973271 L99.0398544,40.8690063 C99.0398544,43.1560197 98.3381961,44.9225465 96.9348795,46.1685866 L96.5863966,46.4808007 L96.0082718,47.0177865 L95.6363595,47.383099 C94.1135473,48.9210962 92.9475906,50.6756523 92.9475906,53.3326493 L92.9475906,55.9738671 L92.9397224,55.9815063 L92.7508853,56.0930469 L93.835626,56.0934106 C94.6136933,56.0934106 95.2511379,56.6977928 95.3074798,57.4643916 L95.311528,57.5749615 L95.3123198,60.0898748 L95.4190326,60.1297203 L100.721094,60.1297203 C105.363606,60.1297203 109.4644,62.4602507 111.927988,66.0196771 L122.956817,78.3524584 L123.044108,78.4647852 L127.739809,83.6018263 L128.801329,84.7723827 L129.84066,85.928322 L130.85456,87.0688646 L131.839786,88.1932308 L132.479072,88.9334364 L133.103212,89.665875 L133.711245,90.3903155 L134.30221,91.106527 L134.875148,91.8142785 L135.429096,92.5133389 L135.963094,93.2034773 C138.438259,96.4438117 140.212784,99.3774588 140.830225,101.894671 L140.853698,101.967312 C141.167176,102.960978 141.245642,103.679071 141.069285,103.997056 L141.063015,104.007457 C141.04972,104.297619 141.015181,104.580398 140.958436,104.855565 L141.037882,104.82944 C142.137136,106.114651 143.087437,107.62487 143.861351,109.386554 C154.403421,133.383793 89.0152364,141.881384 60.2827251,134.325485 L60.1325724,134.359295 L57.0507652,133.415594 L54.8590402,132.733385 L53.6169476,132.843541 L52.4015729,132.943128 L51.2125859,133.032231 L50.0496562,133.110938 L48.9124536,133.179332 L47.2541655,133.262778 L46.1798357,133.30577 L45.1300771,133.338751 L44.1045593,133.361806 L43.102952,133.375021 L42.1249251,133.378483 L41.1701483,133.372276 C40.8557276,133.368606 40.5451269,133.363338 40.2382912,133.356488 L39.3290236,133.331203 C39.0296626,133.321202 38.7340115,133.309632 38.4420152,133.296508 L37.5769357,133.252487 C37.2921941,133.236269 37.0110521,133.218512 36.733455,133.199228 L35.9112426,133.136816 L34.9128827,133.046059 L33.9465935,132.941302 C33.8198644,132.926409 33.6939732,132.911146 33.5689132,132.895517 L32.8284717,132.79735 L32.1076472,132.690458 L31.4061095,132.574928 L30.7235283,132.450846 L30.0595733,132.318296 L29.7344774,132.248873 L29.0978424,132.103785 C28.6793893,132.004298 28.2728033,131.899311 27.8776438,131.788936 L27.2934196,131.619347 C26.9095768,131.503614 26.5369404,131.382551 26.1750701,131.256272 L25.6402842,131.062956 L25.1213172,130.861903 C24.6101496,130.657009 24.1222148,130.440638 23.6560268,130.213175 L23.1970326,129.982029 C22.9711049,129.864622 22.75049,129.744475 22.5350022,129.621634 C22.4919498,129.597092 22.4348756,129.554578 22.3669163,129.495769 C20.4075109,130.127208 18.4038669,130.533438 16.3558044,130.715026 C17.1723545,124.360919 20.0264107,118.332532 24.917973,112.629864 L24.0349147,112.410903 L23.1927263,112.195418 L22.3914065,111.983408 L21.6309538,111.774873 L20.9113668,111.569812 L20.2326441,111.368225 L19.5947843,111.170112 L18.7146093,110.879456 L18.1789003,110.690026 C18.0071404,110.627461 17.8421901,110.565476 17.6840492,110.504069 L17.2300544,110.321584 C16.7964874,110.140835 16.4242029,109.965293 16.1131943,109.794959 C15.8124701,110.34457 14.7627176,110.849561 12.9647987,111.310084 L12.43075,111.440452 L11.8559893,111.568401 L11.5533433,111.631469 L10.9175228,111.75579 C10.8081609,111.776309 10.6971031,111.796727 10.5843495,111.817044 L10.899081,111.785482 L11.5046405,111.732043 L12.0783285,111.69152 C12.1712871,111.685843 12.2629179,111.680704 12.3532206,111.676102 L12.8791012,111.654953 C15.5988069,111.576599 16.9586598,112.049314 16.9586598,113.073099 C16.9586598,113.974728 15.7446446,114.421955 13.3166142,114.414779 L13.1429076,114.412765 L13.5630648,114.456036 L14.064463,114.514599 L14.296032,114.544851 L14.9142184,114.63949 L15.2625756,114.705819 C15.6392342,114.784714 15.91174,114.868893 16.0800927,114.958359 L16.1391888,114.992697 C16.9658628,115.521716 16.7015392,117.272818 14.729796,117.37846 L14.5399241,117.383455 L14.0922475,117.383352 C13.2666534,117.382783 12.415625,117.379083 11.5599815,117.355039 L11.0929342,117.339802 L10.3816838,117.30745 L9.89451604,117.27785 L9.1676467,117.220419 L8.68690642,117.172409 L8.21023848,117.115794 L7.73850076,117.049864 C7.66033632,117.03806 7.58241305,117.025838 7.50474883,117.013184 L7.04201503,116.931951 L6.81324764,116.887221 L6.36144805,116.78909 C2.77935491,115.956375 0,113.957013 0,109.156516 C0,106.177188 2.6240174,103.627073 6.28171162,101.505959 L6.85237457,101.183019 C6.94877278,101.129759 7.04579697,101.076782 7.14342033,101.024087 L7.78228835,100.68752 C7.99784537,100.576639 8.21591411,100.467067 8.43622668,100.358803 L9.10362804,100.037936 C9.32816041,99.9322883 9.55466874,99.8279492 9.78288514,99.7249184 L10.4723907,99.4197508 L10.8204844,99.2701106 L11.522349,98.9767169 L12.2304439,98.6911723 L12.9431618,98.4134766 L13.6588953,98.1436295 L14.3760373,97.8816308 L15.0929805,97.6274802 L15.8081175,97.3811777 L16.8739206,97.0264384 L17.5775104,96.7997549 L18.6184586,96.4744431 L19.3004557,96.2673773 L20.3014807,95.9714911 L21.5867306,95.6044383 L22.5065485,95.3497445 L24.2092278,94.8933142 L26.539435,94.2894941 C33.0707232,92.6036058 37.0105131,90.3819984 41.8607398,86.5853205 C43.406992,85.3749397 44.8333903,83.9865507 46.1606948,82.4937193 L46.7235332,81.8477544 C47.4660564,80.978514 48.1771908,80.0786016 48.8608101,79.1617437 L49.4937602,78.2976439 L50.1112974,77.4261284 L50.3541555,77.0760089 L50.8329956,76.3740603 L51.3029701,75.6709045 L51.7644422,74.9678286 L52.2177749,74.2661193 L52.6633314,73.5670635 L53.1014749,72.871948 L55.5949989,68.8560676 L56.1879165,67.9140745 L56.5777114,67.3044093 L57.1550865,66.4206243 L57.5356545,65.853786 L57.9131673,65.3063304 L58.287988,64.7795444 L58.6860922,64.2407412 C60.4722387,61.8749355 62.1910231,60.3189661 64.0243421,60.2174087 L64.2153221,60.2121172 L71.4360533,60.2121172 L71.4384041,60.2224413 L75.1320071,60.2121172 L75.1320071,42.0468265 L74.941114,41.9902834 L74.7816433,41.9364481 L74.5845103,41.8631455 L74.473888,41.8188598 L74.2326673,41.7143508 C73.1789834,41.2335116 71.5752632,40.176074 71.5752632,38.1938391 C71.5752632,35.7915322 72.0454425,35.3207737 72.6142166,35.1525068 L72.5736182,35.1461796 C71.6418413,34.238714 70.5245127,33.5052996 69.2216322,32.9459364 L68.8920465,32.8097217 C64.3166422,30.9904261 62.392708,27.6040625 62.7159241,23.2244725 C62.771771,22.4677447 62.4859482,21.9237064 62.1556702,21.4317634 L61.7570198,20.8561595 C61.4069032,20.3326014 61.1468475,19.794351 61.3724451,19.0276574 C61.6288061,18.1564147 62.1283762,17.8598475 62.6676481,17.623677 L63.0763663,17.449838 C63.4861691,17.2712521 63.8896858,17.0543189 64.2010619,16.5820771 C64.7978662,15.6769469 64.6738238,14.7533296 64.4583303,13.8442957 L64.2356641,12.9413479 L64.1841186,12.7030864 L64.1534106,12.5290638 L64.1233244,12.297511 L64.1057657,12.0530706 L64.1031195,11.8501796 C64.1212093,10.6508569 64.7568645,9.20032997 67.6304399,8.8192103 L67.8435421,8.79338068 C69.5279344,8.60791926 69.9595108,7.80935606 70.1058406,6.86107902 L70.1370403,6.62115889 L70.1689042,6.25310195 L70.1967968,5.82027337 C70.2601629,4.85725742 70.3764444,3.90733918 71.4196432,3.38909527 C72.2780467,2.96265457 73.3391437,2.95533791 74.4816709,3.04027375 L75.0591589,3.08891609 L75.9434694,3.17084652 L76.4314312,3.21054715 C78.0616671,3.32918556 79.71862,3.28322559 81.094804,2.24382321 C84.0383085,0.0206570265 86.346356,-0.64883877 87.7482239,0.680199252 Z M119.746205,120.489041 L119.825768,120.878177 L120.76331,120.600816 L121.382824,120.409884 L121.996268,120.214122 L122.602222,120.013521 L123.199266,119.808072 L123.785977,119.597765 C123.882822,119.562309 123.979178,119.52665 124.075014,119.490788 L124.643564,119.273178 L125.19823,119.050689 L125.737591,118.823311 C125.91467,118.746702 126.088961,118.669277 126.260227,118.591034 L126.764716,118.353851 C129.40441,117.075771 131.209236,115.587936 131.209236,113.884165 C131.209236,112.291084 129.538282,111.693314 126.828252,111.694399 L126.353614,111.700415 L125.859327,111.717688 L125.346097,111.745807 L124.814632,111.784328 L124.265639,111.832807 L123.699825,111.890801 L123.117899,111.957864 L122.520567,112.033555 L121.597232,112.162294 L120.643213,112.307947 L119.660898,112.469015 L118.652675,112.644001 L117.272203,112.896377 L119.746205,120.489041 Z M64.8684218,73.5726311 L64.8391438,73.5988166 L64.4297135,74.5712479 L59.349228,82.6905354 L58.7781354,82.4818418 L58.5610716,82.4072283 L58.3210792,82.3324746 L58.2181531,82.3074166 C58.1781039,82.2998431 58.1551752,82.2997029 58.1493672,82.306996 C57.1599619,83.5494009 56.1820089,84.7268923 55.2155082,85.8394704 L54.3898836,86.7772116 C49.7272375,92.0009946 45.3347723,95.6933524 41.2124881,97.8542848 L40.8994563,98.0135661 L40.3416059,98.2807307 L39.6777923,98.5817867 L38.9080154,98.9167339 L38.0322753,99.2855725 L36.69979,99.830077 C37.0084942,99.8556469 37.3217696,99.8837348 37.6396161,99.9143408 L38.6068693,100.013713 C39.7513302,100.13846 40.9517871,100.294054 42.2082375,100.480494 L43.2989076,100.647855 L44.4170027,100.830324 L45.8531874,101.079658 L47.3322224,101.352599 L48.5463021,101.587951 L50.4188405,101.969308 L51.7014779,102.242433 L53.0115379,102.530667 L54.3490199,102.834012 L55.7139237,103.152466 L57.1062489,103.48603 L57.8126944,103.658478 L59.246151,104.014708 L60.707028,104.386047 L62.1953252,104.772498 L63.7110421,105.174058 L65.2541784,105.590729 L66.8247337,106.022511 L66.8245417,74.5791841 L66.8297666,74.4358928 L65.8165618,73.6865749 L64.8684218,73.5726311 Z M101.428994,84.5695707 L101.428636,103.170724 C105.330376,101.811764 109.544294,100.55131 113.771837,99.6772749 L114.874907,99.4585462 L114.63848,99.1847173 L114.086096,98.5259225 C113.811966,98.1929226 113.54099,97.8545754 113.273446,97.5111346 L112.743016,96.8175368 L112.481388,96.4657853 L111.965614,95.7526593 C111.710283,95.392945 111.458848,95.0285601 111.211587,94.6597585 L110.965727,94.2894941 C108.163482,90.0282755 104.984571,86.7883011 101.428994,84.5695707 Z M101.950412,71.6112031 L101.412478,75.8610783 C102.413175,76.5238482 103.387543,77.2341431 104.338799,77.984039 L105.04886,78.5545018 L105.65337,79.0583315 L106.116484,79.452147 L106.566982,79.8450966 L107.24656,80.4534944 L107.875922,81.03341 L108.731888,81.846892 L109.472415,82.5729644 L110.128211,83.2325732 L110.636299,83.7539382 L111.217635,84.3610783 L111.964142,85.1565328 L112.526611,85.7669623 L113.202779,86.5125277 L113.454311,86.7929528 C114.408629,87.8599228 115.34725,88.9435187 116.274822,90.0314393 L117.503165,91.4807758 L119.37923,93.712986 L119.852871,94.2669188 C120.011277,94.4488564 120.170169,94.6280826 120.329429,94.8045835 L120.808193,95.3258961 L121.288453,95.8307732 C121.448711,95.9963169 121.609099,96.1591074 121.769501,96.3191308 L122.250625,96.7908852 C122.571242,97.0998352 122.891437,97.3976607 123.210264,97.6842499 L123.687359,98.1056926 L124.10768,98.4638698 L124.142043,98.4642808 C125.631404,98.4511495 127.046631,98.4509825 128.481937,98.5605701 L129.201699,98.6249582 L131.039534,98.8001733 L131.549065,98.8468815 L131.242744,98.488871 L131.058256,98.276824 L130.547668,97.7005502 L130.089828,97.1965772 L129.503947,96.5665587 L128.943104,95.9711605 L128.674674,95.6896658 L128.117521,95.111861 L127.452443,94.4303476 L126.759498,93.7294473 L126.163796,93.1339906 L125.702576,92.6756358 L125.115905,92.096905 L123.988426,90.9930771 L122.634545,89.685681 L121.085522,88.2058307 L119.368189,86.5846099 L117.517777,84.8539733 L115.752915,83.2166386 L114.135044,81.7267185 L112.427193,80.8922237 L109.013674,77.7575625 L109.289001,77.7014367 L108.663693,77.1521202 L107.813586,76.3853616 L107.305418,75.9123332 L106.736101,75.3639598 L105.955942,74.5855357 L105.496819,74.1423017 L105.155063,73.8216926 L104.793337,73.4917338 L104.418986,73.1616362 L104.084054,72.8776075 C103.972286,72.7848115 103.860674,72.6942472 103.750059,72.6069693 L103.422046,72.356049 C102.829257,71.91797 102.292071,71.6112031 101.950412,71.6112031 Z" id="Fill" fill="#FFFFFF"></path>
                                <path d="M69.357293,33.6012409 C69.0474812,33.4477525 68.7262685,33.3049475 68.393655,33.172826 C63.7629234,31.3333963 61.8157243,27.9095559 62.1428488,23.4814971 C62.2841544,21.5687409 60.2642021,21 60.783124,19.238236 C61.302046,17.4764665 62.8055684,18.0388388 63.6459454,16.7655905 C64.4863225,15.4923422 63.9144636,14.1829117 63.6459454,12.9273503 C63.3774273,11.6717888 63.3774273,9.32572908 67.3324717,8.89069679 C71.2875161,8.45566451 68.4178639,4.68415261 70.9518162,3.4266023 C73.4857685,2.16905199 77.7648739,4.51642545 80.7439723,2.26865555 C83.7230707,0.0208856372 86.0590279,-0.656019452 87.4778477,0.687727 C88.8966674,2.03147345 91.0209034,3.84958409 93.4987721,2.26865555 C95.9766409,0.687727 99.4365639,1.99180039 99.0575228,5.40511046 C98.6784817,8.81842053 102.123995,8.13207006 102.123995,9.45415562 C102.123995,10.7762412 99.0575228,10.1986251 98.6784817,12.0681863 C98.2994407,13.9377474 100.417152,13.9377474 101.106577,14.1469121 C102.158198,14.4659635 102.738962,15.7504946 101.851773,16.7655905 C100.964584,17.7806864 99.6706317,18.0388388 98.0323295,18.0388388 C96.3940273,18.0388388 81.9072897,18.0388388 81.0812867,18.0388388 C80.2552836,18.0388388 79.4611643,18.2375895 79.6172395,19.238236 C79.7733146,20.2388825 81.5615469,19.8714893 82.6297446,20.1610286 C83.6979424,20.4505679 83.9100858,22.0754442 82.9237134,22.5562575 C81.9373411,23.0370709 80.5007269,22.7322472 79.50428,23.9835183 C78.5078331,25.2347894 79.4107362,27.3470037 78.1184116,28.2978379 C76.8260869,29.2486721 75.1134504,28.289719 74.7086764,27.1508614 C74.7086764,31.054668 74.7086764,33.9825229 74.7086764,35.9344262" id="Fill" fill="#2E3031"></path>
                                <path d="M120.995984,131.996753 C121.197561,131.991471 121.365151,132.154584 121.370307,132.361074 C121.386943,133.027321 121.395349,133.700291 121.395349,134.379716 C121.395349,134.645033 121.133161,134.825989 120.893119,134.726343 L120.36864,134.505325 L119.884918,134.294609 L119.441863,134.094129 L118.945098,133.857824 L118.511565,133.637284 C118.350775,133.552204 118.205119,133.470877 118.074548,133.393266 C117.90014,133.289599 117.840793,133.060727 117.941993,132.882067 C118.043194,132.703407 118.266619,132.642614 118.441027,132.746281 L118.707453,132.897846 L118.877678,132.986999 L120.641872,132.482089 L120.640333,132.380201 C120.635177,132.173711 120.794407,132.002035 120.995984,131.996753 Z M115.402539,111.172131 L115.641372,111.185481 L115.847066,111.207458 C116.003697,111.227091 116.160465,111.257233 116.320387,111.298306 C116.63091,111.37806 116.983748,111.744892 117.353994,112.346606 L117.502962,112.599696 L117.653433,112.877097 L117.805052,113.178068 L117.957465,113.501866 L118.033858,113.672093 L118.186798,114.02874 L118.263256,114.214974 L118.415926,114.602799 L118.605846,115.115419 L118.794101,115.657618 L118.943041,116.111698 L119.162848,116.824949 L119.306468,117.320787 L119.447339,117.832028 L119.585107,118.357932 L119.652718,118.626149 L119.785168,119.172653 L119.84992,119.450754 L119.976256,120.016188 L120.098072,120.593314 C120.139506,120.795464 120.013119,120.993747 119.815779,121.036191 C119.624303,121.077374 119.436382,120.95671 119.387534,120.764843 L107.101297,123.684248 C106.856478,120.370847 106.484288,117.637539 105.984729,115.484325 C105.861527,115.471814 105.747887,115.393744 105.692269,115.269578 C105.608176,115.08184 105.688574,114.859815 105.871845,114.773672 L108.492482,113.52823 L109.441145,113.087367 L109.858325,112.89791 L110.237914,112.729097 L110.737656,112.514579 L111.024947,112.397364 L111.333131,112.279861 L112.495247,111.873556 L113.208728,111.63383 L113.516421,111.535351 L113.925226,111.412502 L114.16705,111.346216 L114.387861,111.291649 L114.590706,111.248139 L114.778634,111.215025 L114.954693,111.191644 L115.121931,111.177335 L115.203195,111.173375 L115.402539,111.172131 Z" id="Fill" fill="#780A21"></path>
                                <path d="M19.9508083,110.04918 L24.5621653,111.182916 C24.6538088,111.171417 24.7491112,111.192791 24.8288635,111.247999 L38.5786564,114.630285 L38.5998526,114.578364 L38.5998526,114.578364 C38.679906,114.381548 38.9043638,114.286889 39.1011931,114.366937 C39.2980224,114.446985 39.392688,114.671427 39.3126346,114.868243 C38.316177,117.318089 36.9413924,119.469471 35.1891546,121.320075 C29.2455169,127.597373 22.5175702,130.957514 15.019092,131.384606 C14.7786365,131.398301 14.5848574,131.190225 14.6156245,130.951369 C15.0003846,127.964353 15.8210649,125.048054 17.0768891,122.202898 L19.9508083,110.04918 Z" id="Fill" fill="#780A21"></path>
                                <path d="M93.2945736,37.057377 L93.2945736,33.8913449 C93.2945736,33.1591379 92.7207114,32.5655738 92.0136583,32.5655738 C91.5415285,32.5655738 90.8444693,33.0718204 89.9224806,34.0843136" id="Border" stroke="#2E3031" stroke-linecap="round" stroke-linejoin="round" transform="translate(91.608527, 34.811475) scale(-1, 1) rotate(-180.000000) translate(-91.608527, -34.811475) "></path>
                                <path d="M88.7984496,33.6885246 L88.7984496,32.2359461 C88.7984496,31.1778276 88.043306,30.3196721 87.1122027,30.3196721 C86.1815002,30.3196721 85.4263566,31.1778276 85.4263566,32.2359461 L85.4263566,33.6885246" id="Border" stroke="#2E3031" stroke-linecap="round" stroke-linejoin="round" transform="translate(87.112403, 32.004098) scale(-1, 1) rotate(-180.000000) translate(-87.112403, -32.004098) "></path>
                                <path d="M95.5426357,33.6885246 L95.5426357,32.2359461 C95.5426357,31.1778276 95.0394796,30.3196721 94.4184292,30.3196721 C93.7977297,30.3196721 93.2945736,31.1778276 93.2945736,32.2359461 L93.2945736,33.6885246" id="Border" stroke="#2E3031" stroke-linecap="round" stroke-linejoin="round" transform="translate(94.418605, 32.004098) scale(-1, 1) rotate(-180.000000) translate(-94.418605, -32.004098) "></path>
                                <path d="M98.9147287,17.9672131 C98.9147287,19.8022516 98.9147287,26.9228842 98.9147287,30.5929611 C98.9147287,32.5608376 98.9147287,37.8873523 98.9147287,39.7646877 L98.9147287,41.2624468 C98.9147287,43.5816727 98.2674441,45.3730808 96.9728749,46.6366713 C95.0310212,48.532057 93.2945736,50.4781402 93.2945736,53.9016393" id="Border" stroke="#2E3031" stroke-linecap="round" stroke-linejoin="round"></path>
                                <path d="M68.393655,33.172826 C63.7629234,31.3333963 61.8157243,27.9095559 62.1428488,23.4814971 C62.2841544,21.5687409 60.2642021,21 60.783124,19.238236 C61.302046,17.4764665 62.8055684,18.0388388 63.6459454,16.7655905 C64.4863225,15.4923422 63.9144636,14.1829117 63.6459454,12.9273503 C63.3774273,11.6717888 63.3774273,9.32572908 67.3324717,8.89069679 C71.2875161,8.45566451 68.4178639,4.68415261 70.9518162,3.4266023 C73.4857685,2.16905199 77.7648739,4.51642545 80.7439723,2.26865555 C83.7230707,0.0208856372 86.0590279,-0.656019452 87.4778477,0.687727 C88.8966674,2.03147345 91.0209034,3.84958409 93.4987721,2.26865555 C95.9766409,0.687727 99.4365639,1.99180039 99.0575228,5.40511046 C98.6784817,8.81842053 102.123995,8.13207006 102.123995,9.45415562 C102.123995,10.7762412 99.0575228,10.1986251 98.6784817,12.0681863 C98.2994407,13.9377474 100.417152,13.9377474 101.106577,14.1469121 C102.158198,14.4659635 102.738962,15.7504946 101.851773,16.7655905 C100.964584,17.7806864 99.6706317,18.0388388 98.0323295,18.0388388 C96.3940273,18.0388388 81.9072897,18.0388388 81.0812867,18.0388388 C80.2552836,18.0388388 79.4611643,18.2375895 79.6172395,19.238236 C79.7733146,20.2388825 81.5615469,19.8714893 82.6297446,20.1610286 C83.6979424,20.4505679 83.9100858,22.0754442 82.9237134,22.5562575 C81.9373411,23.0370709 80.5007269,22.7322472 79.50428,23.9835183 C78.5078331,25.2347894 79.4107362,27.3470037 78.1184116,28.2978379 C76.8260869,29.2486721 75.1134504,28.289719 74.7086764,27.1508614 C74.7086764,31.054668 74.7086764,33.9825229 74.7086764,35.9344262 C70.7204045,34.1814404 68.6153973,33.260907 68.393655,33.172826 Z" id="Border" stroke="#2E3031" stroke-linecap="round" stroke-linejoin="round"></path>
                                <path d="M74.1860465,35.4073117 C73.3101091,34.932622 72.6412947,34.7415635 72.1796032,34.834136 C71.4870661,34.9729949 70.8139535,35.0077063 70.8139535,37.9051411 C70.8139535,40.802576 74.1860465,41.6869029 74.1860465,41.6869029 L74.1860465,59.5163934" id="Border" stroke="#2E3031" stroke-linecap="round" stroke-linejoin="round"></path>
                                <path d="M74.1860465,61.7622951 C74.1860465,61.7622951 74.7357228,60.6325595 76.4341085,59.5163934" id="Border" stroke="#2E3031" stroke-linecap="round" stroke-linejoin="round" transform="translate(75.310078, 60.639344) scale(-1, 1) rotate(-180.000000) translate(-75.310078, -60.639344) "></path>
                                <path d="M88.7984496,43.795082 C88.7984496,43.795082 88.7729055,40.4262295 91.5084902,40.4262295 C94.2440749,40.4262295 94.4186047,43.795082 94.4186047,43.795082" id="Border" stroke="#2E3031" stroke-linecap="round" stroke-linejoin="round" transform="translate(91.608527, 42.110656) scale(-1, 1) rotate(-180.000000) translate(-91.608527, -42.110656) "></path>
                                <line x1="85.4263566" y1="23.5819672" x2="88.7984496" y2="23.5819672" id="Border" stroke="#2E3031" stroke-linecap="round" stroke-linejoin="round" transform="translate(87.112403, 23.581967) scale(-1, 1) rotate(-180.000000) translate(-87.112403, -23.581967) "></line>
                                <line x1="92.1705426" y1="23.5819672" x2="95.5426357" y2="23.5819672" id="Border" stroke="#2E3031" stroke-linecap="round" stroke-linejoin="round" transform="translate(93.856589, 23.581967) scale(-1, 1) rotate(-180.000000) translate(-93.856589, -23.581967) "></line>
                                <path d="M50.5813953,76.3606557 C48.0331321,80.1097162 45.1008634,83.8175885 41.5277489,86.5840529 C36.6838655,90.3344033 32.7492282,92.5289023 26.2264817,94.1942192 C23.0976516,94.9930382 16.8719491,96.5346944 11.2403101,98.8196721" id="Border" stroke="#2E3031" stroke-linecap="round" stroke-linejoin="round"></path>
                                <path d="M57.3255814,81.9754098 C51.2752269,89.69275 45.6550718,94.9331872 40.4651163,97.6967213" id="Border" stroke="#2E3031" stroke-linecap="round" stroke-linejoin="round"></path>
                                <path d="M119.61049,75.2377049 C132.215412,89.240324 145.318749,101.633151 138.750593,107.573895 C131.367907,114.251364 118.37973,106.62763 110.168816,94.1607931 C105.044604,86.3805742 98.6705028,81.9839747 91.0465116,80.9709946" id="Border" stroke="#2E3031" stroke-linecap="round" stroke-linejoin="round"></path>
                                <path d="M113.257416,82.2174443 C126.383558,94.2637025 132.841309,101.042383 132.630669,102.553486 C132.305256,104.887953 124.883072,101.760943 118.470899,94.1281593 C112.058726,86.4953755 105.369398,78.399496 96.6666667,74.1147541" id="Border" stroke="#2E3031" stroke-linecap="round" stroke-linejoin="round"></path>
                                <path d="M71.9734774,59.5163934 C72.183258,59.5163934 73,64 79,65 L94.2386034,59.8645879 C94.2920852,59.7647672 94.3900228,59.6916521 94.5064492,59.6708294 L94.5747262,59.6647992 L100.048542,59.6647992 C104.332523,59.7923514 108.210884,61.7139816 111.669187,65.41043 L113.390135,67.2595728 C117.97759,72.4080952 120.271318,75.0119002 120.271318,75.0709877 C120.271318,77.1573199 118.066207,79.2920286 113.705866,81.5523358 L113.11172,81.8544612 C112.989152,81.9156297 112.84449,81.9061713 112.732304,81.8338955 L112.67917,81.792559 L102.296604,72.1209795 L102.084932,71.9494753 L101.900377,71.8057485 L101.741166,71.6890142 L101.605527,71.5984875 C101.442639,71.496803 101.335777,71.4604551 101.267062,71.4815231 L101.153005,72.3669709 L101.153178,75.3367617 C101.153178,75.5434716 100.983117,75.7110431 100.773337,75.7110431 C100.586865,75.7110431 100.431777,75.5786409 100.399615,75.4040392 L100.393495,75.3367617 L100.394058,75.2406572 L99.8128205,74.9198765 L99.1803471,74.5833845 L98.6202177,74.2951864 L97.9950847,73.9839634 L97.5460018,73.7671058 L97.0737067,73.5451388 L96.5804707,73.320112 L96.0685651,73.0940749 L95.5402612,72.8690772 L94.9978302,72.6471684 C94.906374,72.6105549 94.8144238,72.5741554 94.7220269,72.5380128 L94.1626642,72.3245802 L93.5948527,72.1193605 C93.0235739,71.9189303 92.443029,71.7338936 91.8634387,71.5734735 L91.353464,71.4382393 L90.8670865,71.3177014 L90.3358309,71.1963225 C89.4237676,70.9983642 88.4054205,70.8347064 87.6843298,70.8943715 L86.9448603,70.9528688 C86.3035238,71.0116845 85.7703016,71.1135104 85.4088034,71.4953575 C84.8322524,72.1043628 85.2013672,72.6430736 85.7279025,73.0751046 L85.8897975,73.2014771 L86.0564082,73.3212305 L86.2230052,73.4341465 L86.6754192,73.729687 L86.7946666,73.8130703 L86.8902529,73.8885246 C87.0820047,74.0551644 87.0419003,74.1552682 86.4995716,74.1763557 L86.3755727,74.1796605 C85.545947,74.1927844 85.3644291,74.4424409 85.3013962,74.7233707 L85.2832066,74.8234867 L85.2696822,74.9241943 L85.2528968,75.0397591 C85.2201098,75.227102 85.1509368,75.3935824 84.8792792,75.4748275 L84.7809994,75.4986641 C84.5647273,75.540404 84.5825635,75.6183176 84.7565778,75.7205327 L84.866515,75.7786252 C84.8872632,75.7886851 84.909185,75.7989281 84.9322219,75.8093451 L85.0833559,75.873865 L85.2584413,75.9421347 L85.4546678,76.013726 L85.8993023,76.1651609 L86.9186063,76.4890522 L87.7805412,76.7599131 L88.4008396,76.9641922 L88.8285274,77.1176503 L89.0111824,77.1897872 L89.169002,77.2582469 C89.4818494,77.4022589 89.5984622,77.5171239 89.380055,77.581699 L88.9980037,77.6987558 C88.811495,77.7580414 88.6319854,77.8184621 88.4604809,77.8800155 L88.1284432,78.0046318 C87.0592157,78.4250486 86.3755727,78.895733 86.3755727,79.4159469 C86.3755727,79.7079952 86.8738424,79.9845773 87.6516734,80.2420223 L87.9560373,80.3376599 C88.0088063,80.3534476 88.0625606,80.3691587 88.1172467,80.3847925 L88.4561183,80.4776583 L88.8147913,80.5686224 L89.1907026,80.6576419 L89.5812895,80.7446736 L90.1890795,80.8714003 L91.026909,81.0330106 L91.7597955,81.1653002 L93.9375466,81.529927 L93.8708129,81.5600361 C94.8204864,81.8569443 95.4712039,82.0650382 95.8229655,82.1843176 C96.3744425,82.3713188 96.7939076,82.5381626 97.0737067,82.6480096 C97.9561499,82.9944503 98.5676828,83.3106257 98.9477805,83.5062184 C99.3153136,83.6953456 99.7204722,83.9172956 100.083468,84.1301169 C100.6757,84.4773379 101.153178,84.7870642 101.153178,84.7922597 C101.153178,84.8051378 101.153178,84.8129187 101.153178,84.8156022 C101.153178,88.775513 101.102119,94.8369789 101,103 C101,103.137807 95,105.804473 83,111 L65,106 L65.4134849,75.5995637 C65.406013,74.2459249 65.1460625,73.6602618 64.761756,73.6602618 C64.4011414,73.6602618 64.1291581,73.8365633 63.7928471,74.2884377 C60.1275721,79.8533319 58.2437542,82.624804 58.1413935,82.602854 L58.0763339,82.5827333 L57.4414395,82.3183091 L56.8307247,82.0542571 C56.4565881,81.8893333 49.4741658,77.3779979 49.4741658,75.600892 C49.4604435,75.5452407 49.4762908,75.484026 49.5217077,75.4172476 C55.5157657,66.5333874 58.7677695,61.8526893 59.277719,61.3751534 C60.5214923,60.210437 61.7207932,59.5811509 62.9485209,59.5211341 L63.1426196,59.5163934 L71.9734774,59.5163934 Z" id="Fill" stroke="#780A21" fill="#DC143D"></path>
                                <path d="M79.0236134,70.7459016 L69.3484797,70.7459016 C68.9162681,70.7459016 68.5658915,71.0990744 68.5658915,71.5347352 L68.5658915,76.0282267 C68.5658915,76.3058774 68.7107034,76.5630833 68.9471851,76.7054567 L73.784752,79.6179047 C74.0319161,79.7667094 74.340177,79.7667094 74.5873411,79.6179047 L79.4249079,76.7054567 C79.6613896,76.5630833 79.8062016,76.3058774 79.8062016,76.0282267 L79.8062016,71.5347352 C79.8062016,71.0990744 79.4558249,70.7459016 79.0236134,70.7459016 Z" id="Border" stroke="#FFFFFF" fill-rule="nonzero"></path>
                                <path d="M93.6442313,56.147541 L93.7690519,56.1515046 C94.7180653,56.2119666 95.4770006,56.9569174 95.5385976,57.8884437 L95.5426357,58.0109643 L95.5426357,72.6555804 L95.5365185,72.7225709 C95.5043702,72.8964277 95.3493476,73.028265 95.1629548,73.028265 C94.9765619,73.028265 94.8215394,72.8964277 94.7893911,72.7225709 L94.7832739,72.6555804 L94.7823187,72.5755212 L93.8574266,72.3844357 L92.7324919,72.1601338 L91.9699821,72.0147664 L91.2770648,71.8889924 L90.4614299,71.7517724 L89.9308949,71.6717164 L89.6158674,71.629231 L89.2013198,71.5818307 L88.9090244,71.5572977 L88.9090244,71.5572977 L88.8563647,71.5540239 C88.0636304,71.5079919 87.4670284,71.6221046 87.0153842,71.7636403 L86.7831011,71.8427636 C86.7466808,71.8561381 86.7113815,71.8695399 86.6771649,71.8828692 L86.4845494,71.9611768 L86.2403086,72.0649052 L86.1045781,72.1179219 L86.0441499,72.1377947 L86.0441499,72.1377947 L85.9883721,72.1524461 C85.3525453,72.2930968 85.8099892,72.9904849 86.4619892,73.4365165 L86.6499343,73.5571918 L86.8424181,73.6677952 L87.0341805,73.7686562 L87.2199618,73.8601041 L87.6237291,74.0497025 L87.7980769,74.1383509 L87.7980769,74.1383509 L87.8750537,74.1876731 C87.9341368,74.2332218 87.9369091,74.2676148 87.8597008,74.292334 C86.7873895,74.635649 86.0607068,74.9691399 85.6796526,75.2928066 C84.9866031,75.8814816 85.3435491,76.5169214 86.7504907,77.199126 L87.0359133,77.3317496 L87.3475584,77.4655411 L87.6854261,77.6005004 L88.1446363,77.770842 L88.1446363,77.770842 L88.6448192,77.9430085 L88.8563647,78.012386 L86.9547331,79.6276283 C87.5223292,80.1431133 88.375728,80.5846256 89.5149296,80.9521652 L89.8430257,81.0539203 L90.2075861,81.1592433 L90.6086107,81.2681342 L91.0460997,81.380593 L91.7707038,81.555971 L92.2993536,81.6773496 L93.1606989,81.8661072 L93.7805095,81.9964056 L94.778596,82.1985429 C94.812898,82.0282257 94.9653183,81.8999362 95.148694,81.8991162 C95.3350849,81.8982826 95.4907178,82.0294253 95.5236727,82.2031366 L95.5301007,82.2700991 L95.535681,83.4723494 L95.5316626,83.6033595 C95.4700656,84.5348859 94.7111303,85.2798367 93.7621169,85.3402987 L93.6372963,85.3442623 L78.3325129,85.3442623 L78.2076923,85.3402987 C77.2586789,85.2798367 76.4997436,84.5348859 76.4381466,83.6033595 L76.4341085,83.480839 L76.4341085,58.0109643 L76.4381466,57.8884437 C76.4997436,56.9569174 77.2586789,56.2119666 78.2076923,56.1515046 L78.3325129,56.147541 L93.6442313,56.147541 Z M81.4011901,58.8998639 C80.439292,58.8998639 79.6597553,59.666209 79.6597553,60.6112585 C79.6597553,61.556308 80.439292,62.3226531 81.4011901,62.3226531 C82.3630883,62.3226531 83.142625,61.556308 83.142625,60.6112585 C83.142625,59.666209 82.3630883,58.8998639 81.4011901,58.8998639 Z" id="Fill" fill="#2E3031"></path>
                                <path d="M21.3565891,129.934509 C31.8456949,135.798656 54.4428668,135.426828 110.434226,123.395978 C117.769317,121.819889 130.387597,118.87508 130.387597,114.449667 C130.387597,111.514124 124.508032,112.013277 116.91273,113.385181" id="Border" stroke="#2E3031" stroke-linecap="round" stroke-linejoin="round"></path>
                                <path d="M103.410853,77.4836066 C101.290091,75.7485225 99.0539045,74.2206894 96.6666667,72.9918033" id="Border" stroke="#2E3031" stroke-linecap="round" stroke-linejoin="round"></path>
                                <path d="M55.0775194,132.576083 C80.0652291,143.00307 155.101354,134.934054 143.860687,109.047495 C143.086321,107.26418 142.135466,105.735418 141.035571,104.434426" id="Border" stroke="#2E3031" stroke-linecap="round" stroke-linejoin="round"></path>
                                <path d="M129.263566,98.4548978 C127.455632,98.1660541 125.573485,98.0447596 123.643411,98.0633384" id="Border" stroke="#2E3031" stroke-linecap="round" stroke-linejoin="round"></path>
                                <path d="M114.651163,99.942623 C99.0472498,102.933681 83.3164776,111.457607 82.3838399,111.164769 C58.8820212,103.785468 42.0953889,100.095817 32.0239429,100.095817 C23.2699488,100.095817 17.220145,103.693236 14.6124031,108.815262" id="Border" stroke="#2E3031" stroke-linecap="round" stroke-linejoin="round"></path>
                                <path d="M55.0775194,119.155738 C47.9370253,116.405789 37.8207462,113.78557 24.7286822,111.295082" id="Border" stroke="#2E3031" stroke-linecap="round" stroke-linejoin="round"></path>
                                <path d="M35.9689922,120.559323 C36.6149437,120.558473 36.9634427,120.558511 37.0144893,120.559438 C45.4846558,120.713204 67.7148853,118.332735 103.705178,113.418033 C105.007669,116.858847 105.658915,120.227699 105.658915,123.52459" id="Border" stroke="#2E3031" stroke-linecap="round" stroke-linejoin="round"></path>
                                <path d="M96.7230093,81.9754098 C94.9629744,81.4617383 93.4180555,81.1112281 92.0882526,80.923879 C89.759021,80.5957257 87.0741158,80.3844106 87.0741158,79.1314225 C87.0741158,77.8584864 89.4644024,77.5485861 94.2449755,78.2017213 C88.3658962,77.5068801 85.4263566,76.5094825 85.4263566,75.2095287 C85.4263566,73.9095748 88.3658962,73.7584354 94.2449755,74.7561105 C88.2610936,73.9006167 85.4388394,72.8514331 85.7782131,71.6085595 C86.382245,69.3964391 95.1345366,72.0092226 97.7906977,73.1021624" id="Border" stroke="#2E3031" stroke-linecap="round" stroke-linejoin="round"></path>
                                <g id="Highlights" transform="translate(53.953488, 22.459016)" stroke="#FFFFFF" stroke-linecap="round" stroke-linejoin="round">
                                    <path d="M61.6302208,52.4056156 C60.8079117,53.1235201 58.7877794,54.2669234 55.5698239,55.8358255" id="Border" transform="translate(58.600022, 54.120721) rotate(-7.000000) translate(-58.600022, -54.120721) "></path>
                                    <line x1="18.3433727" y1="69.8607874" x2="32.2703585" y2="78.1462537" id="Border"></line>
                                    <line x1="28.0961712" y1="70.9038309" x2="31.7796837" y2="73.6404431" id="Border"></line>
                                    <path d="M6.56267639,52.470962 C5.64791775,53.2258575 3.46035895,54.4060178 0,56.0114428" id="Border" transform="translate(3.281338, 54.241202) scale(-1, 1) translate(-3.281338, -54.241202) "></path>
                                    <path d="M11.2674853,0 C10.5532864,2.24092291 11.0347228,3.8212298 12.7117947,4.74092067" id="Border"></path>
                                    <path d="M13.5527016,0 C13.1768476,1.30544906 13.4302082,2.22605642 14.3127833,2.7618221" id="Border"></path>
                                </g>
                            </g>
                            <g id="hand" transform="translate(0.000000, 100.000000)">
                                <path d="M8.5,1.13740924 C2.91416481,3.65849717 0,5.4315199 0,9.52869229 C0,18 8.18286748,18 14.5753681,18 C16.724624,18 17.0331171,16.0999841 16.1785313,15.5382278 C15.6185743,15.1701438 13.4407189,14.8864 9.64496506,14.6869962 C14.5483217,15.254484 17,14.8793559 17,13.5616119 C17,12.243868 14.8700503,11.8127466 10.610151,12.2682479 C14.7809562,11.4962572 16.637083,10.583072 16.1785313,9.52869229 C15.8427092,8.75651308 14.5847516,8.54984238 12.4046587,8.9086802 C11.873501,8.99610742 12.141007,8.14245215 13.2071769,6.34771437 C12.9112032,6.03667827 12.6436971,5.84202252 12.4046587,5.76374713 C11.688563,5.52925484 10.9581334,5.64641831 10.4344234,5.50595261 C9.57796625,5.27623987 8.79434521,4.85270349 8.64285774,4.50224256 C8.38970905,3.91659199 8.10621778,3.1392849 8.20833779,2.54391494 C8.48841478,0.911037856 8.5095549,1.13305682 8.5,1.13740924 Z" id="Fill" fill="#FFFFFF"></path>
                                <path d="M10.1035876,0 C4.59464738,2.46728619 0,5.69260574 0,9.67645127 C0,18 8.18286748,18 14.5753681,18 C16.724624,18 17.0331171,16.1331247 16.1785313,15.5811668 C15.6185743,15.219503 13.4407189,14.9407083 9.64496506,14.7447826 C14.5483217,15.3023721 17,14.933787 17,13.6390275 C17,12.3442681 14.8700503,11.9206665 10.610151,12.3682227 C14.7809562,11.6096974 16.637083,10.7124402 16.1785313,9.67645127 C15.7199796,8.64046231 13.5421242,8.64046231 9.64496506,9.67645127" id="Border" stroke="#2E3031" stroke-linecap="round" stroke-linejoin="round"></path>
                            </g>
                        </g>
                        <g id="ID-Card" transform="translate(33.500000, 0.000000)" fill-rule="nonzero">
                            <path d="M131.746492,39.1018564 L26.3064924,28.9918564 C20.9039276,28.4984246 16.1140821,32.4535067 15.5764924,37.8518564 L0.466492445,195.661856 C-0.0441192297,201.066108 3.91381695,205.864826 9.31649244,206.391856 L114.746492,216.501856 C120.150797,217.000926 124.94411,213.042981 125.476492,207.641856 L140.596492,49.8818564 C140.853059,47.2786287 140.064665,44.6801384 138.404848,42.6583501 C136.745031,40.6365618 134.349841,39.3571949 131.746492,39.1018564 Z M109.176492,99.5218564 C107.680007,114.971126 96.5086034,127.750791 81.3980937,131.299299 C66.2875839,134.847807 50.5953881,128.376711 42.3784594,115.208511 C34.1615307,102.040311 35.2455972,85.1008632 45.0740591,73.0875061 C54.9025211,61.074149 71.291582,56.6561433 85.8264924,62.1018564 C88.6601651,63.1619019 91.3482098,64.5764854 93.8264924,66.3118564 C104.577751,73.7876698 110.451891,86.4882033 109.186492,99.5218564 L109.176492,99.5218564 Z" id="Shape" fill="#FFFFFF" opacity="0.895217169"></path>
                            <path d="M78.4564924,0.471856366 L89.8764924,2.66185637 C92.7792052,3.27424375 94.7591935,5.96874955 94.4764924,8.92185637 L92.2664924,29.0418564 C92.2377263,29.3054937 92.1875608,29.566354 92.1164924,29.8218564 C91.4806519,32.3007514 89.0151363,33.8477416 86.5064924,33.3418564 L75.0864924,31.1918564 C72.4552696,30.6323018 70.5448017,28.3504688 70.4564924,25.6618564 C70.4317479,25.3957637 70.4317479,25.127949 70.4564924,24.8618564 L72.6664924,4.74185637 C72.7970016,3.37518011 73.5029451,2.1286193 74.6078652,1.31376459 C75.7127853,0.498909874 77.1122659,0.192765855 78.4564924,0.471856366 L78.4564924,0.471856366 Z M83.2264924,10.0718564 C82.1572624,9.85729016 81.0472316,10.1074726 80.1734226,10.7599675 C79.2996137,11.4124624 78.7444546,12.4057187 78.6464924,13.4918564 C78.4022989,15.8508883 79.9839792,18.0116538 82.3064924,18.4918564 C83.3761216,18.7097474 84.4879018,18.4608724 85.3625522,17.8077492 C86.2372025,17.1546261 86.7916049,16.1593211 86.8864924,15.0718564 C87.1259039,12.7141214 85.546324,10.5562254 83.2264924,10.0718564 L83.2264924,10.0718564 Z" id="Shape" fill="#263238"></path>
                            <path d="M113.646492,43.0918564 C113.172528,43.0918564 112.740721,42.8195632 112.536492,42.3918564 L108.126492,33.2818564 C107.520705,32.0201747 106.299542,31.1668777 104.906492,31.0318564 L54.1864924,26.1718564 C52.7941298,26.0376808 51.4328271,26.6405976 50.5964924,27.7618564 L44.5364924,35.8818564 C44.2739022,36.239122 43.84066,36.4291588 43.3999638,36.3803818 C42.9592676,36.3316048 42.5780697,36.0514244 42.3999638,35.6453818 C42.2218578,35.2393392 42.2739022,34.769122 42.5364924,34.4118564 L48.5964924,26.2918564 C49.9533868,24.487416 52.1483131,23.5148365 54.3964924,23.7218564 L105.106492,28.5818564 C107.354158,28.8091624 109.324668,30.1820898 110.316492,32.2118564 L114.716492,41.3218564 C114.902372,41.7022543 114.879545,42.1515127 114.656066,42.5111109 C114.432587,42.8707091 114.039873,43.0900943 113.616492,43.0918564 L113.646492,43.0918564 Z" id="Path" fill="#FF930F"></path>
                            <path d="M115.696492,216.901856 C115.362452,216.90555 115.028498,216.888852 114.696492,216.851856 L9.26649244,206.751856 C3.63683707,206.203756 -0.487316236,201.202885 0.0464924446,195.571856 L15.1564924,37.8118564 C15.7098355,32.1849932 20.7072068,28.0637263 26.3364924,28.5918564 L131.826492,38.6618564 C137.457378,39.2100837 141.584416,44.209031 141.056492,49.8418564 L125.886492,207.661856 C125.368668,212.907302 120.967395,216.911208 115.696492,216.931856 L115.696492,216.901856 Z M25.3664924,29.3618564 C20.5133464,29.3747538 16.4589526,33.0617452 15.9864924,37.8918564 L0.826492445,195.661856 C0.356032848,200.83963 4.14362182,205.430241 9.31649244,205.951856 L114.826492,216.041856 C120.005764,216.523395 124.600412,212.728787 125.106492,207.551856 L140.226492,49.7918564 C140.702799,44.6158765 136.918113,40.0233736 131.746492,39.5018564 L26.2664924,29.4018564 C25.9664924,29.3718564 25.6664924,29.3618564 25.3664924,29.3618564 Z M73.1464924,132.741856 C71.9664924,132.741856 70.7764924,132.681856 69.5864924,132.571856 C55.4029119,131.202937 43.2966217,121.741305 38.541403,108.308666 C33.7861844,94.8760267 37.2431681,79.9049207 47.4064117,69.9171093 C57.5696553,59.9292979 72.5986796,56.733491 85.9464924,61.7218564 C88.8174002,62.7899768 91.539576,64.2216396 94.0464924,65.9818564 C104.916386,73.5426166 110.858248,86.3822386 109.586492,99.5618564 C107.790027,118.352226 92.0225145,132.709144 73.1464924,132.741856 L73.1464924,132.741856 Z M73.0564924,60.2118564 C53.7045484,60.2245435 37.8554359,75.5935614 37.2476795,94.9359639 C36.6399232,114.278366 51.4929065,130.612073 70.8058804,131.839648 C90.1188543,133.067223 106.920361,118.745545 108.766492,99.4818564 L108.766492,99.4818564 C110.007188,86.6005154 104.199542,74.0523292 93.5764924,66.6618564 C91.1273431,64.9387813 88.4651605,63.5404632 85.6564924,62.5018564 C82.7139622,61.3945306 79.6367899,60.6849313 76.5064924,60.3918564 C75.3464924,60.2718564 74.1964924,60.2118564 73.0564924,60.2118564 Z" id="Shape" fill="#2E3031"></path>
                            <path d="M85.8264924,62.1018564 C72.1500451,56.9889607 56.7412062,60.5753589 46.728122,71.2019792 C36.7150378,81.8285995 34.05025,97.4232613 39.9664924,110.771856 L5.96649244,138.851856 L15.6464924,37.8518564 C16.1840821,32.4535067 20.9739276,28.4984246 26.3764924,28.9918564 L61.3164924,32.3418564 L72.4964924,45.9018564 L85.8264924,62.1018564 Z" id="Path" fill="#DC143D" opacity="0.8"></path>
                            <path d="M140.596492,49.8318564 L133.826492,120.321856 L108.826492,90.0318564 C107.201303,80.4367998 101.798572,71.8932813 93.8264924,66.3118564 L127.306492,38.6618564 L131.746492,39.0918564 C137.150656,39.6240278 141.107284,44.4256301 140.596492,49.8318564 L140.596492,49.8318564 Z" id="Path" fill="#E65A77"></path>
                            <path d="M127.306492,38.6618564 L93.8264924,66.3118564 C91.3482098,64.5764854 88.6601651,63.1619019 85.8264924,62.1018564 L72.4564924,45.9018564 L61.2464924,32.3418564 L127.306492,38.6618564 Z" id="Path" fill="#DC143D"></path>
                            <rect id="Rectangle" fill="#2E3031" transform="translate(68.106757, 148.171100) rotate(5.470000) translate(-68.106757, -148.171100) " x="34.7667573" y="144.6211" width="66.68" height="7.1" rx="1.91"></rect>
                            <rect id="Rectangle" fill="#2E3031" transform="translate(66.889785, 160.886880) rotate(5.470000) translate(-66.889785, -160.886880) " x="38.4697846" y="157.33688" width="56.84" height="7.1" rx="1.91"></rect>
                            <rect id="Rectangle" fill="#2E3031" transform="translate(24.344137, 187.111421) rotate(5.470000) translate(-24.344137, -187.111421) " x="16.464137" y="185.821421" width="15.76" height="2.58"></rect>
                            <rect id="Rectangle" fill="#2E3031" transform="translate(42.046461, 188.811401) rotate(5.470000) translate(-42.046461, -188.811401) " x="35.6914611" y="187.521401" width="12.71" height="2.58"></rect>
                            <rect id="Rectangle" fill="#2E3031" transform="translate(34.129231, 193.883343) rotate(5.470000) translate(-34.129231, -193.883343) " x="15.8642313" y="192.593343" width="36.53" height="2.58"></rect>
                            <rect id="Rectangle" fill="#2E3031" transform="translate(38.153492, 184.715356) rotate(5.710593) translate(-38.153492, -184.715356) " x="16.6216339" y="183.418922" width="43.063717" height="2.59286791"></rect>
                            <path d="M88.8264924,2.19185637 L77.2264924,0.0818563659 C75.8314001,-0.165230799 74.3952999,0.152221805 73.2343442,0.96432811 C72.0733886,1.77643442 71.2827528,3.01661783 71.0364924,4.41185637 L67.4164924,24.5618564 C67.3638859,24.8251482 67.3404113,25.0934294 67.3464924,25.3618564 C67.2617804,28.0049092 69.1173256,30.3147871 71.7164924,30.8018564 L83.2864924,32.9118564 C85.8904108,33.381869 88.4449176,31.8704525 89.2864924,29.3618564 C89.3821214,29.109443 89.4524661,28.8481628 89.4964924,28.5818564 L93.1064924,8.43185637 C93.6306619,5.53047443 91.7219712,2.74771038 88.8264924,2.19185637 L88.8264924,2.19185637 Z M81.4764924,9.66185637 C83.1833048,9.9537523 84.5448427,11.2475373 84.9234038,12.9372423 C85.3019649,14.6269473 84.6225868,16.3779787 83.2034694,17.3702071 C81.784352,18.3624355 79.9065074,18.399381 78.4494603,17.4637394 C76.9924132,16.5280978 76.2446865,14.8051439 76.5564924,13.1018564 C76.9825414,10.804431 79.1724317,9.27328816 81.4764924,9.66185637 L81.4764924,9.66185637 Z" id="Shape" fill="#E7E7E7"></path>
                            <path d="M88.8264924,2.19185637 L77.2264924,0.0818563659 C75.8314001,-0.165230799 74.3952999,0.152221805 73.2343442,0.96432811 C72.0733886,1.77643442 71.2827528,3.01661783 71.0364924,4.41185637 L67.4164924,24.5618564 C67.3638859,24.8251482 67.3404113,25.0934294 67.3464924,25.3618564 C67.2617804,28.0049092 69.1173256,30.3147871 71.7164924,30.8018564 L83.2864924,32.9118564 C85.8904108,33.381869 88.4449176,31.8704525 89.2864924,29.3618564 C89.3821214,29.109443 89.4524661,28.8481628 89.4964924,28.5818564 L93.1064924,8.43185637 C93.6306619,5.53047443 91.7219712,2.74771038 88.8264924,2.19185637 L88.8264924,2.19185637 Z M81.4764924,9.66185637 C83.1833048,9.9537523 84.5448427,11.2475373 84.9234038,12.9372423 C85.3019649,14.6269473 84.6225868,16.3779787 83.2034694,17.3702071 C81.784352,18.3624355 79.9065074,18.399381 78.4494603,17.4637394 C76.9924132,16.5280978 76.2446865,14.8051439 76.5564924,13.1018564 C76.9825414,10.804431 79.1724317,9.27328816 81.4764924,9.66185637 L81.4764924,9.66185637 Z" id="Shape" fill="#E7E7E7"></path>
                            <circle id="Oval" fill="#E65A77" transform="translate(105.884710, 194.920845) rotate(-39.530000) translate(-105.884710, -194.920845) " cx="105.88471" cy="194.920845" r="7.09"></circle>
                            <circle id="Oval" fill="#DC143D" opacity="0.8" transform="translate(87.111902, 193.119291) rotate(-39.530000) translate(-87.111902, -193.119291) " cx="87.1119019" cy="193.119291" r="7.09"></circle>
                        </g>
                        <g id="Plant" transform="translate(176.500000, 102.000000)" fill-rule="nonzero">
                            <path d="M2,74 L2.48215718,76.7059728 L2.57858861,77.2709562 L3.92862871,84.9279672 L4.03989575,85.5524224 L6.47293504,99.4019482 C6.51403038,99.6287122 6.5710418,99.8522872 6.64354451,100.071007 C6.71975861,100.28557 6.81148824,100.494276 6.91800321,100.695463 C7.67384984,102.114213 9.14820241,103 10.7530072,103 L30.2544106,103 C32.3619629,102.996787 34.1646758,101.481333 34.5344828,99.4019482 L35.4765437,94.0643425 L35.5729751,93.4919251 L36.9601043,85.6118944 L37.1529671,84.5190977 L37.7463913,81.1217636 L37.8650762,80.4750064 L39,74 L2,74 Z" id="Path" stroke="#2E3031" fill="#DC143D"></path>
                            <path d="M19.9360765,43 C19.9360765,43 25.0438117,35.8361144 24.9997161,31.3759944 C24.9556206,26.3547155 22.2878395,27.0762055 22.2878395,27.0762055 C22.2878395,27.0762055 23.3314343,11.771872 19.6568047,11.0430942 C19.6568047,11.0430942 19.0100699,-1.52832249 13.7039047,0.155154184 C8.3977396,1.83863086 10.8009474,12.6609809 10.8009474,12.6609809 C9.87770915,13.7631676 9.27321,15.0930224 9.05182367,16.5089276 C8.50062923,20.794141 12.5280233,27.9288755 12.5280233,27.9288755 C12.5280233,27.9288755 10.1174663,29.3281288 10.8670907,32.9720177 C11.6167151,36.6159066 19.9360765,42.9927122 19.9360765,42.9927122 L19.9360765,43 Z" id="Path" fill="#E7E7E7"></path>
                            <path d="M20.6217496,70 C20.6217496,70 9.42214709,67.2495033 8.29560314,63.3086035 C7.16905919,59.3677037 8.29560314,57.7262783 8.29560314,57.7262783 C8.29560314,57.7262783 0.0220888105,46.1919375 2.77992692,43.6780427 C2.77992692,43.6780427 -3.12345598,32.4024851 2.27517671,31.1085686 C7.6738094,29.8146522 11.1924304,40.5134927 11.1924304,40.5134927 C12.5452799,40.9986181 13.7433043,41.8442008 14.6598449,42.9608433 C17.3299004,46.4063579 17.5859331,54.7022107 17.5859331,54.7022107 C17.5859331,54.7022107 19.107499,53.844529 20.3657169,57.4379198 C21.6239348,61.0313106 20.6217496,70 20.6217496,70 Z" id="Path" fill="#E7E7E7"></path>
                            <path d="M22.5027987,61 C22.5027987,61 33.3379008,56.5011511 34.1268645,52.5021743 C34.9158283,48.5031975 33.6234305,46.974177 33.6234305,46.974177 C33.6234305,46.974177 41.0171479,34.7934701 37.9589741,32.5366946 C37.9589741,32.5366946 42.9557445,20.8191045 37.3127752,20.0398921 C31.669806,19.2606797 29.0474408,30.1549511 29.0474408,30.1549511 C27.7041313,30.7599747 26.5537272,31.710143 25.7187652,32.9042476 C23.3067903,36.5797778 23.8327662,44.7982631 23.8327662,44.7982631 C23.8327662,44.7982631 22.1947272,44.0631571 21.2404567,47.7386873 C20.2861863,51.4142174 22.4802569,60.9705958 22.4802569,60.9705958 L22.5027987,61 Z" id="Path" fill="#E7E7E7"></path>
                            <path d="M21.7031635,75 C21.5436327,74.9963622 21.4140684,74.8723011 21.4063273,74.7157717 C20.8126548,47.1237641 16.0484331,17.6296134 16.0039076,17.3308093 C15.9911445,17.2552941 16.0099366,17.1779153 16.0560307,17.1161863 C16.1021248,17.0544573 16.1716236,17.0135971 16.2487975,17.0028536 C16.4080726,16.9809365 16.5561488,17.0875795 16.5827383,17.2433544 C16.6272637,17.5348706 21.3989064,47.0727488 22,74.7011959 C22.0001931,74.8606923 21.8727983,74.9922198 21.7105844,75 L21.7031635,75 Z" id="Path" fill="#2E3031"></path>
                            <path d="M21.3030336,67 L21.2653742,67 C21.1015937,66.9807347 20.9840858,66.8360518 21.0017585,66.6754204 C22.0185621,58.7527267 30.3563519,39.3812243 30.4392026,39.1451664 C30.5159989,39.0176907 30.6773381,38.9656622 30.8164382,39.023516 C30.9555383,39.0813697 31.0293537,39.2312024 30.9890298,39.3738475 C30.9061791,39.5656445 22.5985168,58.9002629 21.5967769,66.7491885 C21.5718846,66.890386 21.4492469,66.9950997 21.3030336,67 L21.3030336,67 Z" id="Path" fill="#2E3031"></path>
                            <path d="M22.6988456,75 C22.5778957,74.9991106 22.4684575,74.9300841 22.4183096,74.8230564 C19.7418446,68.65952 15.2381047,59.7238669 10.8784238,51.0831197 L8.02757154,45.4209237 C7.96033228,45.2760406 8.01997638,45.1052722 8.16404851,45.0301732 C8.23617555,44.9952303 8.31984425,44.9904244 8.39570042,45.0168671 C8.47155659,45.0433098 8.53302881,45.0987103 8.56589736,45.1702535 L11.4167496,50.825077 C15.7764305,59.4731967 20.2877525,68.4162225 22.9717995,74.5945042 C23.0066942,74.6654456 23.0093205,74.7473813 22.979037,74.8202981 C22.9487535,74.8932149 22.8883485,74.9503987 22.8125764,74.977882 C22.7764824,74.9923004 22.7378661,75 22.6988456,75 Z" id="Path" fill="#2E3031"></path>
                        </g>
                    </g>
                </g>
            </g>
        </g>
    </g>
</svg>