<?xml version="1.0" encoding="UTF-8"?>
<svg width="360px" height="280px" viewBox="0 0 360 280" version="1.1" xmlns="http://www.w3.org/2000/svg" xmlns:xlink="http://www.w3.org/1999/xlink">
    <title>BB357C98-5760-4DDB-BAC5-ACE4D16FCF24@2x</title>
    <g id="Downloadable-assets" stroke="none" stroke-width="1" fill="none" fill-rule="evenodd">
        <g transform="translate(-2251.000000, -764.000000)" id="Error-Notxt-illustration">
            <g transform="translate(2251.000000, 764.000000)">
                <g id="illustration">
                    <rect id="Rectangle" fill-opacity="0" fill="#FFFFFF" x="0" y="0" width="360" height="280"></rect>
                    <g id="Background" transform="translate(40.416104, 21.000000)">
                        <circle id="Oval" stroke="#FFFFFF" fill="#FF930F" cx="28.5838965" cy="50" r="17.5"></circle>
                        <path d="M68.0300393,55.4786956 C70.859986,55.4786956 73.0264767,56.7330639 74.5934226,58.7659704 L74.7650637,58.9950286 C75.8023723,60.4175583 77.5344332,61.2592489 79.3950238,61.275269 L81.7718,61.2961582 C83.3301841,61.3103773 84.5838965,62.5636684 84.5838965,64.106946 C84.5838965,65.6566677 83.318968,66.9132855 81.7552627,66.9164464 L45.6060597,67 C44.2254879,67 43.0924578,65.9215788 43.0337926,64.5546685 C42.9750756,63.1073403 44.1444973,61.9019051 45.6049086,61.9019051 L46.8966151,61.9019051 C48.4858265,61.9019051 49.9793987,61.374071 51.0625722,60.4038779 L51.2607811,60.2168036 C51.8518212,59.6274196 52.6897608,59.1636363 53.9318852,58.7932881 C54.9966249,58.4766979 56.0859775,58.4372075 57.1769281,58.6229374 L57.5042383,58.6853611 C59.0165461,59.0038285 60.5952837,58.6191478 61.8764421,57.6509746 L62.0871507,57.4842302 C63.6216204,56.217764 65.5904249,55.4786956 68.0300393,55.4786956 Z M37.7211063,31 C41.7822511,31 44.8858859,32.8099546 47.1281311,35.7445431 L47.3358209,36.0229347 C48.8901849,38.1518209 51.4756094,39.4097458 54.2489882,39.433745 L57.7078484,39.4624652 C59.8462001,39.4804074 61.573566,41.2069377 61.573566,43.326818 C61.573566,45.4579259 59.8329548,47.1865113 57.6827142,47.1924916 L5.09908396,47.312601 C3.21220619,47.312601 1.66324794,45.837723 1.58665033,43.969441 C1.50851477,41.9901391 3.10306873,40.343681 5.09794644,40.343681 L6.97954539,40.343681 C9.38322195,40.343681 11.6428261,39.5302 13.268378,38.0338703 L13.4860681,37.825605 C14.319254,36.996237 15.5078143,36.3387437 17.2793148,35.8119347 C18.8245323,35.3527753 20.4084161,35.3034265 21.99523,35.5870539 L22.3614536,35.6583822 C24.6566089,36.1442065 27.0519426,35.5470532 28.9835882,34.055547 L29.222588,33.8644643 C31.4107874,32.0567396 34.2253912,31 37.7211063,31 Z" id="Filled" fill="#E7E7E7"></path>
                        <g id="Trees" transform="translate(76.083896, 98.500000) scale(-1, 1) translate(-76.083896, -98.500000) translate(16.583896, 0.000000)" fill-rule="nonzero">
                            <g id="Tropical-Tree-2" transform="translate(68.000000, 121.000000)" fill="#E7E7E7">
                                <path d="M22.3696195,17 C22.3696195,17 17.5567364,39.2651182 19.4349347,76 L24,76 C24,76 20.3283832,34.808677 23.9347848,17.1674583 L22.3696195,17 Z" id="Path"></path>
                                <path d="M35,0 L34.7873873,0.0938640709 C33.220226,0.837823744 28.7930812,4.04310794 28.7930812,4.04310794 L28.1072338,3.48687641 L28.268408,5.57274465 L26.1079887,9.0770033 L24.8837511,6.73387798 C24.5751198,7.22405701 25.2266748,10.7874153 25.2266748,10.7874153 L24.7397232,13.9162176 L22.7336196,10.8917087 C22.2192341,12.8141839 24.2562008,16.321919 24.2562008,16.321919 L23.1382696,20 C21.6979901,18.2339649 19.4072598,12.2649053 22.6513179,6.44185642 C25.895376,0.618807579 35,0 35,0 Z" id="Path"></path>
                                <path d="M23.1932701,20 L23,19.8137962 C23,19.8137962 26.078516,11.8139289 33.6609146,10.3587807 C41.2433132,8.9036324 45.9887834,12.3001278 47.0483175,12.9828751 C48.1078516,13.6656223 51,16.2793721 51,16.2793721 L45.7230371,15.5897284 C45.7230371,15.5897284 41.7575496,12.2001294 39.8766178,12.1725437 C39.8766178,12.1725437 45.1777394,15.9345502 46.3201035,18.8310539 C46.3201035,18.8310539 42.6548749,17.8655527 41.9784297,17.9414135 C41.9784297,17.9414135 39.8213978,15.3276637 37.4918033,14.8380167 L39.880069,17.4655593 L35.1069888,16.7759156 L33.2709232,15.4862818 L33.1742882,16.7069512 C33.1742882,16.7069512 28.9292494,16.1966148 23.1932701,20 Z" id="Path"></path>
                                <path d="M23,20.7742194 C23.0592027,20.7540948 23.1196554,20.738051 23.1809524,20.7261957 C24.5414462,20.4140414 29.0485009,20.3145636 29.0485009,20.3145636 L29.1188713,19.5461838 L30.2749559,21.1275369 L33.6259259,22.4584806 L32.9557319,20.1327595 C33.4282187,20.3145636 35.177425,23.195988 35.177425,23.195988 L37.3253968,25.1581008 L36.6920635,21.9199286 C38.1396825,23.0107536 39.0377425,26.598813 39.0377425,26.598813 L42,29 C41.7888889,26.9692819 39.4633157,21.1103856 34.0883598,18.7091986 C28.7134039,16.3080116 23,20.7742194 23,20.7742194 Z" id="Path"></path>
                                <path d="M23.215894,20 C22.1916115,18.7091627 18.4582781,16.2092298 18.4582781,16.2092298 L19.3024283,15.4020308 L17.183223,15.7426211 L13.0119205,14.1861234 L14.6189845,12.8952861 C14.0256071,12.6773083 10.8362031,13.6684261 10.8362031,13.6684261 L7.52317881,13.2835591 L9.69536424,11.8973565 C7.4419426,11.6487256 4.75055188,13.109858 4.75055188,13.109858 L0,12.7352087 C1.86136865,11.2945116 8.6816777,7.46287064 15.7033113,9.66989586 C22.7249448,11.8769211 24,19.8331107 24,19.8331107" id="Path"></path>
                                <path d="M23,20.6398559 C22.9387443,20.6227994 22.6869151,20.8513571 22.6086439,20.8377118 C21.0602348,20.530694 17.2896035,21.6189015 17.2896035,21.6189015 L17.1807044,20.80701 L15.9317679,22.4921965 L12.1883614,23.9522365 L12.8689808,21.4926831 C12.3415008,21.6939503 10.486813,24.7573053 10.486813,24.7573053 L7.93449039,27.4522391 L8.53343543,24.0409305 C7.920878,24.9142255 6.25676365,28.4176394 6.25676365,28.4176394 L3,31 C3.16675174,28.8576982 4.84447848,21.448336 10.8271227,18.8284511 C16.8097669,16.2085661 23,20.6398559 23,20.6398559 Z" id="Path"></path>
                                <path d="M33.4489139,19.1604453 C33.3004827,19.1015062 33.1520515,19.0491159 33,19 C34.2272727,19.7825802 38.7670957,22.9489194 39.9255833,27.513425 L42,29 C41.7646822,26.9960707 39.4296058,21.5212836 33.4489139,19.1604453 Z" id="Path" opacity="0.4"></path>
                                <path d="M36,11.0334458 C39.2248115,11.2255022 44.3961618,12.269009 47.8505826,16.6126861 L51,17 C51,17 48.0459219,14.5096678 46.9629883,13.8534749 C43.7499485,11.7931365 39.8893392,10.8000651 36,11.0334458 L36,11.0334458 Z" id="Path" opacity="0.4"></path>
                                <path d="M23.4535542,20.4870925 L23.2953726,20 C22.5043138,22.6834406 22.0045592,25.4781793 21.8084648,28.3151184 C21.2907794,35.4695057 20.9053913,46.6242698 21.0204325,54.7873877 C21.164234,65.2132404 23.8964629,75 23.8964629,75 L24,74.8030903 C23.5800996,69.0616167 21.4777214,38.6753345 23.4535542,20.4870925 Z" id="Path" opacity="0.4"></path>
                                <path d="M23.3965181,17 L24.574578,15.5711207 C24.0576383,14.6651646 22.7740806,12.2403997 23.2136551,10.708268 L25.2497645,13.6759404 L25.7631876,10.5950235 C25.7631876,10.5950235 25.0844845,7.08777429 25.4115279,6.59815831 L26.7056354,8.90301724 L28.98439,5.45239028 L28.7874606,3.74706113 L29.4063816,4.17672414 C29.4063816,4.17672414 34.213569,1.17907524 36,0.3330721 L35.6483403,0 C30.4226779,1.3322884 25.6049407,4.48648119 23.7481778,8.53663793 C22.3028566,11.7074843 23.3965181,17 23.3965181,17 Z" id="Path" opacity="0.4"></path>
                                <path d="M42,29 C41.9366381,28.8381439 41.8862185,28.6718172 41.8491859,28.5024876 C41.8080548,28.3432836 41.756641,28.1475954 41.6812339,27.9220564 C41.6058269,27.6965174 41.5338475,27.4411277 41.4207369,27.1658375 C41.3076264,26.8905473 41.201371,26.5854063 41.050557,26.2703151 C40.8997429,25.9552239 40.7386461,25.6069652 40.5569837,25.2752902 C40.1419585,24.5298025 39.6675138,23.8167529 39.1379606,23.1426202 C38.5967948,22.4778219 38.0019536,21.855636 37.3590403,21.2819237 C37.0574122,21.026534 36.772922,20.7777778 36.4850043,20.5688226 C36.1970865,20.3598673 35.9297344,20.1674959 35.6795201,19.9983416 C35.4293059,19.8291874 35.1893745,19.6932007 34.9940017,19.5671642 C34.798629,19.4411277 34.6101114,19.3416252 34.4558698,19.26534 C34.2949651,19.1921583 34.1422143,19.1032494 34,19 C34.1688231,19.0556994 34.3327351,19.124468 34.4901457,19.2056385 C34.6801971,19.2889399 34.8655476,19.3819396 35.0454156,19.4842454 C35.2579263,19.6036484 35.5047129,19.7296849 35.7583548,19.8988391 C36.0432855,20.0709105 36.3189913,20.2568886 36.5844045,20.4560531 C36.8791774,20.6583748 37.1705227,20.907131 37.479006,21.1625207 C38.1364177,21.736059 38.7418843,22.3630023 39.2887746,23.0364842 C39.8245534,23.7182637 40.3014549,24.4415438 40.714653,25.199005 C40.8928877,25.5538972 41.0574122,25.8888889 41.1979434,26.2172471 C41.3278883,26.5155443 41.4422852,26.8199623 41.5407027,27.1293532 C41.646958,27.4079602 41.7120823,27.6733002 41.7772065,27.8988391 C41.8349231,28.0941806 41.8818335,28.2923613 41.9177378,28.4925373 C41.9620542,28.6587191 41.989604,28.8286695 42,29 L42,29 Z" id="Path"></path>
                                <path d="M23.998096,16.006284 C24.0233999,16.0636146 23.7928537,16.4909884 23.5229461,17.0486591 C23.2530384,17.6063298 23.0337385,18.0389155 23,17.9972205 C23.0844325,17.5606433 23.2276697,17.1713259 23.4161076,16.8662434 C23.6944499,16.2877252 23.9727922,15.9489533 23.998096,16.006284 Z" id="Path"></path>
                            </g>
                            <g id="Tropical-Tree-1">
                                <path d="M61.1825795,44.2360719 C61.1825795,44.2360719 71.7378071,104.896642 67.4584963,195.969594 L56.970228,195.969594 C56.970228,195.969594 65.8453848,88.3799393 57.5789493,44.6495976 L61.1825795,44.2360719 Z" id="Path" fill="#E7E7E7"></path>
                                <path d="M27.0028776,0.0192294085 C27.1489707,0.0617982295 27.3133255,0.116529571 27.4959419,0.189504692 C31.1178337,1.56386948 41.691323,8.09514288 41.691323,8.09514288 L43.0244226,6.55658406 L43.3105217,11.6830864 L49.0629381,19.5887245 L51.0047591,13.592602 C51.8265329,14.6933101 51.516085,23.480731 51.516085,23.480731 L53.5248653,30.8998684 L56.9580536,22.9942302 C58.6624733,27.500444 55.3084188,36.5311153 55.3084188,36.5311153 L58.8511769,45.1239359 C61.4321552,40.4596094 64.5914189,25.4084905 55.8075703,12.1939122 C47.0237217,-1.02066608 27.0028776,0.0192294085 27.0028776,0.0192294085 Z" id="Path" fill="#2E3031"></path>
                                <path d="M61.0730097,45.2394798 L61.426068,44.728654 C61.426068,44.728654 52.343946,26.0713479 35.5554121,24.5692766 C18.7668782,23.0672053 9.58127352,32.6330275 7.50553383,34.5911933 C5.42979414,36.5493591 0,43.7130835 0,43.7130835 L11.1578617,40.5994783 C11.1578617,40.5994783 18.6633956,31.2708253 22.7235667,30.6931056 C22.7235667,30.6931056 12.4483509,41.292742 10.8717627,48.6632293 C10.8717627,48.6632293 18.474692,45.3246175 19.9538847,45.3246175 C19.9538847,45.3246175 23.8070907,38.3676559 28.6464251,36.5493591 L24.3062422,43.5792958 L34.3805799,40.5812346 L37.9476869,36.9324785 L38.5564082,39.8818896 C38.5564082,39.8818896 47.5411348,37.5223607 61.0730097,45.2394798 Z" id="Path" fill="#2E3031"></path>
                                <path d="M61.0730097,45.172586 C60.9512654,45.172586 60.8112595,45.1239359 60.652992,45.0996108 C57.5363388,44.7164915 47.5046115,45.7077369 47.5046115,45.7077369 L47.1028555,43.84079 L45.0027669,48.0611845 L37.9659485,52.257254 L38.7572862,46.3766755 C37.7589833,46.9543952 34.7701616,54.4951578 34.7701616,54.4951578 L30.6308566,59.8953168 L31.0386999,51.7829157 C28.1594481,54.8600334 27.2828894,63.9089485 27.2828894,63.9089485 L21.445252,70.5983346 C21.2869844,65.5630512 24.6410389,50.5301761 35.8354239,43.1596889 C47.0298089,35.7892016 61.0730097,45.172586 61.0730097,45.172586 Z" id="Path" fill="#2E3031"></path>
                                <path d="M61.0182247,45.1178546 C62.7713421,41.6636989 69.8629455,34.5060557 69.8629455,34.5060557 L67.8298163,32.7424902 L72.4256622,33.0039844 L80.7347082,28.0599199 L76.9484616,25.3051091 C78.1293809,24.6240079 85.1783738,26.2051356 85.1783738,26.2051356 L92.0325758,24.3807575 L87.0045377,21.5347278 C91.6734302,20.3184758 97.8276027,23.2131556 97.8276027,23.2131556 L107.701062,21.0360645 C103.330443,17.9954344 87.7715266,10.3148028 73.6796281,17.6609651 C59.5877297,25.0071273 59.2955434,44.892848 59.2955434,44.892848" id="Path" fill="#2E3031"></path>
                                <path d="M60.1051428,44.7347352 C60.226887,44.6800039 60.85387,45.172586 61.0182247,45.1178546 C64.3053199,43.9380902 72.8822032,45.5800304 72.8822032,45.5800304 L72.8822032,43.5549708 L76.132775,47.3679209 L84.7461817,49.9342127 L82.4939128,44.0657966 C83.7113554,44.4185097 88.7393935,51.4484464 88.7393935,51.4484464 L95.1553162,57.3837563 L92.7873902,49.1193238 C94.3944145,51.1018146 99.1180919,59.2811095 99.1180919,59.2811095 L107.031469,64.7542436 C106.00273,59.5243599 100.043348,41.736674 86.1645023,36.9081534 C72.2856563,32.0796329 60.1051428,44.7347352 60.1051428,44.7347352 Z" id="Path" fill="#2E3031"></path>
                                <path d="M79.6633587,25.232134 C82.0982439,25.5057907 85.1418505,26.2051356 85.1418505,26.2051356 L91.9960525,24.3807575 L87.0045377,21.5347278 C91.6734302,20.3184758 97.8276027,23.2131556 97.8276027,23.2131556 L107.701062,21.0360645 C105.635924,19.6557053 103.430183,18.4978555 101.120785,17.5819087 C91.0890578,18.4576102 84.1800708,21.8448721 79.6633587,25.232134 Z" id="Path" fill="#E7E7E7" opacity="0.4"></path>
                                <path d="M80.7347082,28.0599199 L78.2998229,26.2963545 C74.0935586,29.8052416 72.4134878,32.9857406 72.4134878,32.9857406 L80.7347082,28.0599199 Z" id="Path" fill="#E7E7E7" opacity="0.4"></path>
                                <path d="M61.3591087,45.3002924 L61.0182247,45.1482609 C61.0182247,45.1482609 64.9323028,102.616169 65.3584077,114.061101 C65.7845127,125.506032 64.4453258,184.415199 64.4453258,184.415199 L67.4889323,196 C71.4151848,111.768466 62.6922084,53.5708062 61.3591087,45.3002924 Z" id="Path" fill="#FFFFFF" opacity="0.4"></path>
                                <path d="M99.1120047,59.2871908 C99.1652856,59.3107517 99.2162358,59.3392559 99.2641851,59.3723284 L99.6842028,59.6399038 L101.279053,60.7041244 L107.098428,64.6630247 L106.921899,64.7846499 C106.185346,62.2730895 105.26009,59.3115158 104.073083,56.1492605 C103.466934,54.4887336 102.765748,52.8643855 101.972995,51.2842524 C101.065347,49.624615 100.03795,48.0331992 98.8989523,46.5226257 C96.6331865,43.4076756 93.7563948,40.7861273 90.4438132,38.8176691 C87.6806133,37.3213442 84.6511706,36.3793136 81.5260459,36.0446145 C79.4169502,35.8056235 77.2835473,35.8938301 75.2014314,36.3061087 L74.2274773,36.525034 L73.5274478,36.7317969 L73.0891684,36.8534221 L72.9430753,36.8534221 L73.0830812,36.7926095 L73.5030989,36.640578 L74.2031285,36.4034088 L75.1770826,36.1540772 C77.2660652,35.6913536 79.4160641,35.5681474 81.5443075,35.7892016 C84.7129149,36.0907629 87.7898376,37.0189319 90.5959935,38.5196874 C93.9651191,40.501069 96.887379,43.1575179 99.1789641,46.3219441 C100.326755,47.8463392 101.362273,49.4519564 102.277356,51.1261396 C103.06802,52.7230494 103.767149,54.3635835 104.371357,56.0397978 C105.552276,59.2385407 106.453184,62.1940331 107.165388,64.7177561 L107.256696,65.0339816 L106.988859,64.8454625 L101.230355,60.8014245 L99.6720283,59.6885539 L99.2702723,59.3905722 C99.2132214,59.3631684 99.1600123,59.3284119 99.1120047,59.2871908 L99.1120047,59.2871908 Z" id="Path" fill="#FFFFFF"></path>
                                <path d="M93.7004722,41.2744982 C91.4786394,39.1825447 88.410684,37.7291235 84.9896702,36.5371966 L84.9896702,36.5371966 C85.1053272,36.6344967 94.4431122,44.3637784 98.6615509,52.1538726 C100.412726,55.3355922 101.91074,58.64996 103.14174,62.0663266 L107.031469,64.7603249 C106.215782,60.5885804 102.271268,48.4868727 93.7004722,41.2744982 Z" id="Path" fill="#E7E7E7" opacity="0.4"></path>
                                <path d="M60.0807939,39.9427022 C60.1810363,38.6073356 60.3845508,37.2817189 60.6895152,35.9777206 C60.893242,34.654321 61.2005745,33.3489269 61.6086844,32.0735516 C61.5088794,33.4089681 61.3053597,34.7346184 60.9999631,36.0385332 C60.7971787,37.3621155 60.4898289,38.6675831 60.0807939,39.9427022 Z" id="Path" fill="#FFFFFF"></path>
                            </g>
                        </g>
                        <line x1="0" y1="195.808477" x2="278.9368" y2="195.808477" id="Border" stroke="#2E3031" stroke-linecap="round" stroke-linejoin="round"></line>
                    </g>
                    <g id="People/Searching" transform="translate(114.695968, 41.098541)">
                        <path d="M60.6039079,2.69886146 L60.5976702,2.85958821 C60.5163873,3.98547991 59.7239246,5.66573214 63.2210387,7.2066817 L63.4784886,7.31662472 C67.4519395,8.96192673 69.0889382,10.964692 69.9964931,14.0113228 C70.6015297,16.04241 69.7672465,19.0506039 67.4936434,23.0359044 C80.5804469,24.1184885 87.5530088,29.1222051 88.4113291,38.0470541 L88.4413265,38.3922511 L88.4413351,51.2628616 L107.605424,49.0087298 C108.914185,48.5048481 110.335984,48.2286434 111.822295,48.2286434 C114.187146,48.2286434 116.388683,48.9278719 118.231439,50.1308623 L118.731714,50.2570488 L132.341312,48.6051707 C133.152028,48.3945296 133.996801,48.2683552 134.865675,48.2366042 L135.443397,48.2286434 C141.862437,48.3055905 147.041964,53.5321901 147.041964,59.9685331 C147.041964,65.4836658 143.238987,70.1105657 138.112334,71.3699311 L138.924003,71.4225446 L140.045465,74.4520175 L140.859427,76.6902962 C148.664766,98.3277715 151.970536,112.693053 150.776736,119.786142 L150.734775,120.022567 C149.893299,124.525516 146.77995,133.224777 136.775902,133.951653 L136.770386,133.921638 L136.73694,133.467825 C136.719005,133.185243 136.69532,132.77888 136.665885,132.248735 L136.66542,184.384111 L110.875946,198.332982 L85.0864723,184.384111 L59.2969986,198.332982 L33.5075249,184.384111 L33.5073684,175.469474 L33.4914493,175.470132 C25.9094009,175.470132 15.4330285,173.908254 7.56857324,167.155407 L7.13438118,166.774886 C-4.73008022,156.162409 0.986927902,140.463951 4.55443153,134.350964 C8.12193515,128.237977 19.5162092,115.599246 21.8831805,112.807237 C28.5940005,104.89135 37.8238317,102.094729 43.2828054,100.761413 L45.373159,100.268924 C46.7369288,99.9514625 47.7844893,99.7845917 48.331333,99.708618 L48.7529976,99.6553686 L48.7252632,99.7126316 L48.7821053,99.6905263 L48.3579139,38.3856475 C48.3579139,33.8941617 50.1187409,31.8816129 52.1225064,30.0443214 L53.1884374,29.0837077 C55.5880752,26.9141582 47.2772212,30.4876537 42.6769543,29.5918715 C38.0766874,28.6960892 37.0333506,25.5821748 37.4739887,23.2301607 C37.9146267,20.8781466 41.091711,21.7907973 42.6769543,20.2644474 C44.2621975,18.7380975 37.8457981,17.5885981 39.1177536,15.7999605 C40.389709,14.0113228 41.505455,15.0127054 44.2260952,14.0113228 C46.9467353,13.0099401 42.6769543,13.0639541 41.694306,11.915702 C40.7116577,10.76745 40.8046722,8.12501361 42.6769543,7.31662472 C44.5076301,6.52620003 47.4762442,9.7874865 47.6072786,7.48251984 L47.611769,7.31662472 C47.611769,4.69542982 50.2728967,5.33388711 50.2728967,5.33388711 L50.3800255,5.36468394 L50.5905357,5.41626625 C51.3249589,5.57889944 53.0539656,5.78846032 53.1810327,4.19655989 L53.1884374,4.00477926 C53.1884374,1.73619243 55.4366018,0.462646566 57.3495461,0.0560245285 C59.2624904,-0.350597509 60.6039079,1.55099334 60.6039079,2.69886146 Z M33.5075249,126.153684 L30.9227465,128.056206 L30.0538149,128.750584 L29.1342191,129.503306 C23.2742309,134.357139 15.0197331,142.283291 14.5956359,147.38406 C14.0434224,154.025727 17.1417524,162.654146 33.5075249,160.48873 L33.5075249,126.153684 Z M88.4410526,68.9136842 L88.4413265,86.2638106 C88.4413265,90.156983 86.359873,91.7511177 82.1969658,91.0462146 L76.2263158,89.7831579 L75.8031579,90.3347368 L76.4389474,90.4052632 L76.4077913,90.4207628 C74.9761832,91.1518868 74.0682966,93.1129706 74.0682966,94.2585673 L74.0682966,99.7569592 L88.4413265,99.7569592 C96.4714114,99.7430441 103.949618,100.989509 110.875946,103.496355 C116.508433,105.53492 123.971101,109.701968 129.213037,111.324754 L135.447421,107.951404 L135.443397,107.868888 L125.72694,70.5537614 L127.547368,70.6736842 L118.272644,69.7791809 C116.42154,70.9987166 114.204798,71.7084227 111.822295,71.7084227 C110.378667,71.7084227 108.995898,71.4478538 107.718454,70.971182 L106.72512,71.1047696 L88.4410526,68.9136842 Z M78.066788,90.1884883 L79.3547207,90.4654642 L80.5934454,90.7431678 C80.8797907,90.805234 81.1699797,90.8639769 81.5576812,90.9344386 L82.1969658,91.0462146 L76.4389474,90.4052632 L76.5752792,90.3419772 C77.0279949,90.1470584 77.5288948,90.0760338 78.066788,90.1884883 Z" id="Filled" fill="#FFFFFF"></path>
                        <line x1="69.0889382" y1="47.4907773" x2="73.8014897" y2="47.4907773" id="Border" stroke="#2E3031" stroke-linecap="round" stroke-linejoin="round" transform="translate(71.445214, 47.490777) scale(-1, 1) rotate(-180.000000) translate(-71.445214, -47.490777) "></line>
                        <line x1="79.8491641" y1="47.4907773" x2="85.1950585" y2="47.4907773" id="Border" stroke="#2E3031" stroke-linecap="round" stroke-linejoin="round" transform="translate(82.522111, 47.490777) scale(-1, 1) rotate(-180.000000) translate(-82.522111, -47.490777) "></line>
                        <path d="M88.4413265,38.3922511 C87.7307874,29.25115 80.7482264,24.1323678 67.4936434,23.0359044 C69.7672465,19.0506039 70.6015297,16.04241 69.9964931,14.0113228 C69.0889382,10.964692 67.4519395,8.96192673 63.4784886,7.31662472 C59.5050376,5.67132272 60.6039079,3.84672957 60.6039079,2.69886146 C60.6039079,1.55099334 59.2624904,-0.350597509 57.3495461,0.0560245285 C55.4366018,0.462646566 53.1884374,1.73619243 53.1884374,4.00477926 C53.1884374,6.27336609 50.2728967,5.33388711 50.2728967,5.33388711 C50.2728967,5.33388711 47.611769,4.69542982 47.611769,7.31662472 C47.611769,9.93781962 44.5492363,6.50823583 42.6769543,7.31662472 C40.8046722,8.12501361 40.7116577,10.76745 41.694306,11.915702 C42.6769543,13.0639541 46.9467353,13.0099401 44.2260952,14.0113228 C41.505455,15.0127054 40.389709,14.0113228 39.1177536,15.7999605 C37.8457981,17.5885981 44.2621975,18.7380975 42.6769543,20.2644474 C41.091711,21.7907973 37.9146267,20.8781466 37.4739887,23.2301607 C37.0333506,25.5821748 38.0766874,28.6960892 42.6769543,29.5918715 C47.2772212,30.4876537 55.5880752,26.9141582 53.1884374,29.0837077 C50.7887996,31.2532573 48.3579139,33.108321 48.3579139,38.3856475 C48.4249927,48.086089 48.4753019,55.3614201 48.5088414,60.2116408 C50.6714182,59.9315705 52.2312836,59.4120928 53.1884374,58.6532079 C53.9082026,58.0825378 54.8637159,56.607683 56.0549771,54.2286434 L56.0549771,38.3922511 L88.4413265,38.3922511 Z" id="Filled" fill="#2E3031"></path>
                        <path d="M88.4413265,50.8616527 L88.4413265,38.3922511 C87.7307874,29.25115 80.7482264,24.1323678 67.4936434,23.0359044 C69.7672465,19.0506039 70.6015297,16.04241 69.9964931,14.0113228 C69.0889382,10.964692 67.4519395,8.96192673 63.4784886,7.31662472 C59.5050376,5.67132272 60.6039079,3.84672957 60.6039079,2.69886146 C60.6039079,1.55099334 59.2624904,-0.350597509 57.3495461,0.0560245285 C55.4366018,0.462646566 53.1884374,1.73619243 53.1884374,4.00477926 C53.1884374,6.27336609 50.2728967,5.33388711 50.2728967,5.33388711 C50.2728967,5.33388711 47.611769,4.69542982 47.611769,7.31662472 C47.611769,9.93781962 44.5492363,6.50823583 42.6769543,7.31662472 C40.8046722,8.12501361 40.7116577,10.76745 41.694306,11.915702 C42.6769543,13.0639541 46.9467353,13.0099401 44.2260952,14.0113228 C41.505455,15.0127054 40.389709,14.0113228 39.1177536,15.7999605 C37.8457981,17.5885981 44.2621975,18.7380975 42.6769543,20.2644474 C41.091711,21.7907973 37.9146267,20.8781466 37.4739887,23.2301607 C37.0333506,25.5821748 38.0766874,28.6960892 42.6769543,29.5918715 C47.2772212,30.4876537 55.5880752,26.9141582 53.1884374,29.0837077 C50.7887996,31.2532573 48.3579139,33.108321 48.3579139,38.3856475 L48.7821195,99.7310616" id="Border" stroke="#2E3031" stroke-linecap="round" stroke-linejoin="round"></path>
                        <path d="M82.1969658,91.0462146 L56.0549771,85.5184837 L56.0549771,65.0074536 L56.1007842,65.3227777 C56.3305621,66.3495717 56.6551036,67.4918411 57.0744089,68.7495858 C60.6884898,79.590354 69.5367807,76.8271448 71.445214,76.0290732 C73.3536473,75.2310016 80.6288629,70.1504179 88.4413265,73.874162 L88.4413265,86.2638106 C88.4413265,90.156983 86.359873,91.7511177 82.1969658,91.0462146 C80.4167131,90.7447652 80.4200707,90.6804769 78.066788,90.1884883 C75.7135053,89.6964997 74.0682966,92.7164179 74.0682966,94.2585673 C74.0682966,96.1593442 74.0683371,97.9921415 74.0684181,99.7569592 L88.4413265,99.7569592 C96.4714114,99.7430441 103.949618,100.989509 110.875946,103.496355 C116.524429,105.540709 124.013503,109.725653 129.257645,111.338518" id="Border" stroke="#2E3031" stroke-linecap="round" stroke-linejoin="round"></path>
                        <path d="M82.1969658,91.0462146 L56.0549771,85.5184837 L56.0549771,65.0074536 L56.1007842,65.3227777 C56.3305621,66.3495717 56.6551036,67.4918411 57.0744089,68.7495858 C60.6884898,79.590354 69.5367807,76.8271448 71.445214,76.0290732 C73.3536473,75.2310016 80.6288629,70.1504179 88.4413265,73.874162 L88.4413265,86.2638106 C88.4413265,90.156983 86.359873,91.7511177 82.1969658,91.0462146 C80.4167131,90.7447652 80.4200707,90.6804769 78.066788,90.1884883 C75.7135053,89.6964997 74.0682966,92.7164179 74.0682966,94.2585673 C74.0682966,96.1593442 74.0683371,97.9921415 74.0684181,99.7569592 L88.4413265,99.7569592 C96.4714114,99.7430441 103.949618,100.989509 110.875946,103.496355 C116.524429,105.540709 124.013503,109.725653 129.257645,111.338518" id="Border" stroke="#2E3031" stroke-linecap="round" stroke-linejoin="round"></path>
                        <path d="M88.4413265,99.7569592 C96.4714114,99.7430441 103.949618,100.989509 110.875946,103.496355 C111.518993,103.605664 111.888852,103.677013 111.985523,103.710401 C112.217535,103.790533 112.352757,104.024363 112.316628,104.258654 L112.294901,104.346235 L107.197726,119.10445 L107.160771,119.186771 C107.044609,119.393421 106.793903,119.49396 106.561892,119.413828 C106.32988,119.333696 106.194658,119.099866 106.230788,118.865575 L106.252514,118.777993 L106.278373,118.701062 L85.0864723,107.292038 L59.2969986,121.240909 L33.5075249,107.292038 L33.5075249,126.153684 C31.8104944,127.80096 30.8998376,128.677823 30.7755545,128.784273 C30.5891298,128.943949 30.3190204,128.942416 30.135134,128.792806 L30.0705501,128.729786 L19.0996363,115.921035 C18.9200009,115.711308 18.9443956,115.395666 19.1541233,115.216031 C19.2980715,115.092737 19.491914,115.065559 19.6574304,115.128451 L19.7119257,115.045322 L19.842694,114.863919 C19.8669084,114.832003 29.3040323,104.901459 38.0815615,102.415102 C42.3694824,100.793129 44.5879875,100.036142 44.7370767,100.144139 C57.3235115,109.261481 68.2725318,108.995512 77.7621447,99.3798485 C77.8914578,99.2488178 81.4511851,99.3745213 88.4413265,99.7569592 Z" id="Filled" stroke="#2E3031" fill="#DC143D" stroke-linecap="round" stroke-linejoin="round"></path>
                        <path d="M135.443397,107.868888 C135.405191,107.648512 135.35817,107.417996 135.302075,107.17704 C133.582136,99.7891415 130.381538,87.5813819 125.700281,70.5537614" id="Border" stroke="#2E3031" stroke-linecap="round" stroke-linejoin="round"></path>
                        <path d="M88.4413265,38.3856475 L56.0324384,38.3856475 C56.0324384,44.9494804 56.0324384,49.2557559 56.0324384,51.3044739 C56.0324384,57.0805134 53.558295,59.9685331 48.6100082,59.9685331" id="Border" stroke="#2E3031" stroke-linecap="round" stroke-linejoin="round"></path>
                        <line x1="88.4413436" y1="74.148526" x2="88.4413436" y2="69.3474111" id="Border" stroke="#2E3031" stroke-linecap="round" stroke-linejoin="round"></line>
                        <path d="M80.5554805,82.0737976 C81.1411318,80.9162471 82.0911077,80.1445467 83.405408,79.7586966 C84.7197083,79.3728464 86.3983507,79.3728464 88.4413351,79.7586966" id="Border" stroke="#2E3031" stroke-linecap="round" stroke-linejoin="round"></path>
                        <path d="M138.924003,71.4225446 C148.209725,96.2672671 152.146649,112.467274 150.734775,120.022567 C149.893299,124.525516 146.77995,133.224777 136.775902,133.951651" id="Border" stroke="#2E3031" stroke-linecap="round" stroke-linejoin="round"></path>
                        <path d="M48.9209673,99.9231891 C58.3485845,105.690859 66.7310276,105.601586 74.0682966,99.6553686" id="Border" stroke="#2E3031" stroke-linecap="round" stroke-linejoin="round"></path>
                        <g id="Binoculars" transform="translate(67.822325, 48.024184)">
                            <path d="M65.3900697,0.401565256 L65.7593594,0.340995508 C66.1805015,0.279152912 66.6089134,0.239671571 67.0433504,0.223796063 L67.6210718,0.215835261 C74.0401121,0.292782362 79.2196394,5.51938192 79.2196394,11.9557249 C79.2196394,17.4708577 75.4166622,22.0977575 70.2900096,23.3571229 L71.1016781,23.4097365 L70.3614016,23.498421 L69.6720142,23.572425 L69.0335159,23.6317486 L68.4459067,23.6763917 C68.2585185,23.688826 68.0796118,23.6988135 67.9091866,23.7063543 L67.4233556,23.7216364 C67.0397002,23.7282546 66.7090543,23.7195807 66.4314178,23.6956146 L65.3600724,23.5989746 C65.2902135,23.7761647 65.1212578,23.8981985 64.9284004,23.9090072 L64.8382171,23.9059243 L50.847764,22.1683578 L50.7595665,22.1492864 C50.6796597,22.1242953 50.6092185,22.0801416 50.5528566,22.0227473 C47.4244943,23.4177275 44.3011343,23.7696253 41.0182618,23.3571229 L22.5134317,21.035247 L14.4766606,19.9920598 L12.0268393,19.6684839 C11.3076569,19.573135 10.7214046,19.4673832 10.2680824,19.3512286 C9.83118706,19.1186701 9.40407633,18.9855423 9.01288653,18.6795397 C5.93402844,19.5984832 2.57621974,18.2949556 0.940724952,15.4621955 C-0.995841167,12.1079646 0.153403217,7.81892621 3.50763413,5.88236009 C5.14836671,4.93508269 7.06270059,4.70265659 8.84819335,5.18684988 L9.01106508,5.23440646 C9.32190576,4.99175039 9.65330113,4.76774561 10.0045681,4.56494155 C11.133056,3.91340876 12.3726685,3.53559974 13.6447521,3.4427908 C13.6722931,3.44078145 13.6994756,3.4410428 13.7261159,3.44341619 L13.7594708,3.43018298 L13.8476684,3.41111158 L41.2819746,0.00386429976 C41.5477074,-0.0291388115 41.7905947,0.152808695 41.8361043,0.413737948 C42.5366142,0.284239595 43.260304,0.215835261 43.9999704,0.215835261 C46.3521361,0.215835261 48.5427356,0.907582757 50.3794307,2.09873971 C50.4248646,1.94334402 50.5466843,1.81702819 50.7062485,1.76712417 L50.7944461,1.74805277 L64.8382171,0.00386429976 C65.0997979,-0.0286231379 65.3392414,0.147175314 65.3900697,0.401565256 Z" id="Filled" fill="#2E3031"></path>
                            <path d="M15.6256649,21.1633167 C18.1311288,19.4525191 19.7757315,16.5738624 19.7757315,13.3110882 C19.7757315,8.06359502 15.5217978,3.80966131 10.2743046,3.80966131 C8.79256656,3.80966131 7.39004816,4.14884099 6.14015449,4.75379527" id="Border" stroke="#FFFFFF" stroke-linecap="round" stroke-linejoin="round" transform="translate(12.957943, 12.486489) scale(-1, 1) rotate(-330.000000) translate(-12.957943, -12.486489) "></path>
                            <circle id="Border" stroke="#FFFFFF" stroke-linecap="round" stroke-linejoin="round" cx="43.9999704" cy="11.9557249" r="11.7398896"></circle>
                            <circle id="Border" stroke="#FFFFFF" stroke-linecap="round" stroke-linejoin="round" cx="67.4797497" cy="11.9557249" r="11.7398896"></circle>
                        </g>
                        <g id="Map" transform="translate(33.507525, 107.292038)" stroke="#2E3031" stroke-linecap="round" stroke-linejoin="round">
                            <polyline id="Border" points="0 53.1966923 0 7.10542736e-15 25.7894737 13.9488704 25.7894737 91.0409437 0 77.0920733 0 68.1780943"></polyline>
                            <polygon id="Border" transform="translate(38.684211, 45.520472) scale(-1, 1) translate(-38.684211, -45.520472) " points="25.7894737 7.10542736e-15 51.5789474 13.9488704 51.5789474 91.0409437 25.7894737 77.0920733"></polygon>
                            <polygon id="Border" points="51.5789474 7.10542736e-15 77.3684211 13.9488704 77.3684211 91.0409437 51.5789474 77.0920733"></polygon>
                            <polygon id="Border" transform="translate(90.263158, 45.520472) scale(-1, 1) translate(-90.263158, -45.520472) " points="77.3684211 7.10542736e-15 103.157895 13.9488704 103.157895 91.0409437 77.3684211 77.0920733"></polygon>
                        </g>
                        <g id="Left-hand" transform="translate(0.000000, 116.624505)" stroke="#2E3031" stroke-linecap="round" stroke-linejoin="round">
                            <path d="M18.5630482,-3.55271368e-15 C14.1844077,5.03079554 7.20658926,13.1819353 4.55443153,17.7264592 C0.986927902,23.8394462 -4.73008022,39.5379036 7.13438118,50.1503807 C15.0440221,57.2253654 25.7689926,58.8456273 33.4914493,58.8456273 C41.8598858,58.8456273 51.3341887,54.1072966 53.5097604,50.730634 C56.7297681,45.7332425 49.3215121,48.4691723 49.3215121,48.4691723 L46.5833748,50.0228639" id="Border"></path>
                            <path d="M29.3466458,12.7033244 C23.4758838,17.5396942 15.0248837,25.5968383 14.5956359,30.7595549 C14.0434224,37.4012222 17.1417524,46.0296407 33.5075249,43.8642253 C35.9309241,43.5435765 45.6627535,39.2928841 47.6032673,40.006017 C50.655374,41.1305494 47.8315124,43.5590897 47.8315124,43.5590897" id="Border"></path>
                            <path d="M45.0861784,43.2693895 C45.0861784,43.2693895 52.634454,43.2138646 52.8945316,46.3771059 C53.1555692,49.5403807 45.1167583,48.4354351 45.1167583,48.4354351" id="Border" transform="translate(48.993466, 45.945833) scale(1, -1) rotate(25.000000) translate(-48.993466, -45.945833) "></path>
                        </g>
                        <g id="Exclamation-" transform="translate(20.657420, 37.526087)" stroke="#2E3031" stroke-linecap="round" stroke-linejoin="round">
                            <line x1="11.174702" y1="27.459036" x2="17.174702" y2="22.459036" id="Border" transform="translate(14.174702, 24.959036) rotate(-169.000000) translate(-14.174702, -24.959036) "></line>
                            <line x1="0.648417369" y1="14.6618233" x2="14.6484174" y2="12.6618233" id="Border" transform="translate(7.648417, 13.661823) rotate(-169.000000) translate(-7.648417, -13.661823) "></line>
                            <line x1="8.44245786" y1="1.52189025" x2="18.4424579" y2="3.52189025" id="Border" transform="translate(13.442458, 2.521890) rotate(-169.000000) translate(-13.442458, -2.521890) "></line>
                        </g>
                    </g>
                </g>
                <rect id="Rectangle" x="0" y="0" width="360" height="280"></rect>
            </g>
        </g>
    </g>
</svg>