<?xml version="1.0" encoding="UTF-8"?>
<svg width="24px" height="24px" viewBox="0 0 24 24" version="1.1" xmlns="http://www.w3.org/2000/svg" xmlns:xlink="http://www.w3.org/1999/xlink">
    <title>2 Components/Inputs/Password/99 - Parts/3 - show</title>
    <defs>
        <rect id="path-1" x="0" y="0" width="24" height="24"></rect>
    </defs>
    <g id="2-Components/Inputs/Password/99---Parts/3---show" stroke="none" stroke-width="1" fill="none" fill-rule="evenodd">
        <g id="3-Icons/1-General/Cancel/24px/1-Outlined">
            <mask id="mask-2" fill="white">
                <use xlink:href="#path-1"></use>
            </mask>
            <use id="mask" fill-opacity="0" fill="#FFFFFF" xlink:href="#path-1"></use>
            <g id="🎨-colour" mask="url(#mask-2)" fill="#55585A">
                <g transform="translate(3.000000, 7.000000)">
                    <path d="M15.6567934,2.92892925 L16.8785934,4.15071925 C17.2690934,4.54123925 17.2690934,5.17440925 16.8785934,5.56492925 L15.6567934,6.78671925 C11.7515934,10.6919193 5.41992338,10.6919193 1.51468338,6.78671925 L0.292893375,5.56492925 C-0.097631625,5.17440925 -0.097630625,4.54123925 0.292893375,4.15071925 L1.51468338,2.92892925 C5.41992338,-0.97631075 11.7515934,-0.97630875 15.6567934,2.92892925 Z M14.9496934,3.63603925 C11.5039091,0.190237289 5.95913397,0.122671584 2.43101745,3.43334496 L2.22178338,3.63603925 L1.00000338,4.85782925 L2.22178338,6.07960925 C5.6675873,9.52541317 11.2123628,9.59297795 14.7404605,6.2823036 L14.9496934,6.07960925 L16.1714934,4.85782925 L14.9496934,3.63603925 Z M8.58569338,2.35781925 C9.96639338,2.35781925 11.0856934,3.47710925 11.0856934,4.85781925 C11.0856934,6.23852925 9.96639338,7.35781925 8.58569338,7.35781925 C7.20498338,7.35781925 6.08569338,6.23852925 6.08569338,4.85781925 C6.08569338,3.47710925 7.20498338,2.35781925 8.58569338,2.35781925 Z M8.58569338,3.35781925 C7.75726338,3.35781925 7.08569338,4.02938925 7.08569338,4.85781925 C7.08569338,5.68624925 7.75726338,6.35781925 8.58569338,6.35781925 C9.41412338,6.35781925 10.0856934,5.68624925 10.0856934,4.85781925 C10.0856934,4.02938925 9.41412338,3.35781925 8.58569338,3.35781925 Z"></path>
                </g>
            </g>
        </g>
    </g>
</svg>