<?xml version="1.0" encoding="UTF-8"?>
<svg width="576px" height="513px" viewBox="0 0 576 513" version="1.1" xmlns="http://www.w3.org/2000/svg" xmlns:xlink="http://www.w3.org/1999/xlink">
    <title>_Illustrations/CIB/Login page/4 Desktop HD</title>
    <g id="Logging-in" stroke="none" stroke-width="1" fill="none" fill-rule="evenodd">
        <g id="1" transform="translate(-138.000000, -200.000000)">
            <g id="_Illustrations/CIB/Login-page/4-Desktop-HD" transform="translate(65.000000, 130.000000)">
                <rect id="Rectangle" fill-opacity="0" fill="#FFFFFF" x="0" y="0" width="720" height="624"></rect>
                <g id="Lady-at-work" transform="translate(40.000000, 40.000000)">
                    <g id="Bricks" transform="translate(504.105263, 359.860150)" stroke="#E7E7E7" stroke-linecap="round" stroke-linejoin="round" stroke-width="2">
                        <polyline id="XMLID_285_" points="53.8947368 0.139849624 53.8947368 20.1398496 13.8947368 20.1398496"></polyline>
                        <polyline id="XMLID_284_" points="94.8947368 20.1398496 54.8947368 20.1398496 54.8947368 0.139849624"></polyline>
                        <rect id="XMLID_283_" x="33.8947368" y="20.1398496" width="40" height="20"></rect>
                        <polyline id="XMLID_282_" points="66.2679194 60.1398496 54.8947368 60.1398496 54.8947368 40.1398496 94.8947368 40.1398496"></polyline>
                        <polyline id="XMLID_281_" points="13.8947368 40.1398496 53.8947368 40.1398496 53.8947368 60.1398496 21.4675524 60.1398496"></polyline>
                        <polyline id="XMLID_280_" points="-0.105263158 20.1398496 33.8947368 20.1398496 33.8947368 40.1398496 13.6908907 40.1398496"></polyline>
                        <polyline id="XMLID_279_" points="103.894737 40.1398496 74.8947368 40.1398496 74.8947368 20.1398496 88.8432827 20.1398496"></polyline>
                    </g>
                    <g id="Bricks" transform="translate(86.105263, 41.860150)" stroke="#E7E7E7" stroke-linecap="round" stroke-linejoin="round">
                        <polyline id="XMLID_285_" points="53.8947368 0.139849624 53.8947368 20.1398496 13.8947368 20.1398496"></polyline>
                        <polyline id="XMLID_284_" points="94.8947368 20.1398496 54.8947368 20.1398496 54.8947368 0.139849624"></polyline>
                        <rect id="XMLID_283_" x="33.8947368" y="20.1398496" width="40" height="20"></rect>
                        <polyline id="XMLID_282_" points="66.2679194 60.1398496 54.8947368 60.1398496 54.8947368 40.1398496 94.8947368 40.1398496"></polyline>
                        <polyline id="XMLID_281_" points="13.8947368 40.1398496 53.8947368 40.1398496 53.8947368 60.1398496 21.4675524 60.1398496"></polyline>
                        <polyline id="XMLID_280_" points="-0.105263158 20.1398496 33.8947368 20.1398496 33.8947368 40.1398496 13.6908907 40.1398496"></polyline>
                        <polyline id="XMLID_279_" points="103.894737 40.1398496 74.8947368 40.1398496 74.8947368 20.1398496 88.8432827 20.1398496"></polyline>
                    </g>
                    <g id="WATCH" transform="translate(34.439754, 51.867026)" stroke="#2E3031" stroke-linecap="round" stroke-linejoin="round">
                        <circle id="Oval" fill="#FFFFFF" cx="40.4174312" cy="40.4174312" r="40.4174312"></circle>
                        <line x1="40.4083105" y1="4.49082569" x2="40.4083105" y2="11.8394495" id="Line-5"></line>
                        <line x1="40.4083105" y1="68.9954128" x2="40.4083105" y2="76.3440367" id="Line-5-Copy"></line>
                        <line x1="76.334916" y1="40.4174312" x2="68.9862922" y2="40.4174312" id="Line-5"></line>
                        <line x1="11.8303289" y1="40.4174312" x2="4.48170502" y2="40.4174312" id="Line-5-Copy"></line>
                        <line x1="35.962733" y1="40.4174312" x2="64.2602458" y2="40.4174312" id="Path-44"></line>
                        <line x1="41.5875741" y1="44.211369" x2="36.7562572" y2="28.6056253" id="Path-45"></line>
                    </g>
                    <g id="day54-building-2" transform="translate(179.000000, 114.000000)">
                        <g id="day54-building" transform="translate(141.000000, 0.000000)">
                            <path d="M166.958678,130.07874 L220,130.07874 C221.104569,130.07874 222,130.974171 222,132.07874 L222,236 L222,236 L166.958678,236 L166.958678,130.07874 Z" id="XMLID_96_" fill="#FFFFFF" fill-rule="nonzero"></path>
                            <rect id="XMLID_2_" fill="#E7E7E7" fill-rule="nonzero" opacity="0.34" x="168.793388" y="130.07874" width="5.50413223" height="105.92126"></rect>
                            <polyline id="XMLID_26_" stroke="#E7E7E7" stroke-linecap="round" stroke-linejoin="round" points="166.958678 130.07874 206.98873 130.07874 222 130.07874 222 189.667192 222 226.708661"></polyline>
                            <g id="XMLID_32_" transform="translate(177.966942, 144.944882)" stroke="#E7E7E7" stroke-linecap="round" stroke-linejoin="round">
                                <line x1="0" y1="68.4934784" x2="38.5289256" y2="68.4934784" id="XMLID_131_"></line>
                                <line x1="0" y1="54.8472681" x2="38.5289256" y2="54.8472681" id="XMLID_128_"></line>
                                <line x1="0" y1="41.2010579" x2="38.5289256" y2="41.2010579" id="XMLID_125_"></line>
                                <line x1="0" y1="27.5548476" x2="38.5289256" y2="27.5548476" id="XMLID_122_"></line>
                                <line x1="0" y1="13.9086374" x2="38.5289256" y2="13.9086374" id="XMLID_119_"></line>
                                <line x1="0" y1="0.26242712" x2="38.5289256" y2="0.26242712" id="XMLID_116_"></line>
                            </g>
                            <rect id="XMLID_75_" fill="#FFFFFF" fill-rule="nonzero" x="91.7355372" y="87.3385827" width="77.0578512" height="148.661417"></rect>
                            <rect id="XMLID_86_" fill="#E7E7E7" fill-rule="nonzero" opacity="0.69" x="91.7355372" y="87.3385827" width="5.50413223" height="148.661417"></rect>
                            <rect id="XMLID_54_" fill="#FFFFFF" fill-rule="nonzero" x="33.0247934" y="40.8818898" width="58.7107438" height="195.11811"></rect>
                            <rect id="XMLID_74_" fill="#E7E7E7" fill-rule="nonzero" opacity="0.69" x="33.0247934" y="40.8818898" width="5.50413223" height="195.11811"></rect>
                            <path d="M33.0247934,77.9704562 L33.0247934,42.8818898 C33.0247934,41.7773203 33.9202239,40.8818898 35.0247934,40.8818898 L89.7355372,40.8818898 C90.8401067,40.8818898 91.7355372,41.7773203 91.7355372,42.8818898 L91.7355372,234 C91.7355372,235.104569 90.8401067,236 89.7355372,236 L35.0247934,236 C33.9202239,236 33.0247934,235.104569 33.0247934,234" id="XMLID_1_" stroke="#E7E7E7" stroke-linecap="round" stroke-linejoin="round"></path>
                            <g id="Group" transform="translate(44.033058, 53.889764)" stroke="#E7E7E7" stroke-linecap="round" stroke-linejoin="round">
                                <line x1="0" y1="140.364415" x2="38.5289256" y2="140.364415" id="XMLID_258_"></line>
                                <line x1="0" y1="146.5456" x2="38.5289256" y2="146.5456" id="XMLID_257_"></line>
                                <line x1="0" y1="122.851057" x2="38.5289256" y2="122.851057" id="XMLID_252_"></line>
                                <line x1="0" y1="129.032242" x2="38.5289256" y2="129.032242" id="XMLID_251_"></line>
                                <line x1="0" y1="105.337699" x2="38.5289256" y2="105.337699" id="XMLID_246_"></line>
                                <line x1="0" y1="111.518884" x2="38.5289256" y2="111.518884" id="XMLID_245_"></line>
                                <line x1="0" y1="87.8243404" x2="38.5289256" y2="87.8243404" id="XMLID_240_"></line>
                                <line x1="0" y1="94.0055256" x2="38.5289256" y2="94.0055256" id="XMLID_239_"></line>
                                <line x1="0" y1="70.3109822" x2="38.5289256" y2="70.3109822" id="XMLID_234_"></line>
                                <line x1="0" y1="76.4921674" x2="38.5289256" y2="76.4921674" id="XMLID_233_"></line>
                                <line x1="0" y1="52.797624" x2="38.5289256" y2="52.797624" id="XMLID_228_"></line>
                                <line x1="0" y1="58.9788092" x2="38.5289256" y2="58.9788092" id="XMLID_227_"></line>
                                <line x1="0" y1="35.2842658" x2="38.5289256" y2="35.2842658" id="XMLID_222_"></line>
                                <line x1="0" y1="41.465451" x2="38.5289256" y2="41.465451" id="XMLID_221_"></line>
                                <line x1="0" y1="17.7709076" x2="38.5289256" y2="17.7709076" id="XMLID_216_"></line>
                                <line x1="0" y1="23.9520928" x2="38.5289256" y2="23.9520928" id="XMLID_215_"></line>
                                <line x1="0" y1="0.257549385" x2="38.5289256" y2="0.257549385" id="XMLID_210_"></line>
                                <line x1="0" y1="6.43873463" x2="38.5289256" y2="6.43873463" id="XMLID_209_"></line>
                            </g>
                            <path d="M64.214876,0.306614173 C63.1520091,0.102204724 62.0385295,0 60.9250499,0 L60.9250499,0 C50.600057,0 42.1983471,8.48299213 42.1983471,18.907874 L42.1983471,40.8818898 L48.7779994,40.8818898 L48.7779994,18.907874 C48.7779994,9.60724409 55.4082645,1.8907874 64.214876,0.306614173 Z" id="XMLID_98_" fill="#E7E7E7" fill-rule="nonzero" opacity="0.69"></path>
                            <path d="M82.5619835,40.8818898 L42.1983471,40.8818898 L42.1983471,18.907874 C42.1983471,8.48299213 51.2528926,0 62.3801653,0 L62.3801653,0 C73.507438,0 82.5619835,8.48299213 82.5619835,18.907874 L82.5619835,40.8818898 Z" id="XMLID_9_" stroke="#E7E7E7" stroke-linecap="round" stroke-linejoin="round"></path>
                            <path d="M91.7355372,87.3385827 L166.793388,87.3385827 C167.897958,87.3385827 168.793388,88.2340132 168.793388,89.3385827 L168.793388,233 C168.793388,234.656854 167.450243,236 165.793388,236 L108.130825,236 L108.130825,236" id="XMLID_11_" stroke="#E7E7E7" stroke-linecap="round" stroke-linejoin="round"></path>
                            <rect id="XMLID_92_" fill-rule="nonzero" x="91.7355372" y="78.0472441" width="80.7272727" height="9.29133858"></rect>
                            <rect id="XMLID_13_" stroke="#E7E7E7" stroke-linecap="round" stroke-linejoin="round" x="91.7355372" y="78.0472441" width="80.7272727" height="9.29133858"></rect>
                            <rect id="XMLID_82_" fill="#FFFFFF" fill-rule="nonzero" x="49.5371901" y="209.984252" width="23.8512397" height="26.015748"></rect>
                            <g id="XMLID_16_" transform="translate(102.743802, 104.062992)" stroke="#E7E7E7" stroke-linecap="round" stroke-linejoin="round">
                                <line x1="52.9432125" y1="103.717268" x2="52.9432125" y2="111.496063" id="XMLID_786_"></line>
                                <line x1="0.263399067" y1="103.717268" x2="0.263399067" y2="111.496063" id="XMLID_776_"></line>
                                <line x1="52.9432125" y1="82.9738143" x2="52.9432125" y2="90.7526094" id="XMLID_746_"></line>
                                <line x1="42.4072498" y1="82.9738143" x2="42.4072498" y2="90.7526094" id="XMLID_744_"></line>
                                <line x1="31.8712871" y1="82.9738143" x2="31.8712871" y2="90.7526094" id="XMLID_742_"></line>
                                <line x1="21.3353244" y1="82.9738143" x2="21.3353244" y2="90.7526094" id="XMLID_740_"></line>
                                <line x1="10.7993618" y1="82.9738143" x2="10.7993618" y2="90.7526094" id="XMLID_738_"></line>
                                <line x1="0.263399067" y1="82.9738143" x2="0.263399067" y2="90.7526094" id="XMLID_736_"></line>
                                <line x1="52.9432125" y1="62.2303607" x2="52.9432125" y2="70.0091558" id="XMLID_706_"></line>
                                <line x1="42.4072498" y1="62.2303607" x2="42.4072498" y2="70.0091558" id="XMLID_704_"></line>
                                <line x1="31.8712871" y1="62.2303607" x2="31.8712871" y2="70.0091558" id="XMLID_702_"></line>
                                <line x1="21.3353244" y1="62.2303607" x2="21.3353244" y2="70.0091558" id="XMLID_700_"></line>
                                <line x1="10.7993618" y1="62.2303607" x2="10.7993618" y2="70.0091558" id="XMLID_698_"></line>
                                <line x1="0.263399067" y1="62.2303607" x2="0.263399067" y2="70.0091558" id="XMLID_696_"></line>
                                <line x1="52.9432125" y1="41.4869072" x2="52.9432125" y2="49.2657023" id="XMLID_666_"></line>
                                <line x1="42.4072498" y1="41.4869072" x2="42.4072498" y2="49.2657023" id="XMLID_664_"></line>
                                <line x1="31.8712871" y1="41.4869072" x2="31.8712871" y2="49.2657023" id="XMLID_662_"></line>
                                <line x1="21.3353244" y1="41.4869072" x2="21.3353244" y2="49.2657023" id="XMLID_660_"></line>
                                <line x1="10.7993618" y1="41.4869072" x2="10.7993618" y2="49.2657023" id="XMLID_658_"></line>
                                <line x1="0.263399067" y1="41.4869072" x2="0.263399067" y2="49.2657023" id="XMLID_656_"></line>
                                <line x1="52.9432125" y1="20.7434536" x2="52.9432125" y2="28.5222487" id="XMLID_626_"></line>
                                <line x1="42.4072498" y1="20.7434536" x2="42.4072498" y2="28.5222487" id="XMLID_624_"></line>
                                <line x1="31.8712871" y1="20.7434536" x2="31.8712871" y2="28.5222487" id="XMLID_622_"></line>
                                <line x1="21.3353244" y1="20.7434536" x2="21.3353244" y2="28.5222487" id="XMLID_620_"></line>
                                <line x1="10.7993618" y1="20.7434536" x2="10.7993618" y2="28.5222487" id="XMLID_618_"></line>
                                <line x1="0.263399067" y1="20.7434536" x2="0.263399067" y2="28.5222487" id="XMLID_616_"></line>
                                <line x1="52.9432125" y1="0" x2="52.9432125" y2="7.77879509" id="XMLID_586_"></line>
                                <line x1="42.4072498" y1="0" x2="42.4072498" y2="7.77879509" id="XMLID_584_"></line>
                                <line x1="31.8712871" y1="0" x2="31.8712871" y2="7.77879509" id="XMLID_582_"></line>
                                <line x1="21.3353244" y1="0" x2="21.3353244" y2="7.77879509" id="XMLID_580_"></line>
                                <line x1="10.7993618" y1="0" x2="10.7993618" y2="7.77879509" id="XMLID_578_"></line>
                                <line x1="0.263399067" y1="0" x2="0.263399067" y2="7.77879509" id="XMLID_576_"></line>
                            </g>
                            <rect id="XMLID_79_" stroke="#E7E7E7" fill-rule="nonzero" x="0" y="87.3385827" width="33.0247934" height="148.661417"></rect>
                            <rect id="XMLID_58_" fill="#E7E7E7" fill-rule="nonzero" opacity="0.53" x="0" y="87.3385827" width="5.50413223" height="148.661417"></rect>
                            <rect id="XMLID_33_" stroke="#E7E7E7" stroke-linecap="round" stroke-linejoin="round" x="0" y="87.3385827" width="33.0247934" height="148.661417"></rect>
                            <g id="XMLID_41_" transform="translate(9.173554, 96.629921)" stroke="#E7E7E7" stroke-linejoin="round" stroke-width="4">
                                <line x1="0.271808999" y1="90.6687456" x2="0.271808999" y2="98.3961955" id="XMLID_477_"></line>
                                <line x1="0.271808999" y1="100.972012" x2="0.271808999" y2="104.062992" id="XMLID_476_" opacity="0.36"></line>
                                <line x1="7.33884298" y1="90.6687456" x2="7.33884298" y2="98.3961955" id="XMLID_474_"></line>
                                <line x1="7.33884298" y1="100.972012" x2="7.33884298" y2="104.062992" id="XMLID_473_" opacity="0.36"></line>
                                <line x1="14.405877" y1="90.6687456" x2="14.405877" y2="98.3961955" id="XMLID_471_"></line>
                                <line x1="14.405877" y1="100.972012" x2="14.405877" y2="104.062992" id="XMLID_470_" opacity="0.36"></line>
                                <line x1="0.271808999" y1="68.0015592" x2="0.271808999" y2="75.7290091" id="XMLID_446_"></line>
                                <line x1="0.271808999" y1="78.3048258" x2="0.271808999" y2="81.3958057" id="XMLID_445_" opacity="0.36"></line>
                                <line x1="7.33884298" y1="68.0015592" x2="7.33884298" y2="75.7290091" id="XMLID_443_"></line>
                                <line x1="7.33884298" y1="78.3048258" x2="7.33884298" y2="81.3958057" id="XMLID_442_" opacity="0.36"></line>
                                <line x1="14.405877" y1="68.0015592" x2="14.405877" y2="75.7290091" id="XMLID_440_"></line>
                                <line x1="14.405877" y1="78.3048258" x2="14.405877" y2="81.3958057" id="XMLID_439_" opacity="0.36"></line>
                                <line x1="0.271808999" y1="45.3343728" x2="0.271808999" y2="53.0618227" id="XMLID_415_"></line>
                                <line x1="0.271808999" y1="55.6376394" x2="0.271808999" y2="58.7286193" id="XMLID_414_" opacity="0.36"></line>
                                <line x1="7.33884298" y1="45.3343728" x2="7.33884298" y2="53.0618227" id="XMLID_412_"></line>
                                <line x1="7.33884298" y1="55.6376394" x2="7.33884298" y2="58.7286193" id="XMLID_411_" opacity="0.36"></line>
                                <line x1="14.405877" y1="45.3343728" x2="14.405877" y2="53.0618227" id="XMLID_409_"></line>
                                <line x1="14.405877" y1="55.6376394" x2="14.405877" y2="58.7286193" id="XMLID_408_" opacity="0.36"></line>
                                <line x1="0.271808999" y1="22.6671864" x2="0.271808999" y2="30.3946363" id="XMLID_384_"></line>
                                <line x1="0.271808999" y1="32.970453" x2="0.271808999" y2="36.0614329" id="XMLID_383_" opacity="0.36"></line>
                                <line x1="7.33884298" y1="22.6671864" x2="7.33884298" y2="30.3946363" id="XMLID_381_"></line>
                                <line x1="7.33884298" y1="32.970453" x2="7.33884298" y2="36.0614329" id="XMLID_380_" opacity="0.36"></line>
                                <line x1="14.405877" y1="22.6671864" x2="14.405877" y2="30.3946363" id="XMLID_378_"></line>
                                <line x1="14.405877" y1="32.970453" x2="14.405877" y2="36.0614329" id="XMLID_377_" opacity="0.36"></line>
                                <line x1="0.271808999" y1="0" x2="0.271808999" y2="7.72744991" id="XMLID_353_"></line>
                                <line x1="0.271808999" y1="10.3032665" x2="0.271808999" y2="13.3942465" id="XMLID_352_" opacity="0.36"></line>
                                <line x1="7.33884298" y1="0" x2="7.33884298" y2="7.72744991" id="XMLID_350_"></line>
                                <line x1="7.33884298" y1="10.3032665" x2="7.33884298" y2="13.3942465" id="XMLID_349_" opacity="0.36"></line>
                                <line x1="14.405877" y1="0" x2="14.405877" y2="7.72744991" id="XMLID_347_"></line>
                                <line x1="14.405877" y1="10.3032665" x2="14.405877" y2="13.3942465" id="XMLID_346_" opacity="0.36"></line>
                            </g>
                            <rect id="XMLID_84_" fill="#E7E7E7" fill-rule="nonzero" x="12.8429752" y="211.84252" width="9.17355372" height="24.1574803"></rect>
                            <rect id="XMLID_37_" x="12.8429752" y="211.84252" width="9.17355372" height="24.1574803"></rect>
                            <line x1="56.9322975" y1="20.4409449" x2="56.9322975" y2="39.023622" id="XMLID_93_"></line>
                            <polyline id="XMLID_94_" points="68.8016529 20.4409449 68.8016529 26.6351706 68.8016529 39.023622"></polyline>
                        </g>
                        <g id="day54-building" transform="translate(0.000000, 30.440945)">
                            <path d="M166.958678,109.637795 L220,109.637795 C221.104569,109.637795 222,110.533226 222,111.637795 L222,215.559055 L222,215.559055 L166.958678,215.559055 L166.958678,109.637795 Z" id="XMLID_96_" fill="#FFFFFF" fill-rule="nonzero"></path>
                            <rect id="XMLID_2_" fill="#E7E7E7" fill-rule="nonzero" opacity="0.34" x="168.793388" y="109.637795" width="5.50413223" height="105.92126"></rect>
                            <polyline id="XMLID_26_" stroke="#E7E7E7" stroke-linecap="round" stroke-linejoin="round" points="166.958678 109.637795 206.98873 109.637795 222 109.637795 222 169.226247 222 206.267717"></polyline>
                            <g id="XMLID_32_" transform="translate(177.966942, 124.503937)" stroke="#E7E7E7" stroke-linecap="round" stroke-linejoin="round">
                                <line x1="0" y1="68.4934784" x2="38.5289256" y2="68.4934784" id="XMLID_131_"></line>
                                <line x1="0" y1="54.8472681" x2="38.5289256" y2="54.8472681" id="XMLID_128_"></line>
                                <line x1="0" y1="41.2010579" x2="38.5289256" y2="41.2010579" id="XMLID_125_"></line>
                                <line x1="0" y1="27.5548476" x2="38.5289256" y2="27.5548476" id="XMLID_122_"></line>
                                <line x1="0" y1="13.9086374" x2="38.5289256" y2="13.9086374" id="XMLID_119_"></line>
                                <line x1="0" y1="0.26242712" x2="38.5289256" y2="0.26242712" id="XMLID_116_"></line>
                            </g>
                            <rect id="XMLID_75_" fill="#FFFFFF" fill-rule="nonzero" x="91.7355372" y="66.8976378" width="77.0578512" height="148.661417"></rect>
                            <rect id="XMLID_86_" fill="#E7E7E7" fill-rule="nonzero" opacity="0.69" x="91.7355372" y="66.8976378" width="5.50413223" height="148.661417"></rect>
                            <rect id="XMLID_54_" fill="#FFFFFF" fill-rule="nonzero" x="33.0247934" y="20.4409449" width="58.7107438" height="195.11811"></rect>
                            <rect id="XMLID_74_" fill="#E7E7E7" fill-rule="nonzero" opacity="0.69" x="33.0247934" y="20.4409449" width="5.50413223" height="195.11811"></rect>
                            <path d="M33.0247934,57.5295113 L33.0247934,22.4409449 C33.0247934,21.3363754 33.9202239,20.4409449 35.0247934,20.4409449 L89.7355372,20.4409449 C90.8401067,20.4409449 91.7355372,21.3363754 91.7355372,22.4409449 L91.7355372,213.559055 C91.7355372,214.663625 90.8401067,215.559055 89.7355372,215.559055 L35.0247934,215.559055 C33.9202239,215.559055 33.0247934,214.663625 33.0247934,213.559055" id="XMLID_1_" stroke="#E7E7E7" stroke-linecap="round" stroke-linejoin="round"></path>
                            <g id="Group" transform="translate(44.033058, 33.448819)" stroke="#E7E7E7" stroke-linecap="round" stroke-linejoin="round">
                                <line x1="0" y1="140.364415" x2="38.5289256" y2="140.364415" id="XMLID_258_"></line>
                                <line x1="0" y1="146.5456" x2="38.5289256" y2="146.5456" id="XMLID_257_"></line>
                                <line x1="0" y1="122.851057" x2="38.5289256" y2="122.851057" id="XMLID_252_"></line>
                                <line x1="0" y1="129.032242" x2="38.5289256" y2="129.032242" id="XMLID_251_"></line>
                                <line x1="0" y1="105.337699" x2="38.5289256" y2="105.337699" id="XMLID_246_"></line>
                                <line x1="0" y1="111.518884" x2="38.5289256" y2="111.518884" id="XMLID_245_"></line>
                                <line x1="0" y1="87.8243404" x2="38.5289256" y2="87.8243404" id="XMLID_240_"></line>
                                <line x1="0" y1="94.0055256" x2="38.5289256" y2="94.0055256" id="XMLID_239_"></line>
                                <line x1="0" y1="70.3109822" x2="38.5289256" y2="70.3109822" id="XMLID_234_"></line>
                                <line x1="0" y1="76.4921674" x2="38.5289256" y2="76.4921674" id="XMLID_233_"></line>
                                <line x1="0" y1="52.797624" x2="38.5289256" y2="52.797624" id="XMLID_228_"></line>
                                <line x1="0" y1="58.9788092" x2="38.5289256" y2="58.9788092" id="XMLID_227_"></line>
                                <line x1="0" y1="35.2842658" x2="38.5289256" y2="35.2842658" id="XMLID_222_"></line>
                                <line x1="0" y1="41.465451" x2="38.5289256" y2="41.465451" id="XMLID_221_"></line>
                                <line x1="0" y1="17.7709076" x2="38.5289256" y2="17.7709076" id="XMLID_216_"></line>
                                <line x1="0" y1="23.9520928" x2="38.5289256" y2="23.9520928" id="XMLID_215_"></line>
                                <line x1="0" y1="0.257549385" x2="38.5289256" y2="0.257549385" id="XMLID_210_"></line>
                                <line x1="0" y1="6.43873463" x2="38.5289256" y2="6.43873463" id="XMLID_209_"></line>
                            </g>
                            <path d="M91.7355372,66.8976378 L166.793388,66.8976378 C167.897958,66.8976378 168.793388,67.7930683 168.793388,68.8976378 L168.793388,212.559055 C168.793388,214.215909 167.450243,215.559055 165.793388,215.559055 L92.1308247,215.559055 L92.1308247,215.559055 L91.7355372,66.8976378 Z" id="XMLID_11_" stroke="#E7E7E7" fill="#D8D8D8" stroke-linecap="round" stroke-linejoin="round"></path>
                            <rect id="XMLID_92_" fill-rule="nonzero" x="91.7355372" y="57.6062992" width="80.7272727" height="9.29133858"></rect>
                            <rect id="XMLID_13_" stroke="#E7E7E7" fill="#E7E7E7" stroke-linecap="round" stroke-linejoin="round" x="91.7355372" y="57.6062992" width="80.7272727" height="9.29133858"></rect>
                            <rect id="XMLID_82_" fill="#FFFFFF" fill-rule="nonzero" x="49.5371901" y="189.543307" width="23.8512397" height="26.015748"></rect>
                            <g id="XMLID_16_" transform="translate(102.743802, 83.622047)" stroke="#FFFFFF" stroke-linecap="round" stroke-linejoin="round">
                                <line x1="52.9432125" y1="103.717268" x2="52.9432125" y2="111.496063" id="XMLID_786_"></line>
                                <line x1="0.263399067" y1="103.717268" x2="0.263399067" y2="111.496063" id="XMLID_776_"></line>
                                <line x1="52.9432125" y1="82.9738143" x2="52.9432125" y2="90.7526094" id="XMLID_746_"></line>
                                <line x1="42.4072498" y1="82.9738143" x2="42.4072498" y2="90.7526094" id="XMLID_744_"></line>
                                <line x1="31.8712871" y1="82.9738143" x2="31.8712871" y2="90.7526094" id="XMLID_742_"></line>
                                <line x1="21.3353244" y1="82.9738143" x2="21.3353244" y2="90.7526094" id="XMLID_740_"></line>
                                <line x1="10.7993618" y1="82.9738143" x2="10.7993618" y2="90.7526094" id="XMLID_738_"></line>
                                <line x1="0.263399067" y1="82.9738143" x2="0.263399067" y2="90.7526094" id="XMLID_736_"></line>
                                <line x1="52.9432125" y1="62.2303607" x2="52.9432125" y2="70.0091558" id="XMLID_706_"></line>
                                <line x1="42.4072498" y1="62.2303607" x2="42.4072498" y2="70.0091558" id="XMLID_704_"></line>
                                <line x1="31.8712871" y1="62.2303607" x2="31.8712871" y2="70.0091558" id="XMLID_702_"></line>
                                <line x1="21.3353244" y1="62.2303607" x2="21.3353244" y2="70.0091558" id="XMLID_700_"></line>
                                <line x1="10.7993618" y1="62.2303607" x2="10.7993618" y2="70.0091558" id="XMLID_698_"></line>
                                <line x1="0.263399067" y1="62.2303607" x2="0.263399067" y2="70.0091558" id="XMLID_696_"></line>
                                <line x1="52.9432125" y1="41.4869072" x2="52.9432125" y2="49.2657023" id="XMLID_666_"></line>
                                <line x1="42.4072498" y1="41.4869072" x2="42.4072498" y2="49.2657023" id="XMLID_664_"></line>
                                <line x1="31.8712871" y1="41.4869072" x2="31.8712871" y2="49.2657023" id="XMLID_662_"></line>
                                <line x1="21.3353244" y1="41.4869072" x2="21.3353244" y2="49.2657023" id="XMLID_660_"></line>
                                <line x1="10.7993618" y1="41.4869072" x2="10.7993618" y2="49.2657023" id="XMLID_658_"></line>
                                <line x1="0.263399067" y1="41.4869072" x2="0.263399067" y2="49.2657023" id="XMLID_656_"></line>
                                <line x1="52.9432125" y1="20.7434536" x2="52.9432125" y2="28.5222487" id="XMLID_626_"></line>
                                <line x1="42.4072498" y1="20.7434536" x2="42.4072498" y2="28.5222487" id="XMLID_624_"></line>
                                <line x1="31.8712871" y1="20.7434536" x2="31.8712871" y2="28.5222487" id="XMLID_622_"></line>
                                <line x1="21.3353244" y1="20.7434536" x2="21.3353244" y2="28.5222487" id="XMLID_620_"></line>
                                <line x1="10.7993618" y1="20.7434536" x2="10.7993618" y2="28.5222487" id="XMLID_618_"></line>
                                <line x1="0.263399067" y1="20.7434536" x2="0.263399067" y2="28.5222487" id="XMLID_616_"></line>
                                <line x1="52.9432125" y1="0" x2="52.9432125" y2="7.77879509" id="XMLID_586_"></line>
                                <line x1="42.4072498" y1="0" x2="42.4072498" y2="7.77879509" id="XMLID_584_"></line>
                                <line x1="31.8712871" y1="0" x2="31.8712871" y2="7.77879509" id="XMLID_582_"></line>
                                <line x1="21.3353244" y1="0" x2="21.3353244" y2="7.77879509" id="XMLID_580_"></line>
                                <line x1="10.7993618" y1="0" x2="10.7993618" y2="7.77879509" id="XMLID_578_"></line>
                                <line x1="0.263399067" y1="0" x2="0.263399067" y2="7.77879509" id="XMLID_576_"></line>
                            </g>
                            <rect id="XMLID_79_" stroke="#E7E7E7" fill-rule="nonzero" x="0" y="66.8976378" width="33.0247934" height="148.661417"></rect>
                            <rect id="XMLID_33_" stroke="#E7E7E7" fill="#E7E7E7" stroke-linecap="round" stroke-linejoin="round" x="0" y="66.8976378" width="33.0247934" height="148.661417"></rect>
                            <g id="XMLID_41_" transform="translate(9.173554, 76.188976)" stroke="#FFFFFF" stroke-linejoin="round" stroke-width="4">
                                <line x1="0.271808999" y1="90.6687456" x2="0.271808999" y2="98.3961955" id="XMLID_477_"></line>
                                <line x1="0.271808999" y1="100.972012" x2="0.271808999" y2="104.062992" id="XMLID_476_" opacity="0.36"></line>
                                <line x1="7.33884298" y1="90.6687456" x2="7.33884298" y2="98.3961955" id="XMLID_474_"></line>
                                <line x1="7.33884298" y1="100.972012" x2="7.33884298" y2="104.062992" id="XMLID_473_" opacity="0.36"></line>
                                <line x1="14.405877" y1="90.6687456" x2="14.405877" y2="98.3961955" id="XMLID_471_"></line>
                                <line x1="14.405877" y1="100.972012" x2="14.405877" y2="104.062992" id="XMLID_470_" opacity="0.36"></line>
                                <line x1="0.271808999" y1="68.0015592" x2="0.271808999" y2="75.7290091" id="XMLID_446_"></line>
                                <line x1="0.271808999" y1="78.3048258" x2="0.271808999" y2="81.3958057" id="XMLID_445_" opacity="0.36"></line>
                                <line x1="7.33884298" y1="68.0015592" x2="7.33884298" y2="75.7290091" id="XMLID_443_"></line>
                                <line x1="7.33884298" y1="78.3048258" x2="7.33884298" y2="81.3958057" id="XMLID_442_" opacity="0.36"></line>
                                <line x1="14.405877" y1="68.0015592" x2="14.405877" y2="75.7290091" id="XMLID_440_"></line>
                                <line x1="14.405877" y1="78.3048258" x2="14.405877" y2="81.3958057" id="XMLID_439_" opacity="0.36"></line>
                                <line x1="0.271808999" y1="45.3343728" x2="0.271808999" y2="53.0618227" id="XMLID_415_"></line>
                                <line x1="0.271808999" y1="55.6376394" x2="0.271808999" y2="58.7286193" id="XMLID_414_" opacity="0.36"></line>
                                <line x1="7.33884298" y1="45.3343728" x2="7.33884298" y2="53.0618227" id="XMLID_412_"></line>
                                <line x1="7.33884298" y1="55.6376394" x2="7.33884298" y2="58.7286193" id="XMLID_411_" opacity="0.36"></line>
                                <line x1="14.405877" y1="45.3343728" x2="14.405877" y2="53.0618227" id="XMLID_409_"></line>
                                <line x1="14.405877" y1="55.6376394" x2="14.405877" y2="58.7286193" id="XMLID_408_" opacity="0.36"></line>
                                <line x1="0.271808999" y1="22.6671864" x2="0.271808999" y2="30.3946363" id="XMLID_384_"></line>
                                <line x1="0.271808999" y1="32.970453" x2="0.271808999" y2="36.0614329" id="XMLID_383_" opacity="0.36"></line>
                                <line x1="7.33884298" y1="22.6671864" x2="7.33884298" y2="30.3946363" id="XMLID_381_"></line>
                                <line x1="7.33884298" y1="32.970453" x2="7.33884298" y2="36.0614329" id="XMLID_380_" opacity="0.36"></line>
                                <line x1="14.405877" y1="22.6671864" x2="14.405877" y2="30.3946363" id="XMLID_378_"></line>
                                <line x1="14.405877" y1="32.970453" x2="14.405877" y2="36.0614329" id="XMLID_377_" opacity="0.36"></line>
                                <line x1="0.271808999" y1="0" x2="0.271808999" y2="7.72744991" id="XMLID_353_"></line>
                                <line x1="0.271808999" y1="10.3032665" x2="0.271808999" y2="13.3942465" id="XMLID_352_" opacity="0.36"></line>
                                <line x1="7.33884298" y1="0" x2="7.33884298" y2="7.72744991" id="XMLID_350_"></line>
                                <line x1="7.33884298" y1="10.3032665" x2="7.33884298" y2="13.3942465" id="XMLID_349_" opacity="0.36"></line>
                                <line x1="14.405877" y1="0" x2="14.405877" y2="7.72744991" id="XMLID_347_"></line>
                                <line x1="14.405877" y1="10.3032665" x2="14.405877" y2="13.3942465" id="XMLID_346_" opacity="0.36"></line>
                            </g>
                            <rect id="XMLID_84_" fill="#E7E7E7" fill-rule="nonzero" x="12.8429752" y="191.401575" width="9.17355372" height="24.1574803"></rect>
                            <rect id="XMLID_37_" x="12.8429752" y="191.401575" width="9.17355372" height="24.1574803"></rect>
                            <line x1="56.9322975" y1="0" x2="56.9322975" y2="18.5826772" id="XMLID_93_"></line>
                            <polyline id="XMLID_94_" points="68.8016529 0 68.8016529 6.19422572 68.8016529 18.5826772"></polyline>
                        </g>
                    </g>
                    <g id="Window" transform="translate(123.000000, 31.000000)">
                        <rect id="XMLID_28_" fill="#FFFFFF" fill-rule="nonzero" opacity="0.604281471" x="54" y="0" width="366" height="328"></rect>
                        <rect id="XMLID_60_" fill="#E7E7E7" fill-rule="nonzero" opacity="0.52" x="54" y="304" width="366" height="24"></rect>
                        <rect id="XMLID_121_" fill="#E7E7E7" fill-rule="nonzero" opacity="0.48" x="54" y="0" width="366" height="24"></rect>
                        <rect id="XMLID_18_" stroke="#2E3031" stroke-width="2" stroke-linecap="round" stroke-linejoin="round" x="54" y="0" width="366" height="328"></rect>
                        <rect id="XMLID_18_" stroke="#2E3031" stroke-width="2" stroke-linecap="round" stroke-linejoin="round" x="237" y="0" width="183" height="328"></rect>
                        <line x1="54.2033241" y1="164.5" x2="420.186704" y2="164.5" id="Line" stroke="#2E3031" stroke-width="2" stroke-linecap="square"></line>
                        <line x1="0" y1="328" x2="474" y2="328" id="XMLID_21_" stroke="#2E3031" stroke-width="2" stroke-linecap="round" stroke-linejoin="round"></line>
                        <g id="Window-strokes" transform="translate(68.000000, 42.000000)" stroke="#2E3031" stroke-linecap="round" stroke-linejoin="round">
                            <line x1="0" y1="77.793129" x2="57.7770365" y2="12.4590558" id="Strokes-03"></line>
                            <line x1="61.866302" y1="58.8006658" x2="114" y2="0" id="Strokes-02"></line>
                            <line x1="11.4501968" y1="93" x2="47.7288011" y2="51.9762797" id="Strokes-01"></line>
                        </g>
                    </g>
                    <g id="Group" transform="translate(95.000000, 157.000000)">
                        <g id="Office/Chair" transform="translate(144.501478, 194.915634) scale(-1, 1) translate(-144.501478, -194.915634) translate(63.003389, 34.000432)">
                            <path d="M126.346916,305.274582 C130.83968,305.274582 134.498144,308.839556 134.637193,313.289718 L134.641292,313.552493 L118.052539,313.552493 C118.052539,308.980729 121.766058,305.274582 126.346916,305.274582 Z M102.12313,305.274582 C106.615894,305.274582 110.274358,308.839556 110.413407,313.289718 L110.417507,313.552493 L93.8287532,313.552493 C93.8287532,308.980729 97.5422722,305.274582 102.12313,305.274582 Z M34.9281849,305.274582 C39.4209492,305.274582 43.0794132,308.839556 43.2184618,313.289718 L43.2225616,313.552493 L26.6338082,313.552493 C26.6338082,308.980729 30.3473271,305.274582 34.9281849,305.274582 Z M10.7043992,305.274582 C15.1971636,305.274582 18.8556275,308.839556 18.9946761,313.289718 L18.9987759,313.552493 L2.41002252,313.552493 C2.41002252,308.980729 6.12354146,305.274582 10.7043992,305.274582 Z M155.722934,0.045057963 C160.183752,0.512978086 163.419881,4.50133105 162.95103,8.95329363 L143.39027,194.826254 L143.377943,194.79637 C142.651579,209.221256 130.702536,220.694087 116.068539,220.694087 L8.1215168,220.694087 C3.72407574,220.694087 0.142919727,217.206093 0.00417290903,212.851017 L3.63797881e-12,212.584712 C3.63797881e-12,208.110425 3.63434088,204.4833 8.11752756,204.4833 L38.2001125,204.4833 C45.6170886,204.4833 51.6943605,198.758732 52.2379854,191.495213 L65.9734028,64.2417296 L71.9436859,7.41496941 L71.9436638,7.71724791 C71.9436638,3.45676424 75.4043386,0.00295982284 79.6732972,0.00295982284 L154.655313,0.00267312918 C155.007103,-0.00634062101 155.363511,0.00735604498 155.722934,0.045057963 Z" id="Filled" fill="#FFFFFF"></path>
                            <line x1="68.5256574" y1="221.231595" x2="68.5256574" y2="286.546087" id="Border" stroke="#2E3031" stroke-linecap="round" stroke-linejoin="round"></line>
                            <path d="M10.7043992,305.274582 L10.7043992,299.923584 C10.7043992,292.535396 16.7056226,286.546087 24.1085068,286.546087 L31.5831748,286.546087 L31.5831748,286.546087 L53.3012257,286.546087 L112.942808,286.546087 C120.345692,286.546087 126.346916,292.535396 126.346916,299.923584 L126.346916,305.274582 L126.346916,305.274582" id="Border" stroke="#2E3031" stroke-linecap="round" stroke-linejoin="round"></path>
                            <line x1="102.239359" y1="286.546087" x2="102.239359" y2="305.274582" id="Border" stroke="#2E3031" stroke-linecap="round" stroke-linejoin="round"></line>
                            <line x1="34.9281849" y1="286.546087" x2="34.9281849" y2="305.274582" id="Border" stroke="#2E3031" stroke-linecap="round" stroke-linejoin="round"></line>
                            <ellipse id="Border" stroke="#2E3031" stroke-linecap="round" stroke-linejoin="round" cx="126.346916" cy="313.552493" rx="8.2943767" ry="8.27791027"></ellipse>
                            <ellipse id="Border" stroke="#2E3031" stroke-linecap="round" stroke-linejoin="round" cx="102.239359" cy="313.552493" rx="8.2943767" ry="8.27791027"></ellipse>
                            <ellipse id="Border" stroke="#2E3031" stroke-linecap="round" stroke-linejoin="round" cx="34.9281849" cy="313.552493" rx="8.2943767" ry="8.27791027"></ellipse>
                            <ellipse id="Border" stroke="#2E3031" stroke-linecap="round" stroke-linejoin="round" cx="10.7043992" cy="313.552493" rx="8.2943767" ry="8.27791027"></ellipse>
                            <line x1="134.641292" y1="313.552493" x2="118.052539" y2="313.552493" id="Border" stroke="#2E3031" stroke-linecap="round" stroke-linejoin="round"></line>
                            <line x1="110.533736" y1="313.552493" x2="93.9449827" y2="313.552493" id="Border" stroke="#2E3031" stroke-linecap="round" stroke-linejoin="round"></line>
                            <line x1="43.2225616" y1="313.552493" x2="26.6338082" y2="313.552493" id="Border" stroke="#2E3031" stroke-linecap="round" stroke-linejoin="round"></line>
                            <line x1="18.9987759" y1="313.552493" x2="2.41002252" y2="313.552493" id="Border" stroke="#2E3031" stroke-linecap="round" stroke-linejoin="round"></line>
                            <path d="M83.601641,220.694087 L8.1215168,220.694087 C3.63612692,220.694087 2.72848411e-12,217.065178 2.72848411e-12,212.588693 C2.72848411e-12,208.110425 3.63434088,204.4833 8.11752756,204.4833 L50.2349401,204.4833 L83.601641,204.4833" id="Border" stroke="#2E3031" fill="#E7E7E7" stroke-linecap="round" stroke-linejoin="round"></path>
                            <path d="M10.0512796,212.079543 L10.0512796,212.079543 L10.0512796,212.079543 L10.0512796,213.120367 C10.0512796,217.303217 6.66040956,220.694087 2.47755942,220.694087 L0,220.694087 L0,220.694087" id="Border" stroke="#2E3031" fill="#E7E7E7" stroke-linecap="round" stroke-linejoin="round" transform="translate(5.025640, 212.588693) scale(-1, 1) translate(-5.025640, -212.588693) "></path>
                            <path d="M146.796978,7.25880497 C147.265829,2.80684239 151.262115,-0.42286216 155.722934,0.045057963 C160.183752,0.512978086 163.419881,4.50133105 162.95103,8.95329363 L143.39027,194.826254 L143.377943,194.79637 C142.651579,209.221256 130.702536,220.694087 116.068539,220.694087 L83.2871724,220.694087 C78.8017825,220.694087 75.1656556,217.065178 75.1656556,212.588693 C75.1656556,208.112208 78.8017825,204.4833 83.2871724,204.4833 L113.365768,204.4833 C120.782744,204.4833 126.860016,198.758732 127.403641,191.495213 L146.796978,7.25880497 Z" id="Border-Copy-5" stroke="#2E3031" fill="#E7E7E7" stroke-linecap="round" stroke-linejoin="round"></path>
                            <path d="M146.796978,7.25880497 C147.265829,2.80684239 151.262115,-0.42286216 155.722934,0.045057963 C160.183752,0.512978086 163.419881,4.50133105 162.95103,8.95329363 L143.39027,194.826254 L143.377943,194.79637 C142.651579,209.221256 130.702536,220.694087 116.068539,220.694087 L83.2871724,220.694087 C78.8017825,220.694087 75.1656556,217.065178 75.1656556,212.588693 C75.1656556,208.112208 78.8017825,204.4833 83.2871724,204.4833 L113.365768,204.4833 C120.782744,204.4833 126.860016,198.758732 127.403641,191.495213 L146.796978,7.25880497 Z" id="Border" stroke="#2E3031" stroke-linecap="round" stroke-linejoin="round"></path>
                            <path d="M38.2001125,204.4833 C45.6170886,204.4833 51.6943605,198.758732 52.2379854,191.495213 L65.9734028,64.2417296 L71.9436859,7.41496941 L71.9436859,7.7356951 C71.9436712,7.72954605 71.9436638,7.72339698 71.9436638,7.71724791 C71.9436638,3.45676424 75.4043386,0.00295982284 79.6732972,0.00295982284 L155.003284,0.00295982284" id="Border" stroke="#2E3031" stroke-linecap="round" stroke-linejoin="round"></path>
                            <path d="M81.1752756,81.017501 C99.2857144,81.017501 112.868543,81.017501 121.923763,81.017501" id="Border" stroke="#2E3031" stroke-linecap="round" stroke-linejoin="round"></path>
                            <path d="M76.8859612,123.468758 C94.9963999,123.468758 108.579229,123.468758 117.634448,123.468758" id="Border" stroke="#2E3031" stroke-linecap="round" stroke-linejoin="round"></path>
                            <path d="M72.3821811,165.920016 C90.4926198,165.920016 104.075449,165.920016 113.130668,165.920016" id="Border" stroke="#2E3031" stroke-linecap="round" stroke-linejoin="round"></path>
                        </g>
                        <g id="Business-woman" transform="translate(34.000000, 0.000000)">
                            <path d="M102.948503,0.000585027311 C105.383691,0.0187043965 107.809532,0.45784636 110.044014,1.33613029 C110.274105,1.42656972 110.500645,1.51926785 110.723688,1.61414491 L111.19783,1.82144408 C111.550269,1.97976813 111.893824,2.14370896 112.22857,2.31286 L112.867984,2.64799832 L113.338038,2.91038832 L114.009736,3.31061604 L114.319653,3.50592764 L114.721492,3.76979635 L115.291945,4.16623153 L115.756934,4.50967664 L116.233266,4.8818824 L116.610692,5.19249925 L116.927703,5.46483117 L117.387114,5.87930089 L117.785007,6.2586158 L118.042481,6.5148736 L118.458123,6.94779447 L118.862827,7.39398783 L119.357298,7.97564191 C119.497542,8.14672788 119.634118,8.31874333 119.767271,8.49175167 C119.93208,8.70588693 120.091719,8.92164778 120.246276,9.13868825 L120.417512,9.38265364 L120.584627,9.6277498 C121.168261,10.4962368 121.673809,11.3820191 122.111701,12.269909 L122.381847,12.8362014 C122.577151,13.2596668 122.757516,13.6827245 122.924143,14.1038826 L123.065141,14.4683721 C123.967664,16.8552092 124.436874,19.1653265 124.680154,21.0966923 L124.733421,21.5448371 L124.785284,22.0434794 L124.817538,22.3987859 L124.868087,23.0723756 L124.887133,23.3895641 L124.914649,23.9819914 L124.930568,24.514837 L124.939279,25.1928104 L124.931652,28.5267052 L124.939264,29.9147713 L124.957344,31.435858 L124.989296,33.007641 L125.038525,34.5477963 L125.082624,35.5163417 L125.127122,36.2671776 L125.179287,36.9517881 L125.239704,37.5560573 C125.573409,40.4396077 126.933691,42.8718786 128.224712,44.7395739 L128.427823,45.0297648 L128.910876,45.7030288 C130.153453,47.5682395 129.137974,49.6116015 127.177464,49.1850815 L127.020748,49.1462292 L125.919276,48.8264246 L124.855425,48.4971661 L123.908651,48.1910352 L122.55685,47.7342435 L122.328591,48.6384002 L122.100989,49.4715346 L121.889471,50.1964206 L121.731737,50.7074552 L121.562313,51.2283553 L121.47367,51.4891951 L121.289426,52.0050349 L121.200595,52.2407193 L121.018248,52.6969291 L120.830635,53.125751 C120.514212,53.8128469 120.180751,54.3499472 119.854765,54.5576553 C119.430962,54.8277386 118.82868,54.5384415 118.164956,54.0523616 L118.021832,53.9453218 L117.709994,53.6993528 L117.393212,53.4371648 L116.777629,52.9145644 L116.37115,52.5764051 L116.052457,52.3249085 C115.370431,51.8052228 114.749934,51.4694166 114.316388,51.7060552 C113.023668,52.4122574 114.920103,57.3812082 116.447369,58.4398836 C116.752822,58.6516186 116.574249,58.9668854 116.093043,59.4026293 L115.976706,59.5053319 L115.71378,59.7237542 L115.413821,59.9598411 L113.711981,61.2507569 L113.058305,61.7680495 L112.61008,62.1381543 L112.383722,62.3309184 L111.928991,62.7321015 C109.72942,64.7220439 107.551436,67.4542269 107.408681,71.1167633 L107.401256,71.4989728 L107.401256,82.386616 L112.889963,88.9677737 L113.462418,89.1305001 L123.385067,89.1304549 L123.730298,89.1343919 C130.847728,89.2968444 136.869397,94.4698048 138.111584,101.488743 L138.167945,101.829797 L142.856698,132.352025 L142.976306,132.696779 L143.063763,132.985166 C143.26787,132.795784 147.882588,155.154822 154.187033,171.349051 C155.828555,175.56563 158.252236,180.950448 161.185921,183.448584 C164.932645,184.507439 170.244888,185.773011 176.418046,189.076057 C178.589561,190.237961 182.067178,192.598352 186.850897,196.15723 L188.461602,197.360749 L190.993067,199.280936 L195.98227,203.114431 L196.448931,203.464577 C198.92517,204.878002 201.867513,207.368017 205.17746,210.825183 L205.291675,210.932844 C205.676142,211.298784 206.063338,211.672955 206.453071,212.055533 L207.039552,212.635726 L207.926102,213.529943 C208.421566,214.035523 208.920637,214.554618 209.422943,215.087568 L209.025193,215.086596 L209.41827,215.547073 L210.212277,216.490207 L211.016562,217.4627 C211.151453,217.627214 211.286762,217.792941 211.422486,217.959875 L212.241753,218.975923 L213.07072,220.020686 L213.909154,221.093908 L214.756825,222.195332 L215.613501,223.3247 L216.478951,224.481755 L217.352943,225.666241 L218.235246,226.8779 L219.573778,228.745777 L220.475847,230.024245 L221.385417,231.328987 C221.537624,231.54862 221.690134,231.769336 221.842942,231.991131 L222.763331,233.334801 L223.690642,234.704103 L224.624645,236.098778 L226.03769,238.237806 L226.987409,239.694792 L227.943011,241.176253 L228.904263,242.68193 L229.870934,244.211569 L230.842793,245.76491 L231.819609,247.341698 L232.80115,248.941674 L233.787184,250.564583 L234.777481,252.210167 L235.771809,253.878169 L236.769936,255.568332 L237.771632,257.280399 L238.776665,259.014112 C238.944436,259.304854 239.112336,259.596488 239.280361,259.889007 L240.289965,261.654709 L241.302328,263.441415 C241.471273,263.740935 241.640322,264.04132 241.809472,264.342564 L242.82554,266.160295 L243.843787,267.998387 L244.863984,269.856584 L245.885898,271.734629 L246.909298,273.632264 L247.933953,275.549232 L248.959631,277.485277 L249.986102,279.440141 L251.013133,281.413568 L252.040494,283.405299 L253.067953,285.415079 C264.772697,308.412817 281.521483,323.836916 303.31431,331.687377 C323.117286,330.704374 337.087614,334.924204 345.225294,344.346866 C334.846491,352.273256 322.718187,355.715906 308.840381,354.674816 L308.650039,354.614535 L308.206872,354.466645 L307.682458,354.281443 L307.079277,354.057875 C306.97232,354.017359 306.862185,353.975199 306.748923,353.931376 L306.032236,353.648289 L305.242977,353.324206 L304.383624,352.958077 L303.456655,352.548849 C303.136671,352.405139 302.805832,352.254071 302.464548,352.09547 L301.409782,351.596888 C286.939518,344.643103 256.420912,325.354722 236.288276,282.51084 C226.043198,260.708485 215.101395,245.204778 205.20373,234.484691 L204.24921,233.462145 C203.615114,232.790336 202.985597,232.138234 202.361128,231.505433 L201.428269,230.570656 C201.118616,230.263856 200.810284,229.961829 200.503331,229.664526 L199.586665,228.786736 C199.434596,228.642782 199.282886,228.499997 199.131543,228.358373 L198.227943,227.522523 L197.333491,226.71425 L196.448539,225.93325 C196.155177,225.677429 195.863457,225.426101 195.573436,225.179218 L194.708534,224.451849 C194.565254,224.332825 194.422412,224.2149 194.280018,224.098067 L193.431074,223.41012 C193.290497,223.297628 193.150381,223.186216 193.010735,223.075877 L192.178538,222.426665 L191.357944,221.802895 C190.679048,221.293602 190.012604,220.810494 189.359524,220.352776 L188.582302,219.81565 L188.928991,220.686001 C186.651723,265.314354 173.496311,305.109025 149.462757,340.070015 C153.505551,352.816486 153.505551,370.356659 149.462757,385.082487 C138.991827,375.438518 130.275231,361.898083 123.312967,344.461183 C127.149106,340.277043 131.960083,337.25537 137.745895,335.396165 C164.452352,291.281524 175.775532,251.178558 171.715436,215.087267 L171.520957,215.087056 L171.571154,213.859175 L171.319123,213.583688 L170.91241,213.638762 L170.51904,213.698634 L170.123157,213.764971 L169.771451,213.828855 L169.136346,213.955544 L168.612873,214.070469 L168.033282,214.208262 C167.718311,214.286066 167.401499,214.369015 167.082992,214.45688 L166.349326,214.666994 C165.985149,214.775053 165.618938,214.889212 165.250909,215.009139 L165.698273,215.087914 L149.462757,235.217888 L127.518586,235.219774 C126.579007,235.600906 125.673584,233.632731 125.038525,233.674759 L124.832931,233.681788 L84.395907,233.338525 L84.0298586,233.336569 L82.9743725,233.30768 L82.1608014,233.259445 L81.8352993,233.233161 L81.4991091,233.201521 L80.9306144,233.136979 L80.4469988,233.070355 L79.8760634,232.976594 L79.5662397,232.918335 L78.8978354,232.773322 L78.4051927,232.647968 L78.1895103,232.587715 C77.9161586,232.509201 77.651513,232.424771 77.3959476,232.334933 L77.0182149,232.195715 L76.8781489,232.140695 C76.7834462,232.102849 76.6901732,232.064255 76.5981928,232.024884 C76.2953203,231.895257 76.0061706,231.757062 75.7300222,231.610979 C75.6098416,231.547393 75.4926994,231.482647 75.3779107,231.416465 L75.2048856,231.314559 L74.8718207,231.105751 L74.4691162,230.829141 L74.0747189,230.529776 L73.840547,230.337322 C73.7467343,230.257877 73.655496,230.177782 73.566091,230.096525 C73.4102388,229.954868 73.2601374,229.809863 73.1151534,229.661563 L73.0270762,229.570412 L72.730275,229.247041 L72.3998092,228.855378 C72.0156837,228.379536 71.6704489,227.877798 71.3523345,227.356286 C71.2804734,227.238478 71.2115832,227.119258 71.1455445,226.998516 L70.9961282,226.713079 L70.814178,226.327059 L70.6823865,226.014487 C70.4633077,225.467903 70.2893562,224.888587 70.1516905,224.268633 L70.1149391,224.098067 C69.8029619,222.605087 69.6917491,220.878096 69.6600129,218.804949 L69.648157,217.88286 L69.648157,216.643525 L69.6805682,211.926254 L67.3194259,175.605992 L67.2856808,175.606551 L67.2852531,168.030825 L66.6473723,169.00715 L65.8609345,170.192757 L65.0827317,171.349051 L64.3127467,172.476325 L63.5509622,173.57487 L62.7973609,174.644978 L62.0519257,175.686942 L61.3146392,176.701054 L60.5854843,177.687606 L59.8644435,178.646889 L59.1514998,179.579197 L58.0972284,180.927717 L57.4044516,181.793863 L56.7197115,182.634054 L56.0429908,183.448584 L55.2083407,184.431105 L54.3861603,185.374557 L53.7373714,186.101571 L53.0965242,186.804239 L52.1501064,187.813228 L51.529038,188.456305 L50.9158509,189.076057 L50.3105279,189.672777 L49.7130518,190.246755 L49.4172508,190.525308 L48.8315125,191.065724 L48.2535779,191.584128 L47.6834297,192.080815 C47.5890529,192.161802 47.4949998,192.241897 47.4012701,192.321105 L46.8427691,192.785761 L46.2920115,193.229429 L45.7489799,193.652401 L45.2136571,194.054969 L44.6860258,194.437425 L44.4250891,194.621203 L43.9089628,194.974038 L43.2745584,195.387862 L42.6520709,195.771972 C42.4054548,195.919749 42.1616907,196.060532 41.9207688,196.194485 L41.4427119,196.453333 C41.3636664,196.494973 41.284936,196.535866 41.2065203,196.576018 L40.7398002,196.808094 L40.2806162,197.022686 L40.053845,197.123518 L39.605933,197.312433 L39.1655142,197.484596 L38.7325713,197.640297 L38.3070869,197.77983 L37.7896738,197.932949 L37.1462724,198.110101 L36.4667153,198.284193 L35.7531776,198.453945 C35.50991,198.509664 35.2613415,198.564447 35.0078346,198.61808 L34.2328615,198.775319 L33.8349434,198.850953 L33.0196037,198.99545 L32.6027258,199.063994 L31.7519135,199.192874 L30.880172,199.309743 L30.4371325,199.363275 L29.5380754,199.459732 C22.7343365,200.12774 14.6235192,199.512737 9.33511239,195.187661 C1.46126224,188.748103 -3.82538669,171.632937 3.47535685,156.504189 L4.12917827,155.154822 L5.07949927,153.214393 L5.69277253,151.976522 L6.28982652,150.78325 L6.87066124,149.634576 L7.43527671,148.530501 L7.98367291,147.471025 L8.77585608,145.965433 L9.53154592,144.560187 L10.2507424,143.255289 L10.7099326,142.441105 L11.1529036,141.67152 L11.3683069,141.303452 L11.382988,141.291522 C3.15702791,125.216674 2.01755952,112.667125 4.92083676,100.20157 L5.17573978,99.1482657 C5.26386998,98.7971796 5.35514005,98.4460833 5.44948194,98.0948998 C8.47946616,86.815918 15.902101,79.0966634 24.1343432,73.5556795 L25.0354454,72.9597832 L25.4880822,72.6681913 L26.338122,72.1337959 L27.1915798,71.6136751 L28.2619194,70.9831008 L29.3346244,70.3736835 L30.1933808,69.9009545 L31.4805192,69.215771 L32.3367131,68.7744461 L32.7639232,68.5583006 L33.6160409,68.1348394 L34.8868741,67.5211103 L35.7279666,67.1257904 C47.7434273,61.5368963 57.5261548,54.3208836 62.1335871,44.1408984 C64.3674937,39.2051479 64.4351878,33.9585411 63.9120967,29.3081266 L63.8074785,28.4433819 C63.7890165,28.300496 63.7700737,28.1582478 63.7506981,28.0166647 L63.5980197,26.9676983 L63.4336223,25.9462743 L63.2966955,25.1507095 L63.0182264,23.6227586 L62.6236003,21.5087094 L62.5074434,20.8567749 L62.3555642,19.9328924 L62.2725812,19.3549211 C62.1978677,18.7926837 62.1491164,18.278312 62.1367122,17.8177852 L62.1335871,17.5920365 L62.1384941,16.0892159 L62.1511377,15.3929121 L62.1760053,14.6738366 L62.201392,14.1839682 L62.2352371,13.6872283 L62.2787509,13.1849166 C62.3031267,12.9325844 62.3315821,12.6786502 62.3647978,12.4238451 L62.4377781,11.9132901 L62.5209053,11.4221787 C63.2400358,7.49258364 65.2921345,3.58288424 71.144151,2.34243226 C77.1256053,1.07454334 81.9094837,3.74207214 85.4957862,10.3450187 L85.6937931,10.7158978 C88.2126302,3.79273606 95.4095636,0.0656248743 102.600575,0.000585027311 L102.948503,0.000585027311 Z M67.2863446,114.507167 L64.6052781,115.631747 L63.2478201,116.208197 L61.8827258,116.798662 C55.9547234,119.392669 49.8886785,122.478091 44.6861559,127.311395 L43.2716085,128.631853 L41.7335301,130.085273 L40.5102906,131.257066 L39.6660524,132.075027 L38.3624924,133.354243 L37.4721009,134.240229 L36.1104015,135.616101 L35.6507214,136.086654 L34.7244654,137.044796 L33.7909865,138.024692 L32.8526506,139.025194 L31.9118238,140.045154 L30.9708721,141.083423 L30.0321614,142.138852 L29.0980577,143.210292 L28.4725528,143.940554 L27.8509361,144.677211 L27.2339308,145.419911 L26.6222604,146.168304 L26.0166484,146.922037 L25.4178181,147.68076 L24.8264928,148.444121 L24.2433961,149.21177 L23.6692513,149.983355 C23.4794421,150.241167 23.2912454,150.499576 23.1047819,150.758525 L22.5507111,151.536929 L22.0077625,152.318215 L21.7406851,152.70983 L21.2157761,153.494782 L20.7037977,154.281738 C20.5353737,154.544352 20.3692254,154.807242 20.2054733,155.070349 L19.7215264,155.860261 L19.2526804,156.651125 L19.0241462,157.046804 L18.5793078,157.838436 L18.1361456,158.658927 C14.30413,165.905798 12.6920099,173.11612 15.7972727,179.077475 C19.3721698,185.940414 24.6375856,187.323024 30.0968984,186.01463 L30.6434205,185.874924 C31.0993019,185.7512 31.5561833,185.609433 32.0131987,185.451239 L32.561626,185.253624 L33.1098494,185.040859 L33.3837807,184.928988 L33.9310745,184.694659 L34.2043539,184.572355 L34.7499698,184.317856 L35.2940514,184.050686 C35.3845854,184.005137 35.4750415,183.959085 35.5654129,183.912544 L36.241502,183.554513 L36.9137646,183.179348 L37.4483832,182.867691 L38.2442124,182.382452 L38.7702143,182.048028 L39.2921875,181.705581 L39.8097995,181.355732 L40.3227177,180.999099 L40.8306094,180.636304 L41.5367837,180.116067 L42.2313979,179.586566 L42.9135228,179.049532 L43.5822292,178.506699 L43.9112601,178.233648 L44.8756694,177.410558 L45.4985448,176.860714 L45.8036147,176.586107 L46.4004384,176.038603 L46.9787327,175.494825 L47.5375686,174.956503 L48.0760166,174.42537 L48.5931476,173.903157 L49.0880323,173.391596 L49.5597416,172.89242 C50.9770199,171.374674 52.4369175,169.565177 53.955762,167.569346 L54.8742729,166.350331 L55.8077148,165.091655 L57.2375875,163.140347 L59.2036576,160.447019 L60.2139873,159.072489 L61.2435585,157.686129 C61.5900429,157.222599 61.9398647,156.757941 62.2931548,156.292998 L63.3635599,154.898156 C64.6248092,153.271811 65.9301434,151.652304 67.2851627,150.075793 L67.2863446,114.507167 Z" id="Filled" fill="#FFFFFF"></path>
                            <path d="M21,154 L28,145 L32,139 L41,131 L51,123 L58,118 L67,115 L83,106 L86,102 L87,98 L88,95 L88,43 C87.9454985,41.5408761 88.2788318,40.5408761 89,40 C89.7211682,39.4591239 90.7211682,39.4591239 92,40 L95,46 L95,37 L99,36 L101,33 L99,26 L100,23 L103,20 L124.469452,19.6816618 C122.156484,9.89388728 117.348005,3.7787101 110.044014,1.33613029 C100.998564,-1.68882341 89.1064111,1.33613029 85.6937931,10.7158978 C82.0862537,3.8422191 77.236373,1.05106392 71.144151,2.34243226 C62.005818,4.27948478 62.1335871,12.7254989 62.1335871,17.5920365 C62.1335871,22.458574 66.7410194,33.9609131 62.1335871,44.1408984 C57.5261548,54.3208836 47.7434273,61.5368963 35.7279666,67.1257904 C23.7125058,72.7146844 9.88161136,81.5964948 5.44948194,98.0948998 C1.01735253,114.593305 3.36494899,130.899271 19.5464578,154.988373 L21,154 Z" id="Border" fill="#2E3031"></path>
                            <path d="M124.938303,25.9032708 C124.938303,23.4333841 125.383419,7.36542581 110.044014,1.33613029 C101.106086,-2.17700542 89.1064111,1.33613029 85.6937931,10.7158978 C82.0862537,3.8422191 77.236373,1.05106392 71.144151,2.34243226 C62.005818,4.27948478 62.1335871,12.7254989 62.1335871,17.5920365 C62.1335871,22.458574 66.7410194,33.9609131 62.1335871,44.1408984 C57.5261548,54.3208836 47.7434273,61.5368963 35.7279666,67.1257904 C23.7125058,72.7146844 9.88161136,81.5964948 5.44948194,98.0948998 C1.01735253,114.593305 3.36494899,130.899271 19.5464578,154.988373" id="Border-Copy-6" stroke="#2E3031" stroke-linecap="round" stroke-linejoin="round"></path>
                            <path d="M87.5313308,43.6461606 L87.5313308,43.7635964 L87.5313308,82.5374064" id="Border" stroke="#2E3031" stroke-linecap="round" stroke-linejoin="round" transform="translate(87.531331, 63.091783) scale(-1, 1) translate(-87.531331, -63.091783) "></path>
                            <path d="M107.401256,25.9032708 C107.401256,28.4009428 107.401256,32.1474506 107.401256,37.1427945 C107.401256,45.4962412 117.974635,49.1432083 116.447369,50.2018837 C114.920103,51.2605591 113.023668,56.2295099 114.316388,56.9357121 C115.60869,57.641077 118.562045,53.2602792 119.854765,54.084112 C121.147066,54.9075262 122.55685,60.9075238 122.55685,60.9075238 C122.55685,60.9075238 124.906072,60.083691 127.020748,59.495538 C129.135842,58.9078037 130.242095,61.1339941 128.808063,63.0855736 C127.373612,65.0367345 125.624426,67.761316 125.239704,71.08571 C124.854982,74.410104 124.938303,82.7384964 124.938303,82.7384964" id="Border" stroke="#2E3031" stroke-linecap="round" stroke-linejoin="round" transform="translate(118.428121, 54.320884) scale(-1, 1) rotate(-180.000000) translate(-118.428121, -54.320884) "></path>
                            <path d="M87.5313308,19.497223 L107.178582,19.497223 C109.69434,19.497223 111.443796,21.4242053 112.112222,22.7516527 C113.685367,25.8758114 110.501867,32.1977953 111.549877,34.5370115 C112.597887,36.8762278 117.483044,35.5457663 117.483044,38.9420114 C117.483044,41.2061748 117.483044,43.6078509 117.483044,46.1470398 C117.770281,43.6103116 118.479681,41.7785407 119.611242,40.6517269 C120.66126,39.6061147 121.747419,39.6208844 122.318725,39.6663735 C124.373514,39.829982 124.373514,42.5587647 124.373514,43.7635964" id="Border" stroke="#2E3031" stroke-linecap="round" stroke-linejoin="round" transform="translate(105.952423, 32.822131) scale(-1, 1) translate(-105.952423, -32.822131) "></path>
                            <path d="M126.547814,35.9118914 C126.600924,33.9864093 126.458733,32.5263468 126.12124,31.5317039 C125.147104,28.6607721 121.833834,27.9920181 119.054985,28.5977379 C113.170327,29.8804467 114.414662,35.9609408 114.414662,35.9609408 C120.163041,35.9282412 124.207425,35.9118914 126.547814,35.9118914 Z" id="Border" stroke="#FF930F" stroke-width="2" stroke-linecap="round" stroke-linejoin="round" transform="translate(120.431694, 32.176918) scale(-1, 1) rotate(-180.000000) translate(-120.431694, -32.176918) "></path>
                            <line x1="99.8179607" y1="28.3928946" x2="114.414662" y2="28.3928946" id="Border" stroke="#FF930F" stroke-width="2" stroke-linecap="round" stroke-linejoin="round" transform="translate(107.116312, 28.392895) scale(-1, 1) translate(-107.116312, -28.392895) "></line>
                            <line x1="120.232977" y1="24.7510401" x2="116.09548" y2="24.7510401" id="Border" stroke="#2E3031" stroke-linecap="round" stroke-linejoin="round" transform="translate(118.164229, 24.751040) scale(-1, 1) translate(-118.164229, -24.751040) "></line>
                            <path d="M117.017864,33.086762 C117.017864,33.086762 117.492934,31.3695646 119.236363,31.2099305 C121.804709,30.9753266 122.154557,33.2043871 122.154557,33.2043871" id="Border" stroke="#2E3031" stroke-linecap="round" stroke-linejoin="round" transform="translate(119.586211, 32.198509) scale(-1, 1) rotate(-180.000000) translate(-119.586211, -32.198509) "></path>
                            <path d="M97,91 C91.6666667,87 88.6666667,88.6666667 88,96 C87.3333333,103.333333 80.6666667,109.333333 68,114 L54,120 L61,184 C133.960426,185.195729 167.849335,185.241925 162.666727,184.138586 C157.48412,183.035248 150.887946,165.821632 142.878207,132.497738 L138.167945,101.829797 C137.045827,94.5238221 130.767589,89.1304549 123.385067,89.1304549 L119.704632,89.1304549 L112.890591,89.1304549 L97,91 Z" id="Border-Copy-2" fill="#DC143D"></path>
                            <path d="M102.96205,82.386616 C104.094502,86.2982019 107.404016,89.1823432 112.890591,91.0390401 L107.234433,98.0948998 C102.212638,95.9658586 98.9551637,92.8483875 97.4620108,88.7424865 L102.96205,82.386616 Z" id="Filled" stroke="#2E3031" fill="#DC143D" stroke-linecap="round" stroke-linejoin="round" transform="translate(105.176301, 90.240758) scale(-1, 1) translate(-105.176301, -90.240758) "></path>
                            <path d="M87.5334701,82.386616 C88.665922,86.2982019 91.9754356,89.1823432 97.4620108,91.0390401 L91.805853,98.0948998 C89.8144574,97.1358908 88.4083452,96.3676504 87.5875166,95.7901786" id="Filled" fill="#DC143D"></path>
                            <path d="M102.96205,82.386616 C104.094502,86.2982019 107.404016,89.1823432 112.890591,91.0390401 L107.234433,98.0948998 C102.212638,95.9658586 98.9551637,92.8483875 97.4620108,88.7424865 L102.96205,82.386616 Z" id="Border-Copy" stroke="#2E3031" stroke-linecap="round" stroke-linejoin="round" transform="translate(105.176301, 90.240758) scale(-1, 1) translate(-105.176301, -90.240758) "></path>
                            <path d="M87.5334701,82.386616 C88.665922,86.2982019 91.9754356,89.1823432 97.4620108,91.0390401 L91.805853,98.0948998 C89.8144574,97.1358908 88.4083452,96.3676504 87.5875166,95.7901786" id="Border" stroke="#2E3031" stroke-linecap="round" stroke-linejoin="round"></path>
                            <polyline id="Border" stroke="#2E3031" stroke-linecap="round" stroke-linejoin="round" transform="translate(97.462011, 100.614977) scale(-1, 1) translate(-97.462011, -100.614977) " points="91.805853 98.0948998 97.4620108 103.135054 103.118169 98.0948998"></polyline>
                            <path d="M102.78507,146.79592 L103.335468,153.893413 L97.4620108,161.842468 L91.588554,153.893413 L92.2241577,145.697177 M93.1348099,133.954134 L95.615561,101.964352 M99.3084607,101.964352 L101.846711,134.695597" id="Border" stroke="#2E3031" stroke-linecap="round" stroke-linejoin="round"></path>
                            <path d="M124.881424,236.014979 C131.370999,236.014979 157.463247,213.405915 173.981038,213.405915 C181.752787,213.405915 211.12248,228.955989 236.288276,282.51084 C261.454071,336.065692 302.847943,352.815075 308.840381,354.674816 C322.718187,355.715906 334.846491,352.273256 345.225294,344.346866 C337.087614,334.924204 323.117286,330.704374 303.31431,331.687377 C281.521483,323.836916 264.772697,308.412817 253.067953,285.415079 C230.71075,241.487158 217.312979,220.886289 196.439402,203.459142 C178.405988,188.403219 170.440639,185.793594 162.666727,184.138586 C157.48412,183.035248 150.887946,165.821632 142.878207,132.497738 L138.167945,101.829797 C137.045827,94.5238221 130.767589,89.1304549 123.385067,89.1304549 L119.704632,89.1304549 L112.890591,89.1304549" id="Border" stroke="#2E3031" stroke-linecap="round" stroke-linejoin="round"></path>
                            <line x1="166.508058" y1="235.739256" x2="150.272542" y2="215.087914" id="Border" stroke="#2E3031" stroke-linecap="round" stroke-linejoin="round" transform="translate(157.985408, 225.701652) scale(-1, 1) translate(-157.985408, -225.701652) "></line>
                            <path d="M140.670803,213.859175 C136.211219,250.268193 147.486306,290.780523 174.496062,335.396165 C180.281875,337.25537 185.092851,340.277043 188.928991,344.461183 C181.966727,361.898083 173.25013,375.438518 162.779201,385.082487 C158.736407,370.356659 158.736407,352.816486 162.779201,340.070015 C138.745646,305.109025 125.590235,265.314354 123.312967,220.686001" id="Border" stroke="#2E3031" stroke-linecap="round" stroke-linejoin="round" transform="translate(156.120979, 299.470831) scale(-1, 1) translate(-156.120979, -299.470831) "></path>
                            <path d="M20,156 C20.1226186,156.997972 11,165 16,179 C21,193 38,185 49.5597416,172.89242 C60.6900051,161.234672 73.9618176,132.115345 97.4620108,134.075103 C125.85352,136.442764 126.558648,167.618723 126.558648,171.599988 C126.558648,175.581253 125.36983,178.961989 123.986519,179.019732 C122.603208,179.077475 120.838111,176.307644 121.72066,170.026156 C121.338562,174.143839 120.416131,176.099109 118.953368,175.891967 C117.490604,175.684824 117.072495,173.404125 117.699041,169.049868 C117.63922,173.404125 116.643692,175.581253 114.712458,175.581253 C111.815607,175.581253 113.60113,169.716424 113.60113,166.584968 C113.60113,163.453511 114.597774,155.999229 110.153888,151.227336 C105.710002,146.455442 97.2630481,144.566287 92.8936183,145.510865 C88.5241885,146.455442 80.3501723,147.916083 67.4379449,167.798279 C54.5257176,187.680475 44.8547683,195.844926 38.0971363,197.843624 C31.3395043,199.842323 17.2089625,201.627219 9.33511239,195.187661 C1.46126224,188.748103 -3.82538669,171.632937 3.47535685,156.504189 C6.67469025,149.874466 9.3056736,144.807554 11.3683069,141.303452 C14,146 19.074784,148.469827 20,156 Z" id="Border" stroke="#2E3031" fill="#FFFFFF" stroke-linecap="round" stroke-linejoin="round"></path>
                            <path d="M20,156 C20.1226186,156.997972 11,165 16,179 C21,193 38,185 49.5597416,172.89242 C60.6900051,161.234672 73.9618176,132.115345 97.4620108,134.075103 C108.305095,134.979343 115.109913,140.085489 119.379453,146.273902 C121.700645,149.638316 112.315698,153.548712 110.153888,151.227336 C105.710002,146.455442 97.2630481,144.566287 92.8936183,145.510865 C88.5241885,146.455442 80.3501723,147.916083 67.4379449,167.798279 C54.5257176,187.680475 44.8547683,195.844926 38.0971363,197.843624 C31.3395043,199.842323 17.2089625,201.627219 9.33511239,195.187661 C1.46126224,188.748103 -3.82538669,171.632937 3.47535685,156.504189 C6.67469025,149.874466 9.3056736,144.807554 11.3683069,141.303452 C14,146 19.074784,148.469827 20,156 Z" id="Border-Copy-4" stroke="#2E3031" fill="#DC143D" stroke-linecap="round" stroke-linejoin="round"></path>
                            <path d="M87.5313308,82.7384964 C87.5313308,84.8507765 87.5313308,86.9814293 87.5313308,89.1304549 C87.5313308,92.3539933 89.5561935,101.055833 80.3501723,107.824569 C71.144151,114.593305 55.9067624,116.887106 44.6861559,127.311395 C33.4655495,137.735683 7.40549545,162.967289 15.7972727,179.077475 C24.1890499,195.187661 41.896212,181.099202 49.5597416,172.89242 C60.4927112,161.184435 73.9618176,132.115345 97.4620108,134.075103 C125.85352,136.442764 126.558648,167.618723 126.558648,171.599988 C126.558648,175.581253 125.36983,178.961989 123.986519,179.019732 C122.603208,179.077475 120.838111,176.307644 121.72066,170.026156 C121.338562,174.143839 120.416131,176.099109 118.953368,175.891967 C117.490604,175.684824 117.072495,173.404125 117.699041,169.049868 C117.63922,173.404125 116.643692,175.581253 114.712458,175.581253 C111.815607,175.581253 113.60113,169.716424 113.60113,166.584968 C113.60113,163.453511 114.597774,155.999229 110.153888,151.227336 C105.710002,146.455442 97.2630481,144.566287 92.8936183,145.510865 C88.5241885,146.455442 80.3501723,147.916083 67.4379449,167.798279 C54.5257176,187.680475 44.8547683,195.844926 38.0971363,197.843624 C31.3395043,199.842323 17.2089625,201.627219 9.33511239,195.187661 C1.46126224,188.748103 -3.82538669,171.632937 3.47535685,156.504189 C6.67469025,149.874466 9.3056736,144.807554 11.3683069,141.303452" id="Border-Copy-3" stroke="#2E3031" stroke-linecap="round" stroke-linejoin="round"></path>
                            <polygon id="Rectangle" fill="#2E3031" points="127 111 132 172 131 178"></polygon>
                        </g>
                        <g id="Laptop" transform="translate(120.000000, 133.000000)">
                            <path d="M0,51.2676939 L0,48.3913801 C0,47.2188511 0.960482558,46.2683286 2.14529784,46.2683286 L44.6705214,46.2683286 L56.8076877,1.57206836 C57.0595278,0.644643465 57.9090886,0 58.8794804,0 L124.192532,0 C125.377347,0 126.33783,0.950522503 126.33783,2.12305143 C126.33783,2.31144371 126.312492,2.49899791 126.262483,2.68077348 L112.895563,51.2676939 L0,51.2676939 Z" id="Filled" fill="#FFFFFF"></path>
                            <path d="M0,50.8726304 L0,47.9963165 C0,46.8237876 0.960482558,45.8732651 2.14529784,45.8732651 L44.6705214,46.2683286 C46.9868397,37.7382679 50.4613172,24.9431768 55.0939538,7.88305528 C55.3457939,6.95563038 56.1953547,6.31098692 57.1657465,6.31098692 L117.756639,6.36915429 C118.941454,6.36915429 119.901937,7.3196768 119.901937,8.49220572 C119.901937,8.68059801 119.876598,8.86815221 119.826589,9.04992778 C114.712815,27.6377956 110.877485,41.5786965 108.320598,50.8726304 C107.907058,52.3757899 71.8001921,52.3757899 0,50.8726304 Z" id="Filled" fill="#E9EAEB"></path>
                            <path d="M112.895563,51.2676939 L47.8945123,51.2676939 L61.9989492,1.13686838e-13 L124.375466,1.13686838e-13 C125.480035,1.22220548e-13 126.375466,0.8954305 126.375466,2 C126.375466,2.17925042 126.351368,2.35768731 126.303821,2.53051652 L112.895563,51.2676939 L112.895563,51.2676939 Z" id="Border" stroke="#2E3031" stroke-linecap="round" stroke-linejoin="round"></path>
                            <path d="M47.8945123,51.2676939 L0,51.2676939 L0,48.2683286 C3.0881846e-16,47.1637591 0.8954305,46.2683286 2,46.2683286 L44.6705214,46.2683286 L44.6705214,46.2683286 L56.8338062,1.4758846 C57.0703704,0.604714502 57.8611925,1.13310101e-13 58.7639106,1.13686838e-13 L61.9989492,1.13686838e-13 L61.9989492,1.13686838e-13" id="Border" stroke="#2E3031" stroke-linecap="round" stroke-linejoin="round"></path>
                            <ellipse id="Border" stroke="#2E3031" stroke-linecap="round" stroke-linejoin="round" cx="88.4756876" cy="25.3744657" rx="8.55516668" ry="8.46645092"></ellipse>
                        </g>
                        <g id="Office/Table" transform="translate(0.000000, 184.000000)">
                            <path d="M317.129566,1.13686838e-13 L317.129566,19.126305 L0,19.126305 L0,1.13686838e-13 L34.9225527,0.000643694572 C36.6657023,5.0238667 39.350765,9.16697589 42.4178901,11.7111221 C47.4948711,15.9224216 55.103463,16.7585099 61.7829243,16.2823693 L62.2368617,16.247896 L63.176566,16.1632204 C63.6944094,16.1116531 64.2048837,16.0527494 64.7062642,15.9875371 L65.4512991,15.8851159 L66.3255142,15.7508053 L67.1759893,15.6053109 L68.0004893,15.4499652 L68.7967792,15.2861005 L69.5626239,15.115049 L69.9334309,15.0272446 L70.6494173,14.8479112 L71.3293709,14.6647218 L71.9710567,14.4790089 L72.2318276,14.3982004 C73.5936266,13.9628037 75.0682925,13.2827598 76.6582872,12.3157967 L77.0947834,12.044934 L77.7207705,11.6379497 C78.62321,11.0357623 79.5607045,10.3439658 80.5336639,9.55552561 L81.0231009,9.15321933 L81.7182645,8.56255827 L82.0702089,8.25507771 L82.7828422,7.61548144 C83.3216954,7.12336611 83.8704083,6.60315923 84.4290402,6.05384287 L84.9909806,5.49478565 L85.7505435,4.71879745 L86.1347519,4.31754745 L86.1347519,4.31754745 L86.5219169,3.90737082 L87.305132,3.05996956 L87.7011899,2.62261088 L88.5022261,1.72024234 C88.9867078,1.16735258 89.4776338,0.594288755 89.9750345,0.000528778486 L317.129566,1.13686838e-13 Z" id="Filled" fill="#FFFFFF"></path>
                            <polyline id="Border" stroke="#2E3031" stroke-linecap="round" stroke-linejoin="round" transform="translate(158.564783, 9.563153) scale(-1, 1) translate(-158.564783, -9.563153) " points="281.630832 0 317.129566 0 317.129566 19.126305 0 19.126305 0 0 48.129566 0 227.766909 0"></polyline>
                            <polyline id="Border" stroke="#2E3031" stroke-linecap="round" stroke-linejoin="round" transform="translate(38.487057, 94.830100) scale(-1, 1) translate(-38.487057, -94.830100) " points="0.359337132 170 39.9428432 19.6602003 76.6147762 170"></polyline>
                            <line x1="7.76914544" y1="139.773231" x2="68.6274416" y2="139.773231" id="Border" stroke="#2E3031" stroke-linecap="round" stroke-linejoin="round" transform="translate(38.198294, 139.773231) scale(-1, 1) translate(-38.198294, -139.773231) "></line>
                            <polyline id="Border" stroke="#2E3031" stroke-linecap="round" stroke-linejoin="round" transform="translate(280.872280, 94.830100) scale(-1, 1) translate(-280.872280, -94.830100) " points="242.744561 170 282.328067 19.6602003 319 170"></polyline>
                            <line x1="250.154369" y1="139.773231" x2="311.012665" y2="139.773231" id="Border" stroke="#2E3031" stroke-linecap="round" stroke-linejoin="round" transform="translate(280.583517, 139.773231) scale(-1, 1) translate(-280.583517, -139.773231) "></line>
                            <rect id="Filled" fill="#FFFFFF" x="76.5982987" y="19.126305" width="163.932969" height="33.0534311"></rect>
                            <polygon id="Border" stroke="#2E3031" stroke-linecap="round" stroke-linejoin="round" points="76.5982987 19.126305 240.531267 19.126305 240.531267 22.5262262 240.531267 52.1797361 76.5982987 52.1797361"></polygon>
                        </g>
                    </g>
                    <g id="House-lamp" transform="translate(105.000000, 322.500000) scale(-1, 1) translate(-105.000000, -322.500000) translate(47.000000, 123.000000)">
                        <line x1="58" y1="390" x2="58" y2="99" id="Light-stem-" stroke="#2E3031" stroke-linecap="round" stroke-linejoin="round"></line>
                        <g id="Group-2">
                            <polygon id="Shade-" fill="#DC143D" fill-rule="nonzero" points="116 98 0 98 18.8045364 0 97.1954636 0"></polygon>
                            <polygon id="Light-light-" fill="#DC143D" fill-rule="nonzero" points="18.8045364 0 0 98 35.5196798 98 43.1034023 0"></polygon>
                            <polygon id="Boarder" stroke="#2E3031" stroke-linecap="round" stroke-linejoin="round" points="116 98 0 98 18.8045364 0 97.1954636 0"></polygon>
                            <polygon id="Highlight-" fill="#E7E7E7" fill-rule="nonzero" opacity="0.37" points="95.6477652 0 87.1354236 0 101.296865 98 114.452302 98"></polygon>
                        </g>
                        <g id="Group-3" transform="translate(17.000000, 379.000000)">
                            <path d="M82,20 L0,20 L0,20 C0,8.92307692 9.05904762,0 20.3047619,0 L61.6952381,0 C72.9409524,0 82,8.92307692 82,20 L82,20 Z" id="XMLID_80_" fill="#FFFFFF" fill-rule="nonzero"></path>
                            <path d="M40.1409524,0 L20.3828571,0 C9.13714286,0 0.0780952381,8.92307692 0.0780952381,20 L0.0780952381,20 L19.8361905,20 L19.8361905,20 C19.8361905,8.92307692 28.8952381,0 40.1409524,0 Z" id="XMLID_93_" fill="#E7E7E7" fill-rule="nonzero"></path>
                            <path d="M82,20 L0,20 L0,20 C0,8.92307692 9.05904762,0 20.3047619,0 L61.6952381,0 C72.9409524,0 82,8.92307692 82,20 L82,20 Z" id="XMLID_24_" stroke="#303030" stroke-linecap="round" stroke-linejoin="round"></path>
                            <path d="M82,20 L0,20 L0,20 C0,8.92307692 9.05904762,0 20.3047619,0 L61.6952381,0 C72.9409524,0 82,8.92307692 82,20 L82,20 Z" id="XMLID_84_" stroke="#303030" stroke-linecap="round" stroke-linejoin="round"></path>
                            <path d="M82,20 L0,20 L0,20 C0,8.92307692 9.05904762,0 20.3047619,0 L61.6952381,0 C72.9409524,0 82,8.92307692 82,20 L82,20 Z" id="XMLID_85_" stroke="#2E3031" stroke-linecap="round" stroke-linejoin="round"></path>
                        </g>
                        <g id="Group-4" transform="translate(84.000000, 98.000000)">
                            <line x1="6.03636364" y1="0" x2="6.03636364" y2="66.3858742" id="XMLID_27_" stroke="#2E3031" stroke-linecap="round" stroke-linejoin="round"></line>
                            <path d="M7.92727273,89 L4.07272727,89 C1.81818182,89 0,87.0835487 0,84.707149 L0,70.6787252 C0,68.3023256 1.81818182,66.3858742 4.07272727,66.3858742 L7.92727273,66.3858742 C10.1818182,66.3858742 12,68.3023256 12,70.6787252 L12,84.707149 C12,87.0835487 10.1818182,89 7.92727273,89 Z" id="XMLID_81_" fill="#2E3031" fill-rule="nonzero"></path>
                            <path d="M8.94545455,75.8914729 L8.94545455,75.8914729 C8.36363636,75.8914729 7.85454545,75.3548665 7.85454545,74.7416021 L7.85454545,70.9853575 C7.85454545,70.372093 8.36363636,69.8354866 8.94545455,69.8354866 L8.94545455,69.8354866 C9.52727273,69.8354866 10.0363636,70.372093 10.0363636,70.9853575 L10.0363636,74.7416021 C10.0363636,75.3548665 9.52727273,75.8914729 8.94545455,75.8914729 Z" id="XMLID_82_" fill="#F7F7F7" fill-rule="nonzero"></path>
                        </g>
                    </g>
                </g>
            </g>
        </g>
    </g>
</svg>