<?xml version="1.0" encoding="UTF-8"?>
<svg width="40px" height="40px" viewBox="0 0 40 40" version="1.1" xmlns="http://www.w3.org/2000/svg" xmlns:xlink="http://www.w3.org/1999/xlink">
    <title>9786A329-5D74-411A-B806-C826973670B3</title>
    <g id="Icons-40px" stroke="none" stroke-width="1" fill="none" fill-rule="evenodd">
        <g id="1---Icons/Banking/Cards/40px/3-Two-Tone" fill-rule="nonzero">
            <g id="shape" transform="translate(3.333333, 6.666667)">
                <path d="M1.66666667,5 L25,5 C26.841,5 28.3333333,6.49166667 28.3333333,8.33333333 L28.3333333,25 L1.66666667,25 L1.66666667,5 Z" id="Tone" fill="#FF7487"></path>
                <path d="M30,0 C31.7573182,0 33.1969463,1.35914256 33.3241907,3.08447361 L33.3333333,3.33333333 L33.3333333,23.3333333 C33.3333333,25.0912879 31.9735833,26.5303375 30.2487769,26.657528 L30,26.6666667 L3.33333333,26.6666667 C1.57601515,26.6666667 0.136387052,25.3075241 0.00914259329,23.5821931 L0,23.3333333 L0,3.33333333 C0,1.57537879 1.35975,0.136329201 3.08455644,0.00913864889 L3.33333333,0 L30,0 Z M31.6666667,10 L1.66666667,10 L1.66666667,23.3333333 C1.66666667,24.187619 2.31004507,24.892449 3.13896009,24.9887804 L3.33333333,25 L30,25 C30.85475,25 31.559182,24.3561905 31.6554541,23.5276142 L31.6666667,23.3333333 L31.6666667,10 Z M10.8333333,13.3333333 C11.2935,13.3333333 11.6666667,13.7066667 11.6666667,14.1666667 C11.6666667,14.5755556 11.3718189,14.9159671 10.9831075,14.9865661 L10.8333333,15 L5.83333333,15 C5.37316667,15 5,14.6266667 5,14.1666667 C5,13.7577778 5.29484774,13.4173663 5.68355921,13.3467673 L5.83333333,13.3333333 L10.8333333,13.3333333 Z M30,1.66666667 L3.33333333,1.66666667 C2.41283333,1.66666667 1.66666667,2.41333333 1.66666667,3.33333333 L1.66666667,8.33333333 L31.6666667,8.33333333 L31.6666667,3.33333333 C31.6666667,2.41333333 30.9205,1.66666667 30,1.66666667 Z" id="Shape" fill="#000000"></path>
            </g>
        </g>
    </g>
</svg>