<?xml version="1.0" encoding="UTF-8"?>
<svg width="24px" height="24px" viewBox="0 0 24 24" version="1.1" xmlns="http://www.w3.org/2000/svg" xmlns:xlink="http://www.w3.org/1999/xlink">
    <title>6E6C4148-24B1-4B5D-BB48-C2BB0A59A196</title>
    <g id="Icons-24px" stroke="none" stroke-width="1" fill="none" fill-rule="evenodd">
        <g id="🎨-colour" fill="#000000" transform="translate(4.000000, 6.000000)">
            <path d="M15.8,5.93999952 C15.9259,5.83612952 16,5.67311952 16,5.5 C16,5.32687952 15.9259,5.16386952 15.8,5.05999952 L9.80003,0.110031516 C9.57911,-0.0722212836 9.26571,-0.0229725836 9.10003,0.220031516 C8.93434,0.463035516 8.97912,0.807773516 9.20003,0.990025516 L14.0606,5 L0.571428,5 C0.255837,5 0,5.22385952 0,5.5 C0,5.77613952 0.255837,6 0.571428,6 L14.0606,6 L9.20003,10.0099995 C8.97912,10.1921995 8.93434,10.5369995 9.10003,10.7799995 C9.26571,11.0229995 9.57911,11.0721995 9.80003,10.8899995 L15.8,5.93999952 Z"></path>
        </g>
    </g>
</svg>