<?xml version="1.0" encoding="UTF-8"?>
<svg width="24px" height="24px" viewBox="0 0 24 24" version="1.1" xmlns="http://www.w3.org/2000/svg" xmlns:xlink="http://www.w3.org/1999/xlink">
    <title>36133B98-B55B-4A6A-8944-0070182EF0BC</title>
    <g id="1---Icons/Status/Info/24px/4-Information" stroke="none" stroke-width="1" fill="none" fill-rule="evenodd">
        <g id="shape" transform="translate(2, 2)" fill-rule="nonzero">
            <circle id="Tone" fill="#007EB7" cx="9" cy="11" r="8"></circle>
            <path d="M10,0 C15.5228,0 20,4.47715 20,10 C20,15.5228 15.5228,20 10,20 C4.4772,20 0,15.5228 0,10 C0,4.47715 4.4772,0 10,0 Z M10,1 C5.0294,1 1,5.02944 1,10 C1,14.9706 5.0294,19 10,19 C14.9706,19 19,14.9706 19,10 C19,5.02944 14.9706,1 10,1 Z M10,8 C10.2761,8 10.5,8.22386 10.5,8.5 L10.5,14.5 C10.5,14.7761 10.2761,15 10,15 C9.7239,15 9.5,14.7761 9.5,14.5 L9.5,8.5 C9.5,8.22386 9.7239,8 10,8 Z M10,5 C10.4142,5 10.75,5.33579 10.75,5.75 C10.75,6.16421 10.4142,6.5 10,6.5 C9.5858,6.5 9.25,6.16421 9.25,5.75 C9.25,5.33579 9.5858,5 10,5 Z" id="Shape" fill="#000000"></path>
        </g>
    </g>
</svg>