<svg width="251" height="204" viewBox="0 0 251 204" fill="none" xmlns="http://www.w3.org/2000/svg">
<path opacity="0.500225" d="M117.656 188.308C167.474 188.308 207.859 187.43 207.859 186.346C207.859 185.263 167.474 184.385 117.656 184.385C67.8384 184.385 27.4531 185.263 27.4531 186.346C27.4531 187.43 67.8384 188.308 117.656 188.308Z" fill="#E7E7E7"/>
<path fill-rule="evenodd" clip-rule="evenodd" d="M29.6779 35.3988L218.363 38.6843C221.25 38.7346 223.55 41.1169 223.5 44.0053C223.5 44.0055 223.5 44.0051 223.5 44.0053L221.501 158.232C221.45 161.12 219.069 163.42 216.181 163.37L27.4966 160.085C24.609 160.035 22.3089 157.652 22.3592 154.764C22.3592 154.764 22.3592 154.764 22.3592 154.764L24.3586 40.5377C24.4091 37.6494 26.7906 35.3485 29.6779 35.3988Z" fill="#DC143D"/>
<path d="M223.5 44.0053C223.55 41.1169 221.25 38.7346 218.363 38.6843L29.6779 35.3988C26.7906 35.3485 24.4091 37.6494 24.3586 40.5377L22.3592 154.764M223.5 44.0053C223.5 44.0055 223.5 44.0051 223.5 44.0053ZM223.5 44.0053L221.501 158.232C221.45 161.12 219.069 163.42 216.181 163.37L27.4966 160.085C24.609 160.035 22.3089 157.652 22.3592 154.764M22.3592 154.764C22.3592 154.764 22.3592 154.764 22.3592 154.764Z" stroke="#2E3031"/>
<path fill-rule="evenodd" clip-rule="evenodd" d="M34.0253 36.8905L222.291 46.8251C225.173 46.9772 227.388 49.4371 227.238 52.3207L221.253 167.392C221.103 170.277 218.643 172.494 215.759 172.343L215.755 172.343L27.4901 162.405C24.6075 162.253 22.3933 159.793 22.5434 156.91L28.528 41.8386C28.6782 38.9536 31.138 36.7367 34.0221 36.887L34.0255 36.8871L34.0253 36.8905Z" fill="white" stroke="#2E3031"/>
<path fill-rule="evenodd" clip-rule="evenodd" d="M57.8805 141.917C66.8063 142.385 74.4459 142.785 81.9483 143.179C83.6675 143.269 83.2466 140.333 83.2618 140.043C83.3543 138.277 72.1406 136.254 58.2154 135.524C44.2901 134.794 32.9265 135.633 32.834 137.398C32.8111 137.837 32.6666 140.595 33.2397 140.625C42.4261 141.106 47.4124 141.368 57.8805 141.917Z" fill="#DC143D" stroke="#2E3031"/>
<path fill-rule="evenodd" clip-rule="evenodd" d="M62.8043 137.66C56.2351 141.99 53.06 136.565 53.1516 134.817C53.2126 133.652 53.5107 130.274 54.0458 124.683L54.0219 124.692C53.0323 124.126 52.4682 122.967 52.6778 121.784L52.7054 121.648L52.6902 121.65C51.9815 123.005 50.329 123.521 48.9992 122.802C47.7096 122.105 47.1971 120.503 47.8134 119.171L47.8745 119.046L47.8644 119.048C46.8166 120.152 45.0893 120.185 44.0063 119.12C42.9583 118.09 42.8978 116.41 43.8446 115.301L43.9426 115.192L43.9209 115.193C42.6285 115.984 40.9527 115.56 40.1778 114.246C39.4272 112.972 39.7974 111.331 40.9963 110.51L41.1149 110.433L41.1044 110.434C39.6555 110.858 38.1453 110.007 37.7314 108.532C37.3299 107.103 38.1067 105.612 39.4752 105.136L39.6052 105.095C38.1008 105.121 36.8592 103.9 36.8344 102.366C36.8103 100.879 37.9391 99.6432 39.3813 99.5439L39.5174 99.5379L39.5115 99.5111C38.0498 99.1413 37.1614 97.6345 37.5274 96.1456C37.8822 94.7017 39.2862 93.8049 40.7038 94.089L40.8367 94.1191L40.8438 94.1032C39.5395 93.3373 39.094 91.6388 39.8487 90.3095C40.5798 89.0216 42.169 88.5527 43.4534 89.2209L43.5767 89.2891L43.5787 89.2736C42.5142 88.1897 42.5158 86.4309 43.5823 85.345C44.6145 84.2942 46.2657 84.2588 47.3359 85.2399L47.4409 85.3414L47.4426 85.3311C46.7133 83.9899 47.191 82.2988 48.5097 81.5537C49.7871 80.832 51.385 81.2629 52.1467 82.5098L52.2178 82.6331L52.2239 82.6118C51.8608 81.1236 52.7519 79.6151 54.2144 79.2425C55.6325 78.8813 57.0671 79.7208 57.4839 81.1291L57.5199 81.2627L57.5223 81.2523C57.55 79.7183 58.7938 78.4954 60.3004 78.5207C61.7614 78.5453 62.933 79.7346 62.9774 81.2054L62.9782 81.3441C63.396 79.8716 64.9077 79.0175 66.3558 79.439C67.7601 79.8477 68.5888 81.3059 68.2578 82.7389L68.2233 82.8732L68.2332 82.8581C69.0329 81.5563 70.7166 81.159 71.9937 81.9708C73.2309 82.7572 73.6328 84.3898 72.9296 85.6746L72.8581 85.7978C73.9638 84.7495 75.6903 84.8092 76.7169 85.9303C77.7104 87.0152 77.6845 88.6964 76.6821 89.753L76.5786 89.8565L76.5725 89.8653C77.9037 89.1438 79.5552 89.6564 80.2614 91.0104C80.9455 92.322 80.4914 93.9419 79.2521 94.6979L79.1298 94.7683L79.1184 94.7871C80.5869 94.4406 82.0511 95.3713 82.3887 96.8658C82.716 98.3151 81.8638 99.7624 80.4728 100.165L80.3408 100.199L80.3344 100.207C81.8391 100.286 82.9939 101.592 82.9136 103.124C82.8357 104.61 81.6252 105.763 80.1798 105.76L80.0437 105.756L80.0336 105.768C81.4663 106.241 82.2491 107.807 81.7821 109.266C81.3292 110.682 79.8674 111.477 78.4729 111.093L78.3424 111.053L78.3355 111.069C79.584 111.926 79.912 113.652 79.0682 114.925C78.6201 115.601 77.9319 116.013 77.1979 116.122L77.0505 116.14L77.0271 116.149C76.9814 116.677 76.6683 117.141 76.1894 117.418C75.5382 117.794 74.5974 117.451 74.1184 117.228L73.7223 117.375L73.572 117.848C73.2413 118.858 72.6305 120.527 72.1227 120.82C71.4227 121.223 70.0346 118.95 69.2686 119.028L69.1021 119.091L69.0935 119.097C68.489 119.565 69.2902 122.117 70.0578 122.837L70.1296 122.899C70.9407 123.536 65.0028 125.276 64.7573 129.961L64.0764 135.39L62.8043 137.66Z" fill="white"/>
<path fill-rule="evenodd" clip-rule="evenodd" d="M53.4603 124.891L53.4365 124.9C52.447 124.331 51.8831 123.167 52.0929 121.978L52.1206 121.84L52.1054 121.843C51.3964 123.205 49.7437 123.724 48.4141 123.002C47.1247 122.301 46.6126 120.691 47.2292 119.352L47.2903 119.227L47.2802 119.228C46.2321 120.339 44.5048 120.372 43.4221 119.302C42.3743 118.267 42.3142 116.578 43.2612 115.463L43.3593 115.354L43.3376 115.354C42.045 116.15 40.3693 115.724 39.5947 114.403C38.8443 113.124 39.215 111.474 40.414 110.648L40.5326 110.571L40.5221 110.572C39.0731 110.999 37.5632 110.143 37.1495 108.661C36.7484 107.225 37.5255 105.726 38.8942 105.248L39.0242 105.206C37.5197 105.233 36.2785 104.006 36.2539 102.464C36.2302 100.969 37.3593 99.7268 38.8015 99.6267L38.9376 99.6207L38.9318 99.5937C37.4701 99.2224 36.5821 97.7081 36.9484 96.2115C37.3035 94.7602 38.7077 93.8584 40.1253 94.1436L40.2582 94.1739L40.2653 94.1579C38.9612 93.3884 38.516 91.6813 39.271 90.345C40.0024 89.0504 41.5918 88.5787 42.876 89.2501L42.9993 89.3186L43.0013 89.3029C41.937 88.2138 41.939 86.446 43.0058 85.3543C44.0382 84.2979 45.6894 84.2619 46.7594 85.2478L46.8644 85.3498L46.8661 85.3394C46.1371 83.9916 46.6152 82.2917 47.934 81.5425C49.2116 80.8168 50.8095 81.2496 51.5708 82.5027L51.6419 82.6265L51.648 82.6052C51.2852 81.1094 52.1767 79.593 53.6393 79.2182C55.0575 78.8548 56.4919 79.6983 56.9083 81.1137L56.9444 81.248L56.9467 81.2375C56.9748 79.6957 58.2189 78.4662 59.7255 78.4913C61.1865 78.5157 62.3578 79.7109 62.4018 81.1891L62.4026 81.3285C62.8208 79.8484 64.3327 78.9896 65.7807 79.4129C67.1848 79.8234 68.0132 81.2888 67.6819 82.7293L67.6474 82.8642L67.6573 82.849C68.4573 81.5404 70.141 81.1407 71.418 81.9564C72.655 82.7465 73.0565 84.3873 72.3531 85.6789L72.2815 85.8027C73.3875 84.7488 75.1139 84.8084 76.1403 85.935C77.1336 87.0252 77.1072 88.7151 76.1046 89.7773L76.0011 89.8813L75.995 89.8901C77.3263 89.1646 78.9778 89.6795 79.6837 91.0402C80.3675 92.3584 79.913 93.9867 78.6735 94.7468L78.5512 94.8176L78.5398 94.8366C80.0084 94.488 81.4724 95.423 81.8096 96.9251C82.1366 98.3817 81.2841 99.8366 79.893 100.241L79.761 100.276L79.7546 100.284C81.2593 100.363 82.4137 101.676 82.3331 103.216C82.2549 104.709 81.044 105.868 79.5987 105.865L79.4625 105.861L79.4525 105.873C80.885 106.348 81.6675 107.922 81.2002 109.389C80.747 110.812 79.285 111.611 77.8906 111.226L77.7601 111.186L77.7532 111.202C79.0014 112.063 79.3291 113.798 78.485 115.077C78.0368 115.757 77.3484 116.171 76.6144 116.281L76.467 116.299L76.4436 116.308C76.4414 116.333 76.3993 115.919 76.0911 115.221C75.921 114.835 75.4588 114.404 75.243 113.862C75.0787 113.449 74.8996 112.79 74.9212 112.376C75.0249 110.396 75.1669 107.684 75.1948 107.152C75.3414 104.352 75.4738 102.243 75.1212 101.944C74.6019 101.505 73.4072 102.577 71.9737 104.338C70.5402 106.098 68.2252 107.732 67.9616 107.89C66.2441 108.918 63.3183 109.574 62.8229 109.688C61.1683 110.068 58.6746 109.993 57.4215 109.405C56.6627 109.048 56.1084 108.345 55.543 108.044C54.7129 107.601 54.2435 108.298 53.9824 107.985C53.6642 107.605 52.2253 109.109 52.3729 110.797C52.4288 111.436 52.4623 112.347 52.7501 112.898C53.2844 113.922 54.0093 113.96 54.0154 114.302C54.0274 114.98 53.8424 118.51 53.4603 124.891Z" fill="#2E3031"/>
<path d="M53.0932 134.368L54.1013 115.115C54.1789 113.635 53.4473 113.837 52.8877 112.854C52.3281 111.87 52.4856 109.947 52.884 109.053C53.6997 107.222 55.6646 107.73 56.5171 108.673C57.3696 109.617 59.1901 110.361 62.2167 109.871C70.4301 108.539 73.0327 102.931 73.9633 102.305C74.8939 101.679 75.5123 102.404 75.4896 102.837C75.4745 103.125 75.4334 103.911 75.3661 105.195C75.3661 105.195 75.0906 110.456 75.0323 111.57C74.974 112.683 74.9036 113.737 75.8727 114.755C76.8418 115.773 76.5316 116.955 75.6294 117.472C74.7272 117.988 73.2653 117.128 73.2653 117.128C73.2653 117.128 72.3178 120.41 71.585 120.829C70.8518 121.248 69.3585 118.737 68.629 119.09C67.8993 119.444 68.7957 122.25 69.6029 122.88C70.4102 123.51 64.5034 125.226 64.2612 129.851L63.9713 135.386" stroke="#2E3031" stroke-linecap="round" stroke-linejoin="round"/>
<path d="M53.0026 134.811C53.0026 134.811 52.89 138.895 58.0245 139.164C63.1592 139.434 63.9272 135.384 63.9272 135.384" stroke="#2E3031" stroke-linecap="round" stroke-linejoin="round"/>
<path d="M69.9191 109.405C69.9191 109.405 69.6168 111.142 70.6198 111.195C71.6229 111.247 71.6234 109.495 71.6234 109.495" stroke="#2E3031" stroke-linecap="round" stroke-linejoin="round"/>
<path d="M70.0503 106.539L71.7752 106.629" stroke="#2E3031" stroke-linecap="round" stroke-linejoin="round"/>
<path d="M76.467 116.299C77.2555 116.225 78.0069 115.802 78.485 115.077C79.3291 113.798 79.0014 112.063 77.7532 111.202L77.7601 111.186C79.1926 111.661 80.7328 110.856 81.2002 109.389C81.6675 107.922 80.885 106.348 79.4525 105.873L79.4625 105.861C80.9673 105.94 82.2524 104.756 82.3331 103.216C82.4137 101.676 81.2593 100.363 79.7546 100.284L79.761 100.276C81.2296 99.9275 82.1468 98.4272 81.8096 96.9251C81.4724 95.423 80.0084 94.488 78.5398 94.8366L78.5512 94.8176C79.8825 94.0921 80.3895 92.4009 79.6837 91.0402C78.9778 89.6795 77.3263 89.1646 75.995 89.8901L76.0011 89.8813C77.1043 88.8284 77.1667 87.0615 76.1403 85.935C75.1139 84.8084 73.3875 84.7488 72.2842 85.8017C73.0816 84.4941 72.6949 82.772 71.418 81.9564C70.141 81.1407 68.4573 81.5404 67.6573 82.849L67.6474 82.8642C68.0645 81.3814 67.2287 79.8362 65.7807 79.4129C64.3327 78.9896 62.8208 79.8484 62.4037 81.3312L62.4026 81.3285C62.4307 79.7867 61.2321 78.5164 59.7255 78.4913C58.2189 78.4662 56.9748 79.6957 56.9467 81.2375L56.9444 81.248C56.5815 79.7522 55.1018 78.8435 53.6393 79.2182C52.1767 79.593 51.2852 81.1094 51.648 82.6052L51.6419 82.6265C50.9129 81.2787 49.2528 80.7934 47.934 81.5425C46.6152 82.2917 46.1371 83.9916 46.8661 85.3394L46.8644 85.3498C45.8002 84.2607 44.0726 84.2627 43.0058 85.3543C41.939 86.446 41.937 88.2138 43.0013 89.3029L42.9993 89.3186C41.6952 88.5491 40.026 89.0087 39.271 90.345C38.516 91.6813 38.9612 93.3884 40.2653 94.1579L40.2582 94.1739C38.7965 93.8025 37.3146 94.7148 36.9484 96.2115C36.5821 97.7081 37.4701 99.2224 38.9318 99.5937L38.9376 99.6207C37.431 99.6494 36.2294 100.923 36.2539 102.464C36.2785 104.006 37.5197 105.233 39.0264 105.204L39.0242 105.206C37.5752 105.633 36.7359 107.18 37.1495 108.661C37.5632 110.143 39.0731 110.999 40.5221 110.572L40.5326 110.571C39.2401 111.367 38.8201 113.083 39.5947 114.403C40.3693 115.724 42.045 116.15 43.3376 115.354L43.3593 115.354C42.3113 116.464 42.3394 118.232 43.4221 119.302C44.5048 120.372 46.2321 120.339 47.2802 119.228L47.2903 119.227C46.5813 120.589 47.0844 122.279 48.4141 123.002C49.7437 123.724 51.3964 123.205 52.1054 121.843L52.1206 121.84C51.8403 123.077 52.4089 124.31 53.4365 124.9" stroke="#2E3031" stroke-linecap="round" stroke-linejoin="round"/>
<path d="M37.4143 74.7431L85.3226 77.2712C86.0433 77.3092 86.5969 77.9242 86.5593 78.6451L83.2738 141.78C83.2362 142.502 82.6213 143.056 81.9003 143.018M37.4143 74.7431C36.6933 74.7056 36.0775 75.2589 36.04 75.9802L32.7544 139.115C32.7169 139.836 33.2704 140.451 33.9911 140.489L81.9003 143.018M37.4143 74.7431C37.4146 74.7432 37.414 74.7431 37.4143 74.7431ZM81.9003 143.018C81.9 143.018 81.9005 143.018 81.9003 143.018Z" stroke="#2E3031"/>
<mask id="mask0_907_21793" style="mask-type:luminance" maskUnits="userSpaceOnUse" x="147" y="128" width="37" height="43">
<path d="M149.424 128.61C151.847 144.375 164.959 156.807 181.4 157.669C182.186 157.71 182.968 157.725 183.745 157.712L176.888 170.289L159.825 169.395C151.758 161.736 146.962 150.686 147.592 138.656C147.775 135.159 148.405 131.793 149.424 128.61Z" fill="white"/>
</mask>
<g mask="url(#mask0_907_21793)">
<path opacity="0.25" d="M149.424 128.61C151.847 144.375 164.959 156.807 181.399 157.669C182.186 157.71 182.968 157.724 183.744 157.712L176.887 170.289L159.825 169.395C151.758 161.736 146.962 150.686 147.592 138.656C147.775 135.159 148.405 131.793 149.424 128.61Z" fill="white" stroke="#FF930F" stroke-width="30" stroke-dasharray="1 1"/>
</g>
<mask id="mask1_907_21793" style="mask-type:luminance" maskUnits="userSpaceOnUse" x="167" y="94" width="58" height="79">
<path d="M194.368 94.1498C206.257 94.7735 216.798 100.122 224.326 108.314L221.506 162.154C221.204 167.923 216.283 172.355 210.515 172.053L186.595 170.798L187.34 156.576C187.562 156.517 187.784 156.456 188.004 156.393C199.575 153.051 208.322 142.529 208.997 129.636C209.846 113.431 197.619 99.6164 181.688 98.7807C176.509 98.509 171.576 99.6426 167.247 101.853C174.951 96.5299 184.359 93.6247 194.368 94.1498Z" fill="white"/>
</mask>
<g mask="url(#mask1_907_21793)">
<path d="M194.369 94.1495C206.257 94.773 216.798 100.121 224.326 108.314L221.506 162.154C221.203 167.923 216.282 172.355 210.514 172.053L186.595 170.798L187.34 156.576C187.562 156.518 187.784 156.457 188.004 156.393C199.574 153.051 208.322 142.529 208.997 129.636C209.846 113.431 197.62 99.6161 181.689 98.7806C176.51 98.5089 171.577 99.6426 167.248 101.853C174.951 96.5299 184.36 93.6245 194.369 94.1495Z" fill="white" stroke="#E7E7E7" stroke-width="42" stroke-dasharray="1 1"/>
</g>
<mask id="mask2_907_21793" style="mask-type:luminance" maskUnits="userSpaceOnUse" x="135" y="44" width="93" height="125">
<path d="M222.309 46.814C225.194 46.9653 227.409 49.4266 227.258 52.3114L224.854 98.2463C217.424 93.0699 208.527 89.8427 198.85 89.335C170.972 87.8725 147.176 109.535 145.701 137.719C145.114 148.927 148.146 159.48 153.764 168.217C141.375 153.347 134.333 133.867 135.43 112.91C137.036 82.2486 155.636 56.5537 181.512 44.6733L222.309 46.814Z" fill="white"/>
</mask>
<g mask="url(#mask2_907_21793)">
<path opacity="0.15" d="M222.31 46.813C225.194 46.9642 227.409 49.4255 227.258 52.3104L224.854 98.2457C217.423 93.0693 208.527 89.8422 198.85 89.3346C170.972 87.8724 147.177 109.535 145.701 137.719C145.114 148.928 148.146 159.48 153.764 168.218C141.375 153.348 134.334 133.868 135.431 112.91C137.037 82.2489 155.637 56.5536 181.513 44.6727L222.31 46.813Z" stroke="#DC143D" stroke-width="100" stroke-dasharray="1 1"/>
</g>
<mask id="mask3_907_21793" style="mask-type:luminance" maskUnits="userSpaceOnUse" x="152" y="101" width="37" height="54">
<path d="M180.094 101.108C183.069 101.264 185.902 101.913 188.519 102.973L182.93 115.424C173.846 116.173 166.482 123.602 165.988 133.035C165.45 143.316 173.277 152.084 183.47 152.618C185.164 152.707 186.816 152.563 188.397 152.214C184.984 153.584 181.231 154.251 177.323 154.046C162.829 153.285 151.701 140.819 152.466 126.2C153.231 111.582 165.601 100.348 180.094 101.108Z" fill="white"/>
</mask>
<g mask="url(#mask3_907_21793)">
<path d="M180.094 101.108C183.069 101.264 185.902 101.913 188.519 102.973L182.93 115.424C173.846 116.173 166.482 123.602 165.988 133.035C165.45 143.316 173.276 152.084 183.469 152.618C185.163 152.707 186.816 152.563 188.397 152.214C184.984 153.584 181.23 154.251 177.322 154.046C162.829 153.286 151.701 140.819 152.466 126.2C153.231 111.582 165.601 100.348 180.094 101.108Z" fill="white" stroke="#E7E7E7" stroke-width="20" stroke-dasharray="1 1"/>
</g>
<path d="M150.786 53.9754L73.3923 49.9175C71.978 49.8433 70.7715 50.9299 70.6974 52.3444C70.6233 53.7589 71.7097 54.9657 73.124 55.0399L150.517 59.0978C151.932 59.172 153.138 58.0854 153.212 56.6709C153.287 55.2564 152.2 54.0496 150.786 53.9754Z" fill="#2E3031"/>
<path d="M137.753 60.9968L72.9895 57.6011C71.5752 57.5269 70.3686 58.6135 70.2945 60.028C70.2204 61.4426 71.3069 62.6494 72.7212 62.7236L137.485 66.1193C138.899 66.1935 140.106 65.1069 140.18 63.6923C140.254 62.2778 139.167 61.071 137.753 60.9968Z" fill="#2E3031"/>
<path opacity="0.75" d="M114.067 79.6347L95.165 78.6436C94.8045 78.6247 94.4969 78.9017 94.478 79.2622C94.4591 79.6228 94.7361 79.9304 95.0966 79.9493L113.999 80.9404C114.359 80.9593 114.667 80.6823 114.686 80.3218C114.705 79.9612 114.428 79.6536 114.067 79.6347Z" fill="#2E3031"/>
<path opacity="0.75" d="M113.441 91.5898L94.539 90.5987C94.1785 90.5798 93.8709 90.8567 93.852 91.2173C93.8331 91.5779 94.1101 91.8855 94.4706 91.9044L113.373 92.8955C113.733 92.9144 114.041 92.6374 114.06 92.2769C114.079 91.9163 113.802 91.6087 113.441 91.5898Z" fill="#2E3031"/>
<path opacity="0.75" d="M112.815 103.544L93.9125 102.553C93.552 102.534 93.2445 102.811 93.2256 103.171C93.2067 103.532 93.4836 103.84 93.8441 103.859L112.746 104.85C113.107 104.868 113.414 104.592 113.433 104.231C113.452 103.87 113.175 103.563 112.815 103.544Z" fill="#2E3031"/>
<path opacity="0.75" d="M101.287 114.07L93.331 113.652C92.9705 113.633 92.6629 113.91 92.644 114.271C92.6251 114.632 92.9021 114.939 93.2626 114.958L101.219 115.375C101.579 115.394 101.887 115.117 101.906 114.757C101.925 114.396 101.648 114.088 101.287 114.07Z" fill="#2E3031"/>
<path d="M50.7071 144.81L35.1728 143.995C34.8123 143.976 34.5047 144.253 34.4858 144.614C34.4669 144.974 34.7439 145.282 35.1044 145.301L50.6387 146.115C50.9992 146.134 51.3067 145.857 51.3256 145.497C51.3445 145.136 51.0676 144.829 50.7071 144.81Z" fill="#DC143D"/>
<path d="M111.654 140.483C111.607 140.486 111.56 140.482 111.513 140.481C111.518 140.481 111.524 140.481 111.529 140.481C111.391 140.482 111.253 140.483 111.116 140.483C110.769 140.496 110.421 140.501 110.075 140.518C109.81 140.531 109.545 140.544 109.28 140.557C109.128 140.564 108.976 140.57 108.824 140.58C108.081 140.629 107.336 140.67 106.594 140.73C106.09 140.771 105.586 140.812 105.082 140.853C105 140.859 104.918 140.868 104.836 140.877C104.584 140.904 104.332 140.932 104.08 140.959C103.776 140.992 103.472 141.024 103.168 141.057C102.739 141.12 102.308 141.176 101.878 141.236C101.502 141.287 101.128 141.349 100.754 141.408C100.485 141.45 100.217 141.499 99.9494 141.545C99.8519 141.562 99.7553 141.58 99.6586 141.6C99.5036 141.632 99.3482 141.665 99.1932 141.698C98.923 141.761 98.6527 141.825 98.3837 141.892C98.0958 141.963 97.8076 142.033 97.5246 142.116C97.5023 142.122 97.4792 142.125 97.4565 142.123" stroke="#2E3031" stroke-linecap="round" stroke-linejoin="round"/>
<path d="M112.621 137.005C111.963 137.156 111.305 137.305 110.647 137.452L108.979 137.823C108.801 137.862 108.622 137.897 108.443 137.932C108.171 137.985 107.898 138.025 107.623 138.057C107.118 138.116 106.594 138.123 106.099 137.995C105.981 137.965 105.868 137.921 105.757 137.874C105.646 137.828 105.538 137.773 105.434 137.714C105.326 137.652 105.227 137.575 105.127 137.503L104.976 137.397L104.817 137.281C104.777 137.253 104.737 137.227 104.695 137.203C104.655 137.183 104.615 137.165 104.574 137.148C104.532 137.132 104.489 137.118 104.445 137.106C104.409 137.098 104.372 137.091 104.335 137.086C104.318 137.084 104.302 137.083 104.285 137.083C104.24 137.084 104.196 137.088 104.152 137.093C104.045 137.109 103.938 137.128 103.834 137.155L103.582 137.227C103.483 137.255 103.383 137.28 103.282 137.304C103.181 137.33 103.079 137.349 102.976 137.367C102.864 137.386 102.751 137.403 102.637 137.41C102.437 137.424 102.232 137.394 102.042 137.332C101.983 137.312 101.927 137.283 101.873 137.252L101.704 137.151L101.588 137.073L101.57 137.065L101.536 137.055L101.501 137.048L101.477 137.046L101.453 137.048L101.423 137.054C101.385 137.066 101.349 137.08 101.312 137.095C101.266 137.115 101.221 137.137 101.177 137.162L100.754 137.414C100.684 137.456 100.612 137.497 100.541 137.537L100.177 137.739C99.9347 137.874 99.6827 137.99 99.4242 138.092C99.1389 138.204 98.8352 138.287 98.5244 138.291C98.3943 138.293 98.2695 138.271 98.1484 138.226C98.029 138.181 97.9064 138.112 97.8199 138.02C97.7366 137.931 97.6818 137.828 97.6366 137.718C97.5814 137.583 97.5514 137.444 97.5349 137.301C97.5186 137.154 97.5106 137.008 97.5077 136.86C97.5063 136.789 97.5018 136.718 97.4963 136.647L97.4898 136.507C97.4886 136.484 97.4868 136.461 97.484 136.438L97.4777 136.41L97.4708 136.39L97.4644 136.378L97.4486 136.357L97.4333 136.341L97.4177 136.328L97.403 136.331C97.3887 136.335 97.3747 136.34 97.3608 136.346C97.2834 136.38 97.2067 136.417 97.1332 136.458C97.0569 136.504 96.9831 136.554 96.9105 136.606L96.335 137.024L95.7702 137.43L95.601 137.55L94.9344 138.007C94.8655 138.054 94.7935 138.097 94.7225 138.141C94.5867 138.226 94.448 138.307 94.3049 138.38C94.0329 138.519 93.7412 138.622 93.4373 138.675C93.2996 138.7 93.161 138.707 93.0207 138.707C92.9839 138.707 92.9473 138.706 92.9108 138.704C92.8021 138.699 92.6946 138.684 92.5882 138.657C92.4681 138.626 92.3544 138.561 92.2563 138.489C92.141 138.405 92.0414 138.307 91.9531 138.197C91.8673 138.09 91.7994 137.97 91.7391 137.849C91.6719 137.714 91.6174 137.572 91.5757 137.427C91.5358 137.289 91.5076 137.148 91.4901 137.005C91.4712 136.849 91.4713 136.691 91.4778 136.534C91.4902 136.219 91.5407 135.907 91.6183 135.601C91.7698 135.002 92.0238 134.43 92.3458 133.898C92.5046 133.636 92.6844 133.384 92.8828 133.148C93.0769 132.918 93.3005 132.712 93.5366 132.521C93.7759 132.328 94.0348 132.159 94.3019 132.003C94.5602 131.852 94.8395 131.739 95.1385 131.685C95.4127 131.636 96.0054 131.741 96.2623 132.304C96.5193 132.866 96.4906 133.413 95.4757 134.408" stroke="#2E3031" stroke-linecap="round" stroke-linejoin="round"/>
<path opacity="0.75" d="M133.283 115.746L125.327 115.329C124.966 115.31 124.659 115.587 124.64 115.948C124.621 116.308 124.898 116.616 125.258 116.635L133.215 117.052C133.575 117.071 133.883 116.794 133.902 116.433C133.92 116.073 133.643 115.765 133.283 115.746Z" fill="#2E3031"/>
<path d="M129.752 82.1701L96.1418 80.4077C94.7276 80.3336 93.521 81.4202 93.4469 82.8348C93.3728 84.2494 94.4592 85.4563 95.8735 85.5304L129.484 87.2928C130.898 87.3669 132.104 86.2803 132.178 84.8657C132.253 83.4511 131.166 82.2442 129.752 82.1701Z" fill="#2E3031"/>
<path d="M129.08 94.9777L95.4705 93.2153C94.0562 93.1412 92.8496 94.2278 92.7755 95.6424C92.7014 97.057 93.7878 98.2639 95.2021 98.338L128.812 100.1C130.226 100.175 131.433 99.0879 131.507 97.6733C131.581 96.2587 130.495 95.0518 129.08 94.9777Z" fill="#2E3031"/>
<path d="M136.077 106.477L94.8889 104.317C93.4746 104.243 92.2681 105.329 92.194 106.744C92.1199 108.159 93.2063 109.365 94.6206 109.44L135.809 111.599C137.223 111.673 138.429 110.587 138.503 109.172C138.578 107.758 137.491 106.551 136.077 106.477Z" fill="#2E3031"/>
<path d="M102.613 116.708L94.2625 116.27C92.8482 116.196 91.6416 117.283 91.5675 118.697C91.4934 120.112 92.5798 121.319 93.9941 121.393L102.344 121.831C103.759 121.905 104.965 120.818 105.039 119.404C105.114 117.989 104.027 116.782 102.613 116.708Z" fill="#2E3031"/>
<path d="M135.451 118.43L127.1 117.992C125.686 117.918 124.479 119.004 124.405 120.419C124.331 121.834 125.418 123.04 126.832 123.115L135.182 123.553C136.597 123.627 137.803 122.54 137.877 121.125C137.951 119.711 136.865 118.504 135.451 118.43Z" fill="#2E3031"/>
<path d="M34.8522 147.952C34.8315 147.985 34.8032 148 34.7674 147.998C34.74 147.997 34.7057 147.977 34.6644 147.938C34.6231 147.899 34.5667 147.856 34.4953 147.808C34.4239 147.76 34.3338 147.714 34.2251 147.671C34.1165 147.628 33.981 147.602 33.8188 147.593C33.6565 147.585 33.5126 147.599 33.3871 147.636C33.2616 147.673 33.1552 147.726 33.0681 147.796C32.981 147.867 32.9132 147.95 32.8649 148.046C32.8165 148.142 32.7895 148.244 32.7839 148.353C32.7765 148.494 32.8025 148.613 32.8619 148.709C32.9214 148.805 33.0021 148.888 33.104 148.958C33.206 149.029 33.3227 149.089 33.4542 149.141C33.5857 149.192 33.7209 149.243 33.8598 149.294C33.9987 149.344 34.1337 149.399 34.2648 149.458C34.3958 149.518 34.512 149.589 34.6132 149.673C34.7145 149.758 34.7942 149.859 34.8525 149.977C34.9107 150.096 34.9354 150.241 34.9264 150.412C34.9173 150.587 34.8765 150.75 34.8042 150.901C34.7318 151.052 34.6316 151.181 34.5034 151.289C34.3752 151.397 34.2209 151.479 34.0405 151.535C33.86 151.592 33.656 151.614 33.4285 151.602C33.1335 151.587 32.8821 151.525 32.6744 151.416C32.4667 151.308 32.2872 151.165 32.1359 150.987L32.2311 150.862C32.258 150.834 32.2882 150.821 32.322 150.822C32.3409 150.823 32.3645 150.836 32.3928 150.862C32.4211 150.887 32.4554 150.918 32.4957 150.954C32.5361 150.991 32.5847 151.031 32.6416 151.074C32.6984 151.118 32.765 151.159 32.8411 151.197C32.9173 151.236 33.0053 151.269 33.1052 151.298C33.2051 151.327 33.3194 151.345 33.4479 151.352C33.6249 151.361 33.7842 151.344 33.9259 151.302C34.0676 151.259 34.1887 151.197 34.2891 151.115C34.3895 151.033 34.4681 150.935 34.5249 150.818C34.5816 150.702 34.6136 150.576 34.6207 150.44C34.6284 150.293 34.6026 150.169 34.5433 150.071C34.4841 149.972 34.4034 149.888 34.3014 149.818C34.1994 149.749 34.0826 149.689 33.9511 149.639C33.8195 149.588 33.6843 149.539 33.5453 149.49C33.4062 149.441 33.2712 149.388 33.14 149.33C33.0089 149.272 32.8928 149.2 32.7916 149.115C32.6904 149.03 32.6108 148.926 32.5527 148.803C32.4947 148.681 32.4703 148.53 32.4797 148.351C32.487 148.212 32.5225 148.078 32.5862 147.952C32.6498 147.825 32.7391 147.715 32.8538 147.621C32.9686 147.527 33.1081 147.455 33.2725 147.403C33.4368 147.352 33.6222 147.332 33.8287 147.342C34.0605 147.355 34.2668 147.4 34.4475 147.478C34.6283 147.557 34.7909 147.671 34.9352 147.821L34.8522 147.952Z" fill="black"/>
<path d="M39.1562 149.76C39.137 150.126 39.0783 150.441 38.98 150.704C38.8817 150.967 38.7553 151.182 38.6007 151.349C38.4461 151.517 38.2692 151.638 38.0698 151.714C37.8704 151.789 37.6601 151.821 37.4388 151.809C37.2176 151.798 37.0123 151.744 36.8229 151.648C36.6335 151.552 36.4707 151.413 36.3345 151.231C36.1983 151.048 36.0956 150.821 36.0263 150.549C35.9571 150.277 35.9321 149.958 35.9513 149.592C35.9704 149.226 36.0286 148.912 36.1259 148.649C36.2231 148.386 36.349 148.17 36.5036 148.003C36.6581 147.835 36.8346 147.714 37.0329 147.639C37.2312 147.563 37.441 147.531 37.6623 147.543C37.8835 147.554 38.0894 147.608 38.2798 147.704C38.4702 147.8 38.6335 147.939 38.7698 148.122C38.906 148.304 39.0092 148.532 39.0795 148.804C39.1498 149.075 39.1753 149.394 39.1562 149.76ZM38.8401 149.744C38.8578 149.405 38.8382 149.114 38.7812 148.871C38.7243 148.627 38.6413 148.426 38.5323 148.267C38.4234 148.109 38.2923 147.99 38.139 147.911C37.9857 147.832 37.8227 147.788 37.6499 147.779C37.4771 147.77 37.3109 147.797 37.1513 147.859C36.9917 147.922 36.8488 148.026 36.7229 148.173C36.5969 148.319 36.4928 148.51 36.4107 148.746C36.3286 148.983 36.2787 149.27 36.261 149.608C36.2432 149.949 36.2628 150.24 36.3198 150.483C36.3768 150.725 36.4603 150.926 36.5703 151.085C36.6804 151.243 36.8115 151.362 36.9638 151.44C37.116 151.518 37.2786 151.561 37.4513 151.57C37.6241 151.579 37.7908 151.553 37.9515 151.491C38.1121 151.43 38.2549 151.326 38.3798 151.18C38.5047 151.033 38.6082 150.842 38.6903 150.607C38.7723 150.372 38.8223 150.084 38.8401 149.744Z" fill="black"/>
<path d="M43.2968 149.978C43.2776 150.344 43.2189 150.658 43.1206 150.921C43.0223 151.184 42.8959 151.4 42.7413 151.567C42.5868 151.735 42.4098 151.856 42.2104 151.931C42.011 152.007 41.8007 152.039 41.5794 152.027C41.3582 152.015 41.1529 151.962 40.9635 151.866C40.7741 151.77 40.6114 151.631 40.4751 151.448C40.3389 151.266 40.2362 151.038 40.167 150.766C40.0978 150.495 40.0727 150.176 40.0919 149.81C40.111 149.444 40.1692 149.13 40.2665 148.866C40.3637 148.603 40.4896 148.388 40.6442 148.221C40.7988 148.053 40.9752 147.932 41.1735 147.856C41.3719 147.781 41.5817 147.749 41.8029 147.761C42.0242 147.772 42.23 147.826 42.4204 147.922C42.6108 148.017 42.7742 148.157 42.9104 148.339C43.0466 148.522 43.1499 148.749 43.2201 149.021C43.2904 149.293 43.316 149.612 43.2968 149.978ZM42.9807 149.961C42.9984 149.623 42.9788 149.332 42.9219 149.088C42.8649 148.845 42.7819 148.644 42.673 148.485C42.564 148.327 42.4329 148.208 42.2796 148.129C42.1264 148.05 41.9633 148.006 41.7905 147.997C41.6178 147.988 41.4516 148.014 41.2919 148.077C41.1323 148.14 40.9895 148.244 40.8635 148.39C40.7375 148.537 40.6335 148.728 40.5514 148.964C40.4693 149.201 40.4193 149.488 40.4016 149.826C40.3838 150.166 40.4034 150.458 40.4604 150.701C40.5174 150.943 40.601 151.144 40.711 151.302C40.821 151.461 40.9521 151.579 41.1044 151.657C41.2567 151.735 41.4192 151.779 41.592 151.788C41.7647 151.797 41.9315 151.771 42.0921 151.709C42.2527 151.648 42.3955 151.544 42.5204 151.397C42.6454 151.251 42.7489 151.06 42.8309 150.825C42.913 150.589 42.9629 150.302 42.9807 149.961Z" fill="black"/>
<path d="M47.4369 150.195C47.4178 150.561 47.359 150.875 47.2607 151.138C47.1624 151.401 47.036 151.617 46.8815 151.784C46.7269 151.951 46.5499 152.073 46.3505 152.148C46.1511 152.223 45.9408 152.255 45.7196 152.244C45.4983 152.232 45.293 152.178 45.1037 152.083C44.9143 151.987 44.7515 151.848 44.6153 151.665C44.479 151.482 44.3763 151.255 44.3071 150.983C44.2379 150.711 44.2129 150.393 44.232 150.027C44.2512 149.661 44.3094 149.346 44.4066 149.083C44.5039 148.82 44.6298 148.605 44.7843 148.437C44.9389 148.27 45.1153 148.149 45.3137 148.073C45.512 147.998 45.7218 147.966 45.943 147.977C46.1643 147.989 46.3701 148.043 46.5605 148.138C46.751 148.234 46.9143 148.374 47.0505 148.556C47.1867 148.739 47.29 148.966 47.3603 149.238C47.4305 149.51 47.4561 149.829 47.4369 150.195ZM47.1209 150.178C47.1386 149.84 47.119 149.549 47.062 149.305C47.005 149.062 46.9221 148.861 46.8131 148.702C46.7041 148.543 46.573 148.425 46.4198 148.346C46.2665 148.267 46.1035 148.223 45.9307 148.213C45.7579 148.204 45.5917 148.231 45.4321 148.294C45.2724 148.356 45.1296 148.461 45.0036 148.607C44.8776 148.753 44.7736 148.945 44.6915 149.181C44.6094 149.417 44.5595 149.705 44.5418 150.043C44.5239 150.383 44.5435 150.675 44.6006 150.917C44.6576 151.16 44.7411 151.361 44.8511 151.519C44.9611 151.678 45.0923 151.796 45.2445 151.874C45.3968 151.952 45.5593 151.996 45.7321 152.005C45.9049 152.014 46.0716 151.988 46.2322 151.926C46.3929 151.864 46.5356 151.76 46.6606 151.614C46.7855 151.468 46.889 151.277 46.971 151.042C47.0531 150.806 47.103 150.518 47.1209 150.178Z" fill="black"/>
<path d="M51.5775 150.412C51.5584 150.777 51.4997 151.092 51.4014 151.355C51.3031 151.618 51.1766 151.833 51.0221 152.001C50.8675 152.168 50.6905 152.29 50.4912 152.365C50.2918 152.44 50.0815 152.472 49.8602 152.461C49.639 152.449 49.4337 152.395 49.2443 152.3C49.0549 152.204 48.8921 152.065 48.7559 151.882C48.6197 151.699 48.517 151.472 48.4477 151.2C48.3785 150.928 48.3535 150.609 48.3726 150.243C48.3918 149.878 48.45 149.563 48.5473 149.3C48.6445 149.037 48.7704 148.822 48.925 148.654C49.0795 148.487 49.256 148.365 49.4543 148.29C49.6526 148.215 49.8624 148.183 50.0837 148.194C50.3049 148.206 50.5107 148.26 50.7012 148.355C50.8916 148.451 51.0549 148.59 51.1911 148.773C51.3274 148.956 51.4306 149.183 51.5009 149.455C51.5712 149.727 51.5967 150.046 51.5775 150.412ZM51.2615 150.395C51.2792 150.057 51.2596 149.766 51.2026 149.522C51.1457 149.278 51.0627 149.077 50.9537 148.919C50.8448 148.76 50.7137 148.641 50.5604 148.562C50.4071 148.483 50.2441 148.439 50.0713 148.43C49.8985 148.421 49.7323 148.448 49.5727 148.511C49.413 148.573 49.2702 148.678 49.1443 148.824C49.0183 148.97 48.9142 149.161 48.8321 149.398C48.75 149.634 48.7001 149.921 48.6824 150.26C48.6646 150.6 48.6842 150.891 48.7412 151.134C48.7982 151.377 48.8817 151.577 48.9917 151.736C49.1017 151.895 49.2329 152.013 49.3851 152.091C49.5374 152.169 49.6999 152.212 49.8727 152.222C50.0455 152.231 50.2122 152.204 50.3729 152.143C50.5335 152.081 50.6763 151.977 50.8012 151.831C50.9261 151.685 51.0296 151.494 51.1117 151.258C51.1937 151.023 51.2437 150.735 51.2615 150.395Z" fill="black"/>
<path d="M55.7177 150.628C55.6985 150.994 55.6398 151.309 55.5415 151.572C55.4432 151.835 55.3168 152.05 55.1622 152.218C55.0077 152.385 54.8307 152.506 54.6313 152.582C54.4319 152.657 54.2216 152.689 54.0003 152.677C53.7791 152.666 53.5738 152.612 53.3844 152.516C53.195 152.421 53.0323 152.281 52.896 152.099C52.7598 151.916 52.6571 151.689 52.5879 151.417C52.5186 151.145 52.4936 150.826 52.5128 150.46C52.5319 150.094 52.5901 149.78 52.6874 149.517C52.7846 149.254 52.9105 149.038 53.0651 148.871C53.2197 148.704 53.3961 148.582 53.5944 148.507C53.7928 148.431 54.0026 148.399 54.2238 148.411C54.445 148.423 54.6509 148.476 54.8413 148.572C55.0317 148.668 55.1951 148.807 55.3313 148.99C55.4675 149.172 55.5707 149.4 55.641 149.672C55.7113 149.944 55.7368 150.263 55.7177 150.628ZM55.4016 150.612C55.4193 150.273 55.3997 149.983 55.3428 149.739C55.2858 149.495 55.2028 149.294 55.0939 149.136C54.9849 148.977 54.8538 148.858 54.7005 148.779C54.5472 148.7 54.3842 148.656 54.2114 148.647C54.0387 148.638 53.8724 148.665 53.7128 148.727C53.5532 148.79 53.4104 148.894 53.2844 149.041C53.1584 149.187 53.0544 149.378 52.9723 149.615C52.8902 149.851 52.8402 150.138 52.8225 150.477C52.8047 150.817 52.8243 151.108 52.8813 151.351C52.9383 151.594 53.0219 151.794 53.1319 151.953C53.2419 152.111 53.373 152.23 53.5253 152.308C53.6776 152.386 53.8401 152.429 54.0129 152.438C54.1856 152.447 54.3524 152.421 54.513 152.36C54.6736 152.298 54.8164 152.194 54.9413 152.048C55.0663 151.901 55.1698 151.711 55.2518 151.475C55.3339 151.24 55.3838 150.952 55.4016 150.612Z" fill="black"/>
<path d="M59.8583 150.846C59.8391 151.212 59.7804 151.526 59.6821 151.79C59.5838 152.053 59.4574 152.268 59.3028 152.435C59.1483 152.603 58.9713 152.724 58.7719 152.799C58.5725 152.875 58.3622 152.907 58.141 152.895C57.9197 152.883 57.7144 152.83 57.525 152.734C57.3357 152.638 57.1729 152.499 57.0367 152.316C56.9004 152.134 56.7977 151.907 56.7285 151.635C56.6593 151.363 56.6342 151.044 56.6534 150.678C56.6726 150.312 56.7308 149.998 56.828 149.735C56.9253 149.471 57.0512 149.256 57.2057 149.089C57.3603 148.921 57.5367 148.8 57.7351 148.724C57.9334 148.649 58.1432 148.617 58.3644 148.629C58.5857 148.64 58.7915 148.694 58.9819 148.79C59.1724 148.886 59.3357 149.025 59.4719 149.208C59.6081 149.39 59.7114 149.618 59.7816 149.889C59.8519 150.161 59.8775 150.48 59.8583 150.846ZM59.5422 150.83C59.56 150.491 59.5403 150.2 59.4834 149.957C59.4264 149.713 59.3435 149.512 59.2345 149.353C59.1255 149.195 58.9944 149.076 58.8411 148.997C58.6879 148.918 58.5248 148.874 58.3521 148.865C58.1793 148.856 58.0131 148.883 57.8534 148.945C57.6938 149.008 57.551 149.112 57.425 149.259C57.299 149.405 57.195 149.596 57.1129 149.832C57.0308 150.069 56.9809 150.356 56.9632 150.694C56.9453 151.035 56.9649 151.326 57.0219 151.569C57.079 151.811 57.1625 152.012 57.2725 152.171C57.3825 152.329 57.5136 152.447 57.6659 152.525C57.8182 152.603 57.9807 152.647 58.1535 152.656C58.3263 152.665 58.493 152.639 58.6536 152.577C58.8143 152.516 58.957 152.412 59.082 152.265C59.2069 152.119 59.3104 151.928 59.3924 151.693C59.4745 151.458 59.5244 151.17 59.5422 150.83Z" fill="black"/>
<path d="M63.9984 151.063C63.9793 151.429 63.9206 151.743 63.8223 152.006C63.724 152.269 63.5975 152.485 63.443 152.652C63.2884 152.82 63.1114 152.941 62.9121 153.016C62.7127 153.092 62.5024 153.123 62.2811 153.112C62.0599 153.1 61.8546 153.047 61.6652 152.951C61.4758 152.855 61.313 152.716 61.1768 152.533C61.0406 152.351 60.9378 152.123 60.8686 151.851C60.7994 151.58 60.7744 151.261 60.7935 150.895C60.8127 150.529 60.8709 150.215 60.9682 149.951C61.0654 149.688 61.1913 149.473 61.3459 149.306C61.5004 149.138 61.6769 149.017 61.8752 148.941C62.0735 148.866 62.2833 148.834 62.5046 148.846C62.7258 148.857 62.9316 148.911 63.1221 149.007C63.3125 149.102 63.4758 149.242 63.612 149.424C63.7483 149.607 63.8515 149.834 63.9218 150.106C63.9921 150.378 64.0176 150.697 63.9984 151.063ZM63.6824 151.046C63.7001 150.708 63.6805 150.417 63.6235 150.173C63.5665 149.93 63.4836 149.729 63.3746 149.57C63.2657 149.412 63.1346 149.293 62.9813 149.214C62.828 149.135 62.665 149.091 62.4922 149.082C62.3194 149.073 62.1532 149.099 61.9936 149.162C61.8339 149.225 61.6911 149.329 61.5652 149.475C61.4392 149.622 61.3351 149.813 61.253 150.049C61.1709 150.285 61.121 150.573 61.1033 150.911C61.0855 151.251 61.1051 151.543 61.1621 151.785C61.2191 152.028 61.3026 152.229 61.4126 152.387C61.5226 152.546 61.6538 152.664 61.806 152.742C61.9583 152.82 62.1208 152.864 62.2936 152.873C62.4664 152.882 62.6331 152.856 62.7938 152.794C62.9544 152.732 63.0972 152.629 63.2221 152.482C63.347 152.336 63.4505 152.145 63.5326 151.91C63.6146 151.674 63.6646 151.387 63.6824 151.046Z" fill="black"/>
<path d="M68.1391 151.28C68.1199 151.646 68.0612 151.96 67.9629 152.223C67.8646 152.486 67.7382 152.701 67.5836 152.869C67.429 153.036 67.2521 153.158 67.0527 153.233C66.8533 153.308 66.643 153.34 66.4217 153.329C66.2005 153.317 65.9952 153.263 65.8058 153.168C65.6164 153.072 65.4536 152.933 65.3174 152.75C65.1812 152.567 65.0785 152.34 65.0093 152.068C64.94 151.796 64.915 151.478 64.9342 151.112C64.9533 150.746 65.0115 150.431 65.1088 150.168C65.206 149.905 65.3319 149.69 65.4865 149.522C65.641 149.355 65.8175 149.233 66.0158 149.158C66.2142 149.083 66.4239 149.051 66.6452 149.062C66.8664 149.074 67.0723 149.128 67.2627 149.223C67.4531 149.319 67.6164 149.458 67.7527 149.641C67.8889 149.824 67.9921 150.051 68.0624 150.323C68.1327 150.595 68.1582 150.914 68.1391 151.28ZM67.823 151.263C67.8407 150.925 67.8211 150.634 67.7641 150.39C67.7072 150.147 67.6242 149.946 67.5153 149.787C67.4063 149.628 67.2752 149.51 67.1219 149.431C66.9686 149.352 66.8056 149.307 66.6328 149.298C66.46 149.289 66.2938 149.316 66.1342 149.379C65.9746 149.441 65.8318 149.546 65.7058 149.692C65.5798 149.838 65.4758 150.03 65.3936 150.266C65.3115 150.502 65.2616 150.79 65.2439 151.128C65.2261 151.468 65.2457 151.76 65.3027 152.002C65.3597 152.245 65.4432 152.446 65.5533 152.604C65.6633 152.763 65.7944 152.881 65.9467 152.959C66.0989 153.037 66.2615 153.081 66.4343 153.09C66.607 153.099 66.7737 153.072 66.9344 153.011C67.095 152.949 67.2378 152.845 67.3627 152.699C67.4877 152.553 67.5911 152.362 67.6732 152.127C67.7552 151.891 67.8052 151.603 67.823 151.263Z" fill="black"/>
<path d="M72.2792 151.497C72.26 151.862 72.2013 152.177 72.103 152.44C72.0047 152.703 71.8783 152.918 71.7237 153.086C71.5692 153.253 71.3922 153.375 71.1928 153.45C70.9934 153.525 70.7831 153.557 70.5619 153.545C70.3406 153.534 70.1353 153.48 69.9459 153.384C69.7566 153.289 69.5938 153.15 69.4576 152.967C69.3213 152.784 69.2186 152.557 69.1494 152.285C69.0802 152.013 69.0551 151.694 69.0743 151.328C69.0935 150.963 69.1517 150.648 69.2489 150.385C69.3462 150.122 69.4721 149.907 69.6266 149.739C69.7812 149.572 69.9576 149.45 70.156 149.375C70.3543 149.299 70.5641 149.268 70.7853 149.279C71.0066 149.291 71.2124 149.344 71.4028 149.44C71.5933 149.536 71.7566 149.675 71.8928 149.858C72.029 150.041 72.1323 150.268 72.2025 150.54C72.2728 150.812 72.2984 151.131 72.2792 151.497ZM71.9631 151.48C71.9809 151.142 71.9612 150.851 71.9043 150.607C71.8473 150.363 71.7643 150.162 71.6554 150.004C71.5464 149.845 71.4153 149.726 71.262 149.647C71.1088 149.568 70.9457 149.524 70.773 149.515C70.6002 149.506 70.434 149.533 70.2743 149.596C70.1147 149.658 69.9719 149.763 69.8459 149.909C69.7199 150.055 69.6159 150.246 69.5338 150.483C69.4517 150.719 69.4018 151.006 69.3841 151.345C69.3662 151.685 69.3858 151.976 69.4428 152.219C69.4999 152.462 69.5834 152.662 69.6934 152.821C69.8034 152.98 69.9345 153.098 70.0868 153.176C70.2391 153.254 70.4016 153.297 70.5744 153.306C70.7472 153.316 70.9139 153.289 71.0745 153.228C71.2352 153.166 71.3779 153.062 71.5029 152.916C71.6278 152.77 71.7313 152.579 71.8133 152.343C71.8954 152.108 71.9453 151.82 71.9631 151.48Z" fill="black"/>
<path d="M76.4198 151.714C76.4007 152.08 76.3419 152.395 76.2437 152.658C76.1454 152.921 76.0189 153.136 75.8644 153.303C75.7098 153.471 75.5328 153.592 75.3334 153.668C75.1341 153.743 74.9237 153.775 74.7025 153.763C74.4812 153.752 74.2759 153.698 74.0866 153.602C73.8972 153.507 73.7344 153.367 73.5982 153.185C73.462 153.002 73.3592 152.775 73.29 152.503C73.2208 152.231 73.1958 151.912 73.2149 151.546C73.2341 151.18 73.2923 150.866 73.3895 150.603C73.4868 150.34 73.6127 150.124 73.7672 149.957C73.9218 149.789 74.0982 149.668 74.2966 149.593C74.4949 149.517 74.7047 149.485 74.9259 149.497C75.1472 149.509 75.353 149.562 75.5435 149.658C75.7339 149.754 75.8972 149.893 76.0334 150.076C76.1696 150.258 76.2729 150.486 76.3432 150.758C76.4134 151.03 76.439 151.348 76.4198 151.714ZM76.1038 151.698C76.1215 151.359 76.1019 151.068 76.0449 150.825C75.9879 150.581 75.905 150.38 75.796 150.222C75.6871 150.063 75.5559 149.944 75.4027 149.865C75.2494 149.786 75.0864 149.742 74.9136 149.733C74.7408 149.724 74.5746 149.751 74.415 149.813C74.2553 149.876 74.1125 149.98 73.9865 150.127C73.8606 150.273 73.7565 150.464 73.6744 150.701C73.5923 150.937 73.5424 151.224 73.5247 151.562C73.5069 151.903 73.5264 152.194 73.5835 152.437C73.6405 152.679 73.724 152.88 73.834 153.039C73.944 153.197 74.0752 153.316 74.2274 153.394C74.3797 153.472 74.5422 153.515 74.715 153.524C74.8878 153.533 75.0545 153.507 75.2151 153.445C75.3758 153.384 75.5186 153.28 75.6435 153.134C75.7684 152.987 75.8719 152.796 75.954 152.561C76.036 152.326 76.0859 152.038 76.1038 151.698Z" fill="black"/>
<path d="M80.56 151.931C80.5408 152.297 80.4821 152.611 80.3838 152.874C80.2855 153.138 80.1591 153.353 80.0045 153.52C79.8499 153.688 79.673 153.809 79.4736 153.884C79.2742 153.96 79.0639 153.992 78.8426 153.98C78.6214 153.968 78.4161 153.915 78.2267 153.819C78.0373 153.723 77.8745 153.584 77.7383 153.401C77.6021 153.219 77.4994 152.991 77.4302 152.72C77.3609 152.448 77.3359 152.129 77.3551 151.763C77.3742 151.397 77.4324 151.083 77.5297 150.82C77.6269 150.556 77.7528 150.341 77.9074 150.174C78.0619 150.006 78.2384 149.885 78.4367 149.809C78.635 149.734 78.8448 149.702 79.0661 149.714C79.2873 149.725 79.4932 149.779 79.6836 149.875C79.874 149.971 80.0373 150.11 80.1736 150.293C80.3098 150.475 80.413 150.703 80.4833 150.974C80.5536 151.246 80.5791 151.565 80.56 151.931ZM80.2439 151.915C80.2616 151.576 80.242 151.285 80.185 151.042C80.1281 150.798 80.0451 150.597 79.9362 150.438C79.8272 150.28 79.6961 150.161 79.5428 150.082C79.3895 150.003 79.2265 149.959 79.0537 149.95C78.8809 149.941 78.7147 149.968 78.5551 150.03C78.3955 150.093 78.2527 150.197 78.1267 150.343C78.0007 150.49 77.8966 150.681 77.8145 150.917C77.7324 151.154 77.6825 151.441 77.6648 151.779C77.647 152.12 77.6666 152.411 77.7236 152.654C77.7806 152.896 77.8641 153.097 77.9741 153.256C78.0842 153.414 78.2153 153.532 78.3676 153.61C78.5198 153.688 78.6824 153.732 78.8551 153.741C79.0279 153.75 79.1946 153.724 79.3553 153.662C79.5159 153.601 79.6587 153.497 79.7836 153.35C79.9086 153.204 80.012 153.013 80.0941 152.778C80.1761 152.543 80.2261 152.255 80.2439 151.915Z" fill="black"/>
<path d="M84.7006 152.148C84.6814 152.514 84.6227 152.828 84.5244 153.091C84.4261 153.354 84.2997 153.57 84.1451 153.737C83.9906 153.904 83.8136 154.026 83.6142 154.101C83.4148 154.177 83.2045 154.208 82.9833 154.197C82.762 154.185 82.5567 154.132 82.3673 154.036C82.178 153.94 82.0152 153.801 81.8789 153.618C81.7427 153.436 81.64 153.208 81.5708 152.936C81.5016 152.665 81.4765 152.346 81.4957 151.98C81.5149 151.614 81.5731 151.299 81.6703 151.036C81.7675 150.773 81.8934 150.558 82.048 150.39C82.2026 150.223 82.379 150.102 82.5773 150.026C82.7757 149.951 82.9855 149.919 83.2067 149.931C83.428 149.942 83.6338 149.996 83.8242 150.092C84.0146 150.187 84.178 150.327 84.3142 150.509C84.4504 150.692 84.5537 150.919 84.6239 151.191C84.6942 151.463 84.7198 151.782 84.7006 152.148ZM84.3845 152.131C84.4022 151.793 84.3826 151.502 84.3257 151.258C84.2687 151.015 84.1857 150.814 84.0768 150.655C83.9678 150.497 83.8367 150.378 83.6834 150.299C83.5302 150.22 83.3671 150.176 83.1944 150.167C83.0216 150.158 82.8554 150.184 82.6957 150.247C82.5361 150.31 82.3933 150.414 82.2673 150.56C82.1413 150.707 82.0373 150.898 81.9552 151.134C81.8731 151.37 81.8232 151.658 81.8054 151.996C81.7876 152.336 81.8072 152.628 81.8642 152.87C81.9212 153.113 82.0048 153.314 82.1148 153.472C82.2248 153.631 82.3559 153.749 82.5082 153.827C82.6605 153.905 82.823 153.949 82.9958 153.958C83.1686 153.967 83.3353 153.941 83.4959 153.879C83.6565 153.817 83.7993 153.714 83.9242 153.567C84.0492 153.421 84.1527 153.23 84.2347 152.995C84.3168 152.759 84.3667 152.472 84.3845 152.131Z" fill="black"/>
<path d="M88.8407 152.366C88.8216 152.732 88.7628 153.046 88.6645 153.309C88.5663 153.572 88.4398 153.787 88.2853 153.955C88.1307 154.122 87.9537 154.244 87.7543 154.319C87.555 154.394 87.3446 154.426 87.1234 154.415C86.9021 154.403 86.6968 154.349 86.5075 154.254C86.3181 154.158 86.1553 154.019 86.0191 153.836C85.8829 153.653 85.7801 153.426 85.7109 153.154C85.6417 152.882 85.6167 152.563 85.6358 152.198C85.655 151.832 85.7132 151.517 85.8104 151.254C85.9077 150.991 86.0336 150.776 86.1881 150.608C86.3427 150.441 86.5191 150.319 86.7175 150.244C86.9158 150.169 87.1256 150.137 87.3469 150.148C87.5681 150.16 87.7739 150.214 87.9644 150.309C88.1548 150.405 88.3181 150.544 88.4543 150.727C88.5905 150.91 88.6938 151.137 88.7641 151.409C88.8343 151.681 88.8599 152 88.8407 152.366ZM88.5247 152.349C88.5424 152.011 88.5228 151.72 88.4658 151.476C88.4088 151.233 88.3259 151.031 88.2169 150.873C88.108 150.714 87.9768 150.596 87.8236 150.517C87.6703 150.437 87.5073 150.393 87.3345 150.384C87.1617 150.375 86.9955 150.402 86.8359 150.465C86.6762 150.527 86.5334 150.632 86.4074 150.778C86.2815 150.924 86.1774 151.116 86.0953 151.352C86.0132 151.588 85.9633 151.876 85.9456 152.214C85.9277 152.554 85.9474 152.846 86.0044 153.088C86.0614 153.331 86.1449 153.531 86.2549 153.69C86.3649 153.849 86.4961 153.967 86.6483 154.045C86.8006 154.123 86.9631 154.167 87.1359 154.176C87.3087 154.185 87.4754 154.158 87.636 154.097C87.7967 154.035 87.9395 153.931 88.0644 153.785C88.1893 153.639 88.2928 153.448 88.3749 153.213C88.4569 152.977 88.5068 152.689 88.5247 152.349Z" fill="black"/>
<path d="M92.9814 152.582C92.9622 152.948 92.9035 153.263 92.8052 153.526C92.7069 153.789 92.5805 154.004 92.4259 154.172C92.2713 154.339 92.0944 154.46 91.895 154.536C91.6956 154.611 91.4853 154.643 91.264 154.631C91.0428 154.62 90.8375 154.566 90.6481 154.47C90.4587 154.375 90.2959 154.235 90.1597 154.053C90.0235 153.87 89.9208 153.643 89.8515 153.371C89.7823 153.099 89.7573 152.78 89.7765 152.414C89.7956 152.049 89.8538 151.734 89.9511 151.471C90.0483 151.208 90.1742 150.992 90.3288 150.825C90.4833 150.658 90.6598 150.536 90.8581 150.461C91.0564 150.385 91.2662 150.354 91.4875 150.365C91.7087 150.377 91.9146 150.43 92.105 150.526C92.2954 150.622 92.4587 150.761 92.595 150.944C92.7312 151.127 92.8344 151.354 92.9047 151.626C92.975 151.898 93.0005 152.217 92.9814 152.582ZM92.6653 152.566C92.683 152.228 92.6634 151.937 92.6064 151.693C92.5495 151.449 92.4665 151.248 92.3575 151.09C92.2486 150.931 92.1175 150.812 91.9642 150.733C91.8109 150.654 91.6479 150.61 91.4751 150.601C91.3023 150.592 91.1361 150.619 90.9765 150.682C90.8169 150.744 90.674 150.849 90.5481 150.995C90.4221 151.141 90.318 151.332 90.2359 151.569C90.1538 151.805 90.1039 152.092 90.0862 152.431C90.0684 152.771 90.088 153.062 90.145 153.305C90.202 153.548 90.2855 153.748 90.3955 153.907C90.5055 154.066 90.6367 154.184 90.789 154.262C90.9412 154.34 91.1038 154.383 91.2765 154.392C91.4493 154.401 91.616 154.375 91.7767 154.314C91.9373 154.252 92.0801 154.148 92.205 154.002C92.3299 153.855 92.4334 153.665 92.5155 153.429C92.5975 153.194 92.6475 152.906 92.6653 152.566Z" fill="black"/>
<path d="M97.1215 152.799C97.1023 153.165 97.0436 153.48 96.9453 153.743C96.847 154.006 96.7206 154.221 96.566 154.388C96.4115 154.556 96.2345 154.677 96.0351 154.753C95.8357 154.828 95.6254 154.86 95.4042 154.848C95.1829 154.837 94.9776 154.783 94.7882 154.687C94.5989 154.591 94.4361 154.452 94.2998 154.27C94.1636 154.087 94.0609 153.86 93.9917 153.588C93.9225 153.316 93.8974 152.997 93.9166 152.631C93.9358 152.265 93.994 151.951 94.0912 151.688C94.1884 151.425 94.3143 151.209 94.4689 151.042C94.6235 150.874 94.7999 150.753 94.9982 150.678C95.1966 150.602 95.4064 150.57 95.6276 150.582C95.8489 150.594 96.0547 150.647 96.2451 150.743C96.4355 150.839 96.5989 150.978 96.7351 151.161C96.8713 151.343 96.9746 151.571 97.0448 151.843C97.1151 152.115 97.1407 152.433 97.1215 152.799ZM96.8054 152.783C96.8232 152.444 96.8035 152.153 96.7466 151.91C96.6896 151.666 96.6066 151.465 96.4977 151.307C96.3887 151.148 96.2576 151.029 96.1043 150.95C95.9511 150.871 95.788 150.827 95.6152 150.818C95.4425 150.809 95.2763 150.836 95.1166 150.898C94.957 150.961 94.8142 151.065 94.6882 151.212C94.5622 151.358 94.4582 151.549 94.3761 151.785C94.294 152.022 94.2441 152.309 94.2263 152.647C94.2085 152.988 94.2281 153.279 94.2851 153.522C94.3421 153.764 94.4257 153.965 94.5357 154.124C94.6457 154.282 94.7768 154.401 94.9291 154.479C95.0814 154.557 95.2439 154.6 95.4167 154.609C95.5895 154.618 95.7562 154.592 95.9168 154.53C96.0774 154.469 96.2202 154.365 96.3451 154.219C96.4701 154.072 96.5736 153.881 96.6556 153.646C96.7377 153.411 96.7876 153.123 96.8054 152.783Z" fill="black"/>
<path d="M101.262 153.017C101.243 153.383 101.184 153.697 101.086 153.96C100.988 154.224 100.861 154.439 100.707 154.606C100.552 154.774 100.375 154.895 100.176 154.97C99.9763 155.046 99.766 155.078 99.5448 155.066C99.3235 155.054 99.1182 155.001 98.9289 154.905C98.7395 154.809 98.5767 154.67 98.4405 154.487C98.3042 154.305 98.2015 154.077 98.1323 153.806C98.0631 153.534 98.0381 153.215 98.0572 152.849C98.0764 152.483 98.1346 152.169 98.2318 151.905C98.3291 151.642 98.455 151.427 98.6095 151.26C98.7641 151.092 98.9405 150.971 99.1389 150.895C99.3372 150.82 99.547 150.788 99.7682 150.8C99.9895 150.811 100.195 150.865 100.386 150.961C100.576 151.057 100.739 151.196 100.876 151.378C101.012 151.561 101.115 151.788 101.185 152.06C101.256 152.332 101.281 152.651 101.262 153.017ZM100.946 153C100.964 152.662 100.944 152.371 100.887 152.128C100.83 151.884 100.747 151.683 100.638 151.524C100.529 151.366 100.398 151.247 100.245 151.168C100.092 151.089 99.9287 151.045 99.7559 151.036C99.5831 151.027 99.4169 151.053 99.2573 151.116C99.0976 151.179 98.9548 151.283 98.8288 151.429C98.7028 151.576 98.5988 151.767 98.5167 152.003C98.4346 152.24 98.3847 152.527 98.367 152.865C98.3491 153.205 98.3687 153.497 98.4258 153.74C98.4828 153.982 98.5663 154.183 98.6763 154.341C98.7863 154.5 98.9175 154.618 99.0697 154.696C99.222 154.774 99.3845 154.818 99.5573 154.827C99.7301 154.836 99.8968 154.81 100.057 154.748C100.218 154.687 100.361 154.583 100.486 154.436C100.611 154.29 100.714 154.099 100.796 153.864C100.878 153.629 100.928 153.341 100.946 153Z" fill="black"/>
<path fill-rule="evenodd" clip-rule="evenodd" d="M46.418 51.8294C43.356 51.6688 42.0026 52.6288 40.5739 55.349C40.4385 55.6069 40.252 56.2886 40.524 56.3029L52.387 56.9251C52.6589 56.9394 52.8521 56.6377 52.7443 56.3671C51.6075 53.5123 49.4801 51.99 46.418 51.8294Z" fill="#FF930F"/>
<path fill-rule="evenodd" clip-rule="evenodd" d="M56.6369 63.8438C56.8967 63.8575 57.089 64.2184 57.0663 64.65C57.0437 65.0816 56.8148 65.4205 56.5551 65.4069L38.6811 64.4693C38.4213 64.4557 38.2291 64.0948 38.2517 63.6632C38.2743 63.2316 38.5032 62.8927 38.763 62.9063L56.6369 63.8438ZM48.4848 45.2416C48.9136 45.2641 49.2501 45.4959 49.2363 45.7593L49.2105 46.2356L52.362 46.4016L52.1622 50.2173L49.012 50.0514L48.9617 51.0201C52.572 51.3784 55.1061 53.1979 56.5027 56.4487C56.6425 56.7741 56.3955 57.1353 56.0458 57.1169L55.2461 57.0749L54.9964 61.8439L55.7961 61.8866C56.0559 61.9003 56.2481 62.2612 56.2255 62.6928C56.2029 63.1244 55.974 63.4633 55.7142 63.4496L39.7218 62.6108C39.462 62.5972 39.2697 62.2363 39.2923 61.8046C39.3149 61.373 39.5438 61.0342 39.8036 61.0478L41.2138 61.121L41.4635 56.352L40.0534 56.2781C39.7037 56.2598 39.4958 55.8747 39.6688 55.5658C41.3446 52.5729 43.9433 51.0299 47.4065 50.9582L47.6833 45.6779C47.6971 45.4145 48.0559 45.2192 48.4848 45.2416ZM45.2261 56.5494L43.0171 56.4335L42.7674 61.2025L44.9764 61.3184L45.2261 56.5494ZM49.93 56.7961L46.7797 56.6309L46.53 61.3999L49.6802 61.5651L49.93 56.7961ZM53.6938 56.9935L51.4836 56.8776L51.2338 61.6466L53.4441 61.7625L53.6938 56.9935ZM48.2994 51.9278C45.037 51.7567 42.6093 52.8655 40.9595 55.2747L40.8982 55.3659L55.2999 56.1213L55.2494 56.0242C53.9066 53.5412 51.714 52.1907 48.6224 51.9489L48.2994 51.9278ZM51.3713 47.3062L49.1605 47.1902L49.0619 49.0981L51.2714 49.214L51.3713 47.3062Z" fill="black"/>
<path d="M214.386 54.3945L203.61 53.8293C202.168 53.7537 200.937 54.8617 200.862 56.3041L200.539 62.465C200.464 63.9074 201.571 65.138 203.013 65.2136L213.789 65.7789C215.232 65.8545 216.462 64.7465 216.537 63.3041L216.86 57.1432C216.935 55.7008 215.828 54.4702 214.386 54.3945Z" fill="white"/>
<mask id="mask4_907_21793" style="mask-type:luminance" maskUnits="userSpaceOnUse" x="200" y="53" width="17" height="13">
<path d="M214.385 54.3948L203.609 53.8294C202.167 53.7537 200.937 54.8616 200.861 56.304L200.539 62.4647C200.463 63.9071 201.571 65.1377 203.013 65.2133L213.789 65.7788C215.232 65.8545 216.462 64.7466 216.537 63.3042L216.86 57.1435C216.935 55.7011 215.827 54.4705 214.385 54.3948Z" fill="white"/>
</mask>
<g mask="url(#mask4_907_21793)">
<path d="M216.519 63.639L200.521 62.7998L200.402 65.0763L216.4 65.9154L216.519 63.639Z" fill="#1DBB63"/>
</g>
<mask id="mask5_907_21793" style="mask-type:luminance" maskUnits="userSpaceOnUse" x="200" y="53" width="17" height="13">
<path d="M214.385 54.3948L203.609 53.8294C202.167 53.7537 200.937 54.8616 200.861 56.304L200.539 62.4647C200.463 63.9071 201.571 65.1377 203.013 65.2133L213.789 65.7788C215.232 65.8545 216.462 64.7466 216.537 63.3042L216.86 57.1435C216.935 55.7011 215.827 54.4705 214.385 54.3948Z" fill="white"/>
</mask>
<g mask="url(#mask5_907_21793)">
<path d="M216.837 57.5667L200.839 56.7275L200.68 59.7629L216.678 60.6021L216.837 57.5667Z" fill="#222B82"/>
</g>
<mask id="mask6_907_21793" style="mask-type:luminance" maskUnits="userSpaceOnUse" x="200" y="53" width="17" height="13">
<path d="M214.385 54.3948L203.609 53.8294C202.167 53.7537 200.937 54.8616 200.861 56.304L200.539 62.4647C200.463 63.9071 201.571 65.1377 203.013 65.2133L213.789 65.7788C215.232 65.8545 216.462 64.7466 216.537 63.3042L216.86 57.1435C216.935 55.7011 215.827 54.4705 214.385 54.3948Z" fill="white"/>
</mask>
<g mask="url(#mask6_907_21793)">
<path d="M216.679 60.6039L200.681 59.7646L200.522 62.8L216.52 63.6393L216.679 60.6039Z" fill="#FFD741"/>
</g>
<mask id="mask7_907_21793" style="mask-type:luminance" maskUnits="userSpaceOnUse" x="200" y="53" width="17" height="13">
<path d="M214.385 54.3948L203.609 53.8294C202.167 53.7537 200.937 54.8616 200.861 56.304L200.539 62.4647C200.463 63.9071 201.571 65.1377 203.013 65.2133L213.789 65.7788C215.232 65.8545 216.462 64.7466 216.537 63.3042L216.86 57.1435C216.935 55.7011 215.827 54.4705 214.385 54.3948Z" fill="white"/>
</mask>
<g mask="url(#mask7_907_21793)">
<path d="M216.996 54.5316L200.999 53.6924L200.84 56.7278L216.838 57.567L216.996 54.5316Z" fill="#F4374A"/>
</g>
<path fill-rule="evenodd" clip-rule="evenodd" d="M34.0253 36.8905L222.291 46.8251C225.173 46.9772 227.388 49.4371 227.238 52.3207L221.253 167.392C221.103 170.277 218.643 172.494 215.759 172.343L215.755 172.343L27.4901 162.405C24.6075 162.253 22.3933 159.793 22.5434 156.91L28.528 41.8386C28.6782 38.9536 31.138 36.7367 34.0221 36.887L34.0255 36.8871L34.0253 36.8905Z" stroke="#2E3031"/>
</svg>
