<?xml version="1.0" encoding="UTF-8"?>
<svg width="76px" height="30px" viewBox="0 0 76 30" version="1.1" xmlns="http://www.w3.org/2000/svg" xmlns:xlink="http://www.w3.org/1999/xlink">
    <title>2 Logo / 0 Default / Logo</title>
    <g id="Login-&amp;-Password" stroke="none" stroke-width="1" fill="none" fill-rule="evenodd">
        <g id="Shape" transform="translate(-2.000000, -1.000000)">
            <path d="M9.97185968,21.625 C12.1495924,26.8950199 17.8438206,30.4074366 24.2164032,30.4141322 C25.3679306,30.4152482 26.5006148,30.3025384 27.6066793,30.0793507 C25.4672311,30.690606 23.230277,31 20.9364942,31 C13.3541961,30.9989044 6.07895946,27.4586639 2.21134216,21.9347519 L2,21.625837 L9.97185968,21.625 Z M37.15,23.13347 C34.4778582,27.1419213 29.7512121,29.5194285 24.4488023,29.5194285 C20.0445839,29.5194285 16.0474379,27.9032704 13.2640317,25.041446 C15.547346,26.7825891 18.3914691,27.7269521 21.4132565,27.7269521 C25.2999792,27.7269521 28.8883216,26.1565525 31.3293347,23.403313 L31.5619516,23.133191 L37.15,23.13347 Z M17.4053679,7.07223899 C16.4752638,8.65466889 15.7289975,10.3736117 15.4948916,12.0910804 L15.4647307,12.334327 L15.4647307,12.334327 C14.9117813,16.9577821 16.5602888,20.3331608 18.7175098,22.5786957 C19.7912371,23.699989 20.9804375,24.5547429 22.0978263,25.1933758 L22.425,25.375 L22.0929431,25.3661547 L22.0929431,25.3661547 C19.2886874,25.2375902 17.2724262,24.4989451 16.2850929,24.0486193 L16.1621652,23.9915901 C10.6938541,21.4668375 8.29333533,15.8350146 8.69260793,11.5226204 C10.883724,9.79630641 15.0651709,8.00601121 17.4053679,7.07223899 Z M20.0905081,6.29355493 C25.4860317,4.42365174 31.0347955,3.58806271 36.2,3.86403707 L35.7447215,4.10070307 C34.2746144,4.88580157 31.5230789,6.55012201 29.0676571,9.10537229 L28.7620361,9.42697227 C28.438794,9.74013935 24.9325835,13.2207494 24.279476,17.8564949 L24.2402285,18.1672338 C24.2206529,18.3134766 24.2050536,18.4582452 24.1931248,18.6030138 C24.1600909,18.9937564 24.1549294,19.3780307 24.1764788,19.7544687 L24.2068888,20.1282439 C24.3968333,21.9185391 25.2000445,23.491534 26.5513723,24.7475711 C25.003065,24.2478099 22.8417969,23.275413 21.0393127,21.6346039 C18.9393852,19.7135765 17.2984865,16.9591482 17.5219763,12.8917007 L17.5484334,12.5065161 C17.5527156,12.4342793 17.5600564,12.3605682 17.5677032,12.2842035 C17.7542831,10.3526778 18.8251293,8.195891 20.0905081,6.29355493 Z M23.1697687,1.70713865 C23.844265,0.42783992 28.8022893,0.840475527 32.4,3.30441707 C26.5592317,3.52260697 21,5.6875 21,5.6875 C21.7859192,4.22691113 22.3123481,2.94825414 23.1697687,1.70713865 Z" fill="#BA2419"></path>
            <path d="M72.573072,7.5625 C74.3678206,7.5625 75.2563897,7.76551312 76.0524307,8.37144831 C76.8329508,8.93392502 77.3528996,10.1020265 77.3528996,11.2257383 C77.3528996,12.2839519 76.8971236,13.3191947 76.2058484,13.881361 C75.7945457,14.2181641 75.5366606,14.3314665 74.7585283,14.5108879 L75.1649484,14.6190941 C75.8371945,14.8081137 76.1424792,14.9617098 76.6377462,15.3446696 C77.4812451,15.9943737 78,17.1419876 78,18.4246332 C78,19.7274559 77.5472088,20.7620778 76.5711856,21.5275677 C75.6980846,22.2246561 74.7454005,22.5260598 73.1960373,22.559107 L72.8984131,22.5621896 L66.6960391,22.5625 L66.6706394,22.5468301 C66.6199677,22.5115149 66.5257408,22.4209496 66.7037995,22.3209951 L66.7504461,22.2948133 C66.8209848,22.2509426 66.9526766,22.1513543 67.0104193,21.9916529 L67.0351102,21.8885834 L67.0351102,8.20785822 C67.0148137,7.95735121 66.7064858,7.80059031 66.7064858,7.80059031 C66.5522722,7.71325949 66.5986358,7.63655185 66.6466797,7.59511684 L66.6951437,7.5625 L72.573072,7.5625 Z M37.5909742,7.5625 C38.0828286,7.5625 38.227165,7.65666123 38.3750866,8.09523936 L42.1269361,20.1766302 L45.6808243,8.46209025 L45.7717953,8.18130165 C45.9409888,7.68671947 46.0491374,7.57794914 46.3742805,7.56414176 L46.4602479,7.5625 L49.2321617,7.5625 C49.3565456,7.5625 49.4644791,7.66079469 49.4927788,7.78837904 L49.5,7.85429256 L49.5,22.2514615 C49.4920641,22.4904831 49.3299894,22.5458524 49.2583482,22.5586575 L49.2247926,22.5625 L47.0976747,22.5621896 C46.9953982,22.5625 46.8729231,22.4806194 46.839839,22.3420935 L46.8312536,22.2682241 L46.8312536,11.1801069 L43.3207297,22.1347445 L43.3207297,22.1347445 C43.2159247,22.407912 43.0378908,22.5331828 42.7245211,22.5576483 L42.6005423,22.5621896 L40.937394,22.5621896 C40.6028694,22.5621896 40.4811579,22.4787189 40.310958,22.0312614 L40.2206077,21.7759018 L36.7690366,11.1801069 L36.7690366,22.2682241 C36.7690366,22.4031227 36.677831,22.5227412 36.5623515,22.5541649 L36.5028988,22.5621896 L34.3967545,22.5625 C34.3967545,22.5625 34.3009563,22.5106603 34.3015231,22.4411267 C34.3017357,22.4141204 34.3156591,22.3836218 34.3538154,22.3515955 L34.4458405,22.292233 C34.5143944,22.2471982 34.6419585,22.145112 34.6951232,21.9821852 L34.7170268,21.8770979 L34.7170268,8.26311256 C34.6952029,7.94959077 34.4004391,7.80183198 34.4004391,7.80183198 C34.253624,7.71491505 34.2982795,7.63751759 34.3443626,7.59557672 L34.3908026,7.5625 L37.5909742,7.5625 Z M59.1463336,7.5625 C60.6296477,7.5625 62.1758771,7.79926853 63.1217765,8.16754199 C63.5251164,8.32400603 63.7113055,8.49665323 63.7445099,8.7811333 L63.75,8.88023315 L63.75,10.8832233 L63.7331477,10.9092597 C63.7006634,10.9537656 63.6249442,11.03098 63.5389392,10.9366006 C63.5036075,10.8975368 63.4760239,10.8465451 63.4760239,10.8465451 C63.4177575,10.7487364 63.3421351,10.6801511 63.2785999,10.6315449 L63.2391229,10.6058254 L63.2391229,10.6058254 L63.1896507,10.5769749 C62.6956259,10.3077029 61.5399054,9.73904091 59.6852979,9.72174548 C56.4952118,9.69192576 54.3188993,11.8610117 54.3188993,14.9715061 C54.3188993,15.2005215 54.3325361,15.4208892 54.3533013,15.6376785 C54.7292436,18.0605302 56.5875703,19.9281389 59.7807556,19.9833054 C60.957432,20.0036746 62.0506589,19.6810288 62.9578108,19.1227874 L63.2732102,18.9174474 C63.411573,18.8358854 63.663328,18.7273487 63.7306691,18.9667263 L63.7450412,19.049352 L63.7450412,19.5547961 L63.75,19.6159265 L63.7493801,21.1249904 L63.7493801,21.1249904 L63.7443184,21.2065775 C63.7383852,21.2883646 63.7070761,21.4657514 63.5626931,21.5762536 L63.4657963,21.6331749 L63.4657963,21.6331749 L63.4264355,21.6538058 L63.4264355,21.6538058 L63.368169,21.6746796 L63.368169,21.6746796 C60.9780064,22.6837787 58.9036602,22.6700616 57.463426,22.421067 C56.9083455,22.3310115 56.4059526,22.1944372 55.9562475,22.026254 C55.7196693,21.9402738 55.5437853,21.8644406 55.4409711,21.8153209 L55.38815,21.7891873 C54.6111612,21.4265795 54.0086617,20.9819676 53.5701139,20.5871546 C52.1593229,19.3699139 51.4,17.5586645 51.4,15.2288502 C51.4,10.6070928 54.4763426,7.5625 59.1463336,7.5625 Z M72.5071084,9.40420771 L69.7840931,9.40420771 L69.7840931,20.6962693 L72.443831,20.6962693 C73.5234261,20.6962693 74.0224814,20.5360938 74.4746757,20.1316197 C74.9268699,19.7054163 75.1880382,18.9871099 75.1880382,18.2436597 C75.1880382,16.7275341 73.7764704,15.9333351 72.2462571,15.8765853 L72.069241,15.8733108 L71.4887012,15.8733108 C71.288323,15.8772428 71.2381123,15.7499715 71.2269028,15.6646872 L71.2254436,13.9335111 C71.240554,13.8042998 71.3329656,13.7592407 71.4001494,13.7436168 L71.471688,13.7354647 L71.471688,13.7308084 L71.6576398,13.7308084 C73.1267488,13.7308084 74.5409378,13.1158711 74.5409378,11.6777063 C74.5409378,10.3641269 73.8093359,9.48338122 72.6655973,9.40927777 L72.5071084,9.40420771 Z" fill="#515251"></path>
        </g>
    </g>
</svg>