<svg width="364" height="239" viewBox="0 0 364 239" fill="none" xmlns="http://www.w3.org/2000/svg">
<path d="M67.0967 196.92L251.742 197.272" stroke="#2E3031" stroke-linecap="round" stroke-linejoin="round"/>
<path fill-rule="evenodd" clip-rule="evenodd" d="M124 56C118.869 56 114.71 60.1594 114.71 65.2903V115.781C114.71 120.912 118.869 125.071 124 125.071L228.719 125.071L247.881 144.258V125.071L258.71 125.071C263.841 125.071 268 120.912 268 115.781V65.2903C268 60.1594 263.841 56 258.71 56H124Z" stroke="#E7E7E7"/>
<path d="M219.69 97.8057C215.457 97.8057 212.025 94.4262 212.025 90.2574C212.025 86.0885 215.457 82.709 219.69 82.709C223.923 82.709 227.354 86.0885 227.354 90.2574C227.354 94.4262 223.923 97.8057 219.69 97.8057Z" fill="#E7E7E7"/>
<path d="M189.032 97.8057C184.799 97.8057 181.367 94.4262 181.367 90.2574C181.367 86.0885 184.799 82.709 189.032 82.709C193.265 82.709 196.696 86.0885 196.696 90.2574C196.696 94.4262 193.265 97.8057 189.032 97.8057Z" fill="#E7E7E7"/>
<path d="M158.374 97.8057C154.141 97.8057 150.709 94.4262 150.709 90.2574C150.709 86.0885 154.141 82.709 158.374 82.709C162.607 82.709 166.038 86.0885 166.038 90.2574C166.038 94.4262 162.607 97.8057 158.374 97.8057Z" fill="#E7E7E7"/>
<path fill-rule="evenodd" clip-rule="evenodd" d="M182.783 68.2686L183.158 68.6192L183.4 68.8356L183.653 69.0507L183.916 69.2609L184.18 69.4559C185.343 70.2797 186.765 70.7997 188.344 69.8756L188.5 69.7796C190.814 68.2942 194.028 69.4735 193.794 72.6131L193.779 72.7773C193.595 74.4463 194.361 75.0898 195.154 75.4893L195.37 75.5929L195.889 75.8219L196.076 75.9109C196.436 76.0914 196.691 76.2945 196.691 76.6471C196.691 77.0804 196.349 77.3002 195.884 77.474L195.643 77.5578L195.035 77.7498C194.311 77.9872 193.587 78.3117 193.419 79.1455C193.205 80.2064 193.827 80.6374 194.505 80.8544L194.72 80.9163L194.933 80.9668L195.587 81.0966L195.725 81.1323C196.723 81.4372 197.275 82.6649 196.432 83.6351C195.72 84.4557 194.731 84.7587 193.501 84.8326L193.635 84.906V107.104C193.635 109.314 192.961 111.021 191.612 112.225L191.277 112.527L190.722 113.046L190.364 113.399C188.901 114.885 187.78 116.581 187.78 119.148V121.7L187.772 121.708L187.591 121.816L188.634 121.816C189.381 121.816 189.994 122.4 190.048 123.141L190.052 123.248L190.053 125.678L190.155 125.716H195.251C199.713 125.716 203.654 127.968 206.021 131.408L216.621 143.326L216.705 143.434L221.218 148.398L222.238 149.529L223.237 150.646L224.211 151.748L225.158 152.835L225.772 153.55L226.372 154.258L226.957 154.958L227.525 155.65L228.075 156.334L228.608 157.01L229.121 157.676C231.5 160.808 233.205 163.643 233.798 166.075L233.821 166.145C234.122 167.105 234.198 167.799 234.028 168.107L234.022 168.117C234.009 168.397 233.976 168.67 233.922 168.936L233.998 168.911C235.055 170.153 235.968 171.612 236.712 173.315C246.843 196.504 184.001 204.715 156.387 197.414L156.243 197.447L153.281 196.535L151.174 195.875L149.981 195.982L148.813 196.078L147.67 196.164L146.552 196.24L145.459 196.306L143.866 196.387L142.833 196.428L141.824 196.46L140.839 196.483L139.876 196.495L138.936 196.499L138.018 196.493C137.716 196.489 137.418 196.484 137.123 196.477L136.249 196.453C135.961 196.443 135.677 196.432 135.397 196.42L134.565 196.377C134.291 196.361 134.021 196.344 133.754 196.326L132.964 196.265L132.005 196.178L131.076 196.076C130.954 196.062 130.833 196.047 130.713 196.032L130.002 195.937L129.309 195.834L128.635 195.722L127.979 195.602L127.34 195.474L127.028 195.407L126.416 195.267C126.014 195.171 125.623 195.069 125.243 194.963L124.682 194.799C124.313 194.687 123.955 194.57 123.607 194.448L123.093 194.261L122.594 194.067C122.103 193.869 121.634 193.66 121.186 193.44L120.745 193.217C120.528 193.103 120.316 192.987 120.109 192.868C120.067 192.845 120.013 192.804 119.947 192.747C118.064 193.357 116.139 193.749 114.17 193.925C114.955 187.785 117.698 181.959 122.399 176.449L121.55 176.237L120.741 176.029L119.971 175.824L119.24 175.623L118.548 175.424L117.896 175.23L117.283 175.038L116.437 174.757L115.922 174.574C115.757 174.514 115.599 174.454 115.447 174.395L115.01 174.218C114.594 174.044 114.236 173.874 113.937 173.709C113.648 174.24 112.639 174.728 110.911 175.173L110.398 175.299L109.846 175.423L109.555 175.484L108.944 175.604C108.839 175.624 108.732 175.644 108.623 175.663L108.926 175.633L109.508 175.581L110.059 175.542C110.149 175.537 110.237 175.532 110.323 175.527L110.829 175.507C113.443 175.431 114.75 175.888 114.75 176.877C114.75 177.748 113.583 178.181 111.249 178.174L111.082 178.172L111.486 178.213L111.968 178.27L112.191 178.299L112.785 178.391L113.12 178.455C113.482 178.531 113.743 178.612 113.905 178.699L113.962 178.732C114.757 179.243 114.502 180.935 112.607 181.037L112.425 181.042L111.995 181.042C111.201 181.042 110.383 181.038 109.561 181.015L109.112 181L108.429 180.969L107.96 180.94L107.262 180.885L106.8 180.838L106.342 180.784L105.888 180.72C105.813 180.709 105.738 180.697 105.664 180.685L105.219 180.606L104.999 180.563L104.565 180.468C101.122 179.663 98.4512 177.731 98.4512 173.092C98.4512 170.213 100.973 167.749 104.488 165.699L105.037 165.387C105.129 165.336 105.223 165.285 105.316 165.234L105.93 164.909C106.138 164.801 106.347 164.696 106.559 164.591L107.2 164.281C107.416 164.179 107.634 164.078 107.853 163.978L108.516 163.683L108.85 163.539L109.525 163.255L110.205 162.979L110.89 162.711L111.578 162.45L112.268 162.197L112.957 161.952L113.644 161.714L114.668 161.371L115.344 161.152L116.345 160.837L117 160.637L117.962 160.351L119.197 159.997L120.081 159.751L121.718 159.309L123.957 158.726C130.234 157.097 134.021 154.95 138.682 151.281C140.168 150.112 141.539 148.77 142.815 147.327L143.356 146.703C144.069 145.863 144.753 144.994 145.41 144.108L146.018 143.273L146.611 142.43L146.845 142.092L147.305 141.414L147.757 140.734L148.2 140.055L148.636 139.377L149.064 138.701L149.485 138.03L151.882 134.149L152.452 133.239L152.826 132.649L153.381 131.795L153.747 131.248L154.11 130.719L154.47 130.21L154.852 129.689C156.569 127.403 158.221 125.899 159.983 125.801L160.166 125.796H167.106L167.108 125.806L170.658 125.796V108.242L170.475 108.188L170.321 108.136L170.132 108.065L170.026 108.022L169.794 107.921C168.781 107.456 167.24 106.435 167.24 104.519C167.24 102.198 167.692 101.743 168.238 101.58L168.199 101.574C167.304 100.697 166.23 99.9885 164.978 99.4479L164.661 99.3163C160.264 97.5583 158.415 94.2859 158.725 90.0538C158.779 89.3225 158.504 88.7968 158.187 88.3215L157.804 87.7652C157.467 87.2593 157.217 86.7392 157.434 85.9983C157.681 85.1564 158.161 84.8698 158.679 84.6416L159.072 84.4736C159.466 84.301 159.853 84.0914 160.153 83.6351C160.726 82.7604 160.607 81.8679 160.4 80.9895L160.186 80.1169L160.136 79.8867L160.107 79.7185L160.078 79.4948L160.061 79.2586L160.059 79.0625C160.076 77.9036 160.687 76.5019 163.449 76.1336L163.653 76.1086C165.272 75.9294 165.687 75.1577 165.828 74.2414L165.858 74.0095L165.888 73.6539L165.915 73.2356C165.976 72.305 166.088 71.3871 167.09 70.8863C167.915 70.4742 168.935 70.4672 170.033 70.5492L170.588 70.5962L171.438 70.6754L171.907 70.7138C173.474 70.8284 175.066 70.784 176.389 69.7796C179.218 67.6313 181.436 66.9843 182.783 68.2686ZM213.535 184.043L213.612 184.419L214.513 184.151L215.108 183.967L215.698 183.778L216.28 183.584L216.854 183.385L217.418 183.182C217.511 183.148 217.603 183.113 217.696 183.079L218.242 182.868L218.775 182.653L219.293 182.434C219.464 182.36 219.631 182.285 219.796 182.209L220.281 181.98C222.817 180.745 224.552 179.307 224.552 177.661C224.552 176.121 222.946 175.544 220.342 175.545L219.885 175.551L219.41 175.567L218.917 175.594L218.406 175.632L217.879 175.679L217.335 175.735L216.776 175.799L216.202 175.873L215.314 175.997L214.397 176.138L213.453 176.293L212.484 176.462L211.158 176.706L213.535 184.043ZM160.794 138.707L160.766 138.732L160.372 139.672L155.49 147.518L154.941 147.316L154.732 147.244L154.502 147.172L154.403 147.147C154.364 147.14 154.342 147.14 154.337 147.147C153.386 148.347 152.446 149.485 151.517 150.56L150.724 151.467C146.242 156.515 142.021 160.083 138.059 162.171L137.758 162.325L137.222 162.583L136.584 162.874L135.844 163.197L135.003 163.554L133.722 164.08C134.019 164.105 134.32 164.132 134.625 164.161L135.555 164.257C136.655 164.378 137.809 164.528 139.016 164.708L140.064 164.87L141.139 165.047L142.519 165.287L143.941 165.551L145.107 165.779L146.907 166.147L148.14 166.411L149.399 166.69L150.684 166.983L151.996 167.29L153.334 167.613L154.013 167.779L155.391 168.124L156.795 168.483L158.225 168.856L159.682 169.244L161.165 169.647L162.674 170.064L162.674 139.679L162.679 139.541L161.705 138.817L160.794 138.707ZM195.931 149.333L195.931 167.308C199.681 165.995 203.731 164.777 207.794 163.932L208.854 163.721L208.626 163.456L208.096 162.82C207.832 162.498 207.572 162.171 207.315 161.839L206.805 161.169L206.553 160.829L206.058 160.14C205.812 159.792 205.571 159.44 205.333 159.084L205.097 158.726C202.404 154.608 199.348 151.477 195.931 149.333ZM196.432 136.811L195.915 140.918C196.877 141.559 197.814 142.245 198.728 142.97L199.41 143.521L199.991 144.008L200.436 144.388L200.869 144.768L201.522 145.356L202.127 145.916L202.95 146.702L203.662 147.404L204.292 148.041L204.78 148.545L205.339 149.132L206.056 149.901L206.597 150.49L207.247 151.211L207.488 151.482C208.406 152.513 209.308 153.56 210.199 154.611L211.38 156.012L213.183 158.169L213.638 158.704C213.79 158.88 213.943 159.053 214.096 159.224L214.556 159.727L215.018 160.215C215.172 160.375 215.326 160.533 215.48 160.687L215.942 161.143C216.25 161.442 216.558 161.729 216.865 162.006L217.323 162.414L217.727 162.76L217.76 162.76C219.191 162.747 220.552 162.747 221.931 162.853L222.623 162.915L224.389 163.085L224.879 163.13L224.584 162.784L224.407 162.579L223.916 162.022L223.476 161.535L222.913 160.926L222.374 160.351L222.116 160.079L221.581 159.521L220.942 158.862L220.276 158.185L219.703 157.609L219.26 157.166L218.696 156.607L217.612 155.541L216.311 154.277L214.822 152.847L213.172 151.281L211.394 149.608L209.697 148.026L208.143 146.586L206.501 145.78L203.221 142.751L203.485 142.696L202.884 142.166L202.067 141.425L201.579 140.968L201.032 140.438L200.282 139.685L199.841 139.257L199.512 138.947L199.165 138.628L198.805 138.309L198.483 138.035C198.376 137.945 198.268 137.858 198.162 137.774L197.847 137.531C197.277 137.108 196.761 136.811 196.432 136.811Z" fill="white"/>
<path fill-rule="evenodd" clip-rule="evenodd" d="M165.109 100.081C164.811 99.9328 164.502 99.7948 164.182 99.6672C159.732 97.8897 157.861 94.5811 158.175 90.3022C158.311 88.4538 156.37 87.9042 156.868 86.2018C157.367 84.4993 158.812 85.0428 159.62 83.8124C160.427 82.582 159.878 81.3167 159.62 80.1034C159.362 78.8901 159.362 76.623 163.163 76.2027C166.964 75.7823 164.206 72.1378 166.641 70.9226C169.076 69.7073 173.189 71.9757 176.052 69.8036C178.915 67.6315 181.16 66.9774 182.524 68.2759C183.887 69.5744 185.929 71.3313 188.31 69.8036C190.692 68.2759 194.017 69.5361 193.653 72.8344C193.288 76.1328 196.6 75.4696 196.6 76.7471C196.6 78.0247 193.653 77.4665 193.288 79.2732C192.924 81.0798 194.959 81.0798 195.622 81.2819C196.632 81.5902 197.191 82.8315 196.338 83.8124C195.485 84.7933 194.242 85.0428 192.667 85.0428C191.093 85.0428 177.17 85.0428 176.376 85.0428C175.582 85.0428 174.819 85.2348 174.969 86.2018C175.119 87.1687 176.838 86.8137 177.864 87.0935C178.891 87.3733 179.095 88.9435 178.147 89.4081C177.199 89.8727 175.818 89.5781 174.861 90.7873C173.903 91.9964 174.771 94.0375 173.529 94.9563C172.287 95.8751 170.641 94.9485 170.252 93.848C170.252 97.6203 170.252 100.45 170.252 102.336" fill="#2E3031"/>
<path fill-rule="evenodd" clip-rule="evenodd" d="M214.736 195.162C214.93 195.157 215.091 195.315 215.096 195.515C215.112 196.158 215.12 196.809 215.12 197.465C215.12 197.722 214.868 197.896 214.637 197.8L214.133 197.587L213.668 197.383L213.242 197.189L212.765 196.961L212.348 196.748C212.194 196.666 212.054 196.587 211.928 196.512C211.761 196.412 211.704 196.191 211.801 196.018C211.898 195.845 212.113 195.787 212.281 195.887L212.537 196.033L212.7 196.119L214.396 195.631L214.394 195.533C214.389 195.333 214.542 195.168 214.736 195.162ZM209.36 175.039L209.59 175.052L209.788 175.073C209.938 175.092 210.089 175.121 210.242 175.161C210.541 175.238 210.88 175.593 211.236 176.174L211.379 176.419L211.524 176.687L211.669 176.977L211.816 177.29L211.889 177.455L212.036 177.799L212.11 177.979L212.256 178.354L212.439 178.85L212.62 179.374L212.763 179.812L212.974 180.502L213.112 180.981L213.248 181.475L213.38 181.983L213.445 182.242L213.572 182.77L213.635 183.039L213.756 183.585L213.873 184.143C213.913 184.338 213.791 184.53 213.602 184.571C213.418 184.611 213.237 184.494 213.19 184.309L201.382 187.13C201.147 183.928 200.789 181.287 200.309 179.206C200.191 179.194 200.082 179.119 200.028 178.999C199.947 178.817 200.025 178.603 200.201 178.519L202.719 177.316L203.631 176.89L204.032 176.707L204.397 176.544L204.877 176.336L205.153 176.223L205.449 176.109L206.566 175.717L207.252 175.485L207.548 175.39L207.941 175.271L208.173 175.207L208.385 175.155L208.58 175.113L208.761 175.081L208.93 175.058L209.091 175.044L209.169 175.04L209.36 175.039Z" fill="#780A21"/>
<path fill-rule="evenodd" clip-rule="evenodd" d="M117.626 173.955L122.058 175.051C122.146 175.04 122.237 175.06 122.314 175.114L135.528 178.382L135.549 178.332C135.626 178.142 135.841 178.05 136.03 178.127C136.22 178.205 136.311 178.422 136.234 178.612C135.276 180.979 133.955 183.058 132.271 184.846C126.559 190.912 120.093 194.159 112.886 194.572C112.655 194.585 112.469 194.384 112.498 194.153C112.868 191.267 113.657 188.449 114.864 185.7L117.626 173.955Z" fill="#780A21"/>
<path d="M188.114 99.0794V102.139C188.114 102.846 187.562 103.42 186.883 103.42C186.429 103.42 185.759 102.931 184.873 101.952" stroke="#2E3031" stroke-linecap="round" stroke-linejoin="round"/>
<path d="M183.793 96.9086V98.3123C183.793 99.3348 183.067 100.164 182.172 100.164C181.277 100.164 180.552 99.3348 180.552 98.3123V96.9086" stroke="#2E3031" stroke-linecap="round" stroke-linejoin="round"/>
<path d="M190.274 96.9086V98.3123C190.274 99.3348 189.79 100.164 189.193 100.164C188.597 100.164 188.113 99.3348 188.113 98.3123V96.9086" stroke="#2E3031" stroke-linecap="round" stroke-linejoin="round"/>
<path d="M193.515 84.9727C193.515 86.7459 193.515 93.6268 193.515 97.1733C193.515 99.0749 193.515 104.222 193.515 106.036V107.484C193.515 109.725 192.893 111.456 191.648 112.677C189.782 114.508 188.113 116.389 188.113 119.697" stroke="#2E3031" stroke-linecap="round" stroke-linejoin="round"/>
<path fill-rule="evenodd" clip-rule="evenodd" d="M164.182 99.6672C159.732 97.8897 157.861 94.5811 158.175 90.3022C158.311 88.4538 156.37 87.9042 156.868 86.2018C157.367 84.4993 158.812 85.0428 159.62 83.8124C160.427 82.582 159.878 81.3167 159.62 80.1034C159.362 78.8901 159.362 76.623 163.163 76.2027C166.964 75.7823 164.206 72.1378 166.641 70.9226C169.076 69.7073 173.189 71.9757 176.052 69.8036C178.915 67.6315 181.16 66.9774 182.524 68.2759C183.887 69.5744 185.929 71.3313 188.31 69.8036C190.692 68.2759 194.017 69.5361 193.653 72.8344C193.288 76.1328 196.6 75.4696 196.6 76.7471C196.6 78.0247 193.653 77.4665 193.288 79.2732C192.924 81.0798 194.959 81.0798 195.622 81.2819C196.632 81.5902 197.191 82.8315 196.338 83.8124C195.485 84.7933 194.242 85.0428 192.667 85.0428C191.093 85.0428 177.17 85.0428 176.376 85.0428C175.582 85.0428 174.819 85.2348 174.969 86.2018C175.119 87.1687 176.838 86.8137 177.864 87.0935C178.891 87.3733 179.095 88.9435 178.147 89.4081C177.199 89.8727 175.818 89.5781 174.861 90.7873C173.903 91.9964 174.771 94.0375 173.529 94.9563C172.287 95.8751 170.641 94.9485 170.252 93.848C170.252 97.6203 170.252 100.45 170.252 102.336C166.419 100.642 164.396 99.7523 164.182 99.6672Z" stroke="#2E3031" stroke-linecap="round" stroke-linejoin="round"/>
<path d="M169.749 101.826C168.907 101.367 168.264 101.182 167.82 101.272C167.155 101.406 166.508 101.44 166.508 104.239C166.508 107.039 169.749 107.894 169.749 107.894V125.123" stroke="#2E3031" stroke-linecap="round" stroke-linejoin="round"/>
<path d="M169.749 125.123C169.749 125.123 170.277 126.214 171.91 127.293" stroke="#2E3031" stroke-linecap="round" stroke-linejoin="round"/>
<path d="M183.792 106.674C183.792 106.674 183.767 109.93 186.397 109.93C189.026 109.93 189.193 106.674 189.193 106.674" stroke="#2E3031" stroke-linecap="round" stroke-linejoin="round"/>
<path d="M180.552 90.418H183.793" stroke="#2E3031" stroke-linecap="round" stroke-linejoin="round"/>
<path d="M187.033 90.418H190.274" stroke="#2E3031" stroke-linecap="round" stroke-linejoin="round"/>
<path d="M147.063 141.4C144.614 145.023 141.796 148.606 138.362 151.28C133.707 154.904 129.925 157.024 123.657 158.633C120.65 159.405 114.666 160.895 109.254 163.103" stroke="#2E3031" stroke-linecap="round" stroke-linejoin="round"/>
<path d="M153.545 146.826C147.73 154.284 142.329 159.348 137.341 162.018" stroke="#2E3031" stroke-linecap="round" stroke-linejoin="round"/>
<path d="M213.405 140.316C225.519 153.848 238.112 165.823 231.8 171.564C224.705 178.016 212.222 170.649 204.331 158.602C199.406 151.084 193.28 146.836 185.953 145.857" stroke="#2E3031" stroke-linecap="round" stroke-linejoin="round"/>
<path d="M207.299 147.06C219.914 158.701 226.121 165.251 225.918 166.712C225.606 168.967 218.472 165.946 212.31 158.57C206.147 151.194 199.718 143.371 191.354 139.23" stroke="#2E3031" stroke-linecap="round" stroke-linejoin="round"/>
<path fill-rule="evenodd" clip-rule="evenodd" d="M167.622 125.125C167.824 125.125 168.609 129.458 174.375 130.424L189.02 125.461C189.072 125.365 189.166 125.294 189.278 125.274L189.343 125.268H194.604C198.721 125.392 202.449 127.249 205.772 130.821L207.426 132.607C211.835 137.583 214.04 140.099 214.04 140.156C214.04 142.172 211.92 144.235 207.73 146.419L207.159 146.711C207.041 146.77 206.902 146.761 206.794 146.691L206.743 146.651L196.765 137.305L196.561 137.139L196.384 137.001L196.231 136.888L196.1 136.8C195.944 136.702 195.841 136.667 195.775 136.687L195.666 137.543L195.666 140.413C195.666 140.612 195.502 140.774 195.301 140.774C195.121 140.774 194.972 140.646 194.942 140.478L194.936 140.413L194.936 140.32L194.378 140.01L193.77 139.685L193.231 139.406L192.631 139.105L192.199 138.896L191.745 138.681L191.271 138.464L190.779 138.246L190.271 138.028L189.75 137.814C189.662 137.778 189.574 137.743 189.485 137.708L188.947 137.502L188.402 137.304C187.853 137.11 187.295 136.931 186.738 136.776L186.248 136.645L185.78 136.529L185.27 136.412C184.393 136.22 183.414 136.062 182.721 136.12L182.011 136.176C181.394 136.233 180.882 136.332 180.534 136.701C179.98 137.289 180.335 137.81 180.841 138.227L180.997 138.349L181.157 138.465L181.317 138.574L181.752 138.86L181.866 138.94L181.958 139.013C182.142 139.174 182.104 139.271 181.583 139.291L181.463 139.295C180.666 139.307 180.492 139.548 180.431 139.82L180.414 139.917L180.401 140.014L180.384 140.126C180.353 140.307 180.286 140.468 180.025 140.546L179.931 140.569C179.723 140.609 179.74 140.685 179.907 140.784L180.013 140.84C180.033 140.849 180.054 140.859 180.076 140.869L180.222 140.932L180.39 140.998L180.578 141.067L181.006 141.213L181.985 141.526L182.814 141.788L183.41 141.985L183.821 142.134L183.996 142.203L184.148 142.269C184.449 142.409 184.561 142.52 184.351 142.582L183.984 142.695C183.805 142.752 183.632 142.811 183.467 142.87L183.148 142.991C182.12 143.397 181.463 143.852 181.463 144.355C181.463 144.637 181.942 144.904 182.69 145.153L182.982 145.245C183.033 145.26 183.085 145.276 183.137 145.291L183.463 145.38L183.808 145.468L184.169 145.554L184.544 145.638L185.128 145.761L185.934 145.917L186.638 146.045L188.731 146.397L188.667 146.426C189.58 146.713 190.205 146.914 190.543 147.03C191.073 147.21 191.476 147.372 191.745 147.478C192.593 147.813 193.181 148.118 193.546 148.307C193.899 148.49 194.289 148.704 194.638 148.91C195.207 149.245 195.666 149.545 195.666 149.55C195.666 149.562 195.666 149.57 195.666 149.572C195.666 153.399 195.617 159.256 195.519 167.144C195.519 167.278 189.752 169.854 178.219 174.875L160.92 170.043L161.317 140.667C161.31 139.359 161.06 138.793 160.691 138.793C160.345 138.793 160.083 138.963 159.76 139.4C156.237 144.777 154.427 147.455 154.329 147.434L154.266 147.415L153.656 147.159L153.069 146.904C152.709 146.745 145.999 142.385 145.999 140.668C145.986 140.614 146.001 140.555 146.044 140.49C151.805 131.906 154.931 127.383 155.421 126.921C156.616 125.796 157.769 125.188 158.948 125.13L159.135 125.125H167.622Z" fill="#DC143D" stroke="#780A21"/>
<path d="M174.398 135.975H165.1C164.684 135.975 164.348 136.316 164.348 136.737V141.079C164.348 141.347 164.487 141.596 164.714 141.734L169.363 144.548C169.601 144.692 169.897 144.692 170.135 144.548L174.784 141.734C175.011 141.596 175.15 141.347 175.15 141.079V136.737C175.15 136.316 174.814 135.975 174.398 135.975Z" stroke="white"/>
<path fill-rule="evenodd" clip-rule="evenodd" d="M188.449 121.871L188.569 121.875C189.481 121.933 190.211 122.653 190.27 123.553L190.274 123.672V137.823L190.268 137.888C190.237 138.056 190.088 138.183 189.909 138.183C189.73 138.183 189.581 138.056 189.55 137.888L189.544 137.823L189.543 137.746L188.654 137.561L187.573 137.345L186.84 137.204L186.174 137.083L185.39 136.95L184.88 136.873L184.578 136.831L184.179 136.786L183.898 136.762L183.848 136.759C183.086 136.714 182.513 136.825 182.078 136.961L181.855 137.038C181.82 137.051 181.786 137.064 181.753 137.077L181.568 137.152L181.334 137.252L181.203 137.304L181.145 137.323L181.091 137.337C180.48 137.473 180.92 138.147 181.547 138.578L181.727 138.695L181.912 138.801L182.097 138.899L182.275 138.987L182.663 139.17L182.831 139.256L182.905 139.304C182.961 139.348 182.964 139.381 182.89 139.405C181.859 139.737 181.161 140.059 180.795 140.372C180.129 140.941 180.472 141.555 181.824 142.214L182.098 142.342L182.398 142.471L182.722 142.602L183.164 142.766L183.644 142.933L183.848 143L182.02 144.561C182.566 145.059 183.386 145.485 184.481 145.841L184.796 145.939L185.146 146.041L185.532 146.146L185.952 146.255L186.649 146.424L187.157 146.541L187.985 146.724L188.58 146.85L189.539 147.045C189.572 146.88 189.719 146.756 189.895 146.756C190.074 146.755 190.224 146.881 190.256 147.049L190.262 147.114L190.267 148.276L190.263 148.402C190.204 149.303 189.475 150.022 188.563 150.081L188.443 150.085H173.734L173.614 150.081C172.702 150.022 171.972 149.303 171.913 148.402L171.909 148.284V123.672L171.913 123.553C171.972 122.653 172.702 121.933 173.614 121.875L173.734 121.871H188.449ZM176.683 124.531C175.758 124.531 175.009 125.271 175.009 126.185C175.009 127.098 175.758 127.838 176.683 127.838C177.607 127.838 178.357 127.098 178.357 126.185C178.357 125.271 177.607 124.531 176.683 124.531Z" fill="#2E3031"/>
<path d="M118.977 193.172C129.057 198.839 150.775 198.48 204.586 186.854C211.636 185.331 223.763 182.485 223.763 178.209C223.763 175.372 218.112 175.855 210.812 177.18" stroke="#2E3031" stroke-linecap="round" stroke-linejoin="round"/>
<path d="M197.836 142.487C195.798 140.81 193.649 139.334 191.354 138.146" stroke="#2E3031" stroke-linecap="round" stroke-linejoin="round"/>
<path d="M151.385 195.723C175.4 205.799 247.514 198.002 236.711 172.987C235.967 171.264 235.053 169.786 233.996 168.529" stroke="#2E3031" stroke-linecap="round" stroke-linejoin="round"/>
<path d="M222.683 162.751C220.945 162.472 219.136 162.355 217.281 162.373" stroke="#2E3031" stroke-linecap="round" stroke-linejoin="round"/>
<path d="M208.639 164.188C193.643 167.078 178.524 175.315 177.628 175.032C155.041 167.901 138.908 164.336 129.229 164.336C120.816 164.336 115.001 167.812 112.495 172.761" stroke="#2E3031" stroke-linecap="round" stroke-linejoin="round"/>
<path d="M151.384 182.756C144.522 180.099 134.799 177.567 122.217 175.16" stroke="#2E3031" stroke-linecap="round" stroke-linejoin="round"/>
<path d="M133.02 184.112C133.64 184.111 133.975 184.111 134.024 184.112C142.165 184.26 163.529 181.96 198.119 177.211C199.37 180.536 199.996 183.791 199.996 186.977" stroke="#2E3031" stroke-linecap="round" stroke-linejoin="round"/>
<path d="M191.409 146.826C189.717 146.33 188.232 145.991 186.954 145.81C184.716 145.493 182.135 145.289 182.135 144.078C182.135 142.848 184.433 142.548 189.027 143.179C183.377 142.508 180.552 141.544 180.552 140.288C180.552 139.032 183.377 138.886 189.027 139.85C183.276 139.023 180.564 138.009 180.89 136.808C181.47 134.671 189.882 137.195 192.435 138.252" stroke="#2E3031" stroke-linecap="round" stroke-linejoin="round"/>
<path d="M209.313 139.614C208.613 140.399 206.82 141.734 203.934 143.618" stroke="white" stroke-linecap="round" stroke-linejoin="round"/>
<path d="M167.934 156.826L181.318 164.833" stroke="white" stroke-linecap="round" stroke-linejoin="round"/>
<path d="M177.307 157.832L180.847 160.477" stroke="white" stroke-linecap="round" stroke-linejoin="round"/>
<path d="M150.305 140.02C151.184 140.749 153.287 141.889 156.612 143.441" stroke="white" stroke-linecap="round" stroke-linejoin="round"/>
<path d="M161.134 89.3164C160.447 91.4819 160.91 93.009 162.522 93.8977" stroke="white" stroke-linecap="round" stroke-linejoin="round"/>
<path d="M163.33 89.3164C162.969 90.5779 163.212 91.4675 164.06 91.9852" stroke="white" stroke-linecap="round" stroke-linejoin="round"/>
<path fill-rule="evenodd" clip-rule="evenodd" d="M105.419 165.1C100.077 167.54 97.29 169.255 97.29 173.22C97.29 181.419 105.116 181.419 111.229 181.419C113.285 181.419 113.58 179.58 112.762 179.036C112.227 178.68 110.144 178.405 106.514 178.212C111.203 178.762 113.548 178.399 113.548 177.123C113.548 175.848 111.511 175.431 107.437 175.872C111.426 175.125 113.201 174.241 112.762 173.22C112.441 172.473 111.238 172.273 109.153 172.62C108.645 172.705 108.901 171.879 109.921 170.142C109.638 169.841 109.382 169.653 109.153 169.577C108.468 169.35 107.77 169.463 107.269 169.328C106.45 169.105 105.701 168.695 105.556 168.356C105.314 167.789 105.042 167.037 105.14 166.461C105.408 164.881 105.428 165.096 105.419 165.1Z" fill="white"/>
<path d="M106.953 164C101.684 166.388 97.29 169.509 97.29 173.364C97.29 181.419 105.116 181.419 111.229 181.419C113.285 181.419 113.58 179.613 112.762 179.079C112.227 178.729 110.144 178.459 106.514 178.269C111.203 178.809 113.548 178.452 113.548 177.199C113.548 175.946 111.511 175.536 107.437 175.969C111.426 175.235 113.201 174.367 112.762 173.364C112.324 172.362 110.241 172.362 106.514 173.364" stroke="#2E3031" stroke-linecap="round" stroke-linejoin="round"/>
</svg>
