<?xml version="1.0" encoding="UTF-8"?>
<svg width="360px" height="216px" viewBox="0 0 360 216" version="1.1" xmlns="http://www.w3.org/2000/svg" xmlns:xlink="http://www.w3.org/1999/xlink">
    <title>7A18B490-8AAD-4764-BF69-3F5D69EFB00B</title>
    <g id="Micro-illustrations" stroke="none" stroke-width="1" fill="none" fill-rule="evenodd">
        <g id="2---Micro-illustrations/Request-submitted/Mobile/request-submitted-mobile-360px">
            <g id="Baseline" transform="translate(66.524232, 175.276923)" stroke="#2E3031" stroke-linecap="round" stroke-linejoin="round">
                <line x1="64.9757676" y1="1.22307692" x2="213" y2="1.65145692" id="Border"></line>
                <line x1="0" y1="1.34854308" x2="56.9757676" y2="1.22307692" id="Border"></line>
            </g>
            <g id="mobile-" transform="translate(145.000000, 43.000000)">
                <g id="Group-3">
                    <g id="Mobile-phone">
                        <path d="M0,108.521139 L0,8 C-5.41083001e-16,3.581722 3.581722,-2.74108918e-15 8,0 L63,0 C67.418278,-8.11624501e-16 71,3.581722 71,8 L71,126 C71,130.418278 67.418278,134 63,134 L8,134 C3.581722,134 2.31743984e-15,130.418278 0,126" id="Rectangle" stroke="#2E3031" fill="#FFFFFF" stroke-linecap="round"></path>
                        <path d="M3.5,104.862935 L3.5,15.1549296 C3.5,14.0503601 4.3954305,13.1549296 5.5,13.1549296 L65.5,13.1549296 C66.6045695,13.1549296 67.5,14.0503601 67.5,15.1549296 L67.5,124.394366 C67.5,125.498936 66.6045695,126.394366 65.5,126.394366 L5.5,126.394366 C4.3954305,126.394366 3.5,125.498936 3.5,124.394366 L3.5,104.862935 Z" id="Rectangle" stroke="#2E3031" fill="#F7F7F7" stroke-linecap="round"></path>
                        <path d="M3.29866931,121.721808 L3.27418293,125.908994 C3.27418293,128.106333 6.64806607,129.888199 10.812489,129.890236 L60.1525384,129.905014 C62.1530334,129.905981 64.0722288,129.487352 65.4874489,128.74131 C66.902669,127.995269 67.6978414,126.983003 67.6978406,125.927452 L67.7224302,121.738419 C67.5454508,121.818522 3.79848228,121.818522 3.29866931,121.721808 Z" id="Path-Copy" fill="#DC143D" fill-rule="nonzero"></path>
                        <path d="M59.7469719,26.9216318 C61.9561109,26.9216318 63.7469719,28.7124928 63.7469719,30.9216318 L63.7469719,109.921632 C63.7469719,112.130771 61.9561109,113.921632 59.7469719,113.921632 L11.1972418,113.921632 C8.98810278,113.921632 7.19724178,112.130771 7.19724178,109.921632 L7.19724178,30.9216318 C7.19724178,28.7124928 8.98810278,26.9216318 11.1972418,26.9216318 L28.0004303,26.9215734 C28.0001437,26.9476816 28,26.973824 28,27 C28,30.8659932 31.1340068,34 35,34 C38.8659932,34 42,30.8659932 42,27 L41.9982418,26.9215693 L59.7469719,26.9216318 Z" id="Combined-Shape" fill="#FFFFFF"></path>
                    </g>
                    <ellipse id="Oval" fill="#2E3031" cx="35.0266701" cy="6.54930821" rx="1.89333333" ry="1.88732394"></ellipse>
                </g>
                <circle id="Oval-Copy" fill="#2E3031" cx="35" cy="27" r="5"></circle>
            </g>
            <g id="Paper-plane" transform="translate(174.696239, 37.000000)" stroke="#2E3031" stroke-linecap="round" stroke-linejoin="round">
                <g id="Paper-Plane-" transform="translate(70.303761, 0.000000)">
                    <polygon id="Path" fill="#DC143D" fill-rule="nonzero" points="16.14 18.04 16.14 33.82 59.31 0.54"></polygon>
                    <polygon id="Path" fill="#DC143D" fill-rule="nonzero" points="16.14 18.04 60.3 0 0 6.25"></polygon>
                    <polygon id="Path" fill="#DC143D" fill-rule="nonzero" points="21.33 21.31 42.12 36.69 60.3 0"></polygon>
                    <polygon id="Path" fill="#DC143D" fill-rule="nonzero" points="21.33 21.31 16.14 33.82 27.2 25.65"></polygon>
                    <path d="M16.2,33.15 C16.51,33.02 16.81,32.88 17.11,32.73" id="Path"></path>
                </g>
                <path d="M5.30121637,109.74464 C29.7500424,117.362509 94.5511721,116.732567 96.8658432,101.763567 C98.7569771,89.5335863 89.0186712,80.3106301 67.6509254,74.0946988 C58.1433506,69.3305102 52.56817,65.4773617 50.9253835,62.5352536 C48.4612036,58.1220914 35.3777859,46.6509408 91.1295923,39.5374361" id="Line" stroke-dasharray="2,2" transform="translate(51.198853, 77.037436) rotate(-9.000000) translate(-51.198853, -77.037436) "></path>
            </g>
            <g id="1---Icons/Navigation/Check/24px/1-Outlined" transform="translate(175.920003, 66.040000)" fill="#FFFFFF">
                <rect id="Rectangle" fill-opacity="0" x="0" y="0" width="8" height="8"></rect>
                <g id="🎨-colour" transform="translate(1.666667, 2.333333)">
                    <path d="M4.61559679,0.0466127572 C4.68189679,0.110459424 4.68389679,0.215969424 4.62006346,0.282272757 L1.73116346,3.28226609 C1.69973012,3.31489942 1.65639679,3.33333276 1.61109679,3.33333276 C1.56583012,3.33333276 1.52246346,3.31489942 1.49106346,3.28226609 L0.0465967899,1.78227276 C-0.0172365435,1.71596942 -0.0152365435,1.61045942 0.0510634565,1.54661276 C0.117363457,1.48276609 0.222863457,1.48475609 0.286730123,1.55105942 L1.61109679,2.92639942 L4.37993012,0.0510594239 C4.44379679,-0.0152439094 4.54929679,-0.0172339094 4.61559679,0.0466127572 Z"></path>
                </g>
            </g>
            <rect id="Rectangle" fill="#E7E7E7" x="159" y="84" width="43" height="4"></rect>
            <rect id="Rectangle-Copy" fill="#E7E7E7" x="167" y="90" width="26" height="4"></rect>
            <rect id="Rectangle-Copy-2" fill="#E7E7E7" x="160" y="102" width="42" height="4"></rect>
            <rect id="Rectangle-Copy-3" fill="#E7E7E7" x="160" y="111" width="42" height="4"></rect>
            <rect id="Rectangle-Copy-6" fill="#E7E7E7" x="160" y="120" width="42" height="4"></rect>
            <rect id="Rectangle-Copy-7" fill="#E7E7E7" x="160" y="129" width="42" height="4"></rect>
            <rect id="Rectangle-Copy-8" fill="#E7E7E7" x="160" y="138" width="42" height="4"></rect>
        </g>
    </g>
</svg>