<?xml version="1.0" encoding="UTF-8"?>
<svg width="360px" height="216px" viewBox="0 0 360 216" version="1.1" xmlns="http://www.w3.org/2000/svg" xmlns:xlink="http://www.w3.org/1999/xlink">
    <title>3C25E7F5-5845-4228-9952-689B62DEBBFF</title>
    <g id="Micro-illustrations" stroke="none" stroke-width="1" fill="none" fill-rule="evenodd">
        <g id="2---Micro-illustrations/Mail-open/Mail-open/mail-open-360px">
            <line x1="253.5" y1="175.5" x2="283.5" y2="175.5" id="Line" stroke="#2E3031" stroke-linecap="round"></line>
            <line x1="285.5" y1="175.5" x2="288.5" y2="175.5" id="Line-Copy-2" stroke="#2E3031" stroke-linecap="round"></line>
            <line x1="86.5" y1="175.5" x2="108.5" y2="175.5" id="Line-Copy" stroke="#2E3031" stroke-linecap="round"></line>
            <g id="Group-Copy-2" transform="translate(103.000000, 52.000000)">
                <g id="Main-envelope" transform="translate(6.000000, 49.000000)">
                    <rect id="Rectangle" fill="#FFFFFF" x="0" y="0" width="142.382022" height="75" rx="4"></rect>
                    <path d="M0,46.7741935 L0,4 C-2.705415e-16,1.790861 1.790861,2.18216909e-15 4,0 L140,0 C142.209139,-4.05812251e-16 144,1.790861 144,4 L144,71 C144,73.209139 142.209139,75 140,75 L4,75 C1.790861,75 2.04689834e-15,73.209139 0,71" id="Rectangle-Copy-9" stroke="#2E3031" stroke-linecap="round" stroke-linejoin="round"></path>
                </g>
                <g id="Inside-envelope" transform="translate(4.999996, 0.000000)">
                    <path d="M71.3699067,0.0824475239 C80.8384982,1.53106336 103.183858,16.1380503 138.405987,43.9034082 C138.939834,44.3245299 139.350393,44.8684572 139.610114,45.4785957 C142.125085,46.0598672 144.000004,48.3116489 144.000004,51.0007876 C144.000004,53.6902849 142.124585,55.9423086 139.608596,56.5235708 C139.349895,57.1336246 138.939503,57.6772152 138.405987,58.098167 C103.183858,85.8635249 80.8384982,100.470512 71.3699067,101.919128 C62.5510918,103.268333 42.96426,87.6495775 12.6482958,61.5269179 C11.7297208,60.7354002 10.376646,59.5661492 8.58907123,58.0191648 C8.134459,57.6259784 7.79009591,57.1527692 7.55876786,56.6385516 C7.36654952,56.6591592 7.17076304,56.6693014 6.97260472,56.6693014 C3.83800708,56.6693014 1.29691362,54.1314213 1.29691362,51.0007876 C1.29691362,47.8701539 3.83800708,45.3322738 6.97260472,45.3322738 C7.09578819,45.3322738 7.2180551,45.3361931 7.33928725,45.3439137 C7.56338363,44.8508728 7.89337027,44.3954098 8.32614919,44.0127587 C14.1083631,38.8837121 18.2517886,35.2742421 20.756426,33.1843489 C46.7413108,11.502313 63.31577,-1.14976846 71.3699067,0.0824475239 Z" id="Combined-Shape" fill="#FF930F"></path>
                    <path d="M72.7706432,0.0824475239 C82.0678453,1.53154194 104.012913,16.1477031 138.605845,43.9309311 C139.086958,44.3170064 139.465661,44.8035624 139.721629,45.3481022 C139.81776,45.365639 139.893651,45.3995321 139.945939,45.4502005 C140.756752,46.2359038 144.000004,47.9126 144.000004,50.9501238 C144.000004,53.0115853 141.567565,55.6643437 139.945939,56.4500471 C139.883777,56.4801654 139.826931,56.5065875 139.774749,56.5296535 C139.520935,57.1235176 139.122422,57.6538912 138.605845,58.0684248 C104.012913,85.8516528 82.0678453,100.467814 72.7706432,101.916908 C63.3699358,103.382136 35.4621909,82.9914288 1.05403423,51.9437667 L0.064,51.048981 L0.0285360445,51.0493749 C0.024506675,51.0493679 0.020571259,51.0485124 0.0169670682,51.0469119 L0.00738544253,51.0399791 C-0.00319112679,51.028298 -0.00229568322,51.0102545 0.00938547171,50.999678 C-0.00229744317,50.9891033 -0.00319588944,50.97106 0.00737873581,50.9593771 C0.0127877895,50.9534012 0.0204721317,50.9499919 0.0285325245,50.9499811 L0.063,50.949981 L1.0558919,50.0535935 C35.5240146,18.9413865 63.3600713,-1.38431711 72.7706432,0.0824475239 Z" id="Combined-Shape" stroke="#2E3031"></path>
                </g>
                <g id="Page" transform="translate(28.000000, 10.000000)">
                    <path d="M1.80620155,0 L102.985815,0 C103.5381,-7.50580219e-15 103.985815,0.44771525 103.985815,1 C103.985815,1.00469501 103.985782,1.00938995 103.985716,1.01408449 L103.200832,56.7353299 C103.196404,57.0497257 103.044363,57.3437307 102.790363,57.5290639 L73.3643411,79 L73.3643411,79 L24.9922481,79 L1.19780761,60.7593855 C0.950945397,60.5701431 0.80620155,60.2768028 0.80620155,59.9657503 L0.80620155,1 C0.80620155,0.44771525 1.2539168,1.21167609e-15 1.80620155,0 Z" id="Rectangle" fill="#FFFFFF"></path>
                    <path d="M0,57.1180084 L0,8 C-5.41083001e-16,3.581722 3.581722,8.11624501e-16 8,0 L96,0 C100.418278,-9.54824126e-15 104,3.581722 104,8 L104,54.0102041 L104,54.0102041" id="Rectangle" stroke="#2E3031" stroke-linecap="round"></path>
                    <g id="Page-content-" transform="translate(8.062016, 16.928571)">
                        <polygon id="Rectangle" fill="#E7E7E7" points="0 0 86.2635659 0 86.2635659 5.64285714 0 4.83673469"></polygon>
                        <polygon id="Rectangle-Copy-2" fill="#DC143D" transform="translate(43.131783, 16.525510) scale(-1, 1) translate(-43.131783, -16.525510) " points="0 13.7040816 86.2635659 13.7040816 86.2635659 19.3469388 0 18.5408163"></polygon>
                        <polygon id="Rectangle-Copy-3" fill="#E7E7E7" transform="translate(43.131783, 27.811224) scale(-1, 1) translate(-43.131783, -27.811224) " points="0 24.9897959 86.2635659 24.9897959 86.2635659 30.6326531 0 29.8265306"></polygon>
                        <polygon id="Rectangle-Copy-4" fill="#E7E7E7" transform="translate(43.131783, 39.096939) scale(-1, 1) translate(-43.131783, -39.096939) " points="0 36.2755102 86.2635659 36.2755102 86.2635659 41.9183673 0 41.1122449"></polygon>
                        <polygon id="Rectangle-Copy-5" fill="#E7E7E7" transform="translate(42.325581, 49.576531) scale(-1, 1) translate(-42.325581, -49.576531) " points="0 47.5612245 84.6511628 47.5612245 79.0077519 51.5918367 4.03100775 50.7857143"></polygon>
                    </g>
                </g>
                <g id="Bottom-Cover" transform="translate(0.000000, 72.000000)">
                    <path d="M21.0994764,33.3657007 C48.7187649,12.818267 67.8125,1.7307526 78.3806818,0.103157439 C88.2584992,-1.41811537 111.215763,13.8863806 147.252475,46.0166454 C148.904239,47.4836094 149.049692,50.0120891 147.579885,51.6613203 C146.821966,52.5117611 145.737397,52.9987021 144.598236,53 L10.1702091,53 C7.9610701,53 6.1702091,51.209139 6.1702091,49 C6.1702091,47.8892079 6.63210652,46.8284362 7.44528154,46.0717292" id="Rectangle-Copy-7" fill="#FFFFFF"></path>
                    <path d="M21.0994764,33.3657007 C48.7187649,12.818267 67.8125,1.7307526 78.3806818,0.103157439 C88.2584992,-1.41811537 111.215763,13.8863806 147.252475,46.0166454 C148.904239,47.4836094 149.049692,50.0120891 147.579885,51.6613203 C146.821966,52.5117611 145.737397,52.9987021 144.598236,53 L10.1702091,53 C7.9610701,53 6.1702091,51.209139 6.1702091,49 C6.1702091,47.8892079 6.63210652,46.8284362 7.44528154,46.0717292" id="Rectangle-Copy-10" stroke="#2E3031" stroke-linecap="round"></path>
                </g>
            </g>
        </g>
    </g>
</svg>