<?xml version="1.0" encoding="UTF-8"?>
<svg width="360px" height="216px" viewBox="0 0 360 216" version="1.1" xmlns="http://www.w3.org/2000/svg" xmlns:xlink="http://www.w3.org/1999/xlink">
    <title>FE998690-9911-4A45-84AA-E4CDB7738A8C@2x</title>
    <g id="Downloadable-assets" stroke="none" stroke-width="1" fill="none" fill-rule="evenodd">
        <g transform="translate(-1792.000000, -415.000000)" id="Paint_Micro-Illustration-360px">
            <g transform="translate(1792.000000, 415.000000)">
                <rect id="Rectangle" x="0" y="0" width="360" height="216"></rect>
                <g id="illustration">
                    <rect id="Rectangle" fill-opacity="0" fill="#FFFFFF" x="0" y="0" width="360" height="216"></rect>
                    <line x1="188.5" y1="175.5" x2="216.5" y2="175.5" id="Line" stroke="#2E3031" stroke-linecap="round"></line>
                    <line x1="218.5" y1="175.5" x2="221.5" y2="175.5" id="Line-Copy-2" stroke="#2E3031" stroke-linecap="round"></line>
                    <line x1="140.5" y1="175.5" x2="170.5" y2="175.5" id="Line-Copy" stroke="#2E3031" stroke-linecap="round"></line>
                    <g id="day15-color-tool" transform="translate(148.000000, 42.000000)">
                        <path d="M39.6,4.35871743 L39.6,25.0190381 C39.6,27.4308617 37.724,29.3777555 35.4,29.3777555 L35.4,29.3777555 C33.076,29.3777555 31.2,27.4308617 31.2,25.0190381 L31.2,14.3256513 C31.2,11.9138277 29.324,9.96693387 27,9.96693387 L27,9.96693387 C24.676,9.96693387 22.8,11.9138277 22.8,14.3256513 L22.8,25.0190381 C22.8,27.4308617 20.924,29.3777555 18.6,29.3777555 L18.6,29.3777555 C16.276,29.3777555 14.4,27.4308617 14.4,25.0190381 L14.4,10.3446894 C14.4,7.93286573 12.524,5.98597194 10.2,5.98597194 L10.2,5.98597194 C7.876,5.98597194 6,7.93286573 6,10.3446894 L6,29.3777555 L6,32.5741483 L6,58 L48,58 L48,32.5741483 L48,29.3777555 L48,4.35871743 C48,1.94689379 46.124,0 43.8,0 L43.8,0 C41.504,0 39.6,1.94689379 39.6,4.35871743 Z" id="XMLID_176_" fill="#E7E7E7" fill-rule="nonzero"></path>
                        <path d="M39.6,7.35871743 L39.6,28.0190381 C39.6,30.4308617 37.724,32.3777555 35.4,32.3777555 L35.4,32.3777555 C33.076,32.3777555 31.2,30.4308617 31.2,28.0190381 L31.2,17.3256513 C31.2,14.9138277 29.324,12.9669339 27,12.9669339 L27,12.9669339 C24.676,12.9669339 22.8,14.9138277 22.8,17.3256513 L22.8,28.0190381 C22.8,30.4308617 20.924,32.3777555 18.6,32.3777555 L18.6,32.3777555 C16.276,32.3777555 14.4,30.4308617 14.4,28.0190381 L14.4,13.3446894 C14.4,10.9328657 12.524,8.98597194 10.2,8.98597194 L10.2,8.98597194 C7.876,8.98597194 6,10.9328657 6,13.3446894 L6,32.3777555 L6,35.5741483 L6,61 L48,61 L48,35.5741483 L48,32.3777555 L48,7.35871743 C48,4.94689379 46.124,3 43.8,3 L43.8,3 C41.504,3 39.6,4.94689379 39.6,7.35871743 Z" id="XMLID_150_" fill="#DC143D" fill-rule="nonzero"></path>
                        <rect id="XMLID_162_" fill="#2E3031" fill-rule="nonzero" opacity="0.14" x="6" y="51" width="42" height="8"></rect>
                        <path d="M39.6,7.35871743 L39.6,28.0190381 C39.6,30.4308617 37.724,32.3777555 35.4,32.3777555 L35.4,32.3777555 C33.076,32.3777555 31.2,30.4308617 31.2,28.0190381 L31.2,17.3256513 C31.2,14.9138277 29.324,12.9669339 27,12.9669339 L27,12.9669339 C24.676,12.9669339 22.8,14.9138277 22.8,17.3256513 L22.8,28.0190381 C22.8,30.4308617 20.924,32.3777555 18.6,32.3777555 L18.6,32.3777555 C16.276,32.3777555 14.4,30.4308617 14.4,28.0190381 L14.4,13.3446894 C14.4,10.9328657 12.524,8.98597194 10.2,8.98597194 L10.2,8.98597194 C7.876,8.98597194 6,10.9328657 6,13.3446894 L6,32.3777555 L6,35.5741483 L6,61 L48,61 L48,35.5741483 L48,32.3777555 L48,7.35871743 C48,4.94689379 46.124,3 43.8,3 L43.8,3 C41.504,3 39.6,4.94689379 39.6,7.35871743 Z" id="XMLID_160_" stroke="#2E3031" stroke-linecap="round" stroke-linejoin="round"></path>
                        <path d="M28,102 L28,95.8402271 C28,91.7242498 31.2676923,88.3746959 35.2830769,88.3746959 L56.7169231,88.3746959 C60.7323077,88.3746959 64,85.0251419 64,80.9091646 L64,74.4655312 C64,71.2820486 62.0452097,68.5570538 59.3016037,67.4857311 C58.7658386,67.2765256 55.7165861,67.1146153 50.1538462,67" id="XMLID_51_" stroke="#2E3031" stroke-linecap="round" stroke-linejoin="round"></path>
                        <path d="M47.6929898,79 L8.33441375,79 C5.37699265,79 3,76.4956195 3,73.4443054 L3,61.5556946 C3,58.4755945 5.4046321,56 8.33441375,56 L47.6653503,56 C50.6227714,56 53,58.5043805 53,61.5556946 L53,73.4443054 C53.0274035,76.4956195 50.6227714,79 47.6929898,79 Z" id="XMLID_87_" fill="#DC143D" fill-rule="nonzero"></path>
                        <path d="M5.49963923,75 C4.67225207,75 4,74.266129 4,73.3629032 L4,62.6370968 C4,61.733871 4.67225207,61 5.49963923,61 C6.32702639,61 6.99927846,61.733871 6.99927846,62.6370968 L6.99927846,73.3629032 C7.02513431,74.266129 6.35288224,75 5.49963923,75 Z" id="XMLID_185_" fill="#FFFFFF" fill-rule="nonzero" opacity="0.23"></path>
                        <path d="M47.6929898,79 L8.33441375,79 C5.37699265,79 3,76.4956195 3,73.4443054 L3,61.5556946 C3,58.4755945 5.4046321,56 8.33441375,56 L47.6653503,56 C50.6227714,56 53,58.5043805 53,61.5556946 L53,73.4443054 C53.0274035,76.4956195 50.6227714,79 47.6929898,79 Z" id="XMLID_31_" stroke="#2E3031" stroke-linecap="round" stroke-linejoin="round"></path>
                        <path d="M29,135 C25.7042254,135 23,132.346847 23,129.051351 L23,109.948649 C23,106.681081 25.6760563,104 29,104 C32.2957746,104 35,106.653153 35,109.948649 L35,129.051351 C34.971831,132.346847 32.2957746,135 29,135 Z" id="XMLID_43_" fill="#FF930F" fill-rule="nonzero"></path>
                        <path d="M22.5,132 L22.5,132 C21.6666667,132 21,131.314286 21,130.457143 L21,108.542857 C21,107.685714 21.6666667,107 22.5,107 L22.5,107 C23.3333333,107 24,107.685714 24,108.542857 L24,130.457143 C24,131.314286 23.3333333,132 22.5,132 Z" id="XMLID_28_" fill="#FFBBA6" fill-rule="nonzero" opacity="0.21"></path>
                        <path d="M30.7824934,104 C31.5782493,105.040835 32.0822281,106.362976 32.0822281,107.797641 L32.0822281,127.03902 C32.0822281,130.330309 29.5623342,133.030853 26.4323607,133.030853 L26.4323607,133.030853 C25.928382,133.030853 25.4509284,132.946461 25,132.833938 C26.0344828,134.15608 27.5994695,135 29.3501326,135 L29.3501326,135 C32.4535809,135 35,132.327586 35,129.008167 L35,109.766788 C34.9734748,107.009982 33.1962865,104.675136 30.7824934,104 Z" id="XMLID_91_" fill="#2E3031" fill-rule="nonzero" opacity="0.346822103"></path>
                        <path d="M29,135 C25.7042254,135 23,132.346847 23,129.051351 L23,109.948649 C23,106.681081 25.6760563,104 29,104 C32.2957746,104 35,106.653153 35,109.948649 L35,129.051351 C34.971831,132.346847 32.2957746,135 29,135 Z" id="XMLID_88_" stroke="#2E3031" stroke-linecap="round" stroke-linejoin="round"></path>
                        <path d="M2,72 L1.7,72 C0.75,72 0,71.1733333 0,70.1866667 L0,65.8133333 C0,64.8 0.775,64 1.7,64 L2,64 L2,72 Z" id="XMLID_68_" fill="#2E3031" fill-rule="nonzero"></path>
                        <path d="M54,71 L54.3,71 C55.25,71 56,70.1733333 56,69.1866667 L56,64.8133333 C56,63.8 55.225,63 54.3,63 L54,63 L54,71 Z" id="XMLID_90_" stroke="#2E3031" fill="#D8D8D8" stroke-linecap="round" stroke-linejoin="round"></path>
                        <path d="M54,71 L54.3,71 C55.25,71 56,70.1733333 56,69.1866667 L56,64.8133333 C56,63.8 55.225,63 54.3,63 L54,63 L54,71 Z" id="XMLID_74_" fill="#2E3031" fill-rule="nonzero"></path>
                        <path d="M27.508073,8 L27.508073,8 L24.6235693,4.53116531 C23.1011924,2.7100271 24.5167359,0.151761518 27.2409893,0 C27.3211144,0 27.4279479,0 27.508073,0 L27.508073,0 C27.5881981,0 27.6950315,0 27.7751566,0 C30.4727017,0.151761518 31.8882451,2.68834688 30.3925766,4.53116531 L27.508073,8 Z" id="XMLID_170_" fill="#DC143D" fill-rule="nonzero"></path>
                        <path d="M27.508073,8 L27.508073,8 L24.6235693,4.53116531 C23.1011924,2.7100271 24.5167359,0.151761518 27.2409893,0 C27.3211144,0 27.4279479,0 27.508073,0 L27.508073,0 C27.5881981,0 27.6950315,0 27.7751566,0 C30.4727017,0.151761518 31.8882451,2.68834688 30.3925766,4.53116531 L27.508073,8 Z" id="XMLID_175_" stroke="#2E3031" stroke-linecap="round" stroke-linejoin="round"></path>
                        <line x1="10" y1="63" x2="35" y2="63" id="XMLID_158_" stroke="#FFFFFF" stroke-width="2" opacity="0.4" stroke-linecap="round" stroke-linejoin="round"></line>
                        <line x1="38" y1="63" x2="41" y2="63" id="XMLID_163_" stroke="#FFFFFF" stroke-width="2" opacity="0.4" stroke-linecap="round" stroke-linejoin="round"></line>
                        <circle id="XMLID_165_" fill="#3E454F" fill-rule="nonzero" cx="27.5" cy="128.5" r="1.5"></circle>
                        <circle id="XMLID_164_" stroke="#2E3031" stroke-linecap="round" stroke-linejoin="round" cx="27.5" cy="128.5" r="1.5"></circle>
                    </g>
                </g>
            </g>
        </g>
    </g>
</svg>