<?xml version="1.0" encoding="UTF-8"?>
<svg width="360px" height="216px" viewBox="0 0 360 216" version="1.1" xmlns="http://www.w3.org/2000/svg" xmlns:xlink="http://www.w3.org/1999/xlink">
    <title>2819B92E-FF1B-4DB6-9BEE-1110657F013B</title>
    <defs>
        <circle id="path-1" cx="10.5" cy="10.5" r="10.5"></circle>
        <circle id="path-3" cx="10.5" cy="10.5" r="10.5"></circle>
    </defs>
    <g id="Micro-illustrations" stroke="none" stroke-width="1" fill="none" fill-rule="evenodd">
        <g id="2---Micro-illustrations/Visualisation/visualisation-360px">
            <g id="Group-4" transform="translate(102.166546, 41.777778)">
                <g id="imac">
                    <path d="M155,89 L0,89 L0,6.84615385 C0,3.05242528 3.08238636,0 6.91335227,0 L147.866477,0 C151.785511,0 155,3.18324351 155,7.06418422 L155,89 Z" id="XMLID_7_" fill="#2E3031" fill-rule="nonzero"></path>
                    <path d="M2,83.0625 L2,6.9375 C2,4.75 3.76470588,3 5.97058824,3 L148.029412,3 C150.235294,3 152,4.75 152,6.9375 L152,83.0625 C152,85.25 150.235294,87 148.029412,87 L5.97058824,87 C3.80882353,87 2,85.20625 2,83.0625 Z" id="XMLID_30_" fill="#2E3031" fill-rule="nonzero"></path>
                    <path d="M155,89 L0,89 L0,6.84615385 C0,3.05242528 3.08238636,0 6.91335227,0 L147.866477,0 C151.785511,0 155,3.18324351 155,7.06418422 L155,89 Z" id="XMLID_18_" stroke="#2E3031" stroke-linecap="round" stroke-linejoin="round"></path>
                    <polygon id="XMLID_10_" fill="#FFFFFF" fill-rule="nonzero" transform="translate(77.673256, 45.240447) rotate(90.000000) translate(-77.673256, -45.240447) " points="41.5392347 -23.502324 113.807276 -23.502324 113.807276 113.983219 41.5392347 113.983219"></polygon>
                    <path d="M147.822443,112 L6.95738636,112 C3.12642045,112 0,108.89375 0,105.0875 L0,91 L155,91 L155,104.86875 C155,108.7625 151.785511,112 147.822443,112 Z" id="XMLID_19_" fill="#FFFFFF" fill-rule="nonzero"></path>
                    <path d="M6.43571429,108 C4.54166667,108 3,106.474114 3,104.599455 L3,92 L151,92 L151,104.381471 C151,106.386921 149.370238,108 147.344048,108 L6.43571429,108 Z" id="XMLID_4_" fill="#E7E7E7" fill-rule="nonzero"></path>
                    <path d="M147.822443,112 L6.95738636,112 C3.12642045,112 0,108.89375 0,105.0875 L0,91 L155,91 L155,104.86875 C155,108.7625 151.785511,112 147.822443,112 Z" id="XMLID_6_" stroke="#383939" stroke-linecap="round" stroke-linejoin="round"></path>
                    <polygon id="XMLID_22_" fill="#FFFFFF" fill-rule="nonzero" points="102 127 55 127 61.9613208 111 95.0386792 111"></polygon>
                    <polygon id="XMLID_27_" fill="#E7E7E7" fill-rule="nonzero" points="96 118 92.9977427 111 61.0022573 111 58 118"></polygon>
                    <polygon id="XMLID_1_" stroke="#2E3031" stroke-linecap="round" stroke-linejoin="round" points="102 127 55 127 61.9613208 111 95.0386792 111"></polygon>
                    <polygon id="XMLID_28_" fill="#E7E7E7" fill-rule="nonzero" opacity="0.16" points="25 81 41.6223317 81 78 9 61.3776683 9"></polygon>
                    <polygon id="XMLID_29_" fill="#E7E7E7" fill-rule="nonzero" opacity="0.16" points="54.2808989 81 91 9 84.7191011 9 48 81"></polygon>
                    <path d="M75,55 L69.5844156,55 C69.2727273,55 69,55.2333333 69,55.5 C69,55.7666667 69.2727273,56 69.5844156,56 L75,56 L75,55 Z" id="XMLID_37_" fill="#DC143D" fill-rule="nonzero"></path>
                    <path d="M111,134 L46,134 L46.6678082,131.68125 C47.4691781,128.925 50.0958904,127 53.1232877,127 L103.876712,127 C106.90411,127 109.575342,128.925 110.332192,131.68125 L111,134 Z" id="XMLID_23_" fill="#E7E7E7" fill-rule="nonzero"></path>
                    <path d="M111,134 L46,134 L46.6678082,131.68125 C47.4691781,128.925 50.0958904,127 53.1232877,127 L103.876712,127 C106.90411,127 109.575342,128.925 110.332192,131.68125 L111,134 Z" id="XMLID_9_" stroke="#2E3031" stroke-linecap="round" stroke-linejoin="round"></path>
                </g>
                <line x1="138.759557" y1="19.7024825" x2="12.3334538" y2="19.7222222" id="Rectangle-Copy" stroke="#E7E7E7" stroke-linecap="round"></line>
                <circle id="Oval" fill="#DC143D" cx="13.8129188" cy="14.2016872" r="1.57165582"></circle>
                <circle id="Oval-Copy" fill="#FF930F" cx="20.0995421" cy="14.2016872" r="1.57165582"></circle>
                <circle id="Oval-Copy-2" fill="#E7E7E7" cx="26.3861653" cy="14.2016872" r="1.57165582"></circle>
            </g>
            <line x1="213.5" y1="175.5" x2="241.5" y2="175.5" id="Line" stroke="#2E3031" stroke-linecap="round"></line>
            <line x1="243.5" y1="175.5" x2="246.5" y2="175.5" id="Line-Copy-2" stroke="#2E3031" stroke-linecap="round"></line>
            <line x1="114.5" y1="175.5" x2="144.5" y2="175.5" id="Line-Copy" stroke="#2E3031" stroke-linecap="round"></line>
            <g id="pie" transform="translate(101.000000, 94.000000)">
                <mask id="mask-2" fill="white">
                    <use xlink:href="#path-1"></use>
                </mask>
                <use id="Oval" fill="#FF930F" xlink:href="#path-1"></use>
                <path d="M9.77874414,0.934693927 C15.4004723,0.934693927 19.9577834,5.51253348 19.9577834,11.1595848 C19.9577834,16.806636 15.4004723,21.3844756 9.77874414,21.3844756 C6.06548858,21.3844756 2.8166219,19.3872342 1.03870583,16.4038471 L11.7820371,9.42729633 L6.59724156,1.4440486 C7.59818909,1.11350754 8.66767818,0.934693927 9.77874414,0.934693927 Z" id="Oval" fill="#E7E7E7" mask="url(#mask-2)" transform="translate(10.498544, 11.159585) rotate(-303.000000) translate(-10.498544, -11.159585) "></path>
                <path d="M10.290017,0 C16.1839465,0 21,4.70101013 21,10.5458515 C21,16.2989899 16.1839465,21 10.290017,21 C8.36513616,21 6.5613497,20.5142048 4.99971714,19.6638285 L10.1021226,12.1873362 L10.1013262,0.002 Z" id="Oval" fill="#DC143D" mask="url(#mask-2)"></path>
                <circle id="Oval" fill="#FFFFFF" mask="url(#mask-2)" cx="10" cy="10" r="5"></circle>
            </g>
            <rect id="Rectangle" fill="#FFFFFF" x="187" y="66" width="89" height="51" rx="4"></rect>
            <g id="Graph-info-01" transform="translate(191.000000, 79.000000)">
                <g id="Group-2" transform="translate(0.000000, 22.000000)" fill="#E7E7E7">
                    <rect id="Rectangle" x="0" y="0" width="27" height="1"></rect>
                    <rect id="Rectangle-Copy-8" x="0" y="2" width="27" height="1"></rect>
                    <rect id="Rectangle-Copy-9" x="0" y="4" width="27" height="1"></rect>
                    <rect id="Rectangle-Copy-10" x="0" y="6" width="27" height="1"></rect>
                    <rect id="Rectangle-Copy-11" x="0" y="8" width="27" height="1"></rect>
                    <rect id="Rectangle-Copy-12" x="0" y="10" width="24" height="1"></rect>
                    <rect id="Rectangle-Copy-13" x="0" y="12" width="21" height="1"></rect>
                </g>
                <g id="Graph">
                    <rect id="Rectangle" fill="#E7E7E7" x="0" y="0" width="27" height="20" rx="2"></rect>
                    <g id="Group" transform="translate(3.000000, 3.000000)" fill="#DC143D">
                        <rect id="Rectangle" x="0" y="7" width="2" height="7"></rect>
                        <rect id="Rectangle-Copy-2" x="3" y="0" width="2" height="14"></rect>
                        <rect id="Rectangle-Copy-3" x="6" y="8" width="2" height="6"></rect>
                        <rect id="Rectangle-Copy-4" x="9" y="0" width="2" height="14"></rect>
                        <rect id="Rectangle-Copy-5" x="12" y="7" width="2" height="7"></rect>
                        <rect id="Rectangle-Copy-6" x="15" y="2" width="2" height="12"></rect>
                        <rect id="Rectangle-Copy-7" x="18" y="7" width="2" height="7"></rect>
                    </g>
                </g>
            </g>
            <g id="Group-3" transform="translate(220.000000, 79.000000)">
                <rect id="Rectangle-Copy-14" fill="#E7E7E7" x="0" y="22" width="25" height="1"></rect>
                <rect id="Rectangle-Copy-15" fill="#E7E7E7" x="0" y="24" width="25" height="1"></rect>
                <rect id="Rectangle-Copy-16" fill="#E7E7E7" x="0" y="26" width="25" height="1"></rect>
                <rect id="Rectangle-Copy-17" fill="#E7E7E7" x="0" y="28" width="25" height="1"></rect>
                <rect id="Rectangle-Copy-18" fill="#E7E7E7" x="0" y="30" width="20" height="1"></rect>
                <g id="Graph">
                    <rect id="Rectangle-Copy-21" fill="#E7E7E7" x="0" y="0" width="25" height="20" rx="2"></rect>
                    <path d="M12,16 C15.3137085,16 18,13.3137085 18,10 C18,6.6862915 15.3137085,4 12,4 C8.6862915,4 6,6.6862915 6,10" id="Oval" stroke="#DC143D" stroke-width="3"></path>
                    <path d="M6,16 C8.66526101,16 10.9246331,14.2621831 11.7068284,11.8578371 C11.8971335,11.2728692 12,10.6484475 12,10" id="Oval-Copy-3" stroke="#FF930F" stroke-width="3" transform="translate(9.000000, 13.000000) rotate(90.000000) translate(-9.000000, -13.000000) "></path>
                </g>
            </g>
            <g id="Group-3-Copy" transform="translate(247.000000, 79.000000)">
                <rect id="Rectangle-Copy-14" fill="#E7E7E7" x="0" y="22" width="25" height="1"></rect>
                <rect id="Rectangle-Copy-15" fill="#E7E7E7" x="0" y="24" width="25" height="1"></rect>
                <rect id="Rectangle-Copy-16" fill="#E7E7E7" x="0" y="26" width="25" height="1"></rect>
                <rect id="Rectangle-Copy-17" fill="#E7E7E7" x="0" y="28" width="25" height="1"></rect>
                <rect id="Rectangle-Copy-18" fill="#E7E7E7" x="0" y="30" width="20" height="1"></rect>
                <g id="Graph">
                    <rect id="Rectangle-Copy-21" fill="#E7E7E7" x="0" y="0" width="25" height="20" rx="2"></rect>
                    <path d="M12,16 C15.3137085,16 18,13.3137085 18,10 C18,6.6862915 15.3137085,4 12,4 C8.6862915,4 6,6.6862915 6,10" id="Oval" stroke="#DC143D" stroke-width="3"></path>
                    <path d="M6,16 C8.66526101,16 10.9246331,14.2621831 11.7068284,11.8578371 C11.8971335,11.2728692 12,10.6484475 12,10" id="Oval-Copy-3" stroke="#FF930F" stroke-width="3" transform="translate(9.000000, 13.000000) rotate(90.000000) translate(-9.000000, -13.000000) "></path>
                </g>
            </g>
            <path d="M187,75 L187,70 C187,67.790861 188.790861,66 191,66 L273,66 C275.209139,66 277,67.790861 277,70 L277,113 C277,115.209139 275.209139,117 273,117 L191,117 C188.790861,117 187,115.209139 187,113 L187,89 L187,89" id="Rectangle" stroke="#2E3031" stroke-linecap="round"></path>
            <line x1="270.5" y1="73.5" x2="193" y2="73" id="Rectangle-Copy" stroke="#2E3031" stroke-linecap="round"></line>
            <circle id="Oval" fill="#DC143D" cx="191" cy="70" r="1"></circle>
            <g id="Oval-2" transform="translate(228.000000, 83.000000)"></g>
            <circle id="Oval-Copy" fill="#FF930F" cx="195" cy="70" r="1"></circle>
            <circle id="Oval-Copy-2" fill="#E7E7E7" cx="199" cy="70" r="1"></circle>
            <path d="M83,95.4375 C83,92.4344517 85.4344517,90 88.4375,90 L121,90 C124.313708,90 127,92.6862915 127,96 L127,113 C127,116.313708 124.313708,119 121,119 L89,119 C85.6862915,119 83,116.313708 83,113 L83,108.125 L83,108.125" id="Combined-Shape" stroke="#2E3031" fill="#FFFFFF"></path>
            <g id="graph_4" transform="translate(85.000000, 94.000000)">
                <g id="pie" transform="translate(16.000000, 0.000000)">
                    <mask id="mask-4" fill="white">
                        <use xlink:href="#path-3"></use>
                    </mask>
                    <use id="Oval" fill="#FF930F" xlink:href="#path-3"></use>
                    <path d="M9.77874414,0.934693927 C15.4004723,0.934693927 19.9577834,5.51253348 19.9577834,11.1595848 C19.9577834,16.806636 15.4004723,21.3844756 9.77874414,21.3844756 C6.06548858,21.3844756 2.8166219,19.3872342 1.03870583,16.4038471 L11.7820371,9.42729633 L6.59724156,1.4440486 C7.59818909,1.11350754 8.66767818,0.934693927 9.77874414,0.934693927 Z" id="Oval" fill="#E7E7E7" mask="url(#mask-4)" transform="translate(10.498544, 11.159585) rotate(-303.000000) translate(-10.498544, -11.159585) "></path>
                    <path d="M10.290017,0 C16.1839465,0 21,4.70101013 21,10.5458515 C21,16.2989899 16.1839465,21 10.290017,21 C8.36513616,21 6.5613497,20.5142048 4.99971714,19.6638285 L10.1021226,12.1873362 L10.1013262,0.002 Z" id="Oval" fill="#DC143D" mask="url(#mask-4)"></path>
                    <circle id="Oval" fill="#FFFFFF" mask="url(#mask-4)" cx="10" cy="10" r="5"></circle>
                </g>
                <line x1="0.28" y1="3.5" x2="13.72" y2="3.5" id="Line-3" stroke="#E7E7E7" stroke-linecap="round"></line>
                <line x1="0.28" y1="5.5" x2="13.72" y2="5.5" id="Line-3-Copy" stroke="#E7E7E7" stroke-linecap="round"></line>
                <line x1="0.277777778" y1="7.5" x2="9.72222222" y2="7.5" id="Line-3-Copy-2" stroke="#E7E7E7" stroke-linecap="round"></line>
                <line x1="0.28125" y1="9.5" x2="8.71875" y2="9.5" id="Line-3-Copy-3" stroke="#E7E7E7" stroke-linecap="round"></line>
                <line x1="0.28125" y1="11.5" x2="8.71875" y2="11.5" id="Line-3-Copy-4" stroke="#E7E7E7" stroke-linecap="round"></line>
            </g>
        </g>
    </g>
</svg>