<?xml version="1.0" encoding="UTF-8"?>
<svg width="360px" height="216px" viewBox="0 0 360 216" version="1.1" xmlns="http://www.w3.org/2000/svg" xmlns:xlink="http://www.w3.org/1999/xlink">
    <title>E275F43B-D807-4F55-9B48-0CB9779E38F7@3x</title>
    <g id="Downloadable-assets" stroke="none" stroke-width="1" fill="none" fill-rule="evenodd">
        <g transform="translate(-2637.000000, -130.000000)" id="Security_Micro-Illustration-360px">
            <g transform="translate(2637.000000, 130.000000)">
                <rect id="Rectangle" x="0" y="0" width="360" height="216"></rect>
                <g id="micro-illustration">
                    <rect id="Rectangle" fill-opacity="0" fill="#FFFFFF" x="0" y="0" width="360" height="216"></rect>
                    <g id="lock" transform="translate(100.475768, 43.000000)" fill-rule="nonzero">
                        <path d="M80.9958295,91 L70.614275,91 L70.614275,34.8396487 C70.614275,21.5960569 59.8179463,10.8600046 46.5,10.8600046 C33.1820537,10.8600046 22.385725,21.5960569 22.385725,34.8396487 L22.385725,91 L12.0041705,91 L12.0041705,34.8396487 C11.8109576,22.4574269 18.3432411,10.9326695 29.0957151,4.68542976 C39.8481891,-1.56180992 53.1518109,-1.56180992 63.9042849,4.68542976 C74.6567589,10.9326695 81.1890424,22.4574269 80.9958295,34.8396487 L80.9958295,91 Z" id="Path" fill="#FFC100"></path>
                        <g id="Group" transform="translate(12.000000, 0.000000)" fill="#E7E7E7" stroke="#2E3031">
                            <path d="M68.9958295,91 L58.614275,91 L58.614275,34.8396487 C58.614275,21.5960569 47.8179463,10.8600046 34.5,10.8600046 C21.1820537,10.8600046 10.385725,21.5960569 10.385725,34.8396487 L10.385725,91 L0.00417047948,91 L0.00417047948,34.8396487 C-0.189042374,22.4574269 6.34324112,10.9326695 17.0957151,4.68542976 C27.8481891,-1.56180992 41.1518109,-1.56180992 51.9042849,4.68542976 C62.6567589,10.9326695 69.1890424,22.4574269 68.9958295,34.8396487 L68.9958295,91 Z" id="Path"></path>
                        </g>
                        <rect id="Rectangle" stroke="#2E3031" fill="#2E3031" x="0" y="66" width="92" height="59" rx="4"></rect>
                        <g id="Group" opacity="0.5" transform="translate(38.000000, 80.000000)" fill="#FFFFFF">
                            <path d="M16,7.81345142 C16.0026091,3.77838481 12.8549385,0.406008811 8.73861041,0.0337058141 C4.62228231,-0.338597182 0.89335539,2.41182212 0.13633628,6.3786574 C-0.620682829,10.3454927 1.84359376,14.2219333 5.82118427,15.3212313 L5.82118427,27 L10.1884099,27 L10.1884099,15.3212313 C13.6316642,14.3743985 16.0074862,11.305152 16,7.81345142 Z" id="Path"></path>
                        </g>
                    </g>
                    <line x1="94.9757676" y1="168.5" x2="266" y2="168.92838" id="Border-Copy" stroke="#2E3031" stroke-linecap="round" stroke-linejoin="round"></line>
                    <g id="Group-2" transform="translate(131.868576, 59.830769)">
                        <g id="Zen-guy" transform="translate(0.000000, 0.000000)">
                            <g id="guy" transform="translate(1.131424, -0.553846)">
                                <path d="M72.6192198,0.566005217 L72.9420682,0.867930983 L73.1505301,1.05424453 L73.3683211,1.23943155 L73.5951714,1.42050158 L73.8222471,1.5884073 C74.8236005,2.2978065 76.0483411,2.74553131 77.4078746,1.94975478 L77.5425196,1.86712297 C79.5343273,0.58805806 82.3021685,1.60356908 82.1009743,4.30711158 L82.0879008,4.44845225 C81.9293262,5.88570891 82.5893717,6.4397622 83.2718884,6.78385683 L83.4579884,6.87300106 L83.9045607,7.07022934 L84.0662976,7.14683438 C84.3759317,7.30227877 84.5953499,7.47719874 84.5953499,7.78085114 C84.5953499,8.1539098 84.3005967,8.34318088 83.9007152,8.49284984 L83.6928916,8.56505168 L83.1694194,8.73035267 C82.5458064,8.93474843 81.9225988,9.21417717 81.7779595,9.93222077 C81.5939319,10.845803 82.1296445,11.2169458 82.7132852,11.4037559 L82.8984024,11.4570388 L83.0820046,11.5005729 L83.6448043,11.6123526 L83.7634088,11.64303 C84.6233175,11.905612 85.0982077,12.9627921 84.3727546,13.7982247 C83.7591097,14.5048989 82.9074794,14.7658312 81.8487519,14.829476 L81.9640175,14.8926664 L81.9640175,34.0077863 C81.9640175,35.9108485 81.3833347,37.3808051 80.2219693,38.417656 L79.9335696,38.6774546 L79.4551215,39.1242895 L79.147332,39.4282722 C77.8870736,40.7080655 76.922144,42.168061 76.922144,44.3789928 L76.922144,46.5767945 L76.9156323,46.5831513 L76.7593534,46.6759661 L77.6570698,46.6762687 C78.3009876,46.6762687 78.8285279,47.1791853 78.8751557,47.817085 L78.8785059,47.909092 L78.8791612,50.0017937 L78.9674753,50.0349498 L83.3553884,50.0349498 C87.1974668,50.0349498 90.5912276,51.9742232 92.6300587,54.9360816 L101.757366,65.198396 L101.829607,65.2918651 L105.715704,69.5664832 L106.594203,70.5405228 L107.45434,71.5023993 L108.293429,72.451464 L109.108788,73.387068 L109.637853,74.0030055 L110.154382,74.6124799 L110.657582,75.2152991 L111.146657,75.8112707 L111.620812,76.4002026 L112.079252,76.9819025 L112.521181,77.5561782 C114.569594,80.2525148 116.038166,82.6936519 116.549152,84.7882662 L116.568578,84.8487123 C116.828008,85.6755583 116.892945,86.2730954 116.746994,86.5376966 L116.741805,86.5463514 C116.730802,86.7877995 116.702219,87.0231053 116.655257,87.2520762 L116.721006,87.2303371 C117.630733,88.2997825 118.417189,89.5564611 119.05767,91.0223879 C127.782141,110.990894 73.6677818,118.061882 49.8891518,111.774491 L49.7648875,111.802625 L47.2144264,111.017356 L45.400585,110.449678 L44.3726463,110.541341 L43.366819,110.624208 L42.3828297,110.698353 L41.4204051,110.763846 L40.4792719,110.820758 L39.1068956,110.890195 L38.2177951,110.925969 L37.3490293,110.953413 L36.5003249,110.972597 L35.6714086,110.983594 L34.862007,110.986475 L34.0718468,110.98131 C33.8116366,110.978256 33.5545878,110.973873 33.3006548,110.968172 L32.5481574,110.947133 C32.3004104,110.93881 32.0557336,110.929183 31.8140815,110.918262 L31.0981537,110.881632 C30.8625054,110.868137 30.6298363,110.85336 30.4001007,110.837314 L29.7196491,110.785379 L28.8934202,110.709859 L28.0937326,110.622689 C27.9888533,110.610296 27.8846675,110.597596 27.7811695,110.584591 L27.1683904,110.502904 L26.571846,110.413958 L25.991263,110.317824 L25.4263682,110.214572 L24.8768882,110.104276 L24.6078434,110.046508 L24.080973,109.925777 C23.734667,109.842993 23.398182,109.755631 23.0711535,109.663786 L22.5876576,109.522669 C22.2699946,109.426365 21.9616058,109.325626 21.662127,109.220547 L21.2195456,109.059686 L20.7900556,108.892386 C20.3670203,108.721891 19.9632123,108.541845 19.5774015,108.352569 L19.1975442,108.160229 C19.0105696,108.062532 18.8279918,107.962555 18.649657,107.860338 C18.6140274,107.839916 18.5667936,107.80454 18.5105514,107.755604 C16.8889745,108.281035 15.2307864,108.619065 13.5358381,108.770167 C14.2116037,103.482809 16.5735813,98.4664864 20.6217708,93.7212006 L19.8909639,93.5389997 L19.1939804,93.3596909 L18.5308191,93.1832737 L17.901479,93.0097481 L17.3059588,92.8391136 L16.7442572,92.6713699 L16.2163732,92.5065169 L15.4879525,92.2646566 L15.0446071,92.1070289 C14.902461,92.0549679 14.7659504,92.0033885 14.6350752,91.9522907 L14.2593554,91.8004419 C13.9005413,91.6500376 13.5924437,91.5039669 13.3350574,91.3622284 C13.0861822,91.8195688 12.2174215,92.2397804 10.7294886,92.6229895 L10.2875173,92.7314711 L9.81185321,92.8379396 L9.56138755,92.8904191 L9.0351913,92.9938692 C8.94468487,93.0109432 8.85277495,93.0279334 8.75946163,93.0448399 L9.01992914,93.0185761 L9.52108182,92.9741089 L9.99585803,92.9403892 C10.0727894,92.9356649 10.1486217,92.9313883 10.223355,92.9275596 L10.6585665,92.9099609 C12.9093575,92.8447609 14.0347529,93.2381154 14.0347529,94.0900243 C14.0347529,94.840285 13.0300507,95.2124298 11.0206462,95.2064587 L10.8768891,95.2047824 L11.2246054,95.2407893 L11.6395556,95.2895201 L11.8311989,95.3146933 L12.3428014,95.3934444 L12.631097,95.448638 C12.9428145,95.5142872 13.1683365,95.5843347 13.307663,95.6587804 L13.35657,95.6873535 C14.040714,96.1275596 13.8219634,97.5846806 12.190176,97.6725868 L12.0330406,97.6767438 L11.6625497,97.6766577 C10.9792994,97.6761841 10.275,97.6731059 9.56688121,97.6530978 L9.18035936,97.6404192 L8.5917383,97.6134981 L8.188565,97.5888678 L7.58701796,97.5410784 L7.18916394,97.5011287 L6.79468012,97.4540183 L6.40427649,97.3991567 C6.33958868,97.3893344 6.27510046,97.3791645 6.21082662,97.3686348 L5.82787451,97.3010397 L5.63854977,97.263819 L5.26464667,97.1821623 C2.30015579,96.4892461 0,94.8255438 0,90.8309692 C0,88.3518208 2.17160061,86.2298272 5.19865789,84.4648128 L5.67093068,84.1960885 C5.7507085,84.1517705 5.83100439,84.1076872 5.91179613,84.0638386 L6.4405145,83.7837754 C6.61890651,83.6915097 6.79937719,83.6003328 6.98170484,83.5102445 L7.534037,83.2432457 C7.71985689,83.1553348 7.90731206,83.0685125 8.09618081,82.9827788 L8.6668061,82.7288438 L8.95488364,82.6043256 L9.53573711,82.3601878 L10.1217467,82.1225814 L10.7115822,81.8915061 L11.3039134,81.6669618 L11.8974102,81.4489482 L12.4907425,81.2374653 L13.08258,81.0325128 L13.9646239,80.7373283 L14.5469052,80.5487011 L15.4083795,80.2780038 L15.9727909,80.1057008 L16.8012254,79.8594889 L17.8648805,79.5540582 L18.6261091,79.3421232 L20.035223,78.9623198 L21.9636703,78.459871 C27.3688744,77.057015 30.6293902,75.2083782 34.6433708,72.0490988 C35.9230278,71.0419206 37.1034955,69.8866188 38.2019544,68.6444087 L38.6677516,68.1068906 C39.2822536,67.383581 39.8707786,66.6347488 40.4365325,65.8718159 L40.9603533,65.1527839 L41.4714185,64.4275813 L41.6724046,64.136241 L42.0686861,63.5521377 L42.4576305,62.9670301 L42.8395383,62.3819887 L43.2147102,61.7980846 L43.5834467,61.2163886 L43.9460482,60.6379714 L46.0096543,57.2962898 L46.5003447,56.5124415 L46.8229336,56.0051289 L47.3007612,55.2697165 L47.6157141,54.7980409 L47.9281385,54.3424939 L48.2383349,53.9041465 L48.5678005,53.4557992 C50.0459906,51.4871726 51.4684329,50.1924243 52.9856624,50.1079167 L53.1437149,50.1035136 L59.1194924,50.1035136 L59.1214379,50.1121044 L62.1782128,50.1035136 L62.1782128,34.9878702 L62.0202323,34.9408198 L61.8882565,34.8960225 L61.7251119,34.8350262 L61.6335625,34.7981753 L61.4339316,34.7112116 C60.5619173,34.3110973 59.2347006,33.4311856 59.2347006,31.7817348 C59.2347006,29.7827348 59.6238145,29.3910088 60.0945241,29.2509911 L60.0609254,29.2457261 C59.2897997,28.4906087 58.365114,27.8803223 57.2868681,27.4148668 L57.0141074,27.3015202 C53.227566,25.7876538 51.6353445,22.9698038 51.9028337,19.3254735 C51.9490519,18.6957876 51.7125089,18.2430842 51.4391754,17.8337301 L51.1092578,17.3547604 C50.8195061,16.919099 50.6042875,16.4712118 50.7909891,15.8332332 C51.0031499,15.1082575 51.4165872,14.8614789 51.8628812,14.6649575 L52.2011308,14.5203031 C52.5402778,14.3716988 52.8742227,14.1911851 53.1319133,13.7982247 C53.6258203,13.0450507 53.5231646,12.2764932 53.3448251,11.5200709 L53.1605496,10.7687129 L53.1178912,10.5704514 L53.0924778,10.4256443 L53.0675788,10.2329654 L53.0530474,10.0295624 L53.0508575,9.86073336 C53.0658284,8.86275683 53.5918879,7.65574902 55.9700192,7.33861295 L56.1463797,7.31711969 C57.5403595,7.16279413 57.8975262,6.49829628 58.0186267,5.70921904 L58.0444471,5.50957747 L58.0708172,5.20331111 L58.0939008,4.84314718 C58.1463417,4.04180544 58.2425747,3.25136253 59.1059116,2.82012307 C59.8163145,2.46527461 60.6944638,2.45918629 61.6400035,2.52986283 L62.1179246,2.57033894 L62.8497678,2.63851462 L63.2535982,2.67155018 C64.602759,2.77027119 65.9740304,2.73202713 67.1129412,1.86712297 C69.548945,0.0171890585 71.4590533,-0.539909633 72.6192198,0.566005217 Z M99.1003075,100.260954 L99.166153,100.58476 L99.9420499,100.353964 L100.454751,100.195086 L100.962429,100.032189 L101.463908,99.8652658 L101.958013,99.694308 L102.443567,99.5193084 C102.523715,99.4898046 102.603458,99.460132 102.682771,99.4302905 L103.153295,99.2492141 L103.612328,99.0640769 L104.058696,98.8748716 C104.205244,98.8111243 104.349485,98.7466977 104.491222,98.6815906 L104.908731,98.4842262 C107.093305,97.4207145 108.586954,96.1826622 108.586954,94.7649257 C108.586954,93.4392958 107.204095,92.9418818 104.961312,92.9427843 L104.568508,92.9477903 L104.159443,92.9621639 L103.734701,92.9855623 L103.294867,93.0176163 L102.840529,93.0579566 L102.372269,93.1062138 L101.890675,93.1620186 L101.396332,93.2250017 L100.632192,93.332128 L99.8426589,93.4533281 L99.0297088,93.5873558 L98.1953174,93.7329645 L97.0528574,93.9429704 L99.1003075,100.260954 Z M53.6842111,61.2210215 L53.659981,61.2428109 L53.3211422,62.0519873 L49.1166025,68.8081827 L48.6439741,68.6345253 L48.4643351,68.5724382 L48.2657208,68.5102344 L48.1805405,68.4893831 C48.1473963,68.4830811 48.1284209,68.4829645 48.1236143,68.4890332 C47.3047961,69.5228591 46.4954556,70.5026695 45.695593,71.4284644 L45.0123175,72.2087746 C41.1535759,76.5555722 37.5184323,79.628045 34.1068867,81.4261932 L33.8478259,81.5587338 L33.3861566,81.781046 L32.8367937,82.0315597 L32.1997369,82.3102749 L31.4749864,82.6171917 L30.37224,83.070283 C30.6277193,83.0915602 30.8869817,83.1149326 31.1500272,83.1404004 L31.9505125,83.2230895 C32.8976526,83.3268938 33.8911342,83.4563657 34.9309552,83.611506 L35.8335787,83.7507695 L36.7588988,83.9026054 L37.9474654,84.1100802 L39.1714944,84.3371996 L40.1762501,84.5330394 L41.7259369,84.850373 L42.78743,85.0776448 L43.8716176,85.3174896 L44.9784993,85.5699075 L46.1080748,85.8348986 L47.2603439,86.112463 L47.8449885,86.2559602 L49.0312973,86.5523846 L50.240299,86.8613826 L51.4719932,87.1829541 L52.7263797,87.5170994 L54.003458,87.8638184 L55.3032279,88.2231113 L55.303069,62.0585911 L55.3073931,61.9393561 L54.4688787,61.315836 L53.6842111,61.2210215 Z M83.9412361,70.3717596 L83.9409399,85.8500917 C87.1699664,84.7192783 90.6573464,83.6704335 94.1560032,82.9431338 L95.0688888,82.7611261 L94.8732246,82.5332684 L94.4160798,81.9850742 C94.1892134,81.7079794 93.9649571,81.426435 93.7435413,81.1406521 L93.304565,80.5634977 L93.0880451,80.2707994 L92.6611978,79.6773953 C92.4498894,79.378071 92.2418052,79.0748602 92.0371753,78.7679742 L91.8337053,78.459871 C89.5146061,74.9140395 86.8837831,72.2180023 83.9412361,70.3717596 Z M84.3727546,59.5888843 L83.9275678,63.1252768 C84.7557312,63.6767788 85.5621046,64.2678271 86.3493505,64.8918281 L86.9369879,65.3665198 L87.4372715,65.7857649 L87.8205387,66.1134654 L88.1933648,66.4404454 L88.7557737,66.9467034 L89.2766252,67.4292609 L89.9850107,68.1061729 L90.5978603,68.71035 L91.1405881,69.2592215 L91.5610753,69.693058 L92.0421808,70.1982696 L92.6599798,70.8601805 L93.125471,71.3681292 L93.6850586,71.9885267 L93.893223,72.2218732 C94.683003,73.1097167 95.4597929,74.0113951 96.2274392,74.9166721 L97.2439986,76.1226894 L98.7966039,77.9801489 L99.1885829,78.4410857 C99.3196775,78.592479 99.4511743,78.7416162 99.5829755,78.8884855 L99.979194,79.3222785 L100.376651,79.7423952 C100.509278,79.8801469 100.642013,80.0156076 100.774759,80.1487657 L101.172931,80.5413206 C101.438269,80.798403 101.703258,81.0462286 101.967115,81.2847043 L102.361952,81.6353938 L102.709804,81.9334391 L102.738243,81.9337811 C103.970817,81.9228544 105.14204,81.9227153 106.329879,82.013905 L106.925544,82.0674835 L108.446511,82.2132829 L108.868192,82.2521495 L108.614684,81.954243 L108.462005,81.7777952 L108.039449,81.298268 L107.660547,80.8789037 L107.17568,80.3546547 L106.711534,79.8592138 L106.489386,79.6249774 L106.028293,79.1441763 L105.477884,78.5770776 L104.904412,77.9938467 L104.411417,77.4983571 L104.029718,77.1169524 L103.544198,76.6353808 L102.611111,75.7168671 L101.490658,74.6289608 L100.208708,73.3975525 L98.7874671,72.0485075 L97.2560915,70.6084157 L95.7955162,69.245962 L94.4565882,68.0061745 L93.0431939,67.3117773 L90.2182133,64.7033732 L90.4460698,64.6566699 L89.9285732,64.1995745 L89.2250364,63.5615417 L88.8044841,63.1679269 L88.3333248,62.7116162 L87.6876762,62.0638764 L87.3077125,61.6950539 L87.0248795,61.4282698 L86.7255199,61.1537055 L86.4157127,60.8790257 L86.1385276,60.6426807 C86.0460298,60.5654636 85.9536611,60.4901035 85.8621176,60.4174781 L85.5906587,60.2086831 C85.1000747,59.8441502 84.6555069,59.5888843 84.3727546,59.5888843 Z" id="Fill" fill="#FFFFFF"></path>
                                <path d="M57.399139,27.9601567 C57.1427431,27.8324364 56.8769119,27.713606 56.6016455,27.6036654 C52.7693159,26.0730451 51.1578408,23.2240101 51.4285645,19.539348 C51.5455071,17.9477114 49.8738224,17.4744571 50.3032751,16.0084591 C50.7327277,14.5424612 51.9770221,15.0104206 52.6725066,13.9509293 C53.367991,12.891438 52.8947285,11.8018389 52.6725066,10.7570652 C52.4502846,9.71229143 52.4502846,7.76009573 55.7234249,7.39809806 C58.9965651,7.03610039 56.6216805,3.89776203 58.7187444,2.8513333 C60.8158084,1.80490458 64.357137,3.75819344 66.8225978,1.88778637 C69.2880585,0.0173792894 71.2212645,-0.545884799 72.3954601,0.572269182 C73.5696558,1.69042316 75.3276442,3.20330355 77.3782942,1.88778637 C79.4289442,0.572269182 82.2923288,1.65741055 81.9786396,4.49768316 C81.6649504,7.33795577 84.5164097,6.76683202 84.5164097,7.86696161 C84.5164097,8.96709121 81.9786396,8.48644716 81.6649504,10.0421404 C81.3512612,11.5978336 83.1038497,11.5978336 83.6744084,11.7718831 C84.5447154,12.0373711 85.0253482,13.106251 84.2911227,13.9509293 C83.5568972,14.7956077 82.48604,15.0104206 81.1302037,15.0104206 C79.7743675,15.0104206 67.7853432,15.0104206 67.1017545,15.0104206 C66.4181657,15.0104206 65.7609636,15.1758044 65.8901292,16.0084591 C66.0192949,16.8411139 67.4992112,16.5353999 68.3832369,16.7763304 C69.2672627,17.0172609 69.4428296,18.3693477 68.6265215,18.7694406 C67.8102133,19.1695334 66.6212912,18.9158845 65.7966455,19.9570882 C64.9719998,20.9982919 65.71923,22.7559009 64.6497199,23.547106 C63.5802098,24.3383111 62.1628555,23.5403501 61.8278701,22.5926876 C61.8278701,25.8411106 61.8278701,28.2774278 61.8278701,29.9016393" id="Fill" fill="#2E3031"></path>
                                <path d="M100.134607,109.836714 C100.301429,109.832319 100.440125,109.968048 100.444392,110.139872 C100.45816,110.694267 100.465116,111.254257 100.465116,111.819618 C100.465116,112.040393 100.248134,112.190969 100.049478,112.108052 L99.6154265,111.924139 L99.2151044,111.748798 L98.8484381,111.581976 L98.4373222,111.385343 L98.0785362,111.201828 C97.9454687,111.131031 97.8249261,111.063358 97.7168672,110.998776 C97.5725293,110.912513 97.5234148,110.722065 97.6071669,110.573399 C97.6909189,110.424733 97.8758224,110.374146 98.0201603,110.460409 L98.240651,110.586529 L98.3815265,110.660714 L99.8415492,110.240571 L99.8402753,110.155788 C99.8360082,109.983964 99.9677851,109.841109 100.134607,109.836714 Z M95.5055498,92.5081967 L95.7032043,92.5193055 L95.8734342,92.5375931 C96.00306,92.5539299 96.1327987,92.5790112 96.2651479,92.6131893 C96.5221324,92.6795534 96.8141365,92.9848002 97.1205471,93.4854973 L97.2438309,93.6960972 L97.3683582,93.9269274 L97.4938358,94.1773702 L97.6199707,94.4468079 L97.683193,94.5884568 L97.809764,94.8852287 L97.8730394,95.0401972 L97.9993869,95.3629134 L98.1565621,95.7894732 L98.3123594,96.2406454 L98.4356203,96.6184933 L98.6175296,97.2120012 L98.736387,97.6245962 L98.85297,98.050009 L98.9669854,98.487622 L99.0229386,98.7108105 L99.132553,99.1655654 L99.1861407,99.3969774 L99.2906944,99.8674845 L99.3915078,100.347721 C99.4257979,100.515934 99.3212019,100.680928 99.1578862,100.716247 C98.9994235,100.750515 98.8439025,100.650109 98.8034764,100.490453 L88.6355565,102.919739 C88.4329472,100.162602 88.1249282,97.8881709 87.7114995,96.0964453 C87.6095395,96.0860352 87.5154926,96.0210714 87.4694643,95.9177513 C87.3998695,95.7615313 87.4664062,95.5767806 87.6180782,95.5050989 L89.7868818,94.4687459 L90.5719821,94.1018969 L90.9172342,93.944246 L91.2313773,93.8037739 L91.6449563,93.6252702 L91.8827145,93.5277336 L92.1377636,93.4299573 L93.0995148,93.091864 L93.6899815,92.8923842 L93.9446245,92.8104383 L94.2829455,92.708213 L94.483076,92.6530555 L94.665816,92.6076495 L94.833688,92.5714443 L94.9892147,92.5438893 L95.1349186,92.5244336 L95.2733223,92.5125266 L95.3405748,92.5092317 L95.5055498,92.5081967 Z" id="Fill" fill="#780A21"></path>
                                <path d="M16.5110138,91.5737705 L20.3273092,92.5171706 C20.4031521,92.5076021 20.4820231,92.5253878 20.5480249,92.5713276 L31.9271639,95.3857848 L31.9447056,95.34258 L31.9447056,95.34258 C32.0109567,95.1788064 32.1967149,95.100039 32.3596081,95.1666482 C32.5225013,95.2332573 32.6008452,95.4200195 32.5345942,95.5837931 C31.7099396,97.6223516 30.5721868,99.4125529 29.122059,100.952471 C24.2031864,106.175916 18.6352305,108.971946 12.4295934,109.327336 C12.2305957,109.338733 12.0702268,109.165588 12.0956893,108.966833 C12.4141114,106.481287 13.0932951,104.054585 14.1325979,101.687083 L16.5110138,91.5737705 Z" id="Fill" fill="#780A21"></path>
                                <path d="M77.2093023,30.8360656 L77.2093023,28.201557 C77.2093023,27.5922754 76.7343819,27.0983607 76.1492345,27.0983607 C75.7585064,27.0983607 75.1816298,27.519617 74.4186047,28.3621296" id="Border" stroke="#2E3031" stroke-linecap="round" stroke-linejoin="round" transform="translate(75.813953, 28.967213) scale(-1, 1) rotate(-180.000000) translate(-75.813953, -28.967213) "></path>
                                <path d="M73.4883721,28.0327869 L73.4883721,26.8240719 C73.4883721,25.9435938 72.8634257,25.2295082 72.0928574,25.2295082 C71.3226209,25.2295082 70.6976744,25.9435938 70.6976744,26.8240719 L70.6976744,28.0327869" id="Border" stroke="#2E3031" stroke-linecap="round" stroke-linejoin="round" transform="translate(72.093023, 26.631148) scale(-1, 1) rotate(-180.000000) translate(-72.093023, -26.631148) "></path>
                                <path d="M79.0697674,28.0327869 L79.0697674,26.8240719 C79.0697674,25.9435938 78.6533624,25.2295082 78.1393897,25.2295082 C77.6257073,25.2295082 77.2093023,25.9435938 77.2093023,26.8240719 L77.2093023,28.0327869" id="Border" stroke="#2E3031" stroke-linecap="round" stroke-linejoin="round" transform="translate(78.139535, 26.631148) scale(-1, 1) rotate(-180.000000) translate(-78.139535, -26.631148) "></path>
                                <path d="M81.8604651,14.9508197 C81.8604651,16.477786 81.8604651,22.4029839 81.8604651,25.4569165 C81.8604651,27.0944196 81.8604651,31.5267019 81.8604651,33.0888642 L81.8604651,34.3351747 C81.8604651,36.2650415 81.3247813,37.7557023 80.2534137,38.8071571 C78.6463624,40.3843394 77.2093023,42.0037079 77.2093023,44.852459" id="Border" stroke="#2E3031" stroke-linecap="round" stroke-linejoin="round"></path>
                                <path d="M56.6016455,27.6036654 C52.7693159,26.0730451 51.1578408,23.2240101 51.4285645,19.539348 C51.5455071,17.9477114 49.8738224,17.4744571 50.3032751,16.0084591 C50.7327277,14.5424612 51.9770221,15.0104206 52.6725066,13.9509293 C53.367991,12.891438 52.8947285,11.8018389 52.6725066,10.7570652 C52.4502846,9.71229143 52.4502846,7.76009573 55.7234249,7.39809806 C58.9965651,7.03610039 56.6216805,3.89776203 58.7187444,2.8513333 C60.8158084,1.80490458 64.357137,3.75819344 66.8225978,1.88778637 C69.2880585,0.0173792894 71.2212645,-0.545884799 72.3954601,0.572269182 C73.5696558,1.69042316 75.3276442,3.20330355 77.3782942,1.88778637 C79.4289442,0.572269182 82.2923288,1.65741055 81.9786396,4.49768316 C81.6649504,7.33795577 84.5164097,6.76683202 84.5164097,7.86696161 C84.5164097,8.96709121 81.9786396,8.48644716 81.6649504,10.0421404 C81.3512612,11.5978336 83.1038497,11.5978336 83.6744084,11.7718831 C84.5447154,12.0373711 85.0253482,13.106251 84.2911227,13.9509293 C83.5568972,14.7956077 82.48604,15.0104206 81.1302037,15.0104206 C79.7743675,15.0104206 67.7853432,15.0104206 67.1017545,15.0104206 C66.4181657,15.0104206 65.7609636,15.1758044 65.8901292,16.0084591 C66.0192949,16.8411139 67.4992112,16.5353999 68.3832369,16.7763304 C69.2672627,17.0172609 69.4428296,18.3693477 68.6265215,18.7694406 C67.8102133,19.1695334 66.6212912,18.9158845 65.7966455,19.9570882 C64.9719998,20.9982919 65.71923,22.7559009 64.6497199,23.547106 C63.5802098,24.3383111 62.1628555,23.5403501 61.8278701,22.5926876 C61.8278701,25.8411106 61.8278701,28.2774278 61.8278701,29.9016393 C58.5272313,28.4429504 56.7851564,27.6769591 56.6016455,27.6036654 Z" id="Border" stroke="#2E3031" stroke-linecap="round" stroke-linejoin="round"></path>
                                <path d="M61.3953488,29.4630185 C60.6704351,29.0680213 60.1169335,28.9090382 59.7348441,28.9860694 C59.1617098,29.1016162 58.6046512,29.1305001 58.6046512,31.5415043 C58.6046512,33.9525085 61.3953488,34.6883717 61.3953488,34.6883717 L61.3953488,49.5245902" id="Border" stroke="#2E3031" stroke-linecap="round" stroke-linejoin="round"></path>
                                <path d="M61.3953488,51.3934426 C61.3953488,51.3934426 61.8502534,50.4533707 63.255814,49.5245902" id="Border" stroke="#2E3031" stroke-linecap="round" stroke-linejoin="round" transform="translate(62.325581, 50.459016) scale(-1, 1) rotate(-180.000000) translate(-62.325581, -50.459016) "></path>
                                <path d="M73.4883721,36.442623 C73.4883721,36.442623 73.4672321,33.6393443 75.7311643,33.6393443 C77.9950965,33.6393443 78.1395349,36.442623 78.1395349,36.442623" id="Border" stroke="#2E3031" stroke-linecap="round" stroke-linejoin="round" transform="translate(75.813953, 35.040984) scale(-1, 1) rotate(-180.000000) translate(-75.813953, -35.040984) "></path>
                                <line x1="70.6976744" y1="19.638186" x2="73.4883721" y2="19.638186" id="Border" stroke="#2E3031" stroke-linecap="round" stroke-linejoin="round" transform="translate(72.093023, 19.638186) scale(-1, 1) rotate(-180.000000) translate(-72.093023, -19.638186) "></line>
                                <line x1="76.2790698" y1="19.638186" x2="79.0697674" y2="19.638186" id="Border" stroke="#2E3031" stroke-linecap="round" stroke-linejoin="round" transform="translate(77.674419, 19.638186) scale(-1, 1) rotate(-180.000000) translate(-77.674419, -19.638186) "></line>
                                <path d="M41.8604651,63.5409836 C39.7515576,66.6606398 37.3248524,69.7460226 34.3677922,72.048044 C30.3590611,75.1687735 27.1028095,76.994853 21.7046745,78.3805912 C19.1152978,79.0453018 13.9629923,80.3281399 9.30232558,82.2295082" id="Border" stroke="#2E3031" stroke-linecap="round" stroke-linejoin="round"></path>
                                <path d="M47.4418605,68.2131148 C42.4346705,74.6348431 37.7835077,78.9954988 33.4883721,81.295082" id="Border" stroke="#2E3031" stroke-linecap="round" stroke-linejoin="round"></path>
                                <path d="M98.9879915,62.6065574 C109.419651,74.2583718 120.263792,84.5706509 114.828077,89.5140443 C108.718268,95.0704784 97.9694316,88.726641 91.1741923,78.3527767 C86.9334656,71.878726 81.6583472,68.2202417 75.3488372,67.377324" id="Border" stroke="#2E3031" stroke-linecap="round" stroke-linejoin="round"></path>
                                <path d="M93.7302757,68.4145157 C104.593289,78.4384094 109.937635,84.0790634 109.763312,85.3364777 C109.494005,87.2790265 103.351508,84.6769892 98.0448821,78.3256216 C92.738256,71.9742541 87.2022601,65.2375368 80,61.6721311" id="Border" stroke="#2E3031" stroke-linecap="round" stroke-linejoin="round"></path>
                                <path d="M59.5642572,49.5245902 C59.7378687,49.5245902 60.4137931,53.2554745 65.3793103,54.0875912 L77.9905684,49.8143286 C78.0348291,49.7312661 78.1158809,49.6704258 78.2122339,49.6530989 L78.2687389,49.6480811 L82.7987935,49.6480811 C86.3441569,49.7542194 89.5538351,51.3532401 92.4158788,54.4291169 L93.8401117,55.9678197 C97.6366264,60.2519917 99.5348837,62.4186615 99.5348837,62.4678292 C99.5348837,64.2039012 97.7099647,65.9802282 94.1014065,67.8610678 L93.6096993,68.1124713 C93.5082639,68.1633707 93.3885436,68.1555002 93.2957001,68.0953583 L93.2517272,68.0609615 L84.6592582,60.0130779 L84.4840817,59.8703663 L84.3313462,59.7507688 L84.1995854,59.6536322 L84.0873328,59.5783035 C83.9525284,59.4936901 83.8640916,59.4634444 83.8072234,59.4809754 L83.7128314,60.2177714 L83.7129748,62.6889842 C83.7129748,62.860991 83.5722348,63.00043 83.3986234,63.00043 C83.244302,63.00043 83.1159533,62.8902559 83.0893366,62.744967 L83.0842719,62.6889842 L83.0847375,62.609014 L82.6037135,62.342087 L82.0802873,62.0620864 L81.6167319,61.8222719 L81.0993804,61.563298 L80.7277256,61.3828471 L80.3368607,61.1981447 L79.9286654,61.0108961 L79.5050194,60.8228069 L79.0678023,60.6355825 L78.618894,60.4509285 C78.5432061,60.4204617 78.4671093,60.3901731 78.390643,60.3600983 L77.9277221,60.1824974 L77.4578091,60.0117306 C76.9850267,59.8449493 76.5045757,59.6909772 76.0249148,59.5574889 L75.6028668,59.4449582 L75.2003474,59.3446566 L74.7606876,59.2436552 C74.0058766,59.0789308 73.1631066,58.9427484 72.5663419,58.9923967 L71.9543671,59.0410733 C71.4236059,59.0900149 70.9823185,59.1747459 70.6831476,59.4924873 C70.206002,59.9992508 70.5114763,60.4475211 70.9472297,60.8070213 L71.0812117,60.912178 L71.2190964,61.0118268 L71.3569698,61.1057861 L71.7313814,61.3517104 L71.8300689,61.421095 L71.9091748,61.4838818 C72.0678659,61.6225456 72.0346761,61.7058436 71.5858524,61.7233909 L71.4832326,61.7261409 C70.7966458,61.7370615 70.6464241,61.9448049 70.5942589,62.1785712 L70.5792055,62.2618794 L70.5680129,62.34568 L70.5541215,62.4418433 C70.5269874,62.5977345 70.4697408,62.7362657 70.2449207,62.8038711 L70.1635857,62.8237059 C69.9846019,62.8584384 69.9993629,62.9232716 70.1433747,63.0083265 L70.2343573,63.0566662 C70.2515282,63.0650373 70.2696704,63.0735606 70.2887354,63.0822288 L70.4138118,63.1359169 L70.55871,63.1927252 L70.7211043,63.2522975 L71.0890777,63.3783091 L71.9326397,63.6478245 L72.6459651,63.8732123 L73.1593155,64.0431965 L73.513264,64.1708915 L73.6644268,64.2309179 L73.7950361,64.2878843 C74.0539443,64.4077191 74.1504515,64.5033002 73.9697007,64.5570342 L73.6535203,64.6544392 C73.4991683,64.7037717 73.3506086,64.7540487 73.2086738,64.8052684 L72.933884,64.9089637 C72.0490061,65.2587996 71.4832326,65.6504639 71.4832326,66.0833426 C71.4832326,66.3263609 71.8955937,66.5565096 72.539316,66.7707338 L72.7912033,66.8503155 C72.8348742,66.8634527 72.8793605,66.8765263 72.9246179,66.8895353 L73.2050634,66.9668105 L73.5018962,67.0425033 L73.8129953,67.1165779 L74.1362395,67.1889985 L74.6392382,67.2944499 L75.3326143,67.4289285 L75.9391411,67.5390089 L77.7414179,67.842421 L77.68619,67.8674753 C78.4721266,68.1145376 79.0106515,68.287696 79.3017645,68.3869504 C79.7581593,68.5425573 80.1053029,68.6813908 80.3368607,68.7727963 C81.0671585,69.0610754 81.5732547,69.3241703 81.8878184,69.4869263 C82.1919836,69.6443021 82.5272874,69.8289905 82.8276974,70.0060827 C83.3178203,70.2950111 83.7129748,70.5527395 83.7129748,70.5570628 C83.7129748,70.5677789 83.7129748,70.5742535 83.7129748,70.5764865 C83.7129748,73.8715948 83.6707188,78.9154423 83.5862069,85.7080292 C83.5862069,85.8227004 78.6206897,88.0416785 68.6896552,92.3649635 L53.7931034,88.2043796 L54.1352978,62.9076661 C54.1291142,61.7812806 53.9139828,61.2939404 53.595936,61.2939404 C53.2974963,61.2939404 53.0724067,61.4406439 52.7940804,61.8166562 C49.7607493,66.4472981 48.2017276,68.7534865 48.1170153,68.7352215 L48.0631728,68.7184788 L47.5377431,68.498447 L47.0323239,68.2787248 C46.7226936,68.141489 40.9441372,64.3875311 40.9441372,62.9087714 C40.9327808,62.8624631 40.9458958,62.8115253 40.9834822,62.7559579 C45.944082,55.3635487 48.6353955,51.4686612 49.0574226,51.0712955 C50.0867522,50.1021155 51.0792771,49.5784759 52.0953277,49.5285349 L52.255961,49.5245902 L59.5642572,49.5245902 Z" id="Fill" stroke="#780A21" fill="#DC143D"></path>
                                <path d="M65.3988524,58.8688525 L57.3918452,58.8688525 C57.0341529,58.8688525 56.744186,59.1627335 56.744186,59.5252541 L56.744186,63.2643638 C56.744186,63.4954016 56.8640304,63.709427 57.0597394,63.8278982 L61.063243,66.2513951 C61.2677926,66.375218 61.5229051,66.375218 61.7274547,66.2513951 L65.7309583,63.8278982 C65.9266673,63.709427 66.0465116,63.4954016 66.0465116,63.2643638 L66.0465116,59.5252541 C66.0465116,59.1627335 65.7565447,58.8688525 65.3988524,58.8688525 Z" id="Border" stroke="#FFFFFF" fill-rule="nonzero"></path>
                                <path d="M77.4986742,46.7213115 L77.601974,46.7246097 C78.3873644,46.7749211 79.0154488,47.3948072 79.0664256,48.1699459 L79.0697674,48.2718973 L79.0697674,60.4579282 L79.064705,60.5136721 C79.0380995,60.6583413 78.9098049,60.7680454 78.7555488,60.7680454 C78.6012926,60.7680454 78.4729981,60.6583413 78.4463926,60.5136721 L78.4413301,60.4579282 L78.4405396,60.3913096 L77.6751116,60.2323042 L76.7441313,60.0456588 L76.1130887,59.9246961 L75.5396398,59.8200375 L74.8646316,59.7058544 L74.4255682,59.6392385 L74.1648558,59.6038857 L73.8217819,59.5644431 L73.5798823,59.5440288 L73.5798823,59.5440288 L73.5363018,59.5413046 C72.8802459,59.5030006 72.3865063,59.5979557 72.0127317,59.7157299 L71.8204975,59.7815697 C71.7903565,59.7926989 71.7611433,59.8038507 71.7328261,59.8149422 L71.5734202,59.8801034 L71.3712898,59.9664175 L71.2589612,60.0105336 L71.2089517,60.02707 L71.2089517,60.02707 L71.1627907,60.0392617 C70.6365892,60.1562995 71.0151635,60.7366079 71.5547497,61.1077583 L71.7102905,61.2081742 L71.8695874,61.3002092 L72.0282873,61.3841373 L72.1820373,61.4602326 L72.5161896,61.6180007 L72.6604774,61.6917664 L72.6604774,61.6917664 L72.7241824,61.7328082 C72.7730788,61.7707101 72.775373,61.7993291 72.7114765,61.8198984 C71.8240465,62.1055766 71.2226539,62.3830799 70.9072987,62.6524084 C70.3337405,63.1422547 70.6291441,63.6710149 71.7935096,64.2386888 L72.0297214,64.3490471 L72.2876346,64.4603772 L72.5672492,64.5726792 L72.9472852,64.7144233 L72.9472852,64.7144233 L73.3612297,64.8576859 L73.5363018,64.9154161 L71.9625378,66.2594863 C72.4322724,66.68843 73.1385335,67.0558198 74.0813211,67.3616557 L74.3528488,67.4463278 L74.654554,67.5339689 L74.9864365,67.6245788 L75.3484963,67.7181577 L75.9481687,67.8640927 L76.385672,67.9650938 L77.0985094,68.1221622 L77.6114561,68.2305857 L78.4374587,68.3987875 C78.4658467,68.2570637 78.5919875,68.1503119 78.7437468,68.1496295 C78.8980013,68.1489359 79.0268009,68.258062 79.054074,68.40261 L79.0593937,68.4583306 L79.0640118,69.4587433 L79.0606863,69.567759 C79.0097095,70.3428977 78.3816251,70.9627838 77.5962347,71.0130952 L77.4929349,71.0163934 L64.8269072,71.0163934 L64.7236074,71.0130952 C63.938217,70.9627838 63.3101326,70.3428977 63.2591558,69.567759 L63.255814,69.4658076 L63.255814,48.2718973 L63.2591558,48.1699459 C63.3101326,47.3948072 63.938217,46.7749211 64.7236074,46.7246097 L64.8269072,46.7213115 L77.4986742,46.7213115 Z M67.3665022,49.0115656 C66.5704485,49.0115656 65.9253147,49.6492542 65.9253147,50.4356458 C65.9253147,51.2220373 66.5704485,51.8597259 67.3665022,51.8597259 C68.1625558,51.8597259 68.8076896,51.2220373 68.8076896,50.4356458 C68.8076896,49.6492542 68.1625558,49.0115656 67.3665022,49.0115656 Z" id="Fill" fill="#2E3031"></path>
                                <path d="M17.6744186,108.120686 C26.3550579,113.000342 45.0561657,112.690937 91.3938419,102.679865 C97.4642624,101.368375 107.906977,98.9179496 107.906977,95.2354893 C107.906977,92.7927747 103.04113,93.2081281 96.7553632,94.3497123" id="Border" stroke="#2E3031" stroke-linecap="round" stroke-linejoin="round"></path>
                                <path d="M85.5813953,64.4754098 C83.8262826,63.0316172 81.9756451,61.7602817 80,60.7377049" id="Border" stroke="#2E3031" stroke-linecap="round" stroke-linejoin="round"></path>
                                <path d="M45.5813953,110.318784 C66.2608792,118.995256 128.359741,112.280892 119.05712,90.7402517 C118.416266,89.2563252 117.629351,87.9842162 116.719093,86.9016393" id="Border" stroke="#2E3031" stroke-linecap="round" stroke-linejoin="round"></path>
                                <path d="M106.976744,81.9259733 C105.480523,81.6856217 103.922884,81.5846905 102.325581,81.6001502" id="Border" stroke="#2E3031" stroke-linecap="round" stroke-linejoin="round"></path>
                                <path d="M94.8837209,83.1639344 C81.9701377,85.6528442 68.9515677,92.7457459 68.1797296,92.5020709 C48.7299486,86.3616303 34.8375632,83.29141 26.5025734,83.29141 C19.2578886,83.29141 14.2511545,86.2848827 12.0930233,90.5470059" id="Border" stroke="#2E3031" stroke-linecap="round" stroke-linejoin="round"></path>
                                <path d="M45.5813953,99.1514898 C39.6720209,96.8632113 31.2999279,94.6828834 20.4651163,92.6105062" id="Border" stroke="#2E3031" stroke-linecap="round" stroke-linejoin="round"></path>
                                <path d="M29.7674419,100.319437 C30.3020223,100.318729 30.5904353,100.318761 30.6326808,100.319532 C37.6424737,100.447483 56.0399051,98.4666557 85.8249748,94.3770492 C86.9028986,97.2402084 87.4418605,100.043487 87.4418605,102.786885" id="Border" stroke="#2E3031" stroke-linecap="round" stroke-linejoin="round"></path>
                                <path d="M80.0466284,68.2131148 C78.5900478,67.7856801 77.3114942,67.4940146 76.2109677,67.3381183 C74.2833278,67.0650564 72.0613372,66.8892176 72.0613372,65.8465851 C72.0613372,64.7873537 74.0395054,64.5294804 77.9958418,65.0729652 C73.1303969,64.4947761 70.6976744,63.6648249 70.6976744,62.5831114 C70.6976744,61.501398 73.1303969,61.3756324 77.9958418,62.2058146 C73.0436636,61.4939439 70.708005,60.6209005 70.988866,59.5866845 C71.4887544,57.7459421 78.7320303,59.9200831 80.9302326,60.8295366" id="Border" stroke="#2E3031" stroke-linecap="round" stroke-linejoin="round"></path>
                                <g id="Highlights" transform="translate(44.651163, 18.688525)" stroke="#FFFFFF" stroke-linecap="round" stroke-linejoin="round">
                                    <path d="M51.0054645,43.6060473 C50.324484,44.20383 48.6518878,45.1563053 45.987676,46.463473" id="Border" transform="translate(48.496570, 45.034760) rotate(-7.000000) translate(-48.496570, -45.034760) "></path>
                                    <line x1="15.1807222" y1="58.132334" x2="26.7065036" y2="65.0268096" id="Border"></line>
                                    <line x1="23.2520037" y1="59.000268" x2="26.3004279" y2="61.277449" id="Border"></line>
                                    <path d="M5.43118046,43.6619683 C4.67413883,44.2901296 2.86374534,45.2721608 0,46.6080619" id="Border" transform="translate(2.715590, 45.135015) scale(-1, 1) translate(-2.715590, -45.135015) "></path>
                                    <path d="M9.32481541,0 C8.73375422,1.86470957 9.13218441,3.17970947 10.520106,3.94499968" id="Border"></path>
                                    <path d="M11.2160289,0 C10.9049773,1.08628608 11.114655,1.85233892 11.8450621,2.29815854" id="Border"></path>
                                </g>
                            </g>
                            <g id="hand" transform="translate(0.131424, 82.446154)">
                                <path d="M7,0.947841035 C2.39990043,3.04874764 0,4.52626658 0,7.9405769 C0,15 6.73883204,15 12.0032443,15 C13.7732198,15 14.0272729,13.4166534 13.3234964,12.9485232 C12.8623553,12.6417865 11.0688273,12.4053333 7.9429124,12.2391635 C11.9809708,12.71207 14,12.3994632 14,11.3013433 C14,10.2032233 12.2459238,9.8439555 8.7377714,10.2235399 C12.1725522,9.58021436 13.7011272,8.8192267 13.3234964,7.9405769 C13.046937,7.29709423 12.0109719,7.12486865 10.2156013,7.42390016 C9.77817726,7.49675619 9.99847638,6.78537679 10.8764986,5.28976197 C10.6327556,5.03056522 10.4124565,4.8683521 10.2156013,4.80312261 C9.62587538,4.60771236 9.02434518,4.70534859 8.59305458,4.58829384 C7.88773691,4.39686656 7.24240194,4.04391957 7.11764755,3.7518688 C6.90917216,3.26382666 6.67570876,2.61607075 6.75980759,2.11992912 C6.99045923,0.759198213 7.00786874,0.944214019 7,0.947841035 Z" id="Fill" fill="#FFFFFF"></path>
                                <path d="M8.32060154,0 C3.78382725,2.05607183 0,4.74383811 0,8.06370939 C0,15 6.73883204,15 12.0032443,15 C13.7732198,15 14.0272729,13.4442706 13.3234964,12.9843056 C12.8623553,12.6829192 11.0688273,12.4505902 7.9429124,12.2873188 C11.9809708,12.7519767 14,12.4448225 14,11.3658563 C14,10.2868901 12.2459238,9.93388871 8.7377714,10.3068523 C12.1725522,9.67474782 13.7011272,8.92703353 13.3234964,8.06370939 C12.9458656,7.20038526 11.1523376,7.20038526 7.9429124,8.06370939" id="Border" stroke="#2E3031" stroke-linecap="round" stroke-linejoin="round"></path>
                            </g>
                        </g>
                    </g>
                </g>
            </g>
        </g>
    </g>
</svg>