<?xml version="1.0" encoding="UTF-8"?>
<svg width="20px" height="10px" viewBox="0 0 20 10" version="1.1" xmlns="http://www.w3.org/2000/svg" xmlns:xlink="http://www.w3.org/1999/xlink">
    <title>3 Icons/1 General/Cancel/24px/1 Outlined</title>
    <defs>
        <rect id="path-1" x="0" y="0" width="24" height="24"></rect>
    </defs>
    <g id="Input" stroke="none" stroke-width="1" fill="none" fill-rule="evenodd">
        <g id="3-Icons/1-General/Cancel/24px/1-Outlined" transform="translate(-2.000000, -7.000000)">
            <mask id="mask-2" fill="white">
                <use xlink:href="#path-1"></use>
            </mask>
            <use id="mask" fill-opacity="0" fill="#FFFFFF" xlink:href="#path-1"></use>
            <g id="🎨-colour" mask="url(#mask-2)" fill="#55585A">
                <g transform="translate(2.408509, 7.500000)">
                    <path d="M0.8535515,0.14644575 C0.6582915,-0.04881525 0.3417085,-0.04881525 0.1464465,0.14644575 C-0.0488155,0.34170875 -0.0488155,0.65828975 0.1464465,0.85354975 L1.5581315,2.26523975 L0.2499245,4.53111975 C0.1118535,4.77026975 0.1937905,5.07605975 0.4329365,5.21412975 C0.6720815,5.35219975 0.9778815,5.27026975 1.1159515,5.03111975 L2.2924015,2.99344975 C2.6598915,3.34071975 3.0463215,3.65639975 3.4482415,3.94051975 C3.4306215,3.96518975 3.4149915,3.99182975 3.4017215,4.02030975 L2.1338615,6.73923975 C2.0171615,6.98950975 2.1254315,7.28699975 2.3757015,7.40369975 C2.6259815,7.52039975 2.9234715,7.41211975 3.0401715,7.16184975 L4.2916415,4.47805975 C4.8327715,4.78751975 5.3955715,5.04491975 5.9727415,5.25025975 L5.2679015,7.88076975 C5.1964315,8.14749975 5.3547215,8.42166975 5.6214515,8.49313975 C5.8881915,8.56461975 6.1623615,8.40631975 6.2338315,8.13958975 L6.9303315,5.54019975 C7.6178915,5.71301975 8.3195215,5.81530975 9.0237515,5.84708975 C9.0082815,5.89528975 8.9999215,5.94668975 8.9999215,6.00002975 L8.9999215,8.50002975 C8.9999215,8.77616975 9.2237815,9.00002975 9.4999215,9.00002975 C9.7760915,9.00002975 9.9998915,8.77616975 9.9998915,8.50002975 L9.9998915,6.00002975 C9.9998915,5.94668975 9.9915915,5.89529975 9.9760915,5.84708975 C10.5706915,5.82025975 11.1634915,5.74315975 11.7474915,5.61577975 L12.4057915,8.07244975 C12.4772915,8.33918975 12.7513915,8.49747975 13.0181915,8.42599975 C13.2848915,8.35452975 13.4431915,8.08036975 13.3716915,7.81362975 L12.7132915,5.35636975 C13.3072915,5.16600975 13.8876915,4.92144975 14.4466915,4.62268975 L15.5994915,7.09471975 C15.7161915,7.34498975 16.0135915,7.45325975 16.2638915,7.33655975 C16.5141915,7.21985975 16.6224915,6.92236975 16.5057915,6.67209975 L15.3094915,4.10666975 C15.8798915,3.72699975 16.4213915,3.28558975 16.9245915,2.78244975 L16.9417915,2.76527975 L18.2498915,5.03111975 C18.3879915,5.27026975 18.6937915,5.35219975 18.9328915,5.21412975 C19.1720915,5.07605975 19.2539915,4.77026975 19.1159915,4.53111975 L17.6737915,2.03322975 L18.8534915,0.85354975 C19.0486915,0.65828975 19.0486915,0.34170775 18.8534915,0.14644575 C18.6581915,-0.04881525 18.3415915,-0.04881525 18.1463915,0.14644575 L16.2174915,2.07533975 C12.5074915,5.78531975 6.4924215,5.78531975 2.7824415,2.07533975 L2.5417115,1.83459975 L2.5318215,1.82470975 L0.8535515,0.14644575 Z"></path>
                </g>
            </g>
        </g>
    </g>
</svg>