<?xml version="1.0" encoding="UTF-8"?>
<svg width="40px" height="40px" viewBox="0 0 40 40" version="1.1" xmlns="http://www.w3.org/2000/svg" xmlns:xlink="http://www.w3.org/1999/xlink">
    <title>E42D4871-3E81-46DF-A24E-B0641622A5D9</title>
    <g id="Icons-40px" stroke="none" stroke-width="1" fill="none" fill-rule="evenodd">
        <g id="🎨-colour" fill="#0B875D" transform="translate(3.333333, 3.333333)">
            <path d="M16.6666667,33.3333333 C25.8713333,33.3333333 33.3333333,25.8713333 33.3333333,16.6666667 C33.3333333,7.46191667 25.8713333,0 16.6666667,0 C7.462,0 0,7.46191667 0,16.6666667 C0,25.8713333 7.462,33.3333333 16.6666667,33.3333333 Z M26.006,11.4225833 C26.3313333,11.09715 26.3313333,10.5695167 26.006,10.2440833 C25.6805,9.91863333 25.1528333,9.91863333 24.8273333,10.2440833 L13.75,21.3215 L8.506,16.0774167 C8.1805,15.7519667 7.65283333,15.7519667 7.32733333,16.0774167 C7.002,16.40285 7.002,16.9305 7.32733333,17.256 L13.1606667,23.0893333 C13.4861667,23.4146667 14.0138333,23.4146667 14.3393333,23.0893333 L26.006,11.4225833 Z"></path>
        </g>
    </g>
</svg>