<?xml version="1.0" encoding="UTF-8"?>
<svg width="360px" height="216px" viewBox="0 0 360 216" version="1.1" xmlns="http://www.w3.org/2000/svg" xmlns:xlink="http://www.w3.org/1999/xlink">
    <title>2C0435CA-2745-4A79-8E21-B0C07E013CC9</title>
    <g id="Micro-illustrations" stroke="none" stroke-width="1" fill="none" fill-rule="evenodd">
        <g id="2---Micro-illustrations/Cards/Credit-card/credit-card-360px">
            <g id="Credit-Card-" transform="translate(75.000000, 40.000000)">
                <g id="freepik--Device--inject-31">
                    <path d="M205.963165,54.7947876 L197.965219,134.680053 C197.508864,139.140771 193.531407,142.394745 189.065119,141.961262 L62.2603776,129.271154 C60.1155043,129.056672 58.1440161,127.998719 56.7804356,126.33047 C55.4168551,124.662221 54.773114,122.520618 54.991095,120.377678 L62.9890408,40.4924126 C63.4088352,36.3338865 67.1196733,33.3007109 71.2819216,33.7139537 L199.144959,46.5080782 C201.149868,46.7009555 202.995566,47.6831065 204.274739,49.2377872 C205.553911,50.7924679 206.161408,52.7918801 205.963165,54.7947876 Z" id="Path" stroke="#E7E7E7" fill="#E7E7E7" fill-rule="nonzero"></path>
                    <polygon id="Rectangle" fill="#2E3031" fill-rule="nonzero" transform="translate(132.021957, 72.738319) rotate(5.860000) translate(-132.021957, -72.738319) " points="60.1717967 63.806863 203.873469 63.7960014 203.872117 81.6697748 60.1704447 81.6806364"></polygon>
                    <polygon id="Rectangle" fill="#FFFFFF" fill-rule="nonzero" transform="translate(129.975413, 92.786955) rotate(5.860000) translate(-129.975413, -92.786955) " points="67.6061775 87.7814646 192.345405 87.7720363 192.344648 97.7924446 67.6054196 97.8018729"></polygon>
                    <polygon id="Rectangle" fill="#2E3031" fill-rule="nonzero" transform="translate(114.653725, 107.693599) rotate(5.860000) translate(-114.653725, -107.693599) " points="66.0072347 106.717773 163.300363 106.710419 163.300214 108.669426 66.0070865 108.67678"></polygon>
                    <polygon id="Rectangle" fill="#2E3031" fill-rule="nonzero" transform="translate(116.362660, 111.678410) rotate(5.860000) translate(-116.362660, -111.678410) " points="65.6082683 110.702743 167.1172 110.69507 167.117052 112.654078 65.6081201 112.66175"></polygon>
                    <polygon id="Rectangle" fill="#2E3031" fill-rule="nonzero" transform="translate(102.800160, 114.997298) rotate(5.767889) translate(-102.800160, -114.997298) " points="64.5715373 114.0255 141.028929 114.01981 141.028784 115.969096 64.5713922 115.974785"></polygon>
                    <path d="M133.160908,-0.147735059 C135.287429,-0.492724359 137.353676,0.0529646422 138.977465,1.21565272 C140.601328,2.37839302 141.782695,4.15817911 142.139548,6.28222251 L155.151372,85.5086003 C155.512792,87.7030244 154.986546,89.9510176 153.688503,91.7575415 C152.390514,93.5639894 150.427222,94.7808654 148.231026,95.1401533 L22.4847162,115.752887 C20.2907188,116.11377 18.0431928,115.58739 16.2381571,114.289939 C14.4330452,112.992432 13.2188575,111.030468 12.8636166,108.837604 L-0.148309052,29.6106048 C-0.492996457,27.4843781 0.0564497229,25.4195077 1.22389668,23.7992602 C2.39129089,22.179086 4.17663883,21.0034947 6.3036961,20.6557884 Z" id="Path" stroke="#FFFFFF" stroke-width="0.5" fill="#2E3031" fill-rule="nonzero"></path>
                    <g id="Content/Logos/MCB-icon/3---logo-mcb-icon-white" transform="translate(14.374902, 30.782240)" fill="#FFFFFF">
                        <rect id="Rectangle" fill-opacity="0" x="0" y="0" width="24.2887724" height="20.8034544"></rect>
                        <path d="M12.6386422,3.69743878 C11.8022287,5.00058332 11.0944009,6.47803254 10.9708697,7.80117263 C10.9660174,7.85348423 10.9611651,7.90397805 10.9581324,7.953462 C10.7256268,10.8849313 11.834173,12.8493429 13.2658008,14.2062129 C14.4572402,15.3302054 15.8858353,15.9965218 16.9092642,16.3388699 C16.0160384,15.4782532 15.485117,14.4009171 15.359564,13.1785626 L15.359564,13.1743212 C15.3249914,12.8356086 15.3213522,12.4865953 15.3504659,12.129705 C15.3583509,12.0305351 15.3684598,11.9313653 15.3813993,11.8311855 C15.7505777,8.40709849 18.3661643,5.84847557 18.38618,5.82807607 C20.2397548,3.75419383 22.4073133,2.4934641 23.2869931,2.03296045 C19.8728004,1.84411355 16.2050755,2.41651151 12.6386422,3.69743878 M5.73545073,14.0005011 C7.20771645,17.8158142 11.0567956,20.3586831 15.3644163,20.3635305 C16.1430067,20.3643384 16.9084554,20.2827404 17.6559103,20.1211601 C16.2099278,20.563688 14.6978329,20.7876786 13.1475262,20.7876786 C7.92706847,20.7868707 2.92213331,18.128068 0.346982463,14.001107 Z M24.1070301,15.0925814 C22.3007651,17.9945623 19.1057342,19.7157957 15.5215092,19.7157957 C12.5444269,19.7157957 9.84251002,18.5459549 7.9610345,16.4738904 C9.50466932,17.7346202 11.426985,18.4181045 13.4693948,18.4181045 C16.1814206,18.4181045 18.6787327,17.2066568 20.3297244,15.0923795 Z M11.2389587,4.23085551 C10.5843039,5.31485686 10.0590435,6.49217081 9.89426778,7.66887882 C9.88658499,7.7230082 9.88011527,7.77895535 9.87303902,7.83550843 C9.48384491,11.0024809 10.6441488,13.314896 12.1627135,14.8529378 C12.9182555,15.6210498 13.7550734,16.2067781 14.5417509,16.6442566 C14.6214093,16.6882872 14.6935871,16.7276724 14.7720325,16.7686733 C14.6883305,16.7664516 14.6151418,16.7660477 14.5383139,16.7626141 C12.4787189,16.6705134 11.0230318,16.1235643 10.363929,15.8208033 C6.51505202,14.091289 4.82544414,10.233359 5.10647261,7.27926849 C6.64889436,6.0967032 9.59180836,4.87030926 11.2389587,4.23085551 Z M14.569692,0.445030749 C15.0274247,-0.36004274 18.3920836,-0.100504498 20.8333921,1.45046372 C16.8698797,1.58800889 13.0972241,2.95073614 13.0972241,2.95073614 C13.6305717,2.03114267 13.9876194,1.22647313 14.569692,0.445030749 Z" id="Ship"></path>
                    </g>
                    <path d="M128.134998,25.236546 L116.094707,27.2995553 C113.318236,27.7095715 110.716457,25.8459675 110.213354,23.0868557 C109.803032,20.3124513 111.668024,17.7126085 114.429191,17.2098799 L126.469482,15.2508879 C127.809051,15.0257236 129.183167,15.3438003 130.287211,16.134606 C131.391256,16.9254116 132.134016,18.1236124 132.350835,19.4635874 C132.700687,22.2007616 130.850371,24.734493 128.134998,25.236546 Z" id="Path" fill="#FF930F" fill-rule="nonzero"></path>
                    <polygon id="Rectangle" fill="#FFFFFF" fill-rule="nonzero" transform="translate(56.027577, 85.183777) rotate(-9.320000) translate(-56.027577, -85.183777) " points="21.9109933 83.5067419 90.1437629 83.514857 90.1441611 86.8608113 21.9113915 86.8526962"></polygon>
                    <polygon id="Rectangle" fill="#FFFFFF" fill-rule="nonzero" transform="translate(47.401500, 94.142169) rotate(-9.320000) translate(-47.401500, -94.142169) " points="23.251793 92.4663193 71.5508092 92.4720636 71.5512074 95.8180179 23.2521912 95.8122735"></polygon>
                    <polygon id="Rectangle" fill="#FFFFFF" fill-rule="nonzero" transform="translate(88.262761, 23.090510) rotate(-9.320000) translate(-88.262761, -23.090510) " points="71.2434044 21.4155088 105.28172 21.4195571 105.282118 24.7655113 71.2438027 24.7614631"></polygon>
                </g>
                <g id="Card-number" transform="translate(105.935859, 83.023040) rotate(-9.000000) translate(-105.935859, -83.023040) translate(25.907830, 51.654792)" fill-rule="nonzero">
                    <g id="Group" transform="translate(0.000000, -0.000000)" fill="#FFFFFF">
                        <path d="M0.344002416,7.40970284 L2.11861806,7.40970284 L2.11861806,1.14121436 C2.11861806,1.0174463 2.12407841,0.88639776 2.13499912,0.748068746 L0.431368109,2.26058731 C0.394965737,2.29334944 0.351282891,2.30973051 0.30031957,2.30973051 C0.238435537,2.30973051 0.191112453,2.28788909 0.158350319,2.24420624 L1.13686838e-13,2.02579201 L2.23328553,0.0546035581 L2.63735186,0.0546035581 L2.63735186,7.40970284 L4.3246018,7.40970284 L4.3246018,7.81376917 L0.344002416,7.81376917 L0.344002416,7.40970284 Z" id="Path"></path>
                        <path d="M8.45471041,4.54747351e-13 C8.74956963,4.54747351e-13 9.03077795,0.0427727872 9.29833539,0.128318362 C9.56589282,0.213863936 9.80159818,0.343092357 10.0054515,0.516003624 C10.2093047,0.688914892 10.3712953,0.905509006 10.4914231,1.16578597 C10.611551,1.42606293 10.6716149,1.73093279 10.6716149,2.08039556 C10.6716149,2.37161454 10.627022,2.64190215 10.5378362,2.8912584 C10.4486503,3.14061465 10.3276125,3.37996025 10.1747225,3.60929519 C10.0218325,3.83863014 9.84437097,4.06159467 9.6423378,4.27818878 C9.44030464,4.49478289 9.22826082,4.7159273 9.00620635,4.94162201 L6.58726873,7.40970284 C6.70375632,7.38058094 6.8247942,7.35873952 6.95038239,7.34417857 C7.07597057,7.32961762 7.20246881,7.32233715 7.32987712,7.32233715 L10.6661545,7.32233715 C10.7243983,7.32233715 10.7708113,7.33962827 10.8053936,7.37421053 C10.8399758,7.40879278 10.857267,7.45338568 10.857267,7.50798924 L10.857267,7.81376917 L5.87196211,7.81376917 L5.87196211,7.62811707 C5.87196211,7.58807446 5.88197277,7.54712179 5.90199407,7.50525907 C5.92201538,7.46339634 5.94658698,7.42790402 5.97570888,7.39878213 L8.61306073,4.72866813 C8.83147497,4.50661366 9.03350813,4.29183967 9.21916023,4.08434615 C9.40481233,3.87685263 9.56589282,3.66753899 9.70240172,3.45640523 C9.83891061,3.24527147 9.94629761,3.02867736 10.0245627,2.80662289 C10.1028278,2.58456842 10.1419604,2.347953 10.1419604,2.09677663 C10.1419604,1.81283813 10.0946373,1.56621206 9.99999111,1.35689842 C9.90534494,1.14758478 9.7788467,0.975583572 9.62049638,0.840894795 C9.46214606,0.706206019 9.2801342,0.606099495 9.0744608,0.540575226 C8.8687874,0.475050956 8.65310334,0.442288821 8.42740864,0.442288821 C8.18351274,0.442288821 7.95872809,0.479601252 7.75305469,0.554226115 C7.54738129,0.628850978 7.36536943,0.732597738 7.20701911,0.865466396 C7.04866879,0.998335055 6.91762025,1.15668537 6.81387349,1.34051735 C6.71012673,1.52434933 6.63823205,1.72547244 6.59818944,1.94388667 C6.56178707,2.07129497 6.48898232,2.13499912 6.37977521,2.13499912 C6.37249473,2.13499912 6.36339414,2.13408906 6.35247343,2.13226895 C6.34155271,2.13044883 6.33245212,2.12953877 6.32517165,2.12953877 L6.06307457,2.08585592 C6.10675741,1.75459433 6.19685329,1.45973512 6.33336218,1.20127828 C6.46987108,0.942821437 6.64187228,0.724407205 6.84936581,0.546035581 C7.05685933,0.367663958 7.29711498,0.232065122 7.57013277,0.139239073 C7.84315056,0.0464130244 8.13800978,4.54747351e-13 8.45471041,4.54747351e-13 Z" id="Path"></path>
                        <path d="M15.0255981,4.54747351e-13 C15.3204573,4.54747351e-13 15.5989354,0.0409526686 15.8610325,0.122858006 C16.1231296,0.204763343 16.3533746,0.327621349 16.5517675,0.491432023 C16.7501605,0.655242698 16.9066907,0.859095981 17.0213581,1.10299187 C17.1360256,1.34688777 17.1933593,1.62900615 17.1933593,1.94934703 C17.1933593,2.20052339 17.1542268,2.42712816 17.0759617,2.62916132 C16.9976966,2.83119449 16.8903096,3.00865605 16.7538007,3.16154602 C16.6172918,3.31443598 16.4562113,3.44275434 16.2705592,3.5465011 C16.0849071,3.65024786 15.8828739,3.72942302 15.6644597,3.78402658 C16.2323367,3.88959346 16.6618847,4.10891775 16.9531037,4.44199945 C17.2443227,4.77508116 17.3899321,5.19097826 17.3899321,5.68969076 C17.3899321,6.00639139 17.326228,6.30034055 17.1988197,6.57153822 C17.0714114,6.84273589 16.89668,7.07662113 16.6746255,7.27319394 C16.4525711,7.46976675 16.190474,7.62356677 15.8883343,7.73459401 C15.5861946,7.84562124 15.2585733,7.90113486 14.9054702,7.90113486 C14.4650015,7.90113486 14.0982476,7.84198101 13.8052085,7.7236733 C13.5121695,7.60536559 13.2710037,7.45156557 13.0817114,7.26227323 C12.8924191,7.0729809 12.7449895,6.86093708 12.6394226,6.62614178 C12.5338557,6.39134648 12.4483101,6.15746124 12.3827859,5.92448606 L12.5902794,5.83712036 C12.6339622,5.81891918 12.675825,5.80981859 12.7158676,5.80981859 C12.7559102,5.80981859 12.7941327,5.81891918 12.830535,5.83712036 C12.8669374,5.85532155 12.8942392,5.8899038 12.9124404,5.94086712 L12.9506629,6.05007424 C12.9725043,6.11559851 13.0034463,6.19659379 13.0434889,6.29306007 C13.0835315,6.38952636 13.1354049,6.48963288 13.1991091,6.59337964 C13.2628132,6.6971264 13.3419884,6.80087317 13.4366345,6.90461993 C13.5312807,7.00836669 13.6468582,7.10119274 13.7833671,7.18309807 C13.919876,7.26500341 14.0800465,7.33143774 14.2638784,7.38240106 C14.4477104,7.43336438 14.6597542,7.45884604 14.9000099,7.45884604 C15.2276312,7.45884604 15.5142999,7.40424248 15.7600159,7.29503537 C16.0057319,7.18582825 16.2114053,7.04658918 16.3770361,6.87731815 C16.5426669,6.70804712 16.666435,6.51875478 16.7483403,6.30944114 C16.8302457,6.1001275 16.8711983,5.89718428 16.8711983,5.70061147 C16.8711983,5.46399605 16.8338859,5.2437617 16.759261,5.03990842 C16.6846362,4.83605513 16.5599581,4.66041369 16.3852267,4.51298408 C16.2104953,4.36555447 15.9802503,4.24906688 15.6944917,4.16352131 C15.408733,4.07797573 15.0565401,4.03520295 14.6379128,4.03520295 L14.6379128,3.65843839 C14.9728146,3.65115792 15.2676738,3.60656501 15.5224905,3.52465968 C15.7773071,3.44275434 15.9902609,3.33081705 16.1613521,3.18884779 C16.3324432,3.04687854 16.4616717,2.87760751 16.5490373,2.6810347 C16.636403,2.48446189 16.6800859,2.26786778 16.6800859,2.03125236 C16.6800859,1.75823457 16.6345829,1.52161915 16.543577,1.32140611 C16.4525711,1.12119306 16.3306231,0.955562267 16.1777331,0.824513728 C16.0248432,0.693465188 15.8464716,0.596998902 15.6426183,0.53511487 C15.438765,0.473230837 15.2258111,0.442288821 15.0037566,0.442288821 C14.7598608,0.442288821 14.5359862,0.478691193 14.3321329,0.551495937 C14.1282796,0.624300681 13.9480879,0.726227323 13.7915577,0.857275863 C13.6350275,0.988324402 13.5039789,1.14576466 13.398412,1.32959664 C13.2928452,1.51342862 13.2145801,1.71819196 13.1636167,1.94388667 C13.1344948,2.07129497 13.0671505,2.13499912 12.9615836,2.13499912 C12.9361019,2.13499912 12.9160806,2.133179 12.9015197,2.12953877 L12.6339622,2.08585592 C12.6812853,1.75459433 12.7722912,1.45973512 12.90698,1.20127828 C13.0416688,0.942821437 13.2127599,0.724407205 13.4202535,0.546035581 C13.627747,0.367663958 13.8680026,0.232065122 14.1410204,0.139239073 C14.4140382,0.0464130244 14.7088974,4.54747351e-13 15.0255981,4.54747351e-13 Z" id="Path"></path>
                        <path d="M22.8796693,5.18187767 L24.2939015,5.18187767 L24.2939015,5.46581617 C24.2939015,5.50585878 24.2820707,5.53771085 24.2584092,5.5613724 C24.2347476,5.58503394 24.1974352,5.59686471 24.1464719,5.59686471 L22.8796693,5.59686471 L22.8796693,7.81376917 L22.4100787,7.81376917 L22.4100787,5.59686471 L18.7680214,5.59686471 C18.7134179,5.59686471 18.6715551,5.58503394 18.6424332,5.5613724 C18.6133113,5.53771085 18.59329,5.50585878 18.5823693,5.46581617 L18.5332261,5.20917945 L22.4155391,0.0764449814 L22.8796693,0.0764449814 L22.8796693,5.18187767 Z M22.4100787,1.13575401 C22.4100787,1.07386998 22.4118989,1.00834571 22.4155391,0.9391812 C22.4191793,0.870016693 22.4264598,0.799032067 22.4373805,0.726227323 L19.1011031,5.18187767 L22.4100787,5.18187767 L22.4100787,1.13575401 Z" id="Shape"></path>
                        <path d="M32.9199626,3.94783725 C32.9199626,4.62492137 32.8471578,5.21099956 32.7015483,5.70607182 C32.5559388,6.20114409 32.3575459,6.61067077 32.1063695,6.93465188 C31.8551932,7.25863299 31.561244,7.49979871 31.2245221,7.65814903 C30.8878001,7.81649935 30.5283267,7.89567451 30.1461018,7.89567451 C29.7638769,7.89567451 29.4053135,7.81649935 29.0704117,7.65814903 C28.7355099,7.49979871 28.4424708,7.25863299 28.1912944,6.93465188 C27.9401181,6.61067077 27.7426352,6.20114409 27.5988458,5.70607182 C27.4550565,5.21099956 27.3831618,4.62492137 27.3831618,3.94783725 C27.3831618,3.27075313 27.4550565,2.68467494 27.5988458,2.18960268 C27.7426352,1.69453042 27.9401181,1.28500373 28.1912944,0.961022623 C28.4424708,0.637041512 28.7355099,0.395875796 29.0704117,0.237525478 C29.4053135,0.0791751593 29.7638769,1.36424205e-12 30.1461018,1.36424205e-12 C30.5283267,1.36424205e-12 30.8878001,0.0791751593 31.2245221,0.237525478 C31.561244,0.395875796 31.8551932,0.637041512 32.1063695,0.961022623 C32.3575459,1.28500373 32.5559388,1.69453042 32.7015483,2.18960268 C32.8471578,2.68467494 32.9199626,3.27075313 32.9199626,3.94783725 Z M32.373927,3.94783725 C32.373927,3.32171645 32.3138631,2.78660158 32.1937352,2.34249264 C32.0736074,1.8983837 31.9125269,1.53527004 31.7104938,1.25315166 C31.5084606,0.971033275 31.2718452,0.764449814 31.0006475,0.633401274 C30.7294498,0.502352735 30.4446013,0.436828465 30.1461018,0.436828465 C29.8476024,0.436828465 29.5636639,0.502352735 29.2942863,0.633401274 C29.0249088,0.764449814 28.7882933,0.971033275 28.58444,1.25315166 C28.3805868,1.53527004 28.2185962,1.8983837 28.0984684,2.34249264 C27.9783406,2.78660158 27.9182766,3.32171645 27.9182766,3.94783725 C27.9182766,4.57759829 27.9783406,5.11362322 28.0984684,5.55591204 C28.2185962,5.99820086 28.3805868,6.36040446 28.58444,6.64252285 C28.7882933,6.92464123 29.0249088,7.13031463 29.2942863,7.25954305 C29.5636639,7.38877147 29.8476024,7.45338568 30.1461018,7.45338568 C30.4446013,7.45338568 30.7294498,7.38877147 31.0006475,7.25954305 C31.2718452,7.13031463 31.5084606,6.92464123 31.7104938,6.64252285 C31.9125269,6.36040446 32.0736074,5.99820086 32.1937352,5.55591204 C32.3138631,5.11362322 32.373927,4.57759829 32.373927,3.94783725 Z" id="Shape"></path>
                        <path d="M39.4307863,3.94783725 C39.4307863,4.62492137 39.3579816,5.21099956 39.2123721,5.70607182 C39.0667626,6.20114409 38.8683697,6.61067077 38.6171933,6.93465188 C38.3660169,7.25863299 38.0720678,7.49979871 37.7353458,7.65814903 C37.3986239,7.81649935 37.0391505,7.89567451 36.6569256,7.89567451 C36.2747006,7.89567451 35.9161373,7.81649935 35.5812355,7.65814903 C35.2463336,7.49979871 34.9532945,7.25863299 34.7021182,6.93465188 C34.4509418,6.61067077 34.2534589,6.20114409 34.1096696,5.70607182 C33.9658802,5.21099956 33.8939855,4.62492137 33.8939855,3.94783725 C33.8939855,3.27075313 33.9658802,2.68467494 34.1096696,2.18960268 C34.2534589,1.69453042 34.4509418,1.28500373 34.7021182,0.961022623 C34.9532945,0.637041512 35.2463336,0.395875796 35.5812355,0.237525478 C35.9161373,0.0791751593 36.2747006,1.36424205e-12 36.6569256,1.36424205e-12 C37.0391505,1.36424205e-12 37.3986239,0.0791751593 37.7353458,0.237525478 C38.0720678,0.395875796 38.3660169,0.637041512 38.6171933,0.961022623 C38.8683697,1.28500373 39.0667626,1.69453042 39.2123721,2.18960268 C39.3579816,2.68467494 39.4307863,3.27075313 39.4307863,3.94783725 Z M38.8847507,3.94783725 C38.8847507,3.32171645 38.8246868,2.78660158 38.704559,2.34249264 C38.5844312,1.8983837 38.4233507,1.53527004 38.2213175,1.25315166 C38.0192843,0.971033275 37.7826689,0.764449814 37.5114712,0.633401274 C37.2402736,0.502352735 36.955425,0.436828465 36.6569256,0.436828465 C36.3584261,0.436828465 36.0744876,0.502352735 35.80511,0.633401274 C35.5357325,0.764449814 35.2991171,0.971033275 35.0952638,1.25315166 C34.8914105,1.53527004 34.72942,1.8983837 34.6092921,2.34249264 C34.4891643,2.78660158 34.4291004,3.32171645 34.4291004,3.94783725 C34.4291004,4.57759829 34.4891643,5.11362322 34.6092921,5.55591204 C34.72942,5.99820086 34.8914105,6.36040446 35.0952638,6.64252285 C35.2991171,6.92464123 35.5357325,7.13031463 35.80511,7.25954305 C36.0744876,7.38877147 36.3584261,7.45338568 36.6569256,7.45338568 C36.955425,7.45338568 37.2402736,7.38877147 37.5114712,7.25954305 C37.7826689,7.13031463 38.0192843,6.92464123 38.2213175,6.64252285 C38.4233507,6.36040446 38.5844312,5.99820086 38.704559,5.55591204 C38.8246868,5.11362322 38.8847507,4.57759829 38.8847507,3.94783725 Z" id="Shape"></path>
                        <path d="M45.9416101,3.94783725 C45.9416101,4.62492137 45.8688053,5.21099956 45.7231958,5.70607182 C45.5775863,6.20114409 45.3791934,6.61067077 45.128017,6.93465188 C44.8768407,7.25863299 44.5828915,7.49979871 44.2461696,7.65814903 C43.9094476,7.81649935 43.5499742,7.89567451 43.1677493,7.89567451 C42.7855244,7.89567451 42.426961,7.81649935 42.0920592,7.65814903 C41.7571574,7.49979871 41.4641183,7.25863299 41.2129419,6.93465188 C40.9617656,6.61067077 40.7642827,6.20114409 40.6204933,5.70607182 C40.4767039,5.21099956 40.4048093,4.62492137 40.4048093,3.94783725 C40.4048093,3.27075313 40.4767039,2.68467494 40.6204933,2.18960268 C40.7642827,1.69453042 40.9617656,1.28500373 41.2129419,0.961022623 C41.4641183,0.637041512 41.7571574,0.395875796 42.0920592,0.237525478 C42.426961,0.0791751593 42.7855244,0 43.1677493,0 C43.5499742,0 43.9094476,0.0791751593 44.2461696,0.237525478 C44.5828915,0.395875796 44.8768407,0.637041512 45.128017,0.961022623 C45.3791934,1.28500373 45.5775863,1.69453042 45.7231958,2.18960268 C45.8688053,2.68467494 45.9416101,3.27075313 45.9416101,3.94783725 Z M45.3955745,3.94783725 C45.3955745,3.32171645 45.3355106,2.78660158 45.2153827,2.34249264 C45.0952549,1.8983837 44.9341744,1.53527004 44.7321412,1.25315166 C44.5301081,0.971033275 44.2934927,0.764449814 44.022295,0.633401274 C43.7510973,0.502352735 43.4662488,0.436828465 43.1677493,0.436828465 C42.8692498,0.436828465 42.5853113,0.502352735 42.3159338,0.633401274 C42.0465562,0.764449814 41.8099408,0.971033275 41.6060875,1.25315166 C41.4022343,1.53527004 41.2402437,1.8983837 41.1201159,2.34249264 C40.999988,2.78660158 40.9399241,3.32171645 40.9399241,3.94783725 C40.9399241,4.57759829 40.999988,5.11362322 41.1201159,5.55591204 C41.2402437,5.99820086 41.4022343,6.36040446 41.6060875,6.64252285 C41.8099408,6.92464123 42.0465562,7.13031463 42.3159338,7.25954305 C42.5853113,7.38877147 42.8692498,7.45338568 43.1677493,7.45338568 C43.4662488,7.45338568 43.7510973,7.38877147 44.022295,7.25954305 C44.2934927,7.13031463 44.5301081,6.92464123 44.7321412,6.64252285 C44.9341744,6.36040446 45.0952549,5.99820086 45.2153827,5.55591204 C45.3355106,5.11362322 45.3955745,4.57759829 45.3955745,3.94783725 Z" id="Shape"></path>
                        <path d="M52.4524338,3.94783725 C52.4524338,4.62492137 52.3796291,5.21099956 52.2340196,5.70607182 C52.0884101,6.20114409 51.8900171,6.61067077 51.6388408,6.93465188 C51.3876644,7.25863299 51.0937153,7.49979871 50.7569933,7.65814903 C50.4202714,7.81649935 50.060798,7.89567451 49.678573,7.89567451 C49.2963481,7.89567451 48.9377848,7.81649935 48.6028829,7.65814903 C48.2679811,7.49979871 47.974942,7.25863299 47.7237657,6.93465188 C47.4725893,6.61067077 47.2751064,6.20114409 47.1313171,5.70607182 C46.9875277,5.21099956 46.915633,4.62492137 46.915633,3.94783725 C46.915633,3.27075313 46.9875277,2.68467494 47.1313171,2.18960268 C47.2751064,1.69453042 47.4725893,1.28500373 47.7237657,0.961022623 C47.974942,0.637041512 48.2679811,0.395875796 48.6028829,0.237525478 C48.9377848,0.0791751593 49.2963481,4.09272616e-12 49.678573,4.09272616e-12 C50.060798,4.09272616e-12 50.4202714,0.0791751593 50.7569933,0.237525478 C51.0937153,0.395875796 51.3876644,0.637041512 51.6388408,0.961022623 C51.8900171,1.28500373 52.0884101,1.69453042 52.2340196,2.18960268 C52.3796291,2.68467494 52.4524338,3.27075313 52.4524338,3.94783725 Z M51.9063982,3.94783725 C51.9063982,3.32171645 51.8463343,2.78660158 51.7262065,2.34249264 C51.6060786,1.8983837 51.4449982,1.53527004 51.242965,1.25315166 C51.0409318,0.971033275 50.8043164,0.764449814 50.5331187,0.633401274 C50.2619211,0.502352735 49.9770725,0.436828465 49.678573,0.436828465 C49.3800736,0.436828465 49.0961351,0.502352735 48.8267575,0.633401274 C48.55738,0.764449814 48.3207646,0.971033275 48.1169113,1.25315166 C47.913058,1.53527004 47.7510674,1.8983837 47.6309396,2.34249264 C47.5108118,2.78660158 47.4507479,3.32171645 47.4507479,3.94783725 C47.4507479,4.57759829 47.5108118,5.11362322 47.6309396,5.55591204 C47.7510674,5.99820086 47.913058,6.36040446 48.1169113,6.64252285 C48.3207646,6.92464123 48.55738,7.13031463 48.8267575,7.25954305 C49.0961351,7.38877147 49.3800736,7.45338568 49.678573,7.45338568 C49.9770725,7.45338568 50.2619211,7.38877147 50.5331187,7.25954305 C50.8043164,7.13031463 51.0409318,6.92464123 51.242965,6.64252285 C51.4449982,6.36040446 51.6060786,5.99820086 51.7262065,5.55591204 C51.8463343,5.11362322 51.9063982,4.57759829 51.9063982,3.94783725 Z" id="Shape"></path>
                        <path d="M56.9996091,7.40970284 L58.7742247,7.40970284 L58.7742247,1.14121436 C58.7742247,1.0174463 58.7796851,0.88639776 58.7906058,0.748068746 L57.0869748,2.26058731 C57.0505724,2.29334944 57.0068895,2.30973051 56.9559262,2.30973051 C56.8940422,2.30973051 56.8467191,2.28788909 56.813957,2.24420624 L56.6556066,2.02579201 L58.8888922,0.0546035581 L59.2929585,0.0546035581 L59.2929585,7.40970284 L60.9802085,7.40970284 L60.9802085,7.81376917 L56.9996091,7.81376917 L56.9996091,7.40970284 Z" id="Path"></path>
                        <path d="M65.1103171,9.09494702e-13 C65.4051763,9.09494702e-13 65.6863846,0.0427727872 65.953942,0.128318362 C66.2214995,0.213863936 66.4572048,0.343092357 66.6610581,0.516003624 C66.8649114,0.688914892 67.026902,0.905509006 67.1470298,1.16578597 C67.2671576,1.42606293 67.3272215,1.73093279 67.3272215,2.08039556 C67.3272215,2.37161454 67.2826286,2.64190215 67.1934428,2.8912584 C67.104257,3.14061465 66.9832191,3.37996025 66.8303291,3.60929519 C66.6774392,3.83863014 66.4999776,4.06159467 66.2979445,4.27818878 C66.0959113,4.49478289 65.8838675,4.7159273 65.661813,4.94162201 L63.2428754,7.40970284 C63.359363,7.38058094 63.4804009,7.35873952 63.605989,7.34417857 C63.7315772,7.32961762 63.8580755,7.32233715 63.9854838,7.32233715 L67.3217612,7.32233715 C67.380005,7.32233715 67.426418,7.33962827 67.4610002,7.37421053 C67.4955825,7.40879278 67.5128736,7.45338568 67.5128736,7.50798924 L67.5128736,7.81376917 L62.5275688,7.81376917 L62.5275688,7.62811707 C62.5275688,7.58807446 62.5375794,7.54712179 62.5576007,7.50525907 C62.577622,7.46339634 62.6021936,7.42790402 62.6313155,7.39878213 L65.2686674,4.72866813 C65.4870816,4.50661366 65.6891148,4.29183967 65.8747669,4.08434615 C66.060419,3.87685263 66.2214995,3.66753899 66.3580084,3.45640523 C66.4945173,3.24527147 66.6019043,3.02867736 66.6801694,2.80662289 C66.7584345,2.58456842 66.797567,2.347953 66.797567,2.09677663 C66.797567,1.81283813 66.7502439,1.56621206 66.6555978,1.35689842 C66.5609516,1.14758478 66.4344533,0.975583572 66.276103,0.840894795 C66.1177527,0.706206019 65.9357409,0.606099495 65.7300674,0.540575226 C65.524394,0.475050956 65.30871,0.442288821 65.0830153,0.442288821 C64.8391194,0.442288821 64.6143347,0.479601252 64.4086613,0.554226115 C64.2029879,0.628850978 64.0209761,0.732597738 63.8626258,0.865466396 C63.7042754,0.998335055 63.5732269,1.15668537 63.4694801,1.34051735 C63.3657334,1.52434933 63.2938387,1.72547244 63.2537961,1.94388667 C63.2173937,2.07129497 63.144589,2.13499912 63.0353819,2.13499912 C63.0281014,2.13499912 63.0190008,2.13408906 63.0080801,2.13226895 C62.9971594,2.13044883 62.9880588,2.12953877 62.9807783,2.12953877 L62.7186812,2.08585592 C62.7623641,1.75459433 62.8524599,1.45973512 62.9889688,1.20127828 C63.1254777,0.942821437 63.2974789,0.724407205 63.5049725,0.546035581 C63.712466,0.367663958 63.9527216,0.232065122 64.2257394,0.139239073 C64.4987572,0.0464130244 64.7936164,9.09494702e-13 65.1103171,9.09494702e-13 Z" id="Path"></path>
                        <path d="M71.6812047,5.00222086e-12 C71.9760639,5.00222086e-12 72.2545421,0.0409526686 72.5166392,0.122858006 C72.7787362,0.204763343 73.0089812,0.327621349 73.2073742,0.491432023 C73.4057671,0.655242698 73.5622973,0.859095981 73.6769648,1.10299187 C73.7916322,1.34688777 73.848966,1.62900615 73.848966,1.94934703 C73.848966,2.20052339 73.8098334,2.42712816 73.7315683,2.62916132 C73.6533032,2.83119449 73.5459162,3.00865605 73.4094073,3.16154602 C73.2728984,3.31443598 73.1118179,3.44275434 72.9261658,3.5465011 C72.7405137,3.65024786 72.5384806,3.72942302 72.3200664,3.78402658 C72.8879434,3.88959346 73.3174913,4.10891775 73.6087103,4.44199945 C73.8999293,4.77508116 74.0455388,5.19097826 74.0455388,5.68969076 C74.0455388,6.00639139 73.9818346,6.30034055 73.8544263,6.57153822 C73.727018,6.84273589 73.5522866,7.07662113 73.3302322,7.27319394 C73.1081777,7.46976675 72.8460806,7.62356677 72.5439409,7.73459401 C72.2418013,7.84562124 71.9141799,7.90113486 71.5610769,7.90113486 C71.1206082,7.90113486 70.7538543,7.84198101 70.4608152,7.7236733 C70.1677761,7.60536559 69.9266104,7.45156557 69.7373181,7.26227323 C69.5480257,7.0729809 69.4005961,6.86093708 69.2950292,6.62614178 C69.1894624,6.39134648 69.1039168,6.15746124 69.0383925,5.92448606 L69.245886,5.83712036 C69.2895689,5.81891918 69.3314316,5.80981859 69.3714742,5.80981859 C69.4115168,5.80981859 69.4497393,5.81891918 69.4861417,5.83712036 C69.5225441,5.85532155 69.5498458,5.8899038 69.568047,5.94086712 L69.6062695,6.05007424 C69.6281109,6.11559851 69.659053,6.19659379 69.6990956,6.29306007 C69.7391382,6.38952636 69.7910116,6.48963288 69.8547157,6.59337964 C69.9184199,6.6971264 69.997595,6.80087317 70.0922412,6.90461993 C70.1868873,7.00836669 70.3024649,7.10119274 70.4389738,7.18309807 C70.5754827,7.26500341 70.7356531,7.33143774 70.9194851,7.38240106 C71.1033171,7.43336438 71.3153609,7.45884604 71.5556165,7.45884604 C71.8832379,7.45884604 72.1699066,7.40424248 72.4156226,7.29503537 C72.6613386,7.18582825 72.867012,7.04658918 73.0326428,6.87731815 C73.1982736,6.70804712 73.3220416,6.51875478 73.403947,6.30944114 C73.4858523,6.1001275 73.526805,5.89718428 73.526805,5.70061147 C73.526805,5.46399605 73.4894926,5.2437617 73.4148677,5.03990842 C73.3402428,4.83605513 73.2155647,4.66041369 73.0408333,4.51298408 C72.8661019,4.36555447 72.6358569,4.24906688 72.3500983,4.16352131 C72.0643397,4.07797573 71.7121467,4.03520295 71.2935195,4.03520295 L71.2935195,3.65843839 C71.6284213,3.65115792 71.9232805,3.60656501 72.1780971,3.52465968 C72.4329137,3.44275434 72.6458676,3.33081705 72.8169587,3.18884779 C72.9880499,3.04687854 73.1172783,2.87760751 73.204644,2.6810347 C73.2920097,2.48446189 73.3356925,2.26786778 73.3356925,2.03125236 C73.3356925,1.75823457 73.2901896,1.52161915 73.1991836,1.32140611 C73.1081777,1.12119306 72.9862298,0.955562267 72.8333398,0.824513728 C72.6804498,0.693465188 72.5020782,0.596998902 72.2982249,0.53511487 C72.0943716,0.473230837 71.8814178,0.442288821 71.6593633,0.442288821 C71.4154674,0.442288821 71.1915928,0.478691193 70.9877395,0.551495937 C70.7838863,0.624300681 70.6036945,0.726227323 70.4471643,0.857275863 C70.2906341,0.988324402 70.1595856,1.14576466 70.0540187,1.32959664 C69.9484518,1.51342862 69.8701867,1.71819196 69.8192234,1.94388667 C69.7901015,2.07129497 69.7227571,2.13499912 69.6171902,2.13499912 C69.5917086,2.13499912 69.5716873,2.133179 69.5571263,2.12953877 L69.2895689,2.08585592 C69.336892,1.75459433 69.4278979,1.45973512 69.5625867,1.20127828 C69.6972754,0.942821437 69.8683666,0.724407205 70.0758601,0.546035581 C70.2833536,0.367663958 70.5236093,0.232065122 70.7966271,0.139239073 C71.0696449,0.0464130244 71.3645041,5.00222086e-12 71.6812047,5.00222086e-12 Z" id="Path"></path>
                        <path d="M79.535276,5.18187767 L80.9495082,5.18187767 L80.9495082,5.46581617 C80.9495082,5.50585878 80.9376774,5.53771085 80.9140158,5.5613724 C80.8903543,5.58503394 80.8530419,5.59686471 80.8020785,5.59686471 L79.535276,5.59686471 L79.535276,7.81376917 L79.0656854,7.81376917 L79.0656854,5.59686471 L75.4236281,5.59686471 C75.3690245,5.59686471 75.3271618,5.58503394 75.2980399,5.5613724 C75.268918,5.53771085 75.2488967,5.50585878 75.237976,5.46581617 L75.1888328,5.20917945 L79.0711458,0.0764449814 L79.535276,0.0764449814 L79.535276,5.18187767 Z M79.0656854,1.13575401 C79.0656854,1.07386998 79.0675055,1.00834571 79.0711458,0.9391812 C79.074786,0.870016693 79.0820665,0.799032067 79.0929872,0.726227323 L75.7567098,5.18187767 L79.0656854,5.18187767 L79.0656854,1.13575401 Z" id="Shape"></path>
                        <path d="M89.5755692,3.94783725 C89.5755692,4.62492137 89.5027645,5.21099956 89.357155,5.70607182 C89.2115455,6.20114409 89.0131526,6.61067077 88.7619762,6.93465188 C88.5107998,7.25863299 88.2168507,7.49979871 87.8801287,7.65814903 C87.5434068,7.81649935 87.1839334,7.89567451 86.8017085,7.89567451 C86.4194836,7.89567451 86.0609202,7.81649935 85.7260184,7.65814903 C85.3911165,7.49979871 85.0980774,7.25863299 84.8469011,6.93465188 C84.5957247,6.61067077 84.3982418,6.20114409 84.2544525,5.70607182 C84.1106631,5.21099956 84.0387684,4.62492137 84.0387684,3.94783725 C84.0387684,3.27075313 84.1106631,2.68467494 84.2544525,2.18960268 C84.3982418,1.69453042 84.5957247,1.28500373 84.8469011,0.961022623 C85.0980774,0.637041512 85.3911165,0.395875796 85.7260184,0.237525478 C86.0609202,0.0791751593 86.4194836,3.18323146e-12 86.8017085,3.18323146e-12 C87.1839334,3.18323146e-12 87.5434068,0.0791751593 87.8801287,0.237525478 C88.2168507,0.395875796 88.5107998,0.637041512 88.7619762,0.961022623 C89.0131526,1.28500373 89.2115455,1.69453042 89.357155,2.18960268 C89.5027645,2.68467494 89.5755692,3.27075313 89.5755692,3.94783725 Z M89.0295336,3.94783725 C89.0295336,3.32171645 88.9694697,2.78660158 88.8493419,2.34249264 C88.7292141,1.8983837 88.5681336,1.53527004 88.3661004,1.25315166 C88.1640672,0.971033275 87.9274518,0.764449814 87.6562541,0.633401274 C87.3850565,0.502352735 87.1002079,0.436828465 86.8017085,0.436828465 C86.503209,0.436828465 86.2192705,0.502352735 85.949893,0.633401274 C85.6805154,0.764449814 85.4439,0.971033275 85.2400467,1.25315166 C85.0361934,1.53527004 84.8742029,1.8983837 84.754075,2.34249264 C84.6339472,2.78660158 84.5738833,3.32171645 84.5738833,3.94783725 C84.5738833,4.57759829 84.6339472,5.11362322 84.754075,5.55591204 C84.8742029,5.99820086 85.0361934,6.36040446 85.2400467,6.64252285 C85.4439,6.92464123 85.6805154,7.13031463 85.949893,7.25954305 C86.2192705,7.38877147 86.503209,7.45338568 86.8017085,7.45338568 C87.1002079,7.45338568 87.3850565,7.38877147 87.6562541,7.25954305 C87.9274518,7.13031463 88.1640672,6.92464123 88.3661004,6.64252285 C88.5681336,6.36040446 88.7292141,5.99820086 88.8493419,5.55591204 C88.9694697,5.11362322 89.0295336,4.57759829 89.0295336,3.94783725 Z" id="Shape"></path>
                        <path d="M96.086393,3.94783725 C96.086393,4.62492137 96.0135882,5.21099956 95.8679787,5.70607182 C95.7223692,6.20114409 95.5239763,6.61067077 95.2727999,6.93465188 C95.0216236,7.25863299 94.7276744,7.49979871 94.3909525,7.65814903 C94.0542305,7.81649935 93.6947571,7.89567451 93.3125322,7.89567451 C92.9303073,7.89567451 92.5717439,7.81649935 92.2368421,7.65814903 C91.9019403,7.49979871 91.6089012,7.25863299 91.3577248,6.93465188 C91.1065485,6.61067077 90.9090656,6.20114409 90.7652762,5.70607182 C90.6214868,5.21099956 90.5495922,4.62492137 90.5495922,3.94783725 C90.5495922,3.27075313 90.6214868,2.68467494 90.7652762,2.18960268 C90.9090656,1.69453042 91.1065485,1.28500373 91.3577248,0.961022623 C91.6089012,0.637041512 91.9019403,0.395875796 92.2368421,0.237525478 C92.5717439,0.0791751593 92.9303073,4.09272616e-12 93.3125322,4.09272616e-12 C93.6947571,4.09272616e-12 94.0542305,0.0791751593 94.3909525,0.237525478 C94.7276744,0.395875796 95.0216236,0.637041512 95.2727999,0.961022623 C95.5239763,1.28500373 95.7223692,1.69453042 95.8679787,2.18960268 C96.0135882,2.68467494 96.086393,3.27075313 96.086393,3.94783725 Z M95.5403574,3.94783725 C95.5403574,3.32171645 95.4802935,2.78660158 95.3601656,2.34249264 C95.2400378,1.8983837 95.0789573,1.53527004 94.8769241,1.25315166 C94.674891,0.971033275 94.4382756,0.764449814 94.1670779,0.633401274 C93.8958802,0.502352735 93.6110317,0.436828465 93.3125322,0.436828465 C93.0140328,0.436828465 92.7300943,0.502352735 92.4607167,0.633401274 C92.1913391,0.764449814 91.9547237,0.971033275 91.7508704,1.25315166 C91.5470172,1.53527004 91.3850266,1.8983837 91.2648988,2.34249264 C91.1447709,2.78660158 91.084707,3.32171645 91.084707,3.94783725 C91.084707,4.57759829 91.1447709,5.11362322 91.2648988,5.55591204 C91.3850266,5.99820086 91.5470172,6.36040446 91.7508704,6.64252285 C91.9547237,6.92464123 92.1913391,7.13031463 92.4607167,7.25954305 C92.7300943,7.38877147 93.0140328,7.45338568 93.3125322,7.45338568 C93.6110317,7.45338568 93.8958802,7.38877147 94.1670779,7.25954305 C94.4382756,7.13031463 94.674891,6.92464123 94.8769241,6.64252285 C95.0789573,6.36040446 95.2400378,5.99820086 95.3601656,5.55591204 C95.4802935,5.11362322 95.5403574,4.57759829 95.5403574,3.94783725 Z" id="Shape"></path>
                        <path d="M102.597217,3.94783725 C102.597217,4.62492137 102.524412,5.21099956 102.378802,5.70607182 C102.233193,6.20114409 102.0348,6.61067077 101.783624,6.93465188 C101.532447,7.25863299 101.238498,7.49979871 100.901776,7.65814903 C100.565054,7.81649935 100.205581,7.89567451 99.8233559,7.89567451 C99.441131,7.89567451 99.0825677,7.81649935 98.7476659,7.65814903 C98.412764,7.49979871 98.1197249,7.25863299 97.8685486,6.93465188 C97.6173722,6.61067077 97.4198893,6.20114409 97.2761,5.70607182 C97.1323106,5.21099956 97.0604159,4.62492137 97.0604159,3.94783725 C97.0604159,3.27075313 97.1323106,2.68467494 97.2761,2.18960268 C97.4198893,1.69453042 97.6173722,1.28500373 97.8685486,0.961022623 C98.1197249,0.637041512 98.412764,0.395875796 98.7476659,0.237525478 C99.0825677,0.0791751593 99.441131,9.09494702e-13 99.8233559,9.09494702e-13 C100.205581,9.09494702e-13 100.565054,0.0791751593 100.901776,0.237525478 C101.238498,0.395875796 101.532447,0.637041512 101.783624,0.961022623 C102.0348,1.28500373 102.233193,1.69453042 102.378802,2.18960268 C102.524412,2.68467494 102.597217,3.27075313 102.597217,3.94783725 Z M102.051181,3.94783725 C102.051181,3.32171645 101.991117,2.78660158 101.870989,2.34249264 C101.750862,1.8983837 101.589781,1.53527004 101.387748,1.25315166 C101.185715,0.971033275 100.949099,0.764449814 100.677902,0.633401274 C100.406704,0.502352735 100.121855,0.436828465 99.8233559,0.436828465 C99.5248565,0.436828465 99.240918,0.502352735 98.9715404,0.633401274 C98.7021629,0.764449814 98.4655475,0.971033275 98.2616942,1.25315166 C98.0578409,1.53527004 97.8958503,1.8983837 97.7757225,2.34249264 C97.6555947,2.78660158 97.5955308,3.32171645 97.5955308,3.94783725 C97.5955308,4.57759829 97.6555947,5.11362322 97.7757225,5.55591204 C97.8958503,5.99820086 98.0578409,6.36040446 98.2616942,6.64252285 C98.4655475,6.92464123 98.7021629,7.13031463 98.9715404,7.25954305 C99.240918,7.38877147 99.5248565,7.45338568 99.8233559,7.45338568 C100.121855,7.45338568 100.406704,7.38877147 100.677902,7.25954305 C100.949099,7.13031463 101.185715,6.92464123 101.387748,6.64252285 C101.589781,6.36040446 101.750862,5.99820086 101.870989,5.55591204 C101.991117,5.11362322 102.051181,4.57759829 102.051181,3.94783725 Z" id="Shape"></path>
                        <path d="M109.10804,3.94783725 C109.10804,4.62492137 109.035236,5.21099956 108.889626,5.70607182 C108.744017,6.20114409 108.545624,6.61067077 108.294447,6.93465188 C108.043271,7.25863299 107.749322,7.49979871 107.4126,7.65814903 C107.075878,7.81649935 106.716405,7.89567451 106.33418,7.89567451 C105.951955,7.89567451 105.593391,7.81649935 105.25849,7.65814903 C104.923588,7.49979871 104.630549,7.25863299 104.379372,6.93465188 C104.128196,6.61067077 103.930713,6.20114409 103.786924,5.70607182 C103.643134,5.21099956 103.57124,4.62492137 103.57124,3.94783725 C103.57124,3.27075313 103.643134,2.68467494 103.786924,2.18960268 C103.930713,1.69453042 104.128196,1.28500373 104.379372,0.961022623 C104.630549,0.637041512 104.923588,0.395875796 105.25849,0.237525478 C105.593391,0.0791751593 105.951955,2.27373675e-12 106.33418,2.27373675e-12 C106.716405,2.27373675e-12 107.075878,0.0791751593 107.4126,0.237525478 C107.749322,0.395875796 108.043271,0.637041512 108.294447,0.961022623 C108.545624,1.28500373 108.744017,1.69453042 108.889626,2.18960268 C109.035236,2.68467494 109.10804,3.27075313 109.10804,3.94783725 Z M108.562005,3.94783725 C108.562005,3.32171645 108.501941,2.78660158 108.381813,2.34249264 C108.261685,1.8983837 108.100605,1.53527004 107.898572,1.25315166 C107.696538,0.971033275 107.459923,0.764449814 107.188725,0.633401274 C106.917528,0.502352735 106.632679,0.436828465 106.33418,0.436828465 C106.03568,0.436828465 105.751742,0.502352735 105.482364,0.633401274 C105.212987,0.764449814 104.976371,0.971033275 104.772518,1.25315166 C104.568665,1.53527004 104.406674,1.8983837 104.286546,2.34249264 C104.166418,2.78660158 104.106355,3.32171645 104.106355,3.94783725 C104.106355,4.57759829 104.166418,5.11362322 104.286546,5.55591204 C104.406674,5.99820086 104.568665,6.36040446 104.772518,6.64252285 C104.976371,6.92464123 105.212987,7.13031463 105.482364,7.25954305 C105.751742,7.38877147 106.03568,7.45338568 106.33418,7.45338568 C106.632679,7.45338568 106.917528,7.38877147 107.188725,7.25954305 C107.459923,7.13031463 107.696538,6.92464123 107.898572,6.64252285 C108.100605,6.36040446 108.261685,5.99820086 108.381813,5.55591204 C108.501941,5.11362322 108.562005,4.57759829 108.562005,3.94783725 Z" id="Shape"></path>
                    </g>
                    <g id="343" transform="translate(153.746910, 58.601329) rotate(17.000000) translate(-153.746910, -58.601329) translate(147.927557, 56.056373)" fill="#2E3031">
                        <path d="M0.149091423,1.41116766 C0.183763848,1.18001817 0.248485706,0.976606611 0.343256998,0.800932996 C0.438028291,0.625259381 0.55707028,0.477901578 0.700382966,0.358859589 C0.843695652,0.2398176 1.00838967,0.150247171 1.19446501,0.0901483026 C1.38054035,0.0300494342 1.58106254,4.54747351e-13 1.79603157,4.54747351e-13 C2.0110006,4.54747351e-13 2.20863341,0.0306273079 2.38893002,0.0918819238 C2.56922662,0.15313654 2.72351891,0.2398176 2.85180688,0.351925104 C2.98009485,0.464032609 3.080067,0.598677189 3.15172335,0.755858845 C3.22337969,0.9130405 3.25920786,1.08640262 3.25920786,1.27594521 C3.25920786,1.43543836 3.23956015,1.57643955 3.20026474,1.69894878 C3.16096933,1.82145801 3.10491557,1.92894253 3.03210348,2.02140232 C2.95929139,2.11386212 2.87087671,2.19187507 2.76685944,2.25544119 C2.66284217,2.3190073 2.54611167,2.37159381 2.41666796,2.41320071 C2.73334276,2.50103752 2.97142674,2.64377233 3.13091989,2.84140515 C3.29041304,3.03903797 3.37015962,3.2892573 3.37015962,3.59206313 C3.37015962,3.82552412 3.32624122,4.03529229 3.23840441,4.22136763 C3.1505676,4.40744297 3.03036986,4.56462463 2.8778112,4.6929126 C2.72525253,4.82120057 2.54784529,4.9194391 2.34558949,4.9876282 C2.14333368,5.0558173 1.92778678,5.08991185 1.69894878,5.08991185 C1.43774985,5.08991185 1.21353484,5.0581288 1.02630375,4.99456269 C0.839072662,4.93099658 0.679579512,4.84200402 0.5478243,4.72758502 C0.416069089,4.61316602 0.306850953,4.47563207 0.220169893,4.31498317 C0.133488833,4.15433428 0.0600988684,3.97808279 -2.27373675e-13,3.78622871 L0.294715605,3.66140798 C0.370994937,3.62904705 0.444962775,3.61980107 0.516619119,3.63367004 C0.588275462,3.64753901 0.640284098,3.68799017 0.672645027,3.75502353 C0.707317451,3.82436837 0.747190739,3.90238133 0.79226489,3.98906239 C0.837339041,4.07574345 0.898015783,4.15780152 0.974295116,4.2352366 C1.05057445,4.31267168 1.14592362,4.37797141 1.26034261,4.4311358 C1.37476161,4.48430018 1.51865217,4.51088237 1.69201429,4.51088237 C1.85844193,4.51088237 2.00406611,4.4837223 2.12888684,4.42940217 C2.25370756,4.37508204 2.35772484,4.30458145 2.44093865,4.21790039 C2.52415247,4.13121933 2.58656284,4.03471441 2.62816974,3.92838565 C2.66977665,3.82205688 2.69058011,3.71688386 2.69058011,3.61286659 C2.69058011,3.48342287 2.67439964,3.36438088 2.64203871,3.25574062 C2.60967778,3.14710036 2.54784529,3.05406269 2.45654124,2.97662761 C2.36523719,2.89919253 2.23868285,2.83851578 2.0768782,2.79459738 C1.91507356,2.75067898 1.70472752,2.72871977 1.44584008,2.72871977 L1.44584008,2.23637135 C1.65849762,2.23405986 1.83821635,2.21210066 1.98499628,2.17049375 C2.13177621,2.12888684 2.25024032,2.07109946 2.34038862,1.99713163 C2.43053693,1.92316379 2.49583666,1.83532698 2.53628782,1.7336212 C2.57673898,1.63191543 2.59696456,1.51865217 2.59696456,1.39383145 C2.59696456,1.25745325 2.57616111,1.13841126 2.5345542,1.03670548 C2.49294729,0.934999702 2.43458204,0.850052263 2.35945846,0.781863163 C2.28433487,0.713674062 2.19534232,0.662821173 2.09248079,0.629304497 C1.98961927,0.59578782 1.87808964,0.579029482 1.7578919,0.579029482 C1.63769416,0.579029482 1.52674241,0.596365694 1.42503663,0.631038118 C1.32333085,0.665710542 1.23318255,0.714251936 1.15459172,0.776662299 C1.07600089,0.839072662 1.01012329,0.9130405 0.956958904,0.998565813 C0.903794521,1.08409113 0.865654854,1.17655092 0.842539905,1.27594521 C0.810178976,1.36378201 0.76914994,1.42272513 0.719452799,1.45277457 C0.669755658,1.482824 0.598677189,1.48975849 0.506217391,1.47357802 L0.149091423,1.41116766 Z" id="Path"></path>
                        <path d="M6.37064482,3.21760095 L6.37064482,1.27594521 C6.37064482,1.20891185 6.37237845,1.13783338 6.37584569,1.0627098 C6.37931293,0.987586212 6.38682529,0.909573258 6.39838276,0.828670935 L4.65435983,3.21760095 L6.37064482,3.21760095 Z M7.6847297,3.21760095 L7.6847297,3.60939934 C7.6847297,3.64869476 7.67201647,3.68221144 7.64659003,3.70994937 C7.62116359,3.73768731 7.58533541,3.75155628 7.53910552,3.75155628 L6.96354328,3.75155628 L6.96354328,5.03443597 L6.37064482,5.03443597 L6.37064482,3.75155628 L4.18628211,3.75155628 C4.13542922,3.75155628 4.09266656,3.73710944 4.05799414,3.70821575 C4.02332172,3.67932207 4.00020677,3.64291602 3.98864929,3.59899762 L3.91930444,3.25227338 L6.32557067,0.0520086361 L6.96354328,0.0520086361 L6.96354328,3.21760095 L7.6847297,3.21760095 Z" id="Shape"></path>
                        <path d="M8.41763837,1.41116766 C8.45231079,1.18001817 8.51703265,0.976606611 8.61180394,0.800932996 C8.70657524,0.625259381 8.82561722,0.477901578 8.96892991,0.358859589 C9.1122426,0.2398176 9.27693661,0.150247171 9.46301195,0.0901483026 C9.6490873,0.0300494342 9.84960948,4.54747351e-13 10.0645785,4.54747351e-13 C10.2795475,4.54747351e-13 10.4771804,0.0306273079 10.657477,0.0918819238 C10.8377736,0.15313654 10.9920659,0.2398176 11.1203538,0.351925104 C11.2486418,0.464032609 11.3486139,0.598677189 11.4202703,0.755858845 C11.4919266,0.9130405 11.5277548,1.08640262 11.5277548,1.27594521 C11.5277548,1.43543836 11.5081071,1.57643955 11.4688117,1.69894878 C11.4295163,1.82145801 11.3734625,1.92894253 11.3006504,2.02140232 C11.2278383,2.11386212 11.1394237,2.19187507 11.0354064,2.25544119 C10.9313891,2.3190073 10.8146586,2.37159381 10.6852149,2.41320071 C11.0018897,2.50103752 11.2399737,2.64377233 11.3994668,2.84140515 C11.55896,3.03903797 11.6387066,3.2892573 11.6387066,3.59206313 C11.6387066,3.82552412 11.5947882,4.03529229 11.5069514,4.22136763 C11.4191145,4.40744297 11.2989168,4.56462463 11.1463581,4.6929126 C10.9937995,4.82120057 10.8163922,4.9194391 10.6141364,4.9876282 C10.4118806,5.0558173 10.1963337,5.08991185 9.96749572,5.08991185 C9.7062968,5.08991185 9.48208179,5.0581288 9.2948507,4.99456269 C9.10761961,4.93099658 8.94812646,4.84200402 8.81637124,4.72758502 C8.68461603,4.61316602 8.5753979,4.47563207 8.48871684,4.31498317 C8.40203578,4.15433428 8.32864581,3.97808279 8.26854694,3.78622871 L8.56326255,3.66140798 C8.63954188,3.62904705 8.71350972,3.61980107 8.78516606,3.63367004 C8.85682241,3.64753901 8.90883104,3.68799017 8.94119197,3.75502353 C8.9758644,3.82436837 9.01573768,3.90238133 9.06081183,3.98906239 C9.10588599,4.07574345 9.16656273,4.15780152 9.24284206,4.2352366 C9.31912139,4.31267168 9.41447056,4.37797141 9.52888956,4.4311358 C9.64330856,4.48430018 9.78719912,4.51088237 9.96056124,4.51088237 C10.1269889,4.51088237 10.2726131,4.4837223 10.3974338,4.42940217 C10.5222545,4.37508204 10.6262718,4.30458145 10.7094856,4.21790039 C10.7926994,4.13121933 10.8551098,4.03471441 10.8967167,3.92838565 C10.9383236,3.82205688 10.9591271,3.71688386 10.9591271,3.61286659 C10.9591271,3.48342287 10.9429466,3.36438088 10.9105857,3.25574062 C10.8782247,3.14710036 10.8163922,3.05406269 10.7250882,2.97662761 C10.6337841,2.89919253 10.5072298,2.83851578 10.3454251,2.79459738 C10.1836205,2.75067898 9.97327446,2.72871977 9.71438703,2.72871977 L9.71438703,2.23637135 C9.92704456,2.23405986 10.1067633,2.21210066 10.2535432,2.17049375 C10.4003232,2.12888684 10.5187873,2.07109946 10.6089356,1.99713163 C10.6990839,1.92316379 10.7643836,1.83532698 10.8048348,1.7336212 C10.8452859,1.63191543 10.8655115,1.51865217 10.8655115,1.39383145 C10.8655115,1.25745325 10.8447081,1.13841126 10.8031011,1.03670548 C10.7614942,0.934999702 10.703129,0.850052263 10.6280054,0.781863163 C10.5528818,0.713674062 10.4638893,0.662821173 10.3610277,0.629304497 C10.2581662,0.59578782 10.1466366,0.579029482 10.0264388,0.579029482 C9.90624111,0.579029482 9.79528935,0.596365694 9.69358357,0.631038118 C9.5918778,0.665710542 9.50172949,0.714251936 9.42313867,0.776662299 C9.34454784,0.839072662 9.27867023,0.9130405 9.22550585,0.998565813 C9.17234146,1.08409113 9.1342018,1.17655092 9.11108685,1.27594521 C9.07872592,1.36378201 9.03769688,1.42272513 8.98799974,1.45277457 C8.9383026,1.482824 8.86722413,1.48975849 8.77476434,1.47357802 L8.41763837,1.41116766 Z" id="Path"></path>
                    </g>
                </g>
            </g>
            <g id="Baseline-" transform="translate(89.500000, 175.000000)" stroke="#2E3031" stroke-linecap="round">
                <line x1="185" y1="0.5" x2="191" y2="0.5" id="Line"></line>
                <line x1="193" y1="0.5" x2="196" y2="0.5" id="Line-Copy-2"></line>
                <line x1="-2.0206059e-14" y1="0.5" x2="91" y2="0.5" id="Line-Copy"></line>
            </g>
        </g>
    </g>
</svg>