<?xml version="1.0" encoding="UTF-8"?>
<svg width="360px" height="216px" viewBox="0 0 360 216" version="1.1" xmlns="http://www.w3.org/2000/svg" xmlns:xlink="http://www.w3.org/1999/xlink">
    <title>155CBE38-2CE2-466D-B2CF-EFC73282258A</title>
    <defs>
        <path d="M14.5728154,83.6738934 C17.7678022,98.9561849 31.3056742,110.433599 47.5215301,110.433599 C48.2977579,110.433599 49.0678495,110.4073 49.8309641,110.355543 L43.7331356,122.998893 L26.9044639,122.999516 C18.5747763,115.92798 13.2881356,105.37457 13.2881356,93.5851483 C13.2881356,90.1586045 13.734724,86.8364725 14.5728154,83.6738934 Z" id="path-1"></path>
        <mask id="mask-2" maskContentUnits="userSpaceOnUse" maskUnits="objectBoundingBox" x="0" y="0" width="36.5424792" height="39.3258396" fill="white">
            <use xlink:href="#path-1"></use>
        </mask>
        <path d="M57.0078298,47.6934117 C68.7337939,47.6934117 79.3768283,52.3796136 87.2035937,60.0001248 L87.2028277,114.999534 C87.2028277,119.417812 83.6211057,122.999534 79.2028277,122.999534 L53.3083679,122.999412 L53.3095993,109.062084 C53.5251935,108.993642 53.7396817,108.922677 53.9530301,108.849221 C65.1618234,104.990057 73.2244077,94.2586207 73.2244077,81.6239102 C73.2244077,65.7431501 60.4868477,52.8692504 44.7742711,52.8692504 C39.6660384,52.8692504 34.8722444,54.2299325 30.7283428,56.6122521 C38.0307554,51.0151432 47.1354848,47.6934117 57.0078298,47.6934117 Z" id="path-3"></path>
        <mask id="mask-4" maskContentUnits="userSpaceOnUse" maskUnits="objectBoundingBox" x="0" y="0" width="56.4758997" height="75.3061224" fill="white">
            <use xlink:href="#path-3"></use>
        </mask>
        <path d="M83.2021693,0.00026134299 C85.4113083,0.00026134299 87.2021693,1.79112234 87.2021693,4.00026134 L87.2029416,50.1342085 C79.6276122,45.4563018 70.7104543,42.7584772 61.1660023,42.7584772 C33.6697986,42.7584772 11.3797214,65.1486368 11.3797214,92.7682984 C11.3797214,103.754196 14.9062381,113.912733 20.8841938,122.164005 C7.93069023,108.267122 0,89.5885529 0,69.0493546 C0,39.0024027 16.9724624,12.9373807 41.8125369,1.96480767e-05 L83.2021693,0.00026134299 Z" id="path-5"></path>
        <mask id="mask-6" maskContentUnits="userSpaceOnUse" maskUnits="objectBoundingBox" x="0" y="0" width="87.2021693" height="122.164005" fill="white">
            <use xlink:href="#path-5"></use>
        </mask>
        <path d="M43.3239026,55.2240239 C46.2580818,55.2240239 49.0782272,55.7133088 51.7075296,56.6149046 L46.8513481,69.0692338 C37.9542499,70.2664817 31.0933679,77.9046342 31.0933679,87.1486707 C31.0933679,97.223811 39.2433912,105.391326 49.2969544,105.391326 C50.9667641,105.391326 52.5840622,105.166014 54.1202281,104.744073 C50.8340157,106.257706 47.1772962,107.101575 43.3239026,107.101575 C29.0289923,107.101575 17.440678,95.4883896 17.440678,81.1627994 C17.440678,66.8372093 29.0289923,55.2240239 43.3239026,55.2240239 Z" id="path-7"></path>
        <mask id="mask-8" maskContentUnits="userSpaceOnUse" maskUnits="objectBoundingBox" x="0" y="0" width="36.6795708" height="51.877551" fill="white">
            <use xlink:href="#path-7"></use>
        </mask>
        <rect id="path-9" x="0" y="0" width="15.779661" height="11.1564626" rx="2"></rect>
    </defs>
    <g id="Micro-illustrations" stroke="none" stroke-width="1" fill="none" fill-rule="evenodd">
        <g id="2---Micro-illustrations/Mauritian-ID/mauritian-ID-360px">
            <g id="Baseline-" transform="translate(58.000000, 175.000000)" stroke="#2E3031" stroke-linecap="round">
                <line x1="213" y1="0.5" x2="239" y2="0.5" id="Line"></line>
                <line x1="241" y1="0.5" x2="244" y2="0.5" id="Line-Copy-2"></line>
                <line x1="-2.19824159e-14" y1="0.5" x2="82" y2="0.5" id="Line-Copy"></line>
            </g>
            <rect id="Rectangle-Copy-90" stroke="#2E3031" fill="#DC143D" transform="translate(176.915649, 107.455360) rotate(1.000000) translate(-176.915649, -107.455360) " x="78.9156495" y="45.95536" width="196" height="123" rx="4"></rect>
            <g id="Mauritian-ID-Card" transform="translate(180.000000, 112.500099) rotate(3.000000) translate(-180.000000, -112.500099) translate(82.000000, 51.000000)">
                <rect id="Rectangle-Copy-90" stroke="#2E3031" fill="#FFFFFF" x="0" y="0" width="196" height="123" rx="4"></rect>
                <g id="Avatar" transform="translate(9.135593, 39.326531)">
                    <path d="M24.870036,62.0816327 C33.6740911,62.0816327 41.2095455,62.0816327 48.6096158,62.0816327 C50.3053001,62.0816327 49.740072,59.2340041 49.740072,58.9492412 C49.740072,57.2192692 38.6053776,55.8168498 24.870036,55.8168498 C11.1346944,55.8168498 0,57.2192692 0,58.9492412 C0,59.3787355 0,62.0816327 0.565228091,62.0816327 C9.62636757,62.0816327 14.544721,62.0816327 24.870036,62.0816327 Z" id="Oval" stroke="#2E3031" fill="#DC143D"></path>
                    <g id="People/Celebrate" transform="translate(1.557203, 0.000000)">
                        <path d="M27.9377069,57.6698593 C21.699281,62.237769 18.2965032,57.0988706 18.2965032,55.3859045 C18.2965032,54.2439271 18.4155725,50.9271207 18.6537111,45.4354852 L18.6307224,45.4461162 C17.6281086,44.9434988 17.0134929,43.8400382 17.1586448,42.6728704 L17.178786,42.537945 L17.1639731,42.5413247 C16.5367432,43.9021162 14.9378549,44.4908532 13.5927561,43.8563057 C12.2884179,43.240987 11.7016799,41.7013467 12.2392372,40.3678062 L12.2929394,40.2434251 L12.2830193,40.2453336 C11.3093277,41.3785052 9.61197113,41.4985807 8.49186716,40.5135296 C7.40789557,39.5602543 7.26177197,37.9213423 8.13594285,36.7895886 L8.22676398,36.678148 L8.20541694,36.6795159 C6.97499891,37.5191257 5.30475889,37.1906762 4.47483145,35.9459035 C3.67083924,34.7400299 3.95040195,33.1165783 5.0872933,32.2529596 L5.19998381,32.1717951 L5.18971277,32.173101 C3.78641918,32.6619309 2.25711986,31.9073398 1.77392713,30.4876747 C1.30537661,29.1110297 1.99254675,27.6145177 3.3141719,27.0793603 L3.4399171,27.0320388 C1.96145527,27.1348635 0.677315872,26.005555 0.57378664,24.5077453 C0.473394657,23.0553238 1.52000922,21.7897318 2.93351274,21.6188619 L3.06707975,21.6060777 L3.0599284,21.5801336 C1.60304415,21.2936402 0.651576645,19.8665747 0.934766257,18.3926937 C1.20937437,16.9634757 2.5441083,16.0150518 3.95316225,16.2201139 L4.08544871,16.2427383 L4.09162292,16.226802 C2.76923352,15.5451501 2.24344068,13.9080471 2.91723173,12.5702301 C3.56996681,11.2742198 5.10903007,10.7345184 6.4068333,11.3217759 L6.53163616,11.3821378 L6.53277228,11.3668188 C5.42983217,10.3621411 5.34078247,8.64314821 6.33387421,7.52734063 C7.29493073,6.44752685 8.91724638,6.32832397 10.0205219,7.2323105 L10.1290756,7.32612211 L10.130172,7.31596675 C9.34369107,6.04265036 9.7264456,4.36541653 10.9850781,3.56976014 C12.2043784,2.79896801 13.7983744,3.13827759 14.6118368,4.31787171 L14.6880836,4.43464008 L14.6930318,4.41358771 C14.2591077,2.97772749 15.0579142,1.45786391 16.4772161,1.01887738 C17.8535089,0.593193482 19.3078801,1.34018453 19.7904198,2.69509066 L19.8327787,2.82387688 L19.8345473,2.81355825 C19.7827511,1.31300571 20.9431723,0.0540885706 22.4264205,0.00168812119 C23.8647218,-0.0491244358 25.0784306,1.05322398 25.1978966,2.48831031 L25.2058642,2.62379943 C25.5409268,1.1633815 26.9838818,0.251203933 28.4299954,0.588960562 C29.8322874,0.916482141 30.7226215,2.29906471 30.4708724,3.71653247 L30.4439057,3.84949114 L30.4528367,3.83423354 C31.1723681,2.52102074 32.8079562,2.04655184 34.106025,2.77447758 C35.3635292,3.47965564 35.8429693,5.0545612 35.2175449,6.34621047 L35.1535599,6.47028583 C36.1871289,5.38912623 37.8883712,5.3590845 38.955981,6.40209125 C39.9891518,7.41145263 40.0502903,9.05585536 39.1187691,10.1397737 L39.0223073,10.2462529 L39.0167967,10.2551184 C40.2889636,9.4818056 41.9399231,9.89823833 42.704318,11.1852469 C43.4448256,12.4320365 43.081661,14.0384614 41.9016506,14.8407021 L41.7849157,14.9157887 L41.7746686,14.9347833 C43.2013274,14.5209229 44.689494,15.3554509 45.0985818,16.7987538 C45.4952731,18.1983202 44.7316265,19.656398 43.3841276,20.1208466 L43.2561066,20.1614455 L43.2502045,20.1697345 C44.7343568,20.1697345 45.9375,21.3869142 45.9375,22.8883814 C45.9375,24.3443496 44.8061698,25.5329987 43.3843277,25.6037011 L43.2502045,25.6070282 L43.2409166,25.6191816 C44.6744976,26.0077899 45.5252483,27.4985244 45.1411214,28.9488304 C44.7686348,30.3551876 43.3717564,31.2071087 41.9802743,30.9031088 L41.8498701,30.871204 L41.8439179,30.8872266 C43.1160847,31.6605393 43.5277152,33.3307598 42.7633202,34.6177684 C42.3574665,35.3011026 41.7016853,35.7390168 40.9853717,35.8837385 L40.841358,35.9087594 L40.8187375,35.9188043 C40.8010435,36.4373366 40.5169932,36.9068694 40.0602432,37.2015958 C39.4390787,37.6024136 38.4959844,37.3158773 38.0133608,37.1223358 L37.631276,37.2860463 L37.5078297,37.7560966 C37.2346057,38.7598402 36.7198751,40.4226774 36.23549,40.7345186 C35.5677053,41.1645096 34.0852035,39.0145527 33.3357039,39.1293891 L33.1751761,39.1998809 L33.1670167,39.2062754 C32.5965577,39.6945135 33.5162504,42.147631 34.3083218,42.8112055 L34.3821553,42.8680582 C35.2128585,43.4498699 29.4618359,45.454118 29.4618359,50.0448861 L29.0719662,55.3859045 L27.9377069,57.6698593 Z" id="Fill" fill="#FFFFFF"></path>
                        <path d="M18.0865814,45.668411 L18.0635928,45.6790965 C17.060979,45.1739024 16.4463633,44.0647849 16.5915152,42.8916336 L16.6116564,42.7560165 L16.5968435,42.7594135 C15.9696136,44.1271811 14.3707253,44.7189363 13.0256265,44.0811358 C11.7212883,43.4626626 11.1345503,41.9151294 11.6721076,40.5747525 L11.7258098,40.4497337 L11.7158896,40.4516519 C10.7421981,41.5906328 9.0448415,41.7113239 7.92473753,40.7212229 C6.84076594,39.7630606 6.69464234,38.1157466 7.56881322,36.978191 L7.65963435,36.8661791 L7.63828731,36.867554 C6.40786928,37.7114681 4.73762926,37.3813349 3.90770182,36.1301808 C3.10370961,34.9181253 3.38327232,33.2863509 4.52016367,32.4183049 L4.63285418,32.3367244 L4.62258314,32.3380369 C3.21928955,32.8293728 1.68999023,32.0709133 1.2067975,30.6439703 C0.738246978,29.2602679 1.42541712,27.756084 2.74704227,27.2181831 L2.87278747,27.170619 C1.39432564,27.2739708 0.110186242,26.1388729 0.00665700988,24.6333846 C-0.0937349727,23.1735173 0.952879594,21.9014372 2.36638311,21.7296913 L2.49995012,21.7168416 L2.49279878,21.6907645 C1.03591452,21.4028024 0.0844470154,19.968421 0.367636628,18.4869841 C0.642244737,17.0504393 1.97697867,16.0971533 3.38603262,16.3032666 L3.51831908,16.326007 L3.52449329,16.3099889 C2.2021039,15.6248426 1.67631105,13.979347 2.3501021,12.6346715 C3.00283718,11.3320172 4.54190044,10.7895491 5.83970367,11.3798172 L5.96450653,11.4404885 L5.96564265,11.425091 C4.86270254,10.4152628 4.77365284,8.68745745 5.76674458,7.56592967 C6.7278011,6.4805802 8.35011675,6.36076623 9.45339227,7.26938706 L9.56194597,7.36367959 L9.56304234,7.35347218 C8.77656144,6.07362811 9.15931597,4.38779591 10.4179485,3.58806057 C11.6372488,2.81331696 13.2312447,3.15436602 14.0447072,4.34000735 L14.120954,4.45737434 L14.1259022,4.43621404 C13.691978,2.99299286 14.4907846,1.46533767 15.9100865,1.02410068 C17.2863792,0.596234498 18.7407505,1.34705501 19.2232902,2.70890709 L19.2656491,2.83835353 L19.2674177,2.827982 C19.2156215,1.31973685 20.3760427,0.0543658565 21.8592909,0.00169677538 C23.2975922,-0.049376273 24.511301,1.05862335 24.630767,2.50106668 L24.6387346,2.63725039 C24.9737972,1.1693456 26.4167522,0.252491735 27.8628658,0.591979878 C29.2651578,0.921180501 30.1554918,2.3108509 29.9037428,3.73558533 L29.8767761,3.86922562 L29.8857071,3.8538898 C30.6052384,2.5339448 32.2408265,2.05704352 33.5388954,2.78870098 C34.7963996,3.49749415 35.2758396,5.08047349 34.6504153,6.37874442 L34.5864303,6.50345586 C35.6199993,5.41675368 37.3212415,5.38655793 38.3888514,6.43491168 C39.4220222,7.44944756 39.4831606,9.10228035 38.5516394,10.1917554 L38.4551777,10.2987805 L38.4496671,10.3076914 C39.7218339,9.53041423 41.3727935,9.94898182 42.1371884,11.2425883 C42.877696,12.4957695 42.5145314,14.1104298 41.334521,14.9167832 L41.2177861,14.9922548 L41.207539,15.0113467 C42.6341977,14.5953646 44.1223644,15.4341708 44.5314522,16.8848729 C44.9281434,18.2916142 44.1644968,19.7571669 42.8169979,20.2239964 L42.688977,20.2648035 L42.6830749,20.273135 C44.1672272,20.273135 45.3703704,21.4965546 45.3703704,23.0057191 C45.3703704,24.4691513 44.2390402,25.6638941 42.817198,25.7349589 L42.6830749,25.7383031 L42.673787,25.7505187 C44.107368,26.1411193 44.9581187,27.6394961 44.5739918,29.097237 C44.2015051,30.510804 42.8046268,31.3670924 41.4131447,31.0615341 L41.2827405,31.0294657 L41.2767883,31.0455704 C42.5489551,31.8228476 42.9605855,33.5016305 42.1961906,34.7952369 C41.7903368,35.4820743 41.1345557,35.9222335 40.4182421,36.0676971 L40.2742284,36.0928463 L40.2516078,36.1029426 C40.2507763,36.1274355 40.1879723,35.7244873 39.8489243,35.0581769 C39.6617217,34.690279 39.184836,34.2924035 38.9446472,33.7735035 C38.7617552,33.3783868 38.5516394,32.7432791 38.5516394,32.3380369 C38.5516394,30.3977413 38.5516394,27.7396006 38.5516394,27.2181831 C38.5516394,24.4748923 38.5732228,22.4063454 38.2110796,22.1330159 C37.677571,21.7303475 36.5576984,22.8395483 35.2383412,24.6333846 C33.918984,26.427221 31.7260161,28.1425051 31.4748228,28.3102394 C29.8383827,29.4029723 26.9942668,30.1946073 26.5128618,30.3310754 C24.9048707,30.7869067 22.4481789,30.8421144 21.1852222,30.3310754 C20.4205653,30.0216669 19.8390975,29.3625501 19.2674177,29.097237 C18.4280953,28.7077127 18.0022271,29.4122274 17.7293736,29.120424 C17.396771,28.7647218 16.0588686,30.3081624 16.2909969,31.9503464 C16.3789222,32.5723707 16.4587514,33.460937 16.7702305,33.9849886 C17.3485325,34.9579599 18.0635928,34.9579599 18.0871499,35.2916282 C18.1338997,35.953802 18.1337102,39.4127296 18.0865814,45.668411 Z" id="Fill" fill="#2E3031"></path>
                        <path d="M18.2138518,54.9491208 L18.2138518,36.0817852 C18.2138518,34.6310599 17.5047205,34.8663679 16.9036452,33.9339049 C16.3025698,33.0014419 16.3583405,31.1137029 16.7042087,30.219399 C17.4122906,28.3885269 19.3711256,28.7844379 20.258254,29.6624058 C21.1453823,30.5403737 22.9744488,31.1750177 25.9261776,30.5403737 C33.9364769,28.8180989 36.2076368,23.2042011 37.0907246,22.5444191 C37.9738125,21.8846371 38.619466,22.5613131 38.619466,22.985606 C38.619466,23.2684679 38.619466,24.0389165 38.619466,25.2967244 C38.619466,25.2967244 38.619466,30.4525957 38.619466,31.5439017 C38.619466,32.6352077 38.6044166,33.6680301 39.6100948,34.613589 C40.615773,35.5591479 40.3715143,36.7297206 39.510702,37.2809577 C38.6498898,37.8321947 37.1676591,37.0667126 37.1676591,37.0667126 C37.1676591,37.0667126 36.4047647,40.3223862 35.7054449,40.7691811 C35.0058988,41.216203 33.407712,38.8391274 32.7083922,39.2218672 C32.0088461,39.6050614 33.0350884,42.3012761 33.8615573,42.8757266 C34.6880261,43.4501771 28.9663184,45.429067 28.9663184,49.9617515 L28.9663184,55.3859045" id="Border" stroke="#2E3031" stroke-linecap="round" stroke-linejoin="round"></path>
                        <path d="M18.1481481,59.3828255 C18.1481481,59.3828255 18.2476816,55.3859045 23.3120993,55.3859045 C28.3767438,55.3859045 28.9236111,59.3828255 28.9236111,59.3828255" id="Border" stroke="#2E3031" stroke-linecap="round" stroke-linejoin="round" transform="translate(23.535880, 57.384365) scale(-1, 1) rotate(-180.000000) translate(-23.535880, -57.384365) "></path>
                        <path d="M33.4788457,31.4043788 C33.4788457,31.4043788 33.2709792,29.6914127 34.2603236,29.6914127 C35.2496679,29.6914127 35.1599205,31.4043788 35.1599205,31.4043788" id="Border" stroke="#2E3031" stroke-linecap="round" stroke-linejoin="round" transform="translate(34.311343, 30.547896) scale(-1, 1) rotate(-180.000000) translate(-34.311343, -30.547896) "></path>
                        <line x1="33.4606481" y1="26.8579198" x2="35.162037" y2="26.8579198" id="Border" stroke="#2E3031" stroke-linecap="round" stroke-linejoin="round" transform="translate(34.311343, 26.857920) scale(-1, 1) rotate(-180.000000) translate(-34.311343, -26.857920) "></line>
                        <path d="M40.2742284,36.0928463 C41.0460074,35.979825 41.7632799,35.5278635 42.1961906,34.7952369 C42.9605855,33.5016305 42.5489551,31.8228476 41.2767883,31.0455704 L41.2827405,31.0294657 C42.7163215,31.4200662 44.1898649,30.554978 44.5739918,29.097237 C44.9581187,27.6394961 44.107368,26.1411193 42.673787,25.7505187 L42.6830749,25.7383031 C44.1672272,25.7383031 45.3703704,24.5148835 45.3703704,23.0057191 C45.3703704,21.4965546 44.1672272,20.273135 42.6830749,20.273135 L42.688977,20.2648035 C44.1156358,19.8488213 44.94054,18.3355749 44.5314522,16.8848729 C44.1223644,15.4341708 42.6341977,14.5953646 41.207539,15.0113467 L41.2177861,14.9922548 C42.4899529,14.2149776 42.9015834,12.5361947 42.1371884,11.2425883 C41.3727935,9.94898182 39.7218339,9.53041423 38.4496671,10.3076914 L38.4551777,10.2987805 C39.4861565,9.21317842 39.4564612,7.48326542 38.3888514,6.43491168 C37.3212415,5.38655793 35.6199993,5.41675368 34.5890205,6.50235576 C35.3059616,5.18351085 34.8369643,3.52035845 33.5388954,2.78870098 C32.2408265,2.05704352 30.6052384,2.5339448 29.8857071,3.8538898 L29.8767761,3.86922562 C30.2106377,2.39874092 29.3089794,0.931468021 27.8628658,0.591979878 C26.4167522,0.252491735 24.9737972,1.1693456 24.6399356,2.6398303 L24.6387346,2.63725039 C24.5869384,1.12900524 23.3425391,-0.0509723058 21.8592909,0.00169677538 C20.3760427,0.0543658565 19.2156215,1.31973685 19.2674177,2.827982 L19.2656491,2.83835353 C18.831725,1.39513235 17.3293884,0.58286368 15.9100865,1.02410068 C14.4907846,1.46533767 13.691978,2.99299286 14.1259022,4.43621404 L14.120954,4.45737434 C13.3344731,3.17753026 11.6765811,2.78832523 10.4179485,3.58806057 C9.15931597,4.38779591 8.77656144,6.07362811 9.56304234,7.35347218 L9.56194597,7.36367959 C8.45900586,6.35385144 6.75983631,6.44440189 5.76674458,7.56592967 C4.77365284,8.68745745 4.86270254,10.4152628 5.96564265,11.425091 L5.96450653,11.4404885 C4.64211714,10.7553422 3.02389315,11.2899961 2.3501021,12.6346715 C1.67631105,13.979347 2.2021039,15.6248426 3.52449329,16.3099889 L3.51831908,16.326007 C2.06143482,16.0380448 0.65082624,17.0055473 0.367636628,18.4869841 C0.0844470154,19.968421 1.03591452,21.4028024 2.49279878,21.6907645 L2.49995012,21.7168416 C1.01941313,21.8221156 -0.0968722221,23.1278964 0.00665700988,24.6333846 C0.110186242,26.1388729 1.39432564,27.2739708 2.87486264,27.1686968 L2.87278747,27.170619 C1.46949389,27.6619549 0.723604774,29.2170272 1.2067975,30.6439703 C1.68999023,32.0709133 3.21928955,32.8293728 4.62258314,32.3380369 L4.63285418,32.3367244 C3.40243615,33.1806384 3.07777438,34.8790267 3.90770182,36.1301808 C4.73762926,37.3813349 6.40786928,37.7114681 7.63828731,36.867554 L7.65963435,36.8661791 C6.68594282,38.00516 6.80463356,39.7311219 7.92473753,40.7212229 C9.0448415,41.7113239 10.7421981,41.5906328 11.7158896,40.4516519 L11.7258098,40.4497337 C11.0985799,41.8175012 11.6805277,43.4433353 13.0256265,44.0811358 C14.3707253,44.7189363 15.9696136,44.1271811 16.5968435,42.7594135 L16.6116564,42.7560165 C16.3996591,43.9785748 17.0224169,45.1544719 18.0635928,45.6790965" id="Border" stroke="#2E3031" stroke-linecap="round" stroke-linejoin="round"></path>
                    </g>
                </g>
                <rect id="Rectangle-Copy-75" stroke="#2E3031" x="9.13559322" y="36.8163265" width="49.8305085" height="64.4285714" rx="1"></rect>
                <g id="Card-Deco" transform="translate(108.796610, 0.000466)" stroke-dasharray="1">
                    <use id="Combined-Shape-Copy-18" stroke="#FF930F" mask="url(#mask-2)" stroke-width="30" fill="#FFFFFF" opacity="0.25" xlink:href="#path-1"></use>
                    <use id="Combined-Shape-Copy-19" stroke="#E7E7E7" mask="url(#mask-4)" stroke-width="42" fill="#FFFFFF" xlink:href="#path-3"></use>
                    <use id="Combined-Shape-Copy-20" stroke="#DC143D" mask="url(#mask-6)" stroke-width="100" opacity="0.15" xlink:href="#path-5"></use>
                    <use id="Combined-Shape-Copy-21" stroke="#E7E7E7" mask="url(#mask-8)" stroke-width="20" fill="#FFFFFF" xlink:href="#path-7"></use>
                </g>
                <g id="Personal-details-" transform="translate(11.135593, 10.693878)">
                    <rect id="Rectangle-Copy-76" fill="#2E3031" x="30.8644068" y="0" width="81.3898305" height="5.02040816" rx="2.51020408"></rect>
                    <rect id="Rectangle-Copy-77" fill="#2E3031" x="30.8644068" y="7.53061224" width="68.9322034" height="5.02040816" rx="2.51020408"></rect>
                    <rect id="Rectangle-Copy-78" fill="#2E3031" opacity="0.75" x="55.6440678" y="26.9591837" width="19.9322034" height="1" rx="0.5"></rect>
                    <rect id="Rectangle-Copy-79" fill="#2E3031" opacity="0.75" x="55.6440678" y="38.6734694" width="19.9322034" height="1" rx="0.5"></rect>
                    <rect id="Rectangle-Copy-80" fill="#2E3031" opacity="0.75" x="55.6440678" y="50.3877551" width="19.9322034" height="1" rx="0.5"></rect>
                    <rect id="Rectangle-Copy-81" fill="#2E3031" opacity="0.75" x="55.6440678" y="61.2653061" width="9.13559322" height="1" rx="0.5"></rect>
                    <rect id="Rectangle-Copy-82" fill="#DC143D" x="-7.10542736e-15" y="93.8979592" width="16.6101695" height="1" rx="0.5"></rect>
                    <g id="6---Illustrations/Office/Signature-Copy-4" transform="translate(55.644068, 78.000000)">
                        <rect id="Rectangle" fill-opacity="0" fill="#FFFFFF" x="0" y="0" width="21.5932203" height="10.877551"></rect>
                        <path d="M20.0508475,8.54664723 C20.004597,8.55171054 19.95804,8.55023194 19.9114654,8.55219379 C19.9168175,8.55190528 19.9220732,8.55153022 19.927329,8.55115516 C19.7916084,8.55893044 19.6562119,8.5666913 19.5208155,8.57422135 C19.1805856,8.60452908 18.8389979,8.62675859 18.4991096,8.66132181 C18.2387143,8.68752552 17.9786694,8.71401052 17.7186157,8.74048831 C17.5697733,8.75542579 17.4202477,8.768387 17.2717469,8.78584892 C16.5432672,8.87235073 15.8130706,8.95039205 15.0863078,9.04759749 C14.5925491,9.11352149 14.0984576,9.1791714 13.6047077,9.2448141 C13.524295,9.25552495 13.4442327,9.26819765 13.3641616,9.28115886 C13.1177991,9.32060506 12.8714366,9.36033257 12.625074,9.39977878 C12.3278798,9.44738975 12.0303352,9.49500794 11.7331235,9.542893 C11.3139262,9.6257596 10.8930383,9.70310851 10.4731665,9.78323429 C10.1060185,9.85310363 9.74160341,9.93283993 9.37651388,10.0089122 C9.1137272,10.0638513 8.85299025,10.1252745 8.59191169,10.1847215 C8.49679167,10.2064173 8.40269652,10.2283944 8.30860137,10.2529031 C8.15781437,10.2927893 8.00668576,10.3326827 7.85589876,10.3722876 C7.59333983,10.4481434 7.33081594,10.5248288 7.06959722,10.6033966 C6.79004475,10.6876336 6.51015066,10.7713153 6.23607291,10.8665445 C6.21447185,10.8740168 6.19185467,10.877551 6.16949153,10.877551" id="Border" stroke="#2E3031" stroke-linecap="round" stroke-linejoin="round"></path>
                        <path d="M20.8220339,5.09875274 C20.1829262,5.27963277 19.5432212,5.45880145 18.9030159,5.6366407 L17.2818196,6.08460831 C17.1088644,6.13207926 16.9345568,6.17537126 16.7602578,6.21867147 C16.4957772,6.28440995 16.2289362,6.33733242 15.9597436,6.38287399 C15.466109,6.46625604 14.9509476,6.50025417 14.457313,6.40050935 C14.340212,6.37677387 14.2264792,6.33989398 14.1150981,6.29980394 C14.0033896,6.26004229 13.8947047,6.21225115 13.7893794,6.15933688 C13.6800226,6.10417304 13.5787372,6.03426381 13.4761081,5.96883732 L13.3219921,5.87358343 L13.159908,5.76787805 C13.1193525,5.74303421 13.0784094,5.71952862 13.0356831,5.69802629 C12.9956014,5.68076861 12.9552269,5.66530894 12.9140856,5.65071134 C12.871592,5.63745198 12.8287968,5.62598243 12.7851833,5.61608923 C12.748754,5.60983312 12.7127123,5.60507124 12.6760591,5.60193497 C12.6593217,5.60127816 12.642705,5.60134384 12.6260108,5.60191034 C12.5823197,5.60550638 12.5391025,5.61106463 12.4956957,5.61837986 C12.3914988,5.63919253 12.2876981,5.66366691 12.1866454,5.69571925 L11.9427181,5.77897814 C11.8461447,5.8107267 11.7488994,5.84023389 11.6516542,5.86974109 C11.553401,5.89956027 11.4541314,5.92393613 11.3535266,5.94639083 C11.2441612,5.97107868 11.1341325,5.99289299 11.0224154,6.0060374 C10.826245,6.02945268 10.6233384,6.01084853 10.4332238,5.95985544 C10.3736634,5.94398116 10.3171313,5.91872732 10.2622104,5.89112513 L10.091009,5.80110443 L9.97261592,5.73053018 L9.95516362,5.72390461 L9.92082757,5.71544818 L9.88662934,5.71085872 L9.86209379,5.71013654 L9.8390447,5.71291946 L9.81022171,5.7204071 C9.77332725,5.73381424 9.73790581,5.7491918 9.70244992,5.76584194 C9.65813866,5.78800928 9.6152832,5.812106 9.5732547,5.83834557 L9.17050875,6.10653634 C9.10308027,6.15076916 9.03528298,6.19448717 8.96679176,6.2372674 L8.61920166,6.45407221 C8.38803198,6.59838982 8.14609459,6.72474366 7.89709359,6.83731271 C7.62218118,6.96174538 7.32774909,7.05763966 7.02221333,7.07816498 C6.89434469,7.08682666 6.7705161,7.07175287 6.64904778,7.03358399 C6.52925923,6.99606371 6.40508606,6.93480796 6.31524896,6.84885614 C6.22877137,6.76643468 6.169549,6.66861924 6.11940595,6.5631109 C6.05816787,6.43450748 6.02148876,6.30012413 5.99793764,6.16125805 C5.9743779,6.01854963 5.95890687,5.875833 5.94847511,5.73183559 C5.94342721,5.66191816 5.93534713,5.59296952 5.9262678,5.52337227 L5.91267657,5.38766496 C5.9102646,5.36510384 5.90737981,5.34258529 5.90342304,5.32013059 L5.89576505,5.29300433 L5.88798646,5.2741703 L5.88106067,5.26282391 L5.86435781,5.24267626 L5.84852498,5.22755321 L5.83253709,5.21626428 L5.81823758,5.21999168 C5.80436016,5.22483565 5.79081008,5.2303036 5.77745813,5.23626415 C5.7030576,5.27355454 5.62954433,5.31362817 5.55935613,5.35750309 C5.48663537,5.4065668 5.41668836,5.45935997 5.34788166,5.5135468 L4.8033944,5.95152216 L4.26871329,6.37774267 L4.10846688,6.50334939 L3.47627057,6.98420008 C3.41099244,7.03391239 3.34235479,7.07944576 3.27471638,7.12627632 C3.14550393,7.21607047 3.01325929,7.30234248 2.87631133,7.38123359 C2.61587072,7.53068252 2.33422204,7.64614153 2.03811018,7.71412958 C1.90384983,7.74491756 1.76790972,7.75967116 1.62994528,7.76672365 C1.59376579,7.76866124 1.55768968,7.7696793 1.52170832,7.7696793 C1.41445337,7.7696793 1.30800816,7.7605989 1.20193335,7.73946603 C1.0821448,7.71541036 0.967059577,7.65832535 0.866790717,7.59289886 C0.749017878,7.51625733 0.646052785,7.42581457 0.553519443,7.3228678 C0.463673721,7.22312297 0.390651459,7.10863276 0.325037378,6.99350215 C0.252023731,6.86489873 0.191112983,6.7292346 0.142658314,6.59004833 C0.0962279747,6.45631358 0.0612286295,6.32064945 0.0366696502,6.18178337 C0.0100863425,6.03009307 0.00200625736,5.87519261 0.000326495531,5.72157294 C-0.00371354702,5.4130528 0.0299333745,5.10581345 0.0905081703,4.80306504 C0.208616962,4.20943184 0.429010328,3.63761295 0.718394528,3.10106476 C0.861070913,2.83647702 1.02493814,2.58183995 1.20798911,2.34098768 C1.38700003,2.10558693 1.59629836,1.89264088 1.81872467,1.69444021 C2.04416593,1.4933578 2.29014336,1.31504206 2.54486417,1.14891836 C2.79117755,0.988237974 3.0600342,0.862844712 3.35143411,0.795497045 C3.618611,0.733600901 4.20702916,0.8054466 4.4887358,1.34204009 C4.77044243,1.87863358 4.77044243,2.41459418 3.82337688,3.43909209" id="Border" stroke="#2E3031" stroke-linecap="round" stroke-linejoin="round"></path>
                    </g>
                    <rect id="Rectangle-Copy-83" fill="#2E3031" opacity="0.75" x="87.2033898" y="61.2653061" width="9.13559322" height="1" rx="0.5"></rect>
                    <rect id="Rectangle-Copy-85" fill="#2E3031" x="54.8135593" y="28.6326531" width="38.2033898" height="5.02040816" rx="2.5"></rect>
                    <rect id="Rectangle-Copy-86" fill="#2E3031" x="54.8135593" y="41.1836735" width="38.2033898" height="5.02040816" rx="2.5"></rect>
                    <rect id="Rectangle-Copy-87" fill="#2E3031" x="54.8135593" y="52.0612245" width="45.6779661" height="5.02040816" rx="2.5"></rect>
                    <rect id="Rectangle-Copy-88" fill="#2E3031" x="54.8135593" y="63.7755102" width="13.2881356" height="5.02040816" rx="2.5"></rect>
                    <rect id="Rectangle-Copy-89" fill="#2E3031" x="87.2033898" y="63.7755102" width="13.2881356" height="5.02040816" rx="2.5"></rect>
                </g>
                <g id="ID-no" transform="translate(9.135593, 107.938776)" fill="#000000" fill-rule="nonzero">
                    <path d="M2.51581908,0.543559511 C2.49711411,0.576327283 2.47009581,0.592711169 2.43476419,0.592711169 C2.40774589,0.592711169 2.37293386,0.574881646 2.33032808,0.5392226 C2.28772231,0.503563554 2.23004863,0.464049476 2.15730707,0.420680366 C2.0845655,0.377311256 1.99363854,0.337315299 1.88452619,0.300692495 C1.77541384,0.264069691 1.64084194,0.245758289 1.48081049,0.245758289 C1.32077904,0.245758289 1.17997215,0.266960965 1.05838981,0.309366317 C0.936807476,0.351771669 0.834969282,0.409597149 0.752875226,0.482842757 C0.670781171,0.556088365 0.608431256,0.640899069 0.565825481,0.737274868 C0.523219705,0.833650668 0.501916818,0.934845258 0.501916818,1.04085864 C0.501916818,1.17963979 0.533611358,1.29432699 0.597000438,1.38492024 C0.660389519,1.47551349 0.744042322,1.55261413 0.847958847,1.61622216 C0.951875373,1.67983019 1.06982063,1.73331876 1.20179462,1.77668787 C1.3337686,1.82005698 1.46937967,1.86294421 1.60862781,1.90534956 C1.74787596,1.94775491 1.88348702,1.99449718 2.01546101,2.04557635 C2.147435,2.09665552 2.26538025,2.16074543 2.36929678,2.23784607 C2.4732133,2.31494671 2.55686611,2.40987687 2.62025519,2.52263656 C2.68364427,2.63539625 2.71533881,2.77562303 2.71533881,2.94331693 C2.71533881,3.11486585 2.68364427,3.27629531 2.62025519,3.42760532 C2.55686611,3.57891533 2.46489998,3.71046829 2.34435681,3.82226422 C2.22381364,3.93406015 2.07625218,4.022244 1.90167241,4.08681579 C1.72709265,4.15138758 1.52757292,4.18367347 1.30311323,4.18367347 C1.01214696,4.18367347 0.761708131,4.13596745 0.55179675,4.04055541 C0.341885369,3.94514336 0.157953119,3.81455416 0,3.64878778 L0.0872898813,3.52157172 C0.112229847,3.49265898 0.141326475,3.47820261 0.174579763,3.47820261 C0.193284737,3.47820261 0.217185538,3.48976771 0.246282165,3.5128979 C0.275378792,3.53602809 0.310710411,3.56445896 0.352277021,3.59819049 C0.393843631,3.63192202 0.443723563,3.66854482 0.501916818,3.7080589 C0.560110072,3.74757298 0.627655813,3.78419578 0.704554042,3.81792731 C0.781452271,3.85165884 0.869781318,3.8800897 0.969541182,3.90321989 C1.06930105,3.92635008 1.18257006,3.93791518 1.30934822,3.93791518 C1.48392798,3.93791518 1.63980277,3.91333935 1.77697258,3.86418769 C1.9141424,3.81503604 2.03000932,3.74805485 2.12457336,3.66324415 C2.2191374,3.57843345 2.29135938,3.47772074 2.34123932,3.36110602 C2.39111925,3.2444913 2.41605922,3.11968464 2.41605922,2.98668604 C2.41605922,2.84212234 2.38436468,2.72309822 2.32097559,2.6296137 C2.25758651,2.53612917 2.17393371,2.45806477 2.07001719,2.3954205 C1.96610066,2.33277623 1.8481554,2.28025142 1.71618142,2.23784607 C1.58420743,2.19544072 1.44859636,2.15399913 1.30934822,2.11352129 C1.17010008,2.07304345 1.03448901,2.02774683 0.902515023,1.97763141 C0.770541036,1.927516 0.652595779,1.86342609 0.548679254,1.78536169 C0.444762729,1.70729729 0.361109926,1.60995774 0.297720845,1.49334302 C0.234331765,1.3767283 0.202637225,1.23071896 0.202637225,1.05531501 C0.202637225,0.918461372 0.230694686,0.786426526 0.28680961,0.659210471 C0.342924534,0.531994415 0.425018589,0.419716608 0.533091775,0.32237705 C0.641164962,0.225037493 0.774697697,0.146973095 0.933689981,0.0881838568 C1.09268226,0.0293946189 1.2740166,0 1.47769299,0 C1.70630935,0 1.91154448,0.0337315299 2.0933984,0.10119459 C2.27525232,0.16865765 2.44099918,0.271779755 2.59063898,0.410560907 L2.51581908,0.543559511 Z" id="Path"></path>
                    <path d="M6.8429032,2.0903911 C6.8429032,2.44890907 6.80133659,2.75923915 6.71820337,3.02138132 C6.63507015,3.2835235 6.52180113,3.50036905 6.37839633,3.67191797 C6.23499152,3.8434669 6.06716633,3.97116483 5.87492076,4.05501178 C5.68267519,4.13885872 5.47744005,4.1807822 5.25921535,4.1807822 C5.04099065,4.1807822 4.83627509,4.13885872 4.64506868,4.05501178 C4.45386228,3.97116483 4.28655667,3.8434669 4.14315187,3.67191797 C3.99974706,3.50036905 3.88699763,3.2835235 3.80490358,3.02138132 C3.72280952,2.75923915 3.68176249,2.44890907 3.68176249,2.0903911 C3.68176249,1.73187312 3.72280952,1.42154305 3.80490358,1.15940087 C3.88699763,0.897258696 3.99974706,0.680413147 4.14315187,0.508864223 C4.28655667,0.337315299 4.45386228,0.209617365 4.64506868,0.125770419 C4.83627509,0.0419234729 5.04099065,0 5.25921535,0 C5.47744005,0 5.68267519,0.0419234729 5.87492076,0.125770419 C6.06716633,0.209617365 6.23499152,0.337315299 6.37839633,0.508864223 C6.52180113,0.680413147 6.63507015,0.897258696 6.71820337,1.15940087 C6.80133659,1.42154305 6.8429032,1.73187312 6.8429032,2.0903911 Z M6.53115362,2.0903911 C6.53115362,1.75885835 6.49686117,1.47551349 6.42827626,1.24035654 C6.35969135,1.00519959 6.26772523,0.812929871 6.15237789,0.663547382 C6.03703054,0.514164892 5.90193906,0.404778359 5.74710344,0.335387783 C5.59226781,0.265997207 5.42963845,0.23130192 5.25921535,0.23130192 C5.08879225,0.23130192 4.92668247,0.265997207 4.77288601,0.335387783 C4.61908955,0.404778359 4.48399807,0.514164892 4.36761156,0.663547382 C4.25122505,0.812929871 4.15873935,1.00519959 4.09015444,1.24035654 C4.02156953,1.47551349 3.98727708,1.75885835 3.98727708,2.0903911 C3.98727708,2.42385137 4.02156953,2.7076781 4.09015444,2.94187129 C4.15873935,3.17606448 4.25122505,3.36785232 4.36761156,3.51723481 C4.48399807,3.6666173 4.61908955,3.77552196 4.77288601,3.84394878 C4.92668247,3.91237559 5.08879225,3.946589 5.25921535,3.946589 C5.42963845,3.946589 5.59226781,3.91237559 5.74710344,3.84394878 C5.90193906,3.77552196 6.03703054,3.6666173 6.15237789,3.51723481 C6.26772523,3.36785232 6.35969135,3.17606448 6.42827626,2.94187129 C6.49686117,2.7076781 6.53115362,2.42385137 6.53115362,2.0903911 Z" id="Shape"></path>
                    <path d="M10.9268226,2.0903911 C10.9268226,2.44890907 10.885256,2.75923915 10.8021228,3.02138132 C10.7189896,3.2835235 10.6057206,3.50036905 10.4623158,3.67191797 C10.318911,3.8434669 10.1510858,3.97116483 9.95884021,4.05501178 C9.76659464,4.13885872 9.5613595,4.1807822 9.3431348,4.1807822 C9.12491009,4.1807822 8.92019454,4.13885872 8.72898813,4.05501178 C8.53778173,3.97116483 8.37047612,3.8434669 8.22707132,3.67191797 C8.08366651,3.50036905 7.97091708,3.2835235 7.88882303,3.02138132 C7.80672897,2.75923915 7.76568194,2.44890907 7.76568194,2.0903911 C7.76568194,1.73187312 7.80672897,1.42154305 7.88882303,1.15940087 C7.97091708,0.897258696 8.08366651,0.680413147 8.22707132,0.508864223 C8.37047612,0.337315299 8.53778173,0.209617365 8.72898813,0.125770419 C8.92019454,0.0419234729 9.12491009,0 9.3431348,0 C9.5613595,0 9.76659464,0.0419234729 9.95884021,0.125770419 C10.1510858,0.209617365 10.318911,0.337315299 10.4623158,0.508864223 C10.6057206,0.680413147 10.7189896,0.897258696 10.8021228,1.15940087 C10.885256,1.42154305 10.9268226,1.73187312 10.9268226,2.0903911 Z M10.6150731,2.0903911 C10.6150731,1.75885835 10.5807806,1.47551349 10.5121957,1.24035654 C10.4436108,1.00519959 10.3516447,0.812929871 10.2362973,0.663547382 C10.12095,0.514164892 9.98585851,0.404778359 9.83102288,0.335387783 C9.67618726,0.265997207 9.5135579,0.23130192 9.3431348,0.23130192 C9.1727117,0.23130192 9.01060192,0.265997207 8.85680546,0.335387783 C8.703009,0.404778359 8.56791752,0.514164892 8.45153101,0.663547382 C8.3351445,0.812929871 8.24265879,1.00519959 8.17407389,1.24035654 C8.10548898,1.47551349 8.07119653,1.75885835 8.07119653,2.0903911 C8.07119653,2.42385137 8.10548898,2.7076781 8.17407389,2.94187129 C8.24265879,3.17606448 8.3351445,3.36785232 8.45153101,3.51723481 C8.56791752,3.6666173 8.703009,3.77552196 8.85680546,3.84394878 C9.01060192,3.91237559 9.1727117,3.946589 9.3431348,3.946589 C9.5135579,3.946589 9.67618726,3.91237559 9.83102288,3.84394878 C9.98585851,3.77552196 10.12095,3.6666173 10.2362973,3.51723481 C10.3516447,3.36785232 10.4436108,3.17606448 10.5121957,2.94187129 C10.5807806,2.7076781 10.6150731,2.42385137 10.6150731,2.0903911 Z" id="Shape"></path>
                    <path d="M15.0107421,2.0903911 C15.0107421,2.44890907 14.9691755,2.75923915 14.8860423,3.02138132 C14.802909,3.2835235 14.68964,3.50036905 14.5462352,3.67191797 C14.4028304,3.8434669 14.2350052,3.97116483 14.0427597,4.05501178 C13.8505141,4.13885872 13.6452789,4.1807822 13.4270542,4.1807822 C13.2088295,4.1807822 13.004114,4.13885872 12.8129076,4.05501178 C12.6217012,3.97116483 12.4543956,3.8434669 12.3109908,3.67191797 C12.167586,3.50036905 12.0548365,3.2835235 11.9727425,3.02138132 C11.8906484,2.75923915 11.8496014,2.44890907 11.8496014,2.0903911 C11.8496014,1.73187312 11.8906484,1.42154305 11.9727425,1.15940087 C12.0548365,0.897258696 12.167586,0.680413147 12.3109908,0.508864223 C12.4543956,0.337315299 12.6217012,0.209617365 12.8129076,0.125770419 C13.004114,0.0419234729 13.2088295,0 13.4270542,0 C13.6452789,0 13.8505141,0.0419234729 14.0427597,0.125770419 C14.2350052,0.209617365 14.4028304,0.337315299 14.5462352,0.508864223 C14.68964,0.680413147 14.802909,0.897258696 14.8860423,1.15940087 C14.9691755,1.42154305 15.0107421,1.73187312 15.0107421,2.0903911 Z M14.6989925,2.0903911 C14.6989925,1.75885835 14.6647001,1.47551349 14.5961152,1.24035654 C14.5275302,1.00519959 14.4355641,0.812929871 14.3202168,0.663547382 C14.2048694,0.514164892 14.069778,0.404778359 13.9149423,0.335387783 C13.7601067,0.265997207 13.5974773,0.23130192 13.4270542,0.23130192 C13.2566311,0.23130192 13.0945214,0.265997207 12.9407249,0.335387783 C12.7869284,0.404778359 12.651837,0.514164892 12.5354505,0.663547382 C12.4190639,0.812929871 12.3265782,1.00519959 12.2579933,1.24035654 C12.1894084,1.47551349 12.155116,1.75885835 12.155116,2.0903911 C12.155116,2.42385137 12.1894084,2.7076781 12.2579933,2.94187129 C12.3265782,3.17606448 12.4190639,3.36785232 12.5354505,3.51723481 C12.651837,3.6666173 12.7869284,3.77552196 12.9407249,3.84394878 C13.0945214,3.91237559 13.2566311,3.946589 13.4270542,3.946589 C13.5974773,3.946589 13.7601067,3.91237559 13.9149423,3.84394878 C14.069778,3.77552196 14.2048694,3.6666173 14.3202168,3.51723481 C14.4355641,3.36785232 14.5275302,3.17606448 14.5961152,2.94187129 C14.6647001,2.7076781 14.6989925,2.42385137 14.6989925,2.0903911 Z" id="Shape"></path>
                    <path d="M19.0946615,2.0903911 C19.0946615,2.44890907 19.0530949,2.75923915 18.9699617,3.02138132 C18.8868285,3.2835235 18.7735595,3.50036905 18.6301547,3.67191797 C18.4867499,3.8434669 18.3189247,3.97116483 18.1266791,4.05501178 C17.9344335,4.13885872 17.7291984,4.1807822 17.5109737,4.1807822 C17.292749,4.1807822 17.0880334,4.13885872 16.896827,4.05501178 C16.7056206,3.97116483 16.538315,3.8434669 16.3949102,3.67191797 C16.2515054,3.50036905 16.138756,3.2835235 16.0566619,3.02138132 C15.9745679,2.75923915 15.9335208,2.44890907 15.9335208,2.0903911 C15.9335208,1.73187312 15.9745679,1.42154305 16.0566619,1.15940087 C16.138756,0.897258696 16.2515054,0.680413147 16.3949102,0.508864223 C16.538315,0.337315299 16.7056206,0.209617365 16.896827,0.125770419 C17.0880334,0.0419234729 17.292749,0 17.5109737,0 C17.7291984,0 17.9344335,0.0419234729 18.1266791,0.125770419 C18.3189247,0.209617365 18.4867499,0.337315299 18.6301547,0.508864223 C18.7735595,0.680413147 18.8868285,0.897258696 18.9699617,1.15940087 C19.0530949,1.42154305 19.0946615,1.73187312 19.0946615,2.0903911 Z M18.782912,2.0903911 C18.782912,1.75885835 18.7486195,1.47551349 18.6800346,1.24035654 C18.6114497,1.00519959 18.5194836,0.812929871 18.4041362,0.663547382 C18.2887889,0.514164892 18.1536974,0.404778359 17.9988618,0.335387783 C17.8440262,0.265997207 17.6813968,0.23130192 17.5109737,0.23130192 C17.3405506,0.23130192 17.1784408,0.265997207 17.0246444,0.335387783 C16.8708479,0.404778359 16.7357564,0.514164892 16.6193699,0.663547382 C16.5029834,0.812929871 16.4104977,1.00519959 16.3419128,1.24035654 C16.2733279,1.47551349 16.2390354,1.75885835 16.2390354,2.0903911 C16.2390354,2.42385137 16.2733279,2.7076781 16.3419128,2.94187129 C16.4104977,3.17606448 16.5029834,3.36785232 16.6193699,3.51723481 C16.7357564,3.6666173 16.8708479,3.77552196 17.0246444,3.84394878 C17.1784408,3.91237559 17.3405506,3.946589 17.5109737,3.946589 C17.6813968,3.946589 17.8440262,3.91237559 17.9988618,3.84394878 C18.1536974,3.77552196 18.2887889,3.6666173 18.4041362,3.51723481 C18.5194836,3.36785232 18.6114497,3.17606448 18.6800346,2.94187129 C18.7486195,2.7076781 18.782912,2.42385137 18.782912,2.0903911 Z" id="Shape"></path>
                    <path d="M23.178581,2.0903911 C23.178581,2.44890907 23.1370144,2.75923915 23.0538812,3.02138132 C22.9707479,3.2835235 22.8574789,3.50036905 22.7140741,3.67191797 C22.5706693,3.8434669 22.4028441,3.97116483 22.2105986,4.05501178 C22.018353,4.13885872 21.8131178,4.1807822 21.5948931,4.1807822 C21.3766684,4.1807822 21.1719529,4.13885872 20.9807465,4.05501178 C20.7895401,3.97116483 20.6222345,3.8434669 20.4788297,3.67191797 C20.3354249,3.50036905 20.2226754,3.2835235 20.1405814,3.02138132 C20.0584873,2.75923915 20.0174403,2.44890907 20.0174403,2.0903911 C20.0174403,1.73187312 20.0584873,1.42154305 20.1405814,1.15940087 C20.2226754,0.897258696 20.3354249,0.680413147 20.4788297,0.508864223 C20.6222345,0.337315299 20.7895401,0.209617365 20.9807465,0.125770419 C21.1719529,0.0419234729 21.3766684,0 21.5948931,0 C21.8131178,0 22.018353,0.0419234729 22.2105986,0.125770419 C22.4028441,0.209617365 22.5706693,0.337315299 22.7140741,0.508864223 C22.8574789,0.680413147 22.9707479,0.897258696 23.0538812,1.15940087 C23.1370144,1.42154305 23.178581,1.73187312 23.178581,2.0903911 Z M22.8668314,2.0903911 C22.8668314,1.75885835 22.832539,1.47551349 22.7639541,1.24035654 C22.6953691,1.00519959 22.603403,0.812929871 22.4880557,0.663547382 C22.3727083,0.514164892 22.2376169,0.404778359 22.0827812,0.335387783 C21.9279456,0.265997207 21.7653162,0.23130192 21.5948931,0.23130192 C21.42447,0.23130192 21.2623603,0.265997207 21.1085638,0.335387783 C20.9547673,0.404778359 20.8196759,0.514164892 20.7032894,0.663547382 C20.5869028,0.812929871 20.4944171,1.00519959 20.4258322,1.24035654 C20.3572473,1.47551349 20.3229549,1.75885835 20.3229549,2.0903911 C20.3229549,2.42385137 20.3572473,2.7076781 20.4258322,2.94187129 C20.4944171,3.17606448 20.5869028,3.36785232 20.7032894,3.51723481 C20.8196759,3.6666173 20.9547673,3.77552196 21.1085638,3.84394878 C21.2623603,3.91237559 21.42447,3.946589 21.5948931,3.946589 C21.7653162,3.946589 21.9279456,3.91237559 22.0827812,3.84394878 C22.2376169,3.77552196 22.3727083,3.6666173 22.4880557,3.51723481 C22.603403,3.36785232 22.6953691,3.17606448 22.7639541,2.94187129 C22.832539,2.7076781 22.8668314,2.42385137 22.8668314,2.0903911 Z" id="Shape"></path>
                    <path d="M27.2625004,2.0903911 C27.2625004,2.44890907 27.2209338,2.75923915 27.1378006,3.02138132 C27.0546674,3.2835235 26.9413984,3.50036905 26.7979936,3.67191797 C26.6545888,3.8434669 26.4867636,3.97116483 26.294518,4.05501178 C26.1022724,4.13885872 25.8970373,4.1807822 25.6788126,4.1807822 C25.4605879,4.1807822 25.2558723,4.13885872 25.0646659,4.05501178 C24.8734595,3.97116483 24.7061539,3.8434669 24.5627491,3.67191797 C24.4193443,3.50036905 24.3065949,3.2835235 24.2245008,3.02138132 C24.1424068,2.75923915 24.1013597,2.44890907 24.1013597,2.0903911 C24.1013597,1.73187312 24.1424068,1.42154305 24.2245008,1.15940087 C24.3065949,0.897258696 24.4193443,0.680413147 24.5627491,0.508864223 C24.7061539,0.337315299 24.8734595,0.209617365 25.0646659,0.125770419 C25.2558723,0.0419234729 25.4605879,0 25.6788126,0 C25.8970373,0 26.1022724,0.0419234729 26.294518,0.125770419 C26.4867636,0.209617365 26.6545888,0.337315299 26.7979936,0.508864223 C26.9413984,0.680413147 27.0546674,0.897258696 27.1378006,1.15940087 C27.2209338,1.42154305 27.2625004,1.73187312 27.2625004,2.0903911 Z M26.9507509,2.0903911 C26.9507509,1.75885835 26.9164584,1.47551349 26.8478735,1.24035654 C26.7792886,1.00519959 26.6873225,0.812929871 26.5719751,0.663547382 C26.4566278,0.514164892 26.3215363,0.404778359 26.1667007,0.335387783 C26.0118651,0.265997207 25.8492357,0.23130192 25.6788126,0.23130192 C25.5083895,0.23130192 25.3462797,0.265997207 25.1924833,0.335387783 C25.0386868,0.404778359 24.9035953,0.514164892 24.7872088,0.663547382 C24.6708223,0.812929871 24.5783366,1.00519959 24.5097517,1.24035654 C24.4411668,1.47551349 24.4068743,1.75885835 24.4068743,2.0903911 C24.4068743,2.42385137 24.4411668,2.7076781 24.5097517,2.94187129 C24.5783366,3.17606448 24.6708223,3.36785232 24.7872088,3.51723481 C24.9035953,3.6666173 25.0386868,3.77552196 25.1924833,3.84394878 C25.3462797,3.91237559 25.5083895,3.946589 25.6788126,3.946589 C25.8492357,3.946589 26.0118651,3.91237559 26.1667007,3.84394878 C26.3215363,3.77552196 26.4566278,3.6666173 26.5719751,3.51723481 C26.6873225,3.36785232 26.7792886,3.17606448 26.8478735,2.94187129 C26.9164584,2.7076781 26.9507509,2.42385137 26.9507509,2.0903911 Z" id="Shape"></path>
                    <path d="M31.3464199,2.0903911 C31.3464199,2.44890907 31.3048533,2.75923915 31.2217201,3.02138132 C31.1385868,3.2835235 31.0253178,3.50036905 30.881913,3.67191797 C30.7385082,3.8434669 30.570683,3.97116483 30.3784375,4.05501178 C30.1861919,4.13885872 29.9809567,4.1807822 29.762732,4.1807822 C29.5445073,4.1807822 29.3397918,4.13885872 29.1485854,4.05501178 C28.957379,3.97116483 28.7900734,3.8434669 28.6466686,3.67191797 C28.5032637,3.50036905 28.3905143,3.2835235 28.3084203,3.02138132 C28.2263262,2.75923915 28.1852792,2.44890907 28.1852792,2.0903911 C28.1852792,1.73187312 28.2263262,1.42154305 28.3084203,1.15940087 C28.3905143,0.897258696 28.5032637,0.680413147 28.6466686,0.508864223 C28.7900734,0.337315299 28.957379,0.209617365 29.1485854,0.125770419 C29.3397918,0.0419234729 29.5445073,0 29.762732,0 C29.9809567,0 30.1861919,0.0419234729 30.3784375,0.125770419 C30.570683,0.209617365 30.7385082,0.337315299 30.881913,0.508864223 C31.0253178,0.680413147 31.1385868,0.897258696 31.2217201,1.15940087 C31.3048533,1.42154305 31.3464199,1.73187312 31.3464199,2.0903911 Z M31.0346703,2.0903911 C31.0346703,1.75885835 31.0003779,1.47551349 30.9317929,1.24035654 C30.863208,1.00519959 30.7712419,0.812929871 30.6558946,0.663547382 C30.5405472,0.514164892 30.4054557,0.404778359 30.2506201,0.335387783 C30.0957845,0.265997207 29.9331551,0.23130192 29.762732,0.23130192 C29.5923089,0.23130192 29.4301992,0.265997207 29.2764027,0.335387783 C29.1226062,0.404778359 28.9875148,0.514164892 28.8711282,0.663547382 C28.7547417,0.812929871 28.662256,1.00519959 28.5936711,1.24035654 C28.5250862,1.47551349 28.4907938,1.75885835 28.4907938,2.0903911 C28.4907938,2.42385137 28.5250862,2.7076781 28.5936711,2.94187129 C28.662256,3.17606448 28.7547417,3.36785232 28.8711282,3.51723481 C28.9875148,3.6666173 29.1226062,3.77552196 29.2764027,3.84394878 C29.4301992,3.91237559 29.5923089,3.946589 29.762732,3.946589 C29.9331551,3.946589 30.0957845,3.91237559 30.2506201,3.84394878 C30.4054557,3.77552196 30.5405472,3.6666173 30.6558946,3.51723481 C30.7712419,3.36785232 30.863208,3.17606448 30.9317929,2.94187129 C31.0003779,2.7076781 31.0346703,2.42385137 31.0346703,2.0903911 Z" id="Shape"></path>
                    <path d="M35.4303393,2.0903911 C35.4303393,2.44890907 35.3887727,2.75923915 35.3056395,3.02138132 C35.2225063,3.2835235 35.1092373,3.50036905 34.9658325,3.67191797 C34.8224277,3.8434669 34.6546025,3.97116483 34.4623569,4.05501178 C34.2701113,4.13885872 34.0648762,4.1807822 33.8466515,4.1807822 C33.6284268,4.1807822 33.4237112,4.13885872 33.2325048,4.05501178 C33.0412984,3.97116483 32.8739928,3.8434669 32.730588,3.67191797 C32.5871832,3.50036905 32.4744338,3.2835235 32.3923397,3.02138132 C32.3102457,2.75923915 32.2691986,2.44890907 32.2691986,2.0903911 C32.2691986,1.73187312 32.3102457,1.42154305 32.3923397,1.15940087 C32.4744338,0.897258696 32.5871832,0.680413147 32.730588,0.508864223 C32.8739928,0.337315299 33.0412984,0.209617365 33.2325048,0.125770419 C33.4237112,0.0419234729 33.6284268,0 33.8466515,0 C34.0648762,0 34.2701113,0.0419234729 34.4623569,0.125770419 C34.6546025,0.209617365 34.8224277,0.337315299 34.9658325,0.508864223 C35.1092373,0.680413147 35.2225063,0.897258696 35.3056395,1.15940087 C35.3887727,1.42154305 35.4303393,1.73187312 35.4303393,2.0903911 Z M35.1185898,2.0903911 C35.1185898,1.75885835 35.0842973,1.47551349 35.0157124,1.24035654 C34.9471275,1.00519959 34.8551614,0.812929871 34.739814,0.663547382 C34.6244667,0.514164892 34.4893752,0.404778359 34.3345396,0.335387783 C34.1797039,0.265997207 34.0170746,0.23130192 33.8466515,0.23130192 C33.6762284,0.23130192 33.5141186,0.265997207 33.3603221,0.335387783 C33.2065257,0.404778359 33.0714342,0.514164892 32.9550477,0.663547382 C32.8386612,0.812929871 32.7461755,1.00519959 32.6775906,1.24035654 C32.6090057,1.47551349 32.5747132,1.75885835 32.5747132,2.0903911 C32.5747132,2.42385137 32.6090057,2.7076781 32.6775906,2.94187129 C32.7461755,3.17606448 32.8386612,3.36785232 32.9550477,3.51723481 C33.0714342,3.6666173 33.2065257,3.77552196 33.3603221,3.84394878 C33.5141186,3.91237559 33.6762284,3.946589 33.8466515,3.946589 C34.0170746,3.946589 34.1797039,3.91237559 34.3345396,3.84394878 C34.4893752,3.77552196 34.6244667,3.6666173 34.739814,3.51723481 C34.8551614,3.36785232 34.9471275,3.17606448 35.0157124,2.94187129 C35.0842973,2.7076781 35.1185898,2.42385137 35.1185898,2.0903911 Z" id="Shape"></path>
                    <path d="M39.5142588,2.0903911 C39.5142588,2.44890907 39.4726922,2.75923915 39.3895589,3.02138132 C39.3064257,3.2835235 39.1931567,3.50036905 39.0497519,3.67191797 C38.9063471,3.8434669 38.7385219,3.97116483 38.5462763,4.05501178 C38.3540308,4.13885872 38.1487956,4.1807822 37.9305709,4.1807822 C37.7123462,4.1807822 37.5076307,4.13885872 37.3164243,4.05501178 C37.1252179,3.97116483 36.9579123,3.8434669 36.8145075,3.67191797 C36.6711026,3.50036905 36.5583532,3.2835235 36.4762592,3.02138132 C36.3941651,2.75923915 36.3531181,2.44890907 36.3531181,2.0903911 C36.3531181,1.73187312 36.3941651,1.42154305 36.4762592,1.15940087 C36.5583532,0.897258696 36.6711026,0.680413147 36.8145075,0.508864223 C36.9579123,0.337315299 37.1252179,0.209617365 37.3164243,0.125770419 C37.5076307,0.0419234729 37.7123462,0 37.9305709,0 C38.1487956,0 38.3540308,0.0419234729 38.5462763,0.125770419 C38.7385219,0.209617365 38.9063471,0.337315299 39.0497519,0.508864223 C39.1931567,0.680413147 39.3064257,0.897258696 39.3895589,1.15940087 C39.4726922,1.42154305 39.5142588,1.73187312 39.5142588,2.0903911 Z M39.2025092,2.0903911 C39.2025092,1.75885835 39.1682168,1.47551349 39.0996318,1.24035654 C39.0310469,1.00519959 38.9390808,0.812929871 38.8237335,0.663547382 C38.7083861,0.514164892 38.5732946,0.404778359 38.418459,0.335387783 C38.2636234,0.265997207 38.100994,0.23130192 37.9305709,0.23130192 C37.7601478,0.23130192 37.5980381,0.265997207 37.4442416,0.335387783 C37.2904451,0.404778359 37.1553537,0.514164892 37.0389671,0.663547382 C36.9225806,0.812929871 36.8300949,1.00519959 36.76151,1.24035654 C36.6929251,1.47551349 36.6586327,1.75885835 36.6586327,2.0903911 C36.6586327,2.42385137 36.6929251,2.7076781 36.76151,2.94187129 C36.8300949,3.17606448 36.9225806,3.36785232 37.0389671,3.51723481 C37.1553537,3.6666173 37.2904451,3.77552196 37.4442416,3.84394878 C37.5980381,3.91237559 37.7601478,3.946589 37.9305709,3.946589 C38.100994,3.946589 38.2636234,3.91237559 38.418459,3.84394878 C38.5732946,3.77552196 38.7083861,3.6666173 38.8237335,3.51723481 C38.9390808,3.36785232 39.0310469,3.17606448 39.0996318,2.94187129 C39.1682168,2.7076781 39.2025092,2.42385137 39.2025092,2.0903911 Z" id="Shape"></path>
                    <path d="M43.5981782,2.0903911 C43.5981782,2.44890907 43.5566116,2.75923915 43.4734784,3.02138132 C43.3903452,3.2835235 43.2770762,3.50036905 43.1336714,3.67191797 C42.9902666,3.8434669 42.8224414,3.97116483 42.6301958,4.05501178 C42.4379502,4.13885872 42.2327151,4.1807822 42.0144904,4.1807822 C41.7962657,4.1807822 41.5915501,4.13885872 41.4003437,4.05501178 C41.2091373,3.97116483 41.0418317,3.8434669 40.8984269,3.67191797 C40.7550221,3.50036905 40.6422727,3.2835235 40.5601786,3.02138132 C40.4780846,2.75923915 40.4370375,2.44890907 40.4370375,2.0903911 C40.4370375,1.73187312 40.4780846,1.42154305 40.5601786,1.15940087 C40.6422727,0.897258696 40.7550221,0.680413147 40.8984269,0.508864223 C41.0418317,0.337315299 41.2091373,0.209617365 41.4003437,0.125770419 C41.5915501,0.0419234729 41.7962657,0 42.0144904,0 C42.2327151,0 42.4379502,0.0419234729 42.6301958,0.125770419 C42.8224414,0.209617365 42.9902666,0.337315299 43.1336714,0.508864223 C43.2770762,0.680413147 43.3903452,0.897258696 43.4734784,1.15940087 C43.5566116,1.42154305 43.5981782,1.73187312 43.5981782,2.0903911 Z M43.2864287,2.0903911 C43.2864287,1.75885835 43.2521362,1.47551349 43.1835513,1.24035654 C43.1149664,1.00519959 43.0230003,0.812929871 42.9076529,0.663547382 C42.7923056,0.514164892 42.6572141,0.404778359 42.5023785,0.335387783 C42.3475428,0.265997207 42.1849135,0.23130192 42.0144904,0.23130192 C41.8440673,0.23130192 41.6819575,0.265997207 41.528161,0.335387783 C41.3743646,0.404778359 41.2392731,0.514164892 41.1228866,0.663547382 C41.0065001,0.812929871 40.9140144,1.00519959 40.8454295,1.24035654 C40.7768446,1.47551349 40.7425521,1.75885835 40.7425521,2.0903911 C40.7425521,2.42385137 40.7768446,2.7076781 40.8454295,2.94187129 C40.9140144,3.17606448 41.0065001,3.36785232 41.1228866,3.51723481 C41.2392731,3.6666173 41.3743646,3.77552196 41.528161,3.84394878 C41.6819575,3.91237559 41.8440673,3.946589 42.0144904,3.946589 C42.1849135,3.946589 42.3475428,3.91237559 42.5023785,3.84394878 C42.6572141,3.77552196 42.7923056,3.6666173 42.9076529,3.51723481 C43.0230003,3.36785232 43.1149664,3.17606448 43.1835513,2.94187129 C43.2521362,2.7076781 43.2864287,2.42385137 43.2864287,2.0903911 Z" id="Shape"></path>
                    <path d="M47.6820977,2.0903911 C47.6820977,2.44890907 47.6405311,2.75923915 47.5573978,3.02138132 C47.4742646,3.2835235 47.3609956,3.50036905 47.2175908,3.67191797 C47.074186,3.8434669 46.9063608,3.97116483 46.7141152,4.05501178 C46.5218697,4.13885872 46.3166345,4.1807822 46.0984098,4.1807822 C45.8801851,4.1807822 45.6754696,4.13885872 45.4842632,4.05501178 C45.2930568,3.97116483 45.1257512,3.8434669 44.9823463,3.67191797 C44.8389415,3.50036905 44.7261921,3.2835235 44.6440981,3.02138132 C44.562004,2.75923915 44.520957,2.44890907 44.520957,2.0903911 C44.520957,1.73187312 44.562004,1.42154305 44.6440981,1.15940087 C44.7261921,0.897258696 44.8389415,0.680413147 44.9823463,0.508864223 C45.1257512,0.337315299 45.2930568,0.209617365 45.4842632,0.125770419 C45.6754696,0.0419234729 45.8801851,0 46.0984098,0 C46.3166345,0 46.5218697,0.0419234729 46.7141152,0.125770419 C46.9063608,0.209617365 47.074186,0.337315299 47.2175908,0.508864223 C47.3609956,0.680413147 47.4742646,0.897258696 47.5573978,1.15940087 C47.6405311,1.42154305 47.6820977,1.73187312 47.6820977,2.0903911 Z M47.3703481,2.0903911 C47.3703481,1.75885835 47.3360556,1.47551349 47.2674707,1.24035654 C47.1988858,1.00519959 47.1069197,0.812929871 46.9915724,0.663547382 C46.876225,0.514164892 46.7411335,0.404778359 46.5862979,0.335387783 C46.4314623,0.265997207 46.2688329,0.23130192 46.0984098,0.23130192 C45.9279867,0.23130192 45.7658769,0.265997207 45.6120805,0.335387783 C45.458284,0.404778359 45.3231925,0.514164892 45.206806,0.663547382 C45.0904195,0.812929871 44.9979338,1.00519959 44.9293489,1.24035654 C44.860764,1.47551349 44.8264716,1.75885835 44.8264716,2.0903911 C44.8264716,2.42385137 44.860764,2.7076781 44.9293489,2.94187129 C44.9979338,3.17606448 45.0904195,3.36785232 45.206806,3.51723481 C45.3231925,3.6666173 45.458284,3.77552196 45.6120805,3.84394878 C45.7658769,3.91237559 45.9279867,3.946589 46.0984098,3.946589 C46.2688329,3.946589 46.4314623,3.91237559 46.5862979,3.84394878 C46.7411335,3.77552196 46.876225,3.6666173 46.9915724,3.51723481 C47.1069197,3.36785232 47.1988858,3.17606448 47.2674707,2.94187129 C47.3360556,2.7076781 47.3703481,2.42385137 47.3703481,2.0903911 Z" id="Shape"></path>
                    <path d="M51.7660171,2.0903911 C51.7660171,2.44890907 51.7244505,2.75923915 51.6413173,3.02138132 C51.5581841,3.2835235 51.4449151,3.50036905 51.3015103,3.67191797 C51.1581055,3.8434669 50.9902803,3.97116483 50.7980347,4.05501178 C50.6057891,4.13885872 50.400554,4.1807822 50.1823293,4.1807822 C49.9641046,4.1807822 49.759389,4.13885872 49.5681826,4.05501178 C49.3769762,3.97116483 49.2096706,3.8434669 49.0662658,3.67191797 C48.922861,3.50036905 48.8101116,3.2835235 48.7280175,3.02138132 C48.6459234,2.75923915 48.6048764,2.44890907 48.6048764,2.0903911 C48.6048764,1.73187312 48.6459234,1.42154305 48.7280175,1.15940087 C48.8101116,0.897258696 48.922861,0.680413147 49.0662658,0.508864223 C49.2096706,0.337315299 49.3769762,0.209617365 49.5681826,0.125770419 C49.759389,0.0419234729 49.9641046,0 50.1823293,0 C50.400554,0 50.6057891,0.0419234729 50.7980347,0.125770419 C50.9902803,0.209617365 51.1581055,0.337315299 51.3015103,0.508864223 C51.4449151,0.680413147 51.5581841,0.897258696 51.6413173,1.15940087 C51.7244505,1.42154305 51.7660171,1.73187312 51.7660171,2.0903911 Z M51.4542675,2.0903911 C51.4542675,1.75885835 51.4199751,1.47551349 51.3513902,1.24035654 C51.2828053,1.00519959 51.1908392,0.812929871 51.0754918,0.663547382 C50.9601445,0.514164892 50.825053,0.404778359 50.6702174,0.335387783 C50.5153817,0.265997207 50.3527524,0.23130192 50.1823293,0.23130192 C50.0119062,0.23130192 49.8497964,0.265997207 49.6959999,0.335387783 C49.5422035,0.404778359 49.407112,0.514164892 49.2907255,0.663547382 C49.174339,0.812929871 49.0818533,1.00519959 49.0132684,1.24035654 C48.9446835,1.47551349 48.910391,1.75885835 48.910391,2.0903911 C48.910391,2.42385137 48.9446835,2.7076781 49.0132684,2.94187129 C49.0818533,3.17606448 49.174339,3.36785232 49.2907255,3.51723481 C49.407112,3.6666173 49.5422035,3.77552196 49.6959999,3.84394878 C49.8497964,3.91237559 50.0119062,3.946589 50.1823293,3.946589 C50.3527524,3.946589 50.5153817,3.91237559 50.6702174,3.84394878 C50.825053,3.77552196 50.9601445,3.6666173 51.0754918,3.51723481 C51.1908392,3.36785232 51.2828053,3.17606448 51.3513902,2.94187129 C51.4199751,2.7076781 51.4542675,2.42385137 51.4542675,2.0903911 Z" id="Shape"></path>
                    <path d="M55.8499366,2.0903911 C55.8499366,2.44890907 55.80837,2.75923915 55.7252367,3.02138132 C55.6421035,3.2835235 55.5288345,3.50036905 55.3854297,3.67191797 C55.2420249,3.8434669 55.0741997,3.97116483 54.8819541,4.05501178 C54.6897086,4.13885872 54.4844734,4.1807822 54.2662487,4.1807822 C54.048024,4.1807822 53.8433085,4.13885872 53.6521021,4.05501178 C53.4608957,3.97116483 53.29359,3.8434669 53.1501852,3.67191797 C53.0067804,3.50036905 52.894031,3.2835235 52.811937,3.02138132 C52.7298429,2.75923915 52.6887959,2.44890907 52.6887959,2.0903911 C52.6887959,1.73187312 52.7298429,1.42154305 52.811937,1.15940087 C52.894031,0.897258696 53.0067804,0.680413147 53.1501852,0.508864223 C53.29359,0.337315299 53.4608957,0.209617365 53.6521021,0.125770419 C53.8433085,0.0419234729 54.048024,0 54.2662487,0 C54.4844734,0 54.6897086,0.0419234729 54.8819541,0.125770419 C55.0741997,0.209617365 55.2420249,0.337315299 55.3854297,0.508864223 C55.5288345,0.680413147 55.6421035,0.897258696 55.7252367,1.15940087 C55.80837,1.42154305 55.8499366,1.73187312 55.8499366,2.0903911 Z M55.538187,2.0903911 C55.538187,1.75885835 55.5038945,1.47551349 55.4353096,1.24035654 C55.3667247,1.00519959 55.2747586,0.812929871 55.1594113,0.663547382 C55.0440639,0.514164892 54.9089724,0.404778359 54.7541368,0.335387783 C54.5993012,0.265997207 54.4366718,0.23130192 54.2662487,0.23130192 C54.0958256,0.23130192 53.9337158,0.265997207 53.7799194,0.335387783 C53.6261229,0.404778359 53.4910314,0.514164892 53.3746449,0.663547382 C53.2582584,0.812929871 53.1657727,1.00519959 53.0971878,1.24035654 C53.0286029,1.47551349 52.9943105,1.75885835 52.9943105,2.0903911 C52.9943105,2.42385137 53.0286029,2.7076781 53.0971878,2.94187129 C53.1657727,3.17606448 53.2582584,3.36785232 53.3746449,3.51723481 C53.4910314,3.6666173 53.6261229,3.77552196 53.7799194,3.84394878 C53.9337158,3.91237559 54.0958256,3.946589 54.2662487,3.946589 C54.4366718,3.946589 54.5993012,3.91237559 54.7541368,3.84394878 C54.9089724,3.77552196 55.0440639,3.6666173 55.1594113,3.51723481 C55.2747586,3.36785232 55.3667247,3.17606448 55.4353096,2.94187129 C55.5038945,2.7076781 55.538187,2.42385137 55.538187,2.0903911 Z" id="Shape"></path>
                    <path d="M59.933856,2.0903911 C59.933856,2.44890907 59.8922894,2.75923915 59.8091562,3.02138132 C59.726023,3.2835235 59.612754,3.50036905 59.4693492,3.67191797 C59.3259443,3.8434669 59.1581192,3.97116483 58.9658736,4.05501178 C58.773628,4.13885872 58.5683929,4.1807822 58.3501682,4.1807822 C58.1319435,4.1807822 57.9272279,4.13885872 57.7360215,4.05501178 C57.5448151,3.97116483 57.3775095,3.8434669 57.2341047,3.67191797 C57.0906999,3.50036905 56.9779505,3.2835235 56.8958564,3.02138132 C56.8137623,2.75923915 56.7727153,2.44890907 56.7727153,2.0903911 C56.7727153,1.73187312 56.8137623,1.42154305 56.8958564,1.15940087 C56.9779505,0.897258696 57.0906999,0.680413147 57.2341047,0.508864223 C57.3775095,0.337315299 57.5448151,0.209617365 57.7360215,0.125770419 C57.9272279,0.0419234729 58.1319435,0 58.3501682,0 C58.5683929,0 58.773628,0.0419234729 58.9658736,0.125770419 C59.1581192,0.209617365 59.3259443,0.337315299 59.4693492,0.508864223 C59.612754,0.680413147 59.726023,0.897258696 59.8091562,1.15940087 C59.8922894,1.42154305 59.933856,1.73187312 59.933856,2.0903911 Z M59.6221064,2.0903911 C59.6221064,1.75885835 59.587814,1.47551349 59.5192291,1.24035654 C59.4506442,1.00519959 59.3586781,0.812929871 59.2433307,0.663547382 C59.1279834,0.514164892 58.9928919,0.404778359 58.8380563,0.335387783 C58.6832206,0.265997207 58.5205913,0.23130192 58.3501682,0.23130192 C58.1797451,0.23130192 58.0176353,0.265997207 57.8638388,0.335387783 C57.7100424,0.404778359 57.5749509,0.514164892 57.4585644,0.663547382 C57.3421779,0.812929871 57.2496922,1.00519959 57.1811073,1.24035654 C57.1125224,1.47551349 57.0782299,1.75885835 57.0782299,2.0903911 C57.0782299,2.42385137 57.1125224,2.7076781 57.1811073,2.94187129 C57.2496922,3.17606448 57.3421779,3.36785232 57.4585644,3.51723481 C57.5749509,3.6666173 57.7100424,3.77552196 57.8638388,3.84394878 C58.0176353,3.91237559 58.1797451,3.946589 58.3501682,3.946589 C58.5205913,3.946589 58.6832206,3.91237559 58.8380563,3.84394878 C58.9928919,3.77552196 59.1279834,3.6666173 59.2433307,3.51723481 C59.3586781,3.36785232 59.4506442,3.17606448 59.5192291,2.94187129 C59.587814,2.7076781 59.6221064,2.42385137 59.6221064,2.0903911 Z" id="Shape"></path>
                    <path d="M64.0177755,2.0903911 C64.0177755,2.44890907 63.9762089,2.75923915 63.8930756,3.02138132 C63.8099424,3.2835235 63.6966734,3.50036905 63.5532686,3.67191797 C63.4098638,3.8434669 63.2420386,3.97116483 63.049793,4.05501178 C62.8575475,4.13885872 62.6523123,4.1807822 62.4340876,4.1807822 C62.2158629,4.1807822 62.0111474,4.13885872 61.819941,4.05501178 C61.6287345,3.97116483 61.4614289,3.8434669 61.3180241,3.67191797 C61.1746193,3.50036905 61.0618699,3.2835235 60.9797758,3.02138132 C60.8976818,2.75923915 60.8566348,2.44890907 60.8566348,2.0903911 C60.8566348,1.73187312 60.8976818,1.42154305 60.9797758,1.15940087 C61.0618699,0.897258696 61.1746193,0.680413147 61.3180241,0.508864223 C61.4614289,0.337315299 61.6287345,0.209617365 61.819941,0.125770419 C62.0111474,0.0419234729 62.2158629,0 62.4340876,0 C62.6523123,0 62.8575475,0.0419234729 63.049793,0.125770419 C63.2420386,0.209617365 63.4098638,0.337315299 63.5532686,0.508864223 C63.6966734,0.680413147 63.8099424,0.897258696 63.8930756,1.15940087 C63.9762089,1.42154305 64.0177755,1.73187312 64.0177755,2.0903911 Z M63.7060259,2.0903911 C63.7060259,1.75885835 63.6717334,1.47551349 63.6031485,1.24035654 C63.5345636,1.00519959 63.4425975,0.812929871 63.3272502,0.663547382 C63.2119028,0.514164892 63.0768113,0.404778359 62.9219757,0.335387783 C62.7671401,0.265997207 62.6045107,0.23130192 62.4340876,0.23130192 C62.2636645,0.23130192 62.1015547,0.265997207 61.9477583,0.335387783 C61.7939618,0.404778359 61.6588703,0.514164892 61.5424838,0.663547382 C61.4260973,0.812929871 61.3336116,1.00519959 61.2650267,1.24035654 C61.1964418,1.47551349 61.1621493,1.75885835 61.1621493,2.0903911 C61.1621493,2.42385137 61.1964418,2.7076781 61.2650267,2.94187129 C61.3336116,3.17606448 61.4260973,3.36785232 61.5424838,3.51723481 C61.6588703,3.6666173 61.7939618,3.77552196 61.9477583,3.84394878 C62.1015547,3.91237559 62.2636645,3.946589 62.4340876,3.946589 C62.6045107,3.946589 62.7671401,3.91237559 62.9219757,3.84394878 C63.0768113,3.77552196 63.2119028,3.6666173 63.3272502,3.51723481 C63.4425975,3.36785232 63.5345636,3.17606448 63.6031485,2.94187129 C63.6717334,2.7076781 63.7060259,2.42385137 63.7060259,2.0903911 Z" id="Shape"></path>
                    <path d="M68.1016949,2.0903911 C68.1016949,2.44890907 68.0601283,2.75923915 67.9769951,3.02138132 C67.8938619,3.2835235 67.7805929,3.50036905 67.637188,3.67191797 C67.4937832,3.8434669 67.3259581,3.97116483 67.1337125,4.05501178 C66.9414669,4.13885872 66.7362318,4.1807822 66.5180071,4.1807822 C66.2997824,4.1807822 66.0950668,4.13885872 65.9038604,4.05501178 C65.712654,3.97116483 65.5453484,3.8434669 65.4019436,3.67191797 C65.2585388,3.50036905 65.1457894,3.2835235 65.0636953,3.02138132 C64.9816012,2.75923915 64.9405542,2.44890907 64.9405542,2.0903911 C64.9405542,1.73187312 64.9816012,1.42154305 65.0636953,1.15940087 C65.1457894,0.897258696 65.2585388,0.680413147 65.4019436,0.508864223 C65.5453484,0.337315299 65.712654,0.209617365 65.9038604,0.125770419 C66.0950668,0.0419234729 66.2997824,0 66.5180071,0 C66.7362318,0 66.9414669,0.0419234729 67.1337125,0.125770419 C67.3259581,0.209617365 67.4937832,0.337315299 67.637188,0.508864223 C67.7805929,0.680413147 67.8938619,0.897258696 67.9769951,1.15940087 C68.0601283,1.42154305 68.1016949,1.73187312 68.1016949,2.0903911 Z M67.7899453,2.0903911 C67.7899453,1.75885835 67.7556529,1.47551349 67.687068,1.24035654 C67.6184831,1.00519959 67.5265169,0.812929871 67.4111696,0.663547382 C67.2958223,0.514164892 67.1607308,0.404778359 67.0058952,0.335387783 C66.8510595,0.265997207 66.6884302,0.23130192 66.5180071,0.23130192 C66.347584,0.23130192 66.1854742,0.265997207 66.0316777,0.335387783 C65.8778813,0.404778359 65.7427898,0.514164892 65.6264033,0.663547382 C65.5100168,0.812929871 65.4175311,1.00519959 65.3489462,1.24035654 C65.2803613,1.47551349 65.2460688,1.75885835 65.2460688,2.0903911 C65.2460688,2.42385137 65.2803613,2.7076781 65.3489462,2.94187129 C65.4175311,3.17606448 65.5100168,3.36785232 65.6264033,3.51723481 C65.7427898,3.6666173 65.8778813,3.77552196 66.0316777,3.84394878 C66.1854742,3.91237559 66.347584,3.946589 66.5180071,3.946589 C66.6884302,3.946589 66.8510595,3.91237559 67.0058952,3.84394878 C67.1607308,3.77552196 67.2958223,3.6666173 67.4111696,3.51723481 C67.5265169,3.36785232 67.6184831,3.17606448 67.687068,2.94187129 C67.7556529,2.7076781 67.7899453,2.42385137 67.7899453,2.0903911 Z" id="Shape"></path>
                </g>
                <g id="Goverment-icon" transform="translate(9.135593, 5.857143)">
                    <rect id="Rectangle" fill-opacity="0" fill="#FFFFFF" x="0" y="0" width="22.4237288" height="22.5918367"></rect>
                    <g id="shape" transform="translate(1.546464, 1.558058)">
                        <path d="M7.42302747,6.54384236 C4.40277256,6.54384236 3.12100827,7.55140614 1.85575687,10.2831809 C1.73580347,10.5421694 1.58753293,11.2180155 1.85575687,11.2180155 L13.5568952,11.2180155 C13.8251192,11.2180155 13.999572,10.9132935 13.8796186,10.6543049 C12.6143672,7.92253019 10.4432824,6.54384236 7.42302747,6.54384236 Z" id="Path-64" fill="#FF930F"></path>
                        <path d="M18.0936295,17.7618578 C18.349856,17.7618578 18.5575687,17.9857155 18.5575687,18.2618578 C18.5575687,18.5380002 18.349856,18.7618578 18.0936295,18.7618578 L0.463939217,18.7618578 C0.207712663,18.7618578 0,18.5380002 0,18.2618578 C0,17.9857155 0.207712663,17.7618578 0.463939217,17.7618578 L18.0936295,17.7618578 Z M8.8509059,0 C9.12704828,0 9.3509059,0.209269859 9.3509059,0.467417312 L9.35,0.934 L12.9902981,0.934834624 L12.9902981,4.67417312 L9.351,4.674 L9.35128284,5.60920061 C13.1970066,5.62969744 15.963984,7.28386822 17.5807109,10.5415628 C17.7349477,10.8523491 17.5106351,11.2180155 17.165751,11.2180155 L15.846,11.218 L15.846,15.892 L17.165751,15.8921886 C17.4219776,15.8921886 17.6296902,16.1160462 17.6296902,16.3921886 C17.6296902,16.668331 17.4219776,16.8921886 17.165751,16.8921886 L1.39181765,16.8921886 C1.1355911,16.8921886 0.927878434,16.668331 0.927878434,16.3921886 C0.927878434,16.1160462 1.1355911,15.8921886 1.39181765,15.8921886 L2.783,15.892 L2.783,11.218 L1.39181765,11.2180155 C1.04693358,11.2180155 0.822620954,10.8523491 0.9768578,10.5415628 C2.47099801,7.5308796 4.94756868,5.88976818 8.35012875,5.64202725 L8.3509059,0.467417312 C8.3509059,0.209269859 8.57476353,0 8.8509059,0 Z M6.495,11.218 L3.783,11.218 L3.783,15.892 L6.495,15.892 L6.495,11.218 Z M11.134,11.218 L7.495,11.218 L7.495,15.892 L11.134,15.892 L11.134,11.218 Z M14.846,11.218 L12.134,11.218 L12.134,15.892 L14.846,15.892 L14.846,11.218 Z M9.27878434,6.54384236 C6.06099866,6.54384236 3.73013973,7.75185065 2.23146811,10.1909484 L2.17587493,10.2831809 L16.3807659,10.2831809 L16.3261006,10.1909484 C14.8773847,7.83315391 12.651036,6.62574413 9.59760851,6.54786991 L9.27878434,6.54384236 Z M12.0624196,1.86966925 L9.35,1.869 L9.351,3.739 L12.0624196,3.73933849 L12.0624196,1.86966925 Z" id="Combined-Shape" fill="#000000"></path>
                    </g>
                </g>
                <g id="5---Flags/M---O/flag-MU-Copy-4" transform="translate(170.254237, 6.693878)">
                    <rect id="Rectangle" fill-opacity="0" fill="#FFFFFF" x="0" y="0" width="15.779661" height="13.3877551"></rect>
                    <g id="MU" transform="translate(0.000000, 1.115646)">
                        <mask id="mask-10" fill="white">
                            <use xlink:href="#path-9"></use>
                        </mask>
                        <use id="Mask" fill="#FFFFFF" xlink:href="#path-9"></use>
                        <rect id="Rectangle-2" fill="#1DBB63" mask="url(#mask-10)" x="0" y="8.92517007" width="15.779661" height="2.23129252"></rect>
                        <rect id="Rectangle-2" fill="#222B82" mask="url(#mask-10)" x="0" y="2.97505669" width="15.779661" height="2.97505669"></rect>
                        <rect id="Rectangle-2" fill="#FFD741" mask="url(#mask-10)" x="0" y="5.95011338" width="15.779661" height="2.97505669"></rect>
                        <rect id="Rectangle-2" fill="#F4374A" mask="url(#mask-10)" x="0" y="0" width="15.779661" height="2.97505669"></rect>
                    </g>
                </g>
                <rect id="Rectangle-Copy-90" stroke="#2E3031" x="0" y="0" width="196" height="123" rx="4"></rect>
            </g>
        </g>
    </g>
</svg>