<?xml version="1.0" encoding="UTF-8"?>
<svg width="24px" height="24px" viewBox="0 0 24 24" version="1.1" xmlns="http://www.w3.org/2000/svg" xmlns:xlink="http://www.w3.org/1999/xlink">
    <title>8F3D8C7C-B3B9-4C5F-892F-92ECAFEEF27F</title>
    <g id="1---Icons/Status/Check_circle/24px/4-Positive" stroke="none" stroke-width="1" fill="none" fill-rule="evenodd">
        <g id="shape" transform="translate(2, 2)" fill-rule="nonzero">
            <circle id="Oval" fill="#0B875D" cx="9" cy="11" r="8"></circle>
            <path d="M10,0 C15.5228,0 20,4.47715 20,10 C20,15.5228 15.5228,20 10,20 C4.4772,20 0,15.5228 0,10 C0,4.47715 4.4772,0 10,0 Z M10,1 C5.0294,1 1,5.02944 1,10 C1,14.9706 5.0294,19 10,19 C14.9706,19 19,14.9706 19,10 C19,5.02944 14.9706,1 10,1 Z M14.8964,6.14645 C15.0917,5.95118 15.4083,5.95118 15.6036,6.14645 C15.7771111,6.32001444 15.7963901,6.58943667 15.661437,6.78430284 L15.6036,6.85355 L8.6036,13.8536 C8.43,14.0271111 8.16055802,14.0463901 7.96565981,13.911437 L7.8964,13.8536 L4.3964,10.3536 C4.2012,10.1583 4.2012,9.84171 4.3964,9.64645 C4.57,9.47287667 4.83944198,9.45359074 5.03434019,9.58859222 L5.1036,9.64645 L8.25,12.7929 L14.8964,6.14645 Z" id="Shape" fill="#000000"></path>
        </g>
    </g>
</svg>