<?xml version="1.0" encoding="UTF-8"?>
<svg width="360px" height="280px" viewBox="0 0 360 280" version="1.1" xmlns="http://www.w3.org/2000/svg" xmlns:xlink="http://www.w3.org/1999/xlink">
    <title>80DFA1D3-FBC9-4615-BB74-37EF64D5D901@2x</title>
    <g id="Downloadable-assets" stroke="none" stroke-width="1" fill="none" fill-rule="evenodd">
        <g transform="translate(-1333.000000, -765.000000)" id="Visit_Branch_illustration">
            <g transform="translate(1333.000000, 765.000000)">
                <g id="illustration" transform="translate(0.000000, 32.000000)">
                    <rect id="Rectangle" fill-opacity="0" fill="#FFFFFF" x="0" y="0" width="360" height="216"></rect>
                    <g id="Baseline-" transform="translate(58.000000, 175.000000)" stroke="#2E3031" stroke-linecap="round">
                        <line x1="226" y1="0.5" x2="239" y2="0.5" id="Line"></line>
                        <line x1="241" y1="0.5" x2="244" y2="0.5" id="Line-Copy-2"></line>
                        <line x1="-2.19824159e-14" y1="0.5" x2="108" y2="0.5" id="Line-Copy"></line>
                    </g>
                    <g id="MCB-Branch" transform="translate(32.000000, 59.000000)">
                        <g id="Floor" transform="translate(0.000000, 84.000000)" stroke="#2E3031" stroke-linejoin="round">
                            <path d="M222.255622,6.07640854 L263.534462,1.84877908 C263.568313,1.84531223 263.602318,1.84357542 263.636346,1.84357542 L285.427984,1.84357542 C285.980269,1.84357542 286.427984,2.29129067 286.427984,2.84357542 C286.427984,3.23425826 286.200466,3.58916586 285.845456,3.7522651 L222.433627,32.885069 C222.269896,32.9602904 222.088884,32.9898765 221.909724,32.9706995 L8.94706639,10.1755552 C8.39791853,10.1167754 8.00039668,9.62395261 8.05917649,9.07480475 C8.10895301,8.60976975 8.47440457,8.24134799 8.93902142,8.18780891 L79.9151521,0.00903286399 C79.9673296,0.0030202991 80.0198998,0.00112783939 80.0723746,0.00337304998 L222.110992,6.08069811 C222.159242,6.08276258 222.207579,6.08132897 222.255622,6.07640854 Z" id="Rectangle"></path>
                        </g>
                        <g id="Baseline" transform="translate(37.000000, 84.000000)" fill="#E7E7E7" stroke="#2E3031">
                            <rect id="Rectangle" x="7.10542736e-15" y="6" width="3.80954965" height="2.85714286"></rect>
                            <polygon id="Rectangle-Copy-9" points="54.8510581 11 105.892566 15 105.892566 19 54.8510581 14.8095238"></polygon>
                            <polygon id="Rectangle-Copy-11" points="120.904775 10.6 122.240913 10 194.965003 15.4 194.965003 20 120.904775 14.4"></polygon>
                            <polygon id="Rectangle-Copy-10" transform="translate(113.899078, 15.500000) scale(-1, 1) translate(-113.899078, -15.500000) " points="105.892566 12 121.905589 14.9166667 121.905589 19 105.892566 15.6944444"></polygon>
                            <polygon id="Rectangle-Copy-12" transform="translate(216.482501, 9.500000) scale(-1, 1) translate(-216.482501, -9.500000) " points="194.965003 0 238 14.63 238 19 194.965003 2.09"></polygon>
                            <polygon id="Rectangle-Copy-8" stroke-linejoin="round" points="3.80954965 6 5.81117743 6 5.81117743 8.41758242 3.80954965 8.85714286"></polygon>
                        </g>
                        <polygon id="Rectangle" stroke="#2E3031" fill="#E7E7E7" points="12 28.3485714 241.470243 11 283.040306 30.0457143 290 44 273.071015 44 261.220725 38.3428571 245.04414 38.3428571 12 38.3428571"></polygon>
                        <g id="Roof" transform="translate(12.000000, 0.000000)" fill="#FFFFFF" stroke="#2E3031">
                            <polygon id="Rectangle" stroke-linejoin="round" points="0 21.2233503 232 0 232 17.4670051 0 37"></polygon>
                            <polygon id="Rectangle-Copy-13" transform="translate(255.000000, 21.500000) scale(-1, 1) translate(-255.000000, -21.500000) " points="232 31.5956522 278 0 278 17.3869565 232 43"></polygon>
                        </g>
                        <g id="Roof" transform="translate(11.000000, 0.000000)">
                            <polygon id="Rectangle" stroke="#2E3031" fill="#DC143D" stroke-linejoin="round" points="139.833732 8.60022992 232.325188 0 232.325188 17.8590357 148.881494 25"></polygon>
                            <polygon id="Rectangle" stroke="#2E3031" fill="#DC143D" stroke-linejoin="round" points="1.42108547e-14 21.1205112 77.169344 14.0444444 86.7703349 30.6772655 1.42108547e-14 38"></polygon>
                            <polygon id="Rectangle-Copy-13" stroke="#2E3031" fill="#DC143D" stroke-linejoin="round" transform="translate(255.638756, 21.500000) scale(-1, 1) translate(-255.638756, -21.500000) " points="232.277512 31.5956522 279 0 279 17.3869565 232.277512 43"></polygon>
                            <polygon id="Rectangle-Copy-13" fill="#2E3031" opacity="0.239558629" transform="translate(271.991627, 32.000000) scale(-1, 1) translate(-271.991627, -32.000000) " points="264.983254 30.9245779 279 21 275.086326 37.2010126 264.983254 43"></polygon>
                            <g id="Content/Logos/MCB/1---logo-mcb-default" transform="translate(113.264719, 19.023740) rotate(-5.000000) translate(-113.264719, -19.023740) translate(99.330859, 13.378328)">
                                <rect id="Rectangle" fill-opacity="0" fill="#FFFFFF" x="0" y="0" width="27.8677199" height="11.2908243"></rect>
                                <g id="Logo" transform="translate(0.000000, 0.000000)">
                                    <path d="M22.706289,2.46545475 C22.3713278,2.33007448 21.8240672,2.24303647 21.2989692,2.24303647 C19.6456673,2.24303647 18.5567416,3.36225313 18.5567416,5.06124813 C18.5567416,5.91770648 18.8255445,6.58353625 19.3249691,7.03100368 C19.4802164,7.17624972 19.6935032,7.33969262 19.9685598,7.4728805 C19.9996093,7.48965231 20.0691689,7.5219901 20.1696682,7.56002812 C20.3288653,7.62185361 20.506714,7.67205941 20.7032144,7.70516454 C21.2131717,7.79669695 21.9473874,7.80173946 22.7935128,7.43078655 C22.7983403,7.4293615 22.8059106,7.42574405 22.8140296,7.4232228 C22.8155656,7.42168812 22.8185279,7.42015345 22.8206125,7.41872839 L22.8218194,7.41872839 C22.8291703,7.41511094 22.8332298,7.41258969 22.8332298,7.41258969 C22.9313154,7.36643982 22.927585,7.24256961 22.927585,7.24256961 L22.9269268,7.24256961 C22.9285725,7.23369042 22.9285725,7.22404389 22.9285725,7.21384926 L22.9285725,6.67408209 C22.9285725,6.66673757 22.927585,6.65895458 22.9269268,6.65161006 L22.9269268,6.46569513 C22.9123346,6.29326341 22.7270252,6.43960565 22.7270252,6.43960565 C22.391296,6.67726106 21.9748162,6.81713574 21.5235567,6.8091335 C20.3931586,6.78874425 19.7353048,6.10219636 19.60222,5.21153668 C19.5948691,5.13184319 19.5901513,5.05083427 19.5901513,4.96664637 C19.5901513,3.82320377 20.3604634,3.02583042 21.4897643,3.03679238 C22.1463015,3.04315032 22.5554303,3.252195 22.7303167,3.35118155 C22.7433728,3.35885492 22.7534667,3.36510324 22.7616953,3.37124194 C22.7842967,3.38921957 22.8110673,3.41432247 22.8318035,3.45016809 C22.8318035,3.45016809 22.8413487,3.46902267 22.8540757,3.48349247 C22.8945607,3.52964234 22.9285725,3.46376093 22.9285725,3.46376093 L22.9285725,2.72744572 C22.9285725,2.60061578 22.8648278,2.52936301 22.706289,2.46545475 M26.5370033,6.7611749 C26.3706748,6.90400931 26.1872306,6.96057305 25.7903898,6.96057305 L24.8127156,6.96057305 L24.8127156,2.97304855 L25.8136495,2.97304855 C26.2674325,2.97304855 26.5613602,3.29094555 26.5613602,3.77590289 C26.5613602,4.28377074 26.0415285,4.50092728 25.5015091,4.50092728 L25.4331564,4.50092728 L25.4331564,4.50257157 C25.4331564,4.50257157 25.3515281,4.49950222 25.3426412,4.57239929 L25.3426412,5.15732976 C25.3426412,5.15732976 25.3289267,5.25949528 25.4394102,5.25642593 L25.4394102,5.25752212 L25.6528067,5.25752212 C26.2396745,5.25752212 26.7992232,5.53858691 26.7992232,6.09446817 C26.7992232,6.35700724 26.7032222,6.61066712 26.5370033,6.7611749 M27.3321111,5.07073023 C27.1168494,4.9110144 26.9993442,4.86420681 26.641233,4.77640147 C26.9273709,4.71304131 27.022165,4.67303013 27.1733529,4.55409281 C27.4274538,4.35557162 27.5949893,3.98999007 27.5949893,3.61618706 C27.5949893,3.21947353 27.4037553,2.80697478 27.1168494,2.60834397 C26.8243481,2.3943664 26.4977252,2.32256553 25.8378966,2.32256553 L23.6773803,2.32256553 C23.6773803,2.32256553 23.5964103,2.36049393 23.6815495,2.40675343 C23.6815495,2.40675343 23.7948855,2.46200173 23.8022365,2.55046479 L23.8022365,7.38173176 C23.7889609,7.48565119 23.6805621,7.53443194 23.6805621,7.53443194 C23.5963006,7.57981447 23.6777095,7.61960641 23.6777095,7.61960641 L25.9575961,7.61960641 C26.5926291,7.61960641 26.966649,7.51568697 27.3076445,7.2542441 C27.666414,6.98381242 27.8328523,6.61845011 27.8328523,6.15837643 C27.8328523,5.70542802 27.6421669,5.30016417 27.3321111,5.07073023 M17.7292349,2.32259842 L16.6563277,2.32259842 C16.4804539,2.32259842 16.449953,2.36162301 16.3545006,2.64027617 L14.9788885,6.77710264 L13.5408483,2.55203235 C13.4775425,2.36162301 13.429158,2.32259842 13.222893,2.32259842 L11.984096,2.32259842 C11.984096,2.32259842 11.9026872,2.36107492 11.9877166,2.40711517 C11.9877166,2.40711517 12.1019304,2.45940375 12.1103785,2.57000997 L12.1103785,7.3775991 C12.0991875,7.4836013 11.9877166,7.5338071 11.9877166,7.5338071 C11.9591906,7.54926347 11.9496454,7.56406213 11.9495357,7.57677801 C11.9493162,7.60144243 11.9864,7.61963929 11.9864,7.61963929 L12.8016954,7.61952967 C12.8566629,7.61952967 12.9047182,7.57129702 12.9047182,7.51571986 L12.9047182,3.60021547 L14.2408328,7.34197271 C14.328276,7.57940888 14.3672249,7.61952967 14.5181934,7.61952967 L15.1621132,7.61952967 C15.3136303,7.61952967 15.3952585,7.57721649 15.4409002,7.46858341 C15.4552729,7.42648946 16.7997258,3.60021547 16.7997258,3.60021547 L16.7997258,7.51571986 C16.7999452,7.58039546 16.8568875,7.61963929 16.902968,7.61952967 L17.7263823,7.61963929 C17.7263823,7.61963929 17.8289663,7.61843348 17.832916,7.5098004 L17.832916,7.42572213 L17.832916,7.42517403 L17.832916,2.42564089 C17.832916,2.36995411 17.785519,2.32259842 17.7292349,2.32259842" id="Name" fill="#55585A"></path>
                                    <path d="M6.67025944,2.00674035 C6.2163667,2.71400635 5.83225297,3.51587411 5.76521684,4.23399246 C5.76258367,4.26238395 5.7599505,4.28978886 5.75830477,4.31664568 C5.63213202,5.90766532 6.23370174,6.97382607 7.01059671,7.7102509 C7.65714976,8.32028427 8.43239901,8.6819195 8.98777853,8.86772481 C8.50305574,8.40063547 8.21494302,7.81592424 8.14680973,7.1525061 L8.14680973,7.15020409 C8.1280484,6.96637193 8.12607352,6.77694917 8.14187254,6.58325124 C8.14615144,6.52942799 8.15163721,6.47560474 8.158659,6.4212334 C8.35899938,4.56285142 9.77838793,3.17418965 9.78924976,3.16311807 C10.7951208,2.03754347 11.97138,1.3532976 12.4487518,1.10336479 C10.5959873,1.00087041 8.60563967,1.31153251 6.67025944,2.00674035 M2.92413571,7.59860328 C3.72308349,9.66931853 5.8118459,11.04943 8.14944291,11.0520608 C8.57195704,11.0524993 8.98733966,11.008213 9.39295762,10.9205172 C8.60827284,11.1606939 7.78771112,11.2822621 6.94641319,11.2822621 C4.113451,11.2818236 1.39744547,9.83879051 0,7.59893214 Z M12.8937576,8.19131674 C11.91356,9.76633192 10.179727,10.7005106 8.2346918,10.7005106 C6.61913205,10.7005106 5.15289501,10.0655936 4.13188319,8.94100555 C4.96956052,9.62525143 6.01273485,9.99620433 7.12108016,9.99620433 C8.59280297,9.99620433 9.94800799,9.33870565 10.8439442,8.19120712 Z M5.9106995,2.29624585 C5.55544093,2.88457453 5.27040024,3.52354749 5.18098216,4.16219159 C5.17681297,4.19156965 5.17330208,4.2219343 5.16946204,4.2526278 C4.95825983,5.97146396 5.5879167,7.22649937 6.41198931,8.06125303 C6.82199589,8.47813657 7.27610806,8.79603356 7.70301081,9.03346973 C7.74623869,9.05736681 7.7854071,9.07874264 7.82797669,9.10099543 C7.7825545,9.09978962 7.74283751,9.09957038 7.70114565,9.09770684 C6.58347454,9.04772028 5.79352342,8.75087026 5.43585111,8.5865504 C3.34719842,7.64787731 2.43030655,5.55403232 2.582811,3.95073528 C3.41983004,3.30891221 5.01684787,2.64330167 5.9106995,2.29624585 Z M7.71817348,0.241535077 C7.96656922,-0.19540886 9.79245345,-0.0545476056 11.1172673,0.78722171 C8.96640596,0.861872694 6.91911599,1.60147649 6.91911599,1.60147649 C7.2085453,1.10237821 7.40230275,0.665653515 7.71817348,0.241535077 Z" id="Ship" fill="#AD000C"></path>
                                </g>
                            </g>
                        </g>
                        <g id="Main-Structure" transform="translate(35.000000, 26.000000)">
                            <polygon id="Rectangle" stroke="#2E3031" fill="#F9F9F9" stroke-linejoin="round" points="123 4.76501305 198 -1.43730514e-14 197.622166 73 123 68.2349869"></polygon>
                            <rect id="Rectangle" stroke="#979797" fill="#DC143D" x="34" y="25" width="23" height="35"></rect>
                            <polygon id="Rectangle-Copy-2" stroke="#2E3031" fill="#DFDFDF" stroke-linejoin="round" transform="translate(114.867589, 38.524390) scale(-1, 1) translate(-114.867589, -38.524390) " points="106.687747 5.07343802 123.047431 3.80487805 123.047431 73.2439024 106.853755 70.3902439"></polygon>
                            <polygon id="Rectangle-Copy-3" stroke="#2E3031" fill="#FFFFFF" points="-9.75729384e-15 12.3061224 106.970961 4 107 72.9030612 102.0571 72.9030612 102.0571 78 58.3924561 74.1007643 58.4131396 69.2105915 50.4766037 68.6074363 50.0835769 20.4234694 28.6633302 21.4587313 3.21290871 22.6887755 3.96888723 63.8344948 0.18899463 63.8344948"></polygon>
                            <polygon id="Rectangle" stroke="#2E3031" fill="#D8D8D8" points="103.142292 73.2014048 106.952569 73.195122 106.952569 76.9334021 103.142292 77.9512195"></polygon>
                            <polygon id="Rectangle" stroke="#2E3031" fill="#E7E7E7" points="3 22.1875 7.62962963 22 8 64 3.74074074 64"></polygon>
                            <polygon id="Rectangle" stroke="#2E3031" fill="#E7E7E7" points="30 22.65625 50.0039526 22 50.0039526 28.34375 30 29"></polygon>
                            <polygon id="Rectangle-Copy-4" stroke="#2E3031" fill="#E7E7E7" points="8 21.7368421 49.9130435 20 49.9130435 22.5756579 27.5468902 23"></polygon>
                            <rect id="Rectangle" stroke="#2E3031" fill="#FFFFFF" x="32" y="29" width="2" height="30"></rect>
                            <polygon id="Rectangle-Copy-5" stroke="#2E3031" fill="#E7E7E7" points="35 29 36 29 36 59 35 59"></polygon>
                            <polygon id="Rectangle" stroke="#2E3031" fill="#FFFFFF" points="30 59 50 59.2352941 50 61 30 60.5294118"></polygon>
                            <polygon id="Rectangle-Copy-7" stroke="#2E3031" fill="#FFFFFF" points="29 60.2439024 49.9565217 61.5121951 49.9565217 65.9512195 29 63.9219512"></polygon>
                            <polygon id="Rectangle-Copy" stroke="#2E3031" fill="#E7E7E7" stroke-linejoin="round" transform="translate(219.090909, 36.500000) scale(-1, 1) translate(-219.090909, -36.500000) " points="197.181818 15.8198433 240.618972 -1.43730514e-14 241 73 198.324901 57.7519582"></polygon>
                        </g>
                        <g id="Glass-Door" transform="translate(94.000000, 40.000000)">
                            <polygon id="Rectangle" stroke="#2E3031" fill="#E7E7E7" points="0.999012833 2.94478528 43.9565647 -1.41175415e-14 43.9565647 64 0.999012833 60.2699387"></polygon>
                            <polygon id="Rectangle-Copy-14" stroke="#2E3031" stroke-linejoin="round" points="12.4225074 2.86567164 22.9338598 1.91044776 22.9772952 62.1835087 12.9871668 61.4044912"></polygon>
                            <line x1="1.09533021" y1="15.9099584" x2="43.4787759" y2="13.8507463" id="Line" stroke="#2E3031" stroke-linecap="round"></line>
                            <line x1="2.08722324" y1="26.0572547" x2="11.8989564" y2="26.0572547" id="Line-Copy" stroke="#2E3031" stroke-linecap="square"></line>
                            <line x1="33.0566211" y1="26.0572547" x2="42.8683543" y2="26.0572547" id="Line-Copy-3" stroke="#2E3031" stroke-linecap="square"></line>
                            <line x1="1.99802567" y1="39.0858821" x2="11.988154" y2="39.1328603" id="Line-Copy-2" stroke="#2E3031" stroke-linecap="square"></line>
                            <line x1="1.99802567" y1="50.1570834" x2="11.988154" y2="50.2040617" id="Line-Copy-5" stroke="#2E3031" stroke-linecap="square"></line>
                            <line x1="32.9674235" y1="40.1350624" x2="42.9575518" y2="40.1820406" id="Line-Copy-4" stroke="#2E3031" stroke-linecap="square"></line>
                            <line x1="32.9674235" y1="52.1614876" x2="42.9575518" y2="52.2084659" id="Line-Copy-6" stroke="#2E3031" stroke-linecap="square"></line>
                            <polygon id="Rectangle-Copy-15" stroke="#2E3031" points="22.9772952 1.58980039 32.9674235 1.0022021 32.9674235 63.0917543 22.9772952 62.1124239"></polygon>
                            <polygon id="Rectangle-Copy-16" stroke="#2E3031" points="32.9674235 0.785276074 43.4787759 -2.76031754e-15 43.4787759 64 32.9674235 63.0184049"></polygon>
                            <polygon id="Rectangle" stroke="#2E3031" fill="#2E3031" opacity="0.255689348" points="0 3.00660631 0.999012833 3.00660631 0.999012833 59.8500431 0 60.0381698 0 42.9850746"></polygon>
                            <g id="Door-Handles" transform="translate(19.980257, 30.066063)" fill="#2E3031">
                                <rect id="Rectangle" x="0" y="0" width="1.91115499" height="7.64179104"></rect>
                                <rect id="Rectangle-Copy-17" x="4.99506417" y="0" width="1.91115499" height="7.64179104"></rect>
                            </g>
                        </g>
                        <g id="Window" transform="translate(174.000000, 40.000000)" stroke="#2E3031">
                            <polygon id="Rectangle" fill="#E7E7E7" points="0 2.02266704 42.8174096 -9.69683123e-15 42.8174096 43.9592969 0 41.397252"></polygon>
                            <polygon id="Rectangle" points="1.99150742 2.32439817 11.9490445 1.79000925 11.9490445 42.0027752 1.99150742 41.3347891"></polygon>
                            <polygon id="Rectangle-Copy-14" points="11.9490445 1.36957017 21.9065816 0.957446809 21.9065816 42.1276596 11.9490445 41.5931273"></polygon>
                            <line x1="2.38115018" y1="11.9680851" x2="42.8607032" y2="10.5319149" id="Line" stroke-linecap="square"></line>
                            <line x1="2.38115018" y1="22.5" x2="42.3844732" y2="22.5" id="Line-Copy-7" stroke-linecap="square"></line>
                            <line x1="2.38115018" y1="33.9893617" x2="42.3844732" y2="33.0319149" id="Line-Copy-8" stroke-linecap="square" transform="translate(22.382812, 33.968548) scale(-1, 1) translate(-22.382812, -33.968548) "></line>
                            <polygon id="Rectangle-Copy-16" points="32.8598725 0.539377877 42.8174096 -1.89596279e-15 42.8174096 43.9592969 32.8598725 43.2850746"></polygon>
                            <polygon id="Rectangle" fill="#2E3031" opacity="0.24083746" points="0 2.99722479 0.995753711 2.99722479 0.995753711 41.2812498 0 41.9611471"></polygon>
                            <polygon id="Rectangle" fill="#2E3031" opacity="0.245689029" stroke-linejoin="round" points="0.952460071 42.1276596 42.8607032 44.0425532 42.8607032 45 0 43.0851064"></polygon>
                        </g>
                        <g id="Group-3" transform="translate(98.000000, 45.000000)" stroke="#FFFFFF" stroke-linecap="round">
                            <line x1="32.3278689" y1="14.25" x2="34.8237705" y2="19.5428571" id="Line-2-Copy-14"></line>
                            <line x1="33.2786885" y1="13.3" x2="35.1803279" y2="17.1" id="Line-2-Copy-15"></line>
                            <line x1="11.4098361" y1="1.9" x2="16.1639344" y2="8.55" id="Line-2-Copy-8"></line>
                            <line x1="13.3114754" y1="0.95" x2="16.1639344" y2="5.7" id="Line-2-Copy-9"></line>
                            <line x1="21.8688525" y1="1.9" x2="25.6721311" y2="6.65" id="Line-2-Copy-11"></line>
                            <line x1="32.3278689" y1="1.9" x2="36.1311475" y2="6.65" id="Line-2-Copy-12"></line>
                            <line x1="-1.58943069e-17" y1="38" x2="4.75409836" y2="44.65" id="Line-2-Copy-4"></line>
                            <line x1="32.3278689" y1="38.95" x2="37.0819672" y2="45.6" id="Line-2-Copy-18"></line>
                            <line x1="32.3278689" y1="50.35" x2="37.0819672" y2="57" id="Line-2-Copy-20"></line>
                            <line x1="33.2786885" y1="38.95" x2="36.1311475" y2="43.7" id="Line-2-Copy-19"></line>
                            <line x1="33.2786885" y1="49.4" x2="36.1311475" y2="54.15" id="Line-2-Copy-21"></line>
                            <line x1="0.950819672" y1="38" x2="3.80327869" y2="42.75" id="Line-2-Copy-5"></line>
                            <line x1="91.2786885" y1="0" x2="94.1311475" y2="4.75" id="Line-2-Copy-24"></line>
                            <line x1="101.737705" y1="0" x2="104.590164" y2="4.75" id="Line-2-Copy-26"></line>
                            <line x1="110.295082" y1="0" x2="113.147541" y2="4.75" id="Line-2-Copy-28"></line>
                            <line x1="110.295082" y1="11.4" x2="113.147541" y2="16.15" id="Line-2-Copy-30"></line>
                            <line x1="101.737705" y1="11.4" x2="104.590164" y2="16.15" id="Line-2-Copy-32"></line>
                            <line x1="90.3278689" y1="11.4" x2="93.1803279" y2="16.15" id="Line-2-Copy-34"></line>
                            <line x1="90.3278689" y1="21.85" x2="93.1803279" y2="26.6" id="Line-2-Copy-40"></line>
                            <line x1="101.737705" y1="22.8" x2="104.590164" y2="27.55" id="Line-2-Copy-42"></line>
                            <line x1="101.737705" y1="31.35" x2="104.590164" y2="36.1" id="Line-2-Copy-48"></line>
                            <line x1="90.3278689" y1="31.35" x2="93.1803279" y2="36.1" id="Line-2-Copy-50"></line>
                            <line x1="112.196721" y1="22.8" x2="115.04918" y2="27.55" id="Line-2-Copy-44"></line>
                            <line x1="112.196721" y1="31.35" x2="115.04918" y2="36.1" id="Line-2-Copy-46"></line>
                            <line x1="92.2295082" y1="0" x2="94.1311475" y2="2.85" id="Line-2-Copy-25"></line>
                            <line x1="102.688525" y1="0" x2="104.590164" y2="2.85" id="Line-2-Copy-27"></line>
                            <line x1="111.245902" y1="0" x2="113.147541" y2="2.85" id="Line-2-Copy-29"></line>
                            <line x1="111.245902" y1="11.4" x2="113.147541" y2="14.25" id="Line-2-Copy-31"></line>
                            <line x1="102.688525" y1="11.4" x2="104.590164" y2="14.25" id="Line-2-Copy-33"></line>
                            <line x1="91.2786885" y1="11.4" x2="93.1803279" y2="14.25" id="Line-2-Copy-35"></line>
                            <line x1="92.2295082" y1="22.8" x2="94.1311475" y2="25.65" id="Line-2-Copy-41"></line>
                            <line x1="102.688525" y1="21.85" x2="104.590164" y2="24.7" id="Line-2-Copy-43"></line>
                            <line x1="103.639344" y1="31.35" x2="105.540984" y2="34.2" id="Line-2-Copy-49"></line>
                            <line x1="92.2295082" y1="31.35" x2="94.1311475" y2="34.2" id="Line-2-Copy-51"></line>
                            <line x1="113.147541" y1="22.8" x2="115.04918" y2="25.65" id="Line-2-Copy-45"></line>
                            <line x1="114.098361" y1="33.25" x2="116" y2="36.1" id="Line-2-Copy-47"></line>
                        </g>
                        <g id="Window-detials-" transform="translate(98.000000, 45.000000)" stroke="#FFFFFF" stroke-linecap="round">
                            <line x1="31.5168539" y1="26.4864865" x2="36.2921348" y2="33.1081081" id="Line-2-Copy-16"></line>
                            <line x1="23.8764045" y1="1.89189189" x2="26.741573" y2="4.72972973" id="Line-2-Copy-10"></line>
                            <line x1="34.3820225" y1="1.89189189" x2="37.247191" y2="4.72972973" id="Line-2-Copy-13"></line>
                            <line x1="33.4269663" y1="26.4864865" x2="36.2921348" y2="31.2162162" id="Line-2-Copy-17"></line>
                            <line x1="79.2696629" y1="0" x2="82.1348315" y2="4.72972973" id="Line-2-Copy-22"></line>
                            <line x1="81.1797753" y1="11.3513514" x2="84.0449438" y2="16.0810811" id="Line-2-Copy-36"></line>
                            <line x1="80.2247191" y1="21.7567568" x2="83.0898876" y2="26.4864865" id="Line-2-Copy-38"></line>
                            <line x1="80.2247191" y1="30.2702703" x2="83.0898876" y2="35" id="Line-2-Copy-52"></line>
                            <line x1="81.1797753" y1="0.945945946" x2="83.0898876" y2="3.78378378" id="Line-2-Copy-23"></line>
                            <line x1="83.0898876" y1="11.3513514" x2="85" y2="14.1891892" id="Line-2-Copy-37"></line>
                            <line x1="83.0898876" y1="22.7027027" x2="85" y2="25.5405405" id="Line-2-Copy-39"></line>
                            <line x1="83.0898876" y1="30.2702703" x2="85" y2="33.1081081" id="Line-2-Copy-53"></line>
                            <line x1="-1.27721009e-17" y1="13.9527027" x2="3.82022472" y2="18.9189189" id="Line-2"></line>
                            <line x1="-1.59651262e-17" y1="1.89189189" x2="4.7752809" y2="8.51351351" id="Line-2-Copy-6"></line>
                            <line x1="-1.59651262e-17" y1="25.5405405" x2="4.7752809" y2="32.1621622" id="Line-2-Copy-2"></line>
                            <line x1="1.71910112" y1="13.2432432" x2="4.01123596" y2="16.7905405" id="Line-2-Copy"></line>
                            <line x1="1.91011236" y1="0.945945946" x2="4.7752809" y2="5.67567568" id="Line-2-Copy-7"></line>
                            <line x1="1.91011236" y1="25.5405405" x2="4.7752809" y2="30.2702703" id="Line-2-Copy-3"></line>
                        </g>
                    </g>
                </g>
                <rect id="Rectangle" x="0" y="0" width="360" height="280"></rect>
            </g>
        </g>
    </g>
</svg>