<?xml version="1.0" encoding="UTF-8"?>
<svg width="24px" height="24px" viewBox="0 0 24 24" version="1.1" xmlns="http://www.w3.org/2000/svg" xmlns:xlink="http://www.w3.org/1999/xlink">
    <title>B053CF4F-E713-4C10-9FAA-4636CB946E7B</title>
    <g id="1---Icons/Status/Warning/24px/4-Caution" stroke="none" stroke-width="1" fill="none" fill-rule="evenodd">
        <g id="shape" transform="translate(2, 3)" fill-rule="nonzero">
            <path d="M7.89799896,2.72717 L16.201399,17.1091 L1.32659896,17.1091 C0.556798963,17.1091 0.075698963,16.2758 0.460598963,15.6091 L7.89799896,2.72717 Z" id="Path" fill="#FF9125"></path>
            <path d="M11.939299,1.125 L19.696599,14.625 C20.558599,16.125 19.481199,18 17.757299,18 L2.24269896,18 C0.518798963,18 -0.558601037,16.125 0.303398963,14.625 L8.06069896,1.125 C8.92259896,-0.375 11.077399,-0.375 11.939299,1.125 Z M11.072299,1.62322 C10.618674,0.833808 9.52237871,0.7943374 9.00448669,1.5048082 L8.92769896,1.62322 L1.17039896,15.1232 C0.708494615,15.9271565 1.24505756,16.9102571 2.12118428,16.9942243 L2.24269896,17 L17.757299,17 C18.6629337,17 19.2589549,16.0518541 18.886459,15.2338396 L18.829599,15.1232 L11.072299,1.62322 Z M9.99999896,14 C10.414199,14 10.749999,14.3358 10.749999,14.75 C10.749999,15.1642 10.414199,15.5 9.99999896,15.5 C9.58579896,15.5 9.24999896,15.1642 9.24999896,14.75 C9.24999896,14.3358 9.58579896,14 9.99999896,14 Z M9.99999896,4 C10.2454212,4 10.449599,4.17687704 10.4919419,4.41012499 L10.499999,4.5 L10.499999,11.5 C10.499999,11.7761 10.276099,12 9.99999896,12 C9.75457674,12 9.55039896,11.8230914 9.50805603,11.5898645 L9.49999896,11.5 L9.49999896,4.5 C9.49999896,4.22386 9.72389896,4 9.99999896,4 Z" id="Shape" fill="#000000"></path>
        </g>
    </g>
</svg>